M48
; DRILL file {KiCad 9.0.6} date 2026-01-28T21:09:21+0700
; FORMAT={-:-/ absolute / metric / decimal}
; #@! TF.CreationDate,2026-01-28T21:09:21+07:00
; #@! TF.GenerationSoftware,Kicad,Pcbnew,9.0.6
; #@! TF.FileFunction,Plated,1,2,PTH
FMAT,2
METRIC
; #@! TA.AperFunction,Plated,PTH,ComponentDrill
T1C0.200
; #@! TA.AperFunction,Plated,PTH,ViaDrill
T2C0.600
; #@! TA.AperFunction,Plated,PTH,ComponentDrill
T3C1.000
; #@! TA.AperFunction,Plated,PTH,ComponentDrill
T4C1.100
; #@! TA.AperFunction,Plated,PTH,ComponentDrill
T5C3.000
%
G90
G05
T1
X106.25Y-130.45
X106.25Y-131.85
X106.95Y-129.75
X106.95Y-131.15
X106.95Y-132.55
X107.65Y-130.45
X107.65Y-131.85
X108.35Y-129.75
X108.35Y-131.15
X108.35Y-132.55
X109.05Y-130.45
X109.05Y-131.85
T2
X99.4Y-132.3
X99.4Y-141.1
X99.5Y-128.7
X99.6Y-136.1
X101.4Y-123.6
X105.0Y-144.5
X108.2Y-136.5
T3
X92.7Y-121.88
X92.7Y-124.42
X92.7Y-126.96
X92.7Y-129.5
X92.7Y-132.04
X92.7Y-134.58
X98.28Y-116.9
X100.82Y-116.9
X103.36Y-116.9
X104.74Y-158.6
X105.9Y-116.9
X107.28Y-158.6
X109.82Y-158.6
X112.36Y-158.6
X114.9Y-158.6
X133.4Y-134.46
X133.4Y-137.0
X133.4Y-139.54
T4
X97.3Y-148.0
X97.3Y-152.5
X103.8Y-148.0
X103.8Y-152.5
X116.5Y-148.0
X116.5Y-152.5
X123.0Y-148.0
X123.0Y-152.5
T5
X91.0Y-114.855
X91.0Y-152.955
X129.1Y-114.855
X129.1Y-152.955
T3
G00X121.05Y-127.55
M15
G01X121.05Y-124.95
M16
G05
G00X122.85Y-121.45
M15
G01X125.05Y-121.45
M16
G05
G00X127.35Y-127.35
M15
G01X127.35Y-125.15
M16
G05
M30
