%TF.GenerationSoftware,KiCad,Pcbnew,9.0.6*%
%TF.CreationDate,2026-01-28T21:09:14+07:00*%
%TF.ProjectId,BluetoothCar,426c7565-746f-46f7-9468-4361722e6b69,rev?*%
%TF.SameCoordinates,Original*%
%TF.FileFunction,Legend,Top*%
%TF.FilePolarity,Positive*%
%FSLAX46Y46*%
G04 Gerber Fmt 4.6, Leading zero omitted, Abs format (unit mm)*
G04 Created by KiCad (PCBNEW 9.0.6) date 2026-01-28 21:09:14*
%MOMM*%
%LPD*%
G01*
G04 APERTURE LIST*
%ADD10C,0.150000*%
%ADD11C,0.120000*%
G04 APERTURE END LIST*
D10*
X136469819Y-140939411D02*
X136469819Y-141510839D01*
X136469819Y-141225125D02*
X135469819Y-141225125D01*
X135469819Y-141225125D02*
X135612676Y-141320363D01*
X135612676Y-141320363D02*
X135707914Y-141415601D01*
X135707914Y-141415601D02*
X135755533Y-141510839D01*
X135565057Y-140558458D02*
X135517438Y-140510839D01*
X135517438Y-140510839D02*
X135469819Y-140415601D01*
X135469819Y-140415601D02*
X135469819Y-140177506D01*
X135469819Y-140177506D02*
X135517438Y-140082268D01*
X135517438Y-140082268D02*
X135565057Y-140034649D01*
X135565057Y-140034649D02*
X135660295Y-139987030D01*
X135660295Y-139987030D02*
X135755533Y-139987030D01*
X135755533Y-139987030D02*
X135898390Y-140034649D01*
X135898390Y-140034649D02*
X136469819Y-140606077D01*
X136469819Y-140606077D02*
X136469819Y-139987030D01*
X135469819Y-139701315D02*
X136469819Y-139367982D01*
X136469819Y-139367982D02*
X135469819Y-139034649D01*
X103110588Y-160667438D02*
X103015350Y-160619819D01*
X103015350Y-160619819D02*
X102872493Y-160619819D01*
X102872493Y-160619819D02*
X102729636Y-160667438D01*
X102729636Y-160667438D02*
X102634398Y-160762676D01*
X102634398Y-160762676D02*
X102586779Y-160857914D01*
X102586779Y-160857914D02*
X102539160Y-161048390D01*
X102539160Y-161048390D02*
X102539160Y-161191247D01*
X102539160Y-161191247D02*
X102586779Y-161381723D01*
X102586779Y-161381723D02*
X102634398Y-161476961D01*
X102634398Y-161476961D02*
X102729636Y-161572200D01*
X102729636Y-161572200D02*
X102872493Y-161619819D01*
X102872493Y-161619819D02*
X102967731Y-161619819D01*
X102967731Y-161619819D02*
X103110588Y-161572200D01*
X103110588Y-161572200D02*
X103158207Y-161524580D01*
X103158207Y-161524580D02*
X103158207Y-161191247D01*
X103158207Y-161191247D02*
X102967731Y-161191247D01*
X103586779Y-161619819D02*
X103586779Y-160619819D01*
X103586779Y-160619819D02*
X104158207Y-161619819D01*
X104158207Y-161619819D02*
X104158207Y-160619819D01*
X104634398Y-161619819D02*
X104634398Y-160619819D01*
X104634398Y-160619819D02*
X104872493Y-160619819D01*
X104872493Y-160619819D02*
X105015350Y-160667438D01*
X105015350Y-160667438D02*
X105110588Y-160762676D01*
X105110588Y-160762676D02*
X105158207Y-160857914D01*
X105158207Y-160857914D02*
X105205826Y-161048390D01*
X105205826Y-161048390D02*
X105205826Y-161191247D01*
X105205826Y-161191247D02*
X105158207Y-161381723D01*
X105158207Y-161381723D02*
X105110588Y-161476961D01*
X105110588Y-161476961D02*
X105015350Y-161572200D01*
X105015350Y-161572200D02*
X104872493Y-161619819D01*
X104872493Y-161619819D02*
X104634398Y-161619819D01*
X135517438Y-137739411D02*
X135469819Y-137834649D01*
X135469819Y-137834649D02*
X135469819Y-137977506D01*
X135469819Y-137977506D02*
X135517438Y-138120363D01*
X135517438Y-138120363D02*
X135612676Y-138215601D01*
X135612676Y-138215601D02*
X135707914Y-138263220D01*
X135707914Y-138263220D02*
X135898390Y-138310839D01*
X135898390Y-138310839D02*
X136041247Y-138310839D01*
X136041247Y-138310839D02*
X136231723Y-138263220D01*
X136231723Y-138263220D02*
X136326961Y-138215601D01*
X136326961Y-138215601D02*
X136422200Y-138120363D01*
X136422200Y-138120363D02*
X136469819Y-137977506D01*
X136469819Y-137977506D02*
X136469819Y-137882268D01*
X136469819Y-137882268D02*
X136422200Y-137739411D01*
X136422200Y-137739411D02*
X136374580Y-137691792D01*
X136374580Y-137691792D02*
X136041247Y-137691792D01*
X136041247Y-137691792D02*
X136041247Y-137882268D01*
X136469819Y-137263220D02*
X135469819Y-137263220D01*
X135469819Y-137263220D02*
X136469819Y-136691792D01*
X136469819Y-136691792D02*
X135469819Y-136691792D01*
X136469819Y-136215601D02*
X135469819Y-136215601D01*
X135469819Y-136215601D02*
X135469819Y-135977506D01*
X135469819Y-135977506D02*
X135517438Y-135834649D01*
X135517438Y-135834649D02*
X135612676Y-135739411D01*
X135612676Y-135739411D02*
X135707914Y-135691792D01*
X135707914Y-135691792D02*
X135898390Y-135644173D01*
X135898390Y-135644173D02*
X136041247Y-135644173D01*
X136041247Y-135644173D02*
X136231723Y-135691792D01*
X136231723Y-135691792D02*
X136326961Y-135739411D01*
X136326961Y-135739411D02*
X136422200Y-135834649D01*
X136422200Y-135834649D02*
X136469819Y-135977506D01*
X136469819Y-135977506D02*
X136469819Y-136215601D01*
X106193922Y-160619819D02*
X106765350Y-160619819D01*
X106479636Y-161619819D02*
X106479636Y-160619819D01*
X107003446Y-160619819D02*
X107670112Y-161619819D01*
X107670112Y-160619819D02*
X107003446Y-161619819D01*
X117670112Y-157736065D02*
X117812969Y-157783684D01*
X117812969Y-157783684D02*
X117860588Y-157831303D01*
X117860588Y-157831303D02*
X117908207Y-157926541D01*
X117908207Y-157926541D02*
X117908207Y-158069398D01*
X117908207Y-158069398D02*
X117860588Y-158164636D01*
X117860588Y-158164636D02*
X117812969Y-158212256D01*
X117812969Y-158212256D02*
X117717731Y-158259875D01*
X117717731Y-158259875D02*
X117336779Y-158259875D01*
X117336779Y-158259875D02*
X117336779Y-157259875D01*
X117336779Y-157259875D02*
X117670112Y-157259875D01*
X117670112Y-157259875D02*
X117765350Y-157307494D01*
X117765350Y-157307494D02*
X117812969Y-157355113D01*
X117812969Y-157355113D02*
X117860588Y-157450351D01*
X117860588Y-157450351D02*
X117860588Y-157545589D01*
X117860588Y-157545589D02*
X117812969Y-157640827D01*
X117812969Y-157640827D02*
X117765350Y-157688446D01*
X117765350Y-157688446D02*
X117670112Y-157736065D01*
X117670112Y-157736065D02*
X117336779Y-157736065D01*
X118479636Y-158259875D02*
X118384398Y-158212256D01*
X118384398Y-158212256D02*
X118336779Y-158117017D01*
X118336779Y-158117017D02*
X118336779Y-157259875D01*
X119289160Y-157593208D02*
X119289160Y-158259875D01*
X118860589Y-157593208D02*
X118860589Y-158117017D01*
X118860589Y-158117017D02*
X118908208Y-158212256D01*
X118908208Y-158212256D02*
X119003446Y-158259875D01*
X119003446Y-158259875D02*
X119146303Y-158259875D01*
X119146303Y-158259875D02*
X119241541Y-158212256D01*
X119241541Y-158212256D02*
X119289160Y-158164636D01*
X120146303Y-158212256D02*
X120051065Y-158259875D01*
X120051065Y-158259875D02*
X119860589Y-158259875D01*
X119860589Y-158259875D02*
X119765351Y-158212256D01*
X119765351Y-158212256D02*
X119717732Y-158117017D01*
X119717732Y-158117017D02*
X119717732Y-157736065D01*
X119717732Y-157736065D02*
X119765351Y-157640827D01*
X119765351Y-157640827D02*
X119860589Y-157593208D01*
X119860589Y-157593208D02*
X120051065Y-157593208D01*
X120051065Y-157593208D02*
X120146303Y-157640827D01*
X120146303Y-157640827D02*
X120193922Y-157736065D01*
X120193922Y-157736065D02*
X120193922Y-157831303D01*
X120193922Y-157831303D02*
X119717732Y-157926541D01*
X120479637Y-157593208D02*
X120860589Y-157593208D01*
X120622494Y-157259875D02*
X120622494Y-158117017D01*
X120622494Y-158117017D02*
X120670113Y-158212256D01*
X120670113Y-158212256D02*
X120765351Y-158259875D01*
X120765351Y-158259875D02*
X120860589Y-158259875D01*
X121336780Y-158259875D02*
X121241542Y-158212256D01*
X121241542Y-158212256D02*
X121193923Y-158164636D01*
X121193923Y-158164636D02*
X121146304Y-158069398D01*
X121146304Y-158069398D02*
X121146304Y-157783684D01*
X121146304Y-157783684D02*
X121193923Y-157688446D01*
X121193923Y-157688446D02*
X121241542Y-157640827D01*
X121241542Y-157640827D02*
X121336780Y-157593208D01*
X121336780Y-157593208D02*
X121479637Y-157593208D01*
X121479637Y-157593208D02*
X121574875Y-157640827D01*
X121574875Y-157640827D02*
X121622494Y-157688446D01*
X121622494Y-157688446D02*
X121670113Y-157783684D01*
X121670113Y-157783684D02*
X121670113Y-158069398D01*
X121670113Y-158069398D02*
X121622494Y-158164636D01*
X121622494Y-158164636D02*
X121574875Y-158212256D01*
X121574875Y-158212256D02*
X121479637Y-158259875D01*
X121479637Y-158259875D02*
X121336780Y-158259875D01*
X122241542Y-158259875D02*
X122146304Y-158212256D01*
X122146304Y-158212256D02*
X122098685Y-158164636D01*
X122098685Y-158164636D02*
X122051066Y-158069398D01*
X122051066Y-158069398D02*
X122051066Y-157783684D01*
X122051066Y-157783684D02*
X122098685Y-157688446D01*
X122098685Y-157688446D02*
X122146304Y-157640827D01*
X122146304Y-157640827D02*
X122241542Y-157593208D01*
X122241542Y-157593208D02*
X122384399Y-157593208D01*
X122384399Y-157593208D02*
X122479637Y-157640827D01*
X122479637Y-157640827D02*
X122527256Y-157688446D01*
X122527256Y-157688446D02*
X122574875Y-157783684D01*
X122574875Y-157783684D02*
X122574875Y-158069398D01*
X122574875Y-158069398D02*
X122527256Y-158164636D01*
X122527256Y-158164636D02*
X122479637Y-158212256D01*
X122479637Y-158212256D02*
X122384399Y-158259875D01*
X122384399Y-158259875D02*
X122241542Y-158259875D01*
X122860590Y-157593208D02*
X123241542Y-157593208D01*
X123003447Y-157259875D02*
X123003447Y-158117017D01*
X123003447Y-158117017D02*
X123051066Y-158212256D01*
X123051066Y-158212256D02*
X123146304Y-158259875D01*
X123146304Y-158259875D02*
X123241542Y-158259875D01*
X123574876Y-158259875D02*
X123574876Y-157259875D01*
X124003447Y-158259875D02*
X124003447Y-157736065D01*
X124003447Y-157736065D02*
X123955828Y-157640827D01*
X123955828Y-157640827D02*
X123860590Y-157593208D01*
X123860590Y-157593208D02*
X123717733Y-157593208D01*
X123717733Y-157593208D02*
X123622495Y-157640827D01*
X123622495Y-157640827D02*
X123574876Y-157688446D01*
X125051066Y-158164636D02*
X125003447Y-158212256D01*
X125003447Y-158212256D02*
X124860590Y-158259875D01*
X124860590Y-158259875D02*
X124765352Y-158259875D01*
X124765352Y-158259875D02*
X124622495Y-158212256D01*
X124622495Y-158212256D02*
X124527257Y-158117017D01*
X124527257Y-158117017D02*
X124479638Y-158021779D01*
X124479638Y-158021779D02*
X124432019Y-157831303D01*
X124432019Y-157831303D02*
X124432019Y-157688446D01*
X124432019Y-157688446D02*
X124479638Y-157497970D01*
X124479638Y-157497970D02*
X124527257Y-157402732D01*
X124527257Y-157402732D02*
X124622495Y-157307494D01*
X124622495Y-157307494D02*
X124765352Y-157259875D01*
X124765352Y-157259875D02*
X124860590Y-157259875D01*
X124860590Y-157259875D02*
X125003447Y-157307494D01*
X125003447Y-157307494D02*
X125051066Y-157355113D01*
X125908209Y-158259875D02*
X125908209Y-157736065D01*
X125908209Y-157736065D02*
X125860590Y-157640827D01*
X125860590Y-157640827D02*
X125765352Y-157593208D01*
X125765352Y-157593208D02*
X125574876Y-157593208D01*
X125574876Y-157593208D02*
X125479638Y-157640827D01*
X125908209Y-158212256D02*
X125812971Y-158259875D01*
X125812971Y-158259875D02*
X125574876Y-158259875D01*
X125574876Y-158259875D02*
X125479638Y-158212256D01*
X125479638Y-158212256D02*
X125432019Y-158117017D01*
X125432019Y-158117017D02*
X125432019Y-158021779D01*
X125432019Y-158021779D02*
X125479638Y-157926541D01*
X125479638Y-157926541D02*
X125574876Y-157878922D01*
X125574876Y-157878922D02*
X125812971Y-157878922D01*
X125812971Y-157878922D02*
X125908209Y-157831303D01*
X126384400Y-158259875D02*
X126384400Y-157593208D01*
X126384400Y-157783684D02*
X126432019Y-157688446D01*
X126432019Y-157688446D02*
X126479638Y-157640827D01*
X126479638Y-157640827D02*
X126574876Y-157593208D01*
X126574876Y-157593208D02*
X126670114Y-157593208D01*
X127622496Y-157259875D02*
X127955829Y-158259875D01*
X127955829Y-158259875D02*
X128289162Y-157259875D01*
X129146305Y-158259875D02*
X128574877Y-158259875D01*
X128860591Y-158259875D02*
X128860591Y-157259875D01*
X128860591Y-157259875D02*
X128765353Y-157402732D01*
X128765353Y-157402732D02*
X128670115Y-157497970D01*
X128670115Y-157497970D02*
X128574877Y-157545589D01*
X129574877Y-158164636D02*
X129622496Y-158212256D01*
X129622496Y-158212256D02*
X129574877Y-158259875D01*
X129574877Y-158259875D02*
X129527258Y-158212256D01*
X129527258Y-158212256D02*
X129574877Y-158164636D01*
X129574877Y-158164636D02*
X129574877Y-158259875D01*
X130241543Y-157259875D02*
X130336781Y-157259875D01*
X130336781Y-157259875D02*
X130432019Y-157307494D01*
X130432019Y-157307494D02*
X130479638Y-157355113D01*
X130479638Y-157355113D02*
X130527257Y-157450351D01*
X130527257Y-157450351D02*
X130574876Y-157640827D01*
X130574876Y-157640827D02*
X130574876Y-157878922D01*
X130574876Y-157878922D02*
X130527257Y-158069398D01*
X130527257Y-158069398D02*
X130479638Y-158164636D01*
X130479638Y-158164636D02*
X130432019Y-158212256D01*
X130432019Y-158212256D02*
X130336781Y-158259875D01*
X130336781Y-158259875D02*
X130241543Y-158259875D01*
X130241543Y-158259875D02*
X130146305Y-158212256D01*
X130146305Y-158212256D02*
X130098686Y-158164636D01*
X130098686Y-158164636D02*
X130051067Y-158069398D01*
X130051067Y-158069398D02*
X130003448Y-157878922D01*
X130003448Y-157878922D02*
X130003448Y-157640827D01*
X130003448Y-157640827D02*
X130051067Y-157450351D01*
X130051067Y-157450351D02*
X130098686Y-157355113D01*
X130098686Y-157355113D02*
X130146305Y-157307494D01*
X130146305Y-157307494D02*
X130241543Y-157259875D01*
X117336779Y-159869819D02*
X117336779Y-158869819D01*
X117336779Y-158869819D02*
X117574874Y-158869819D01*
X117574874Y-158869819D02*
X117717731Y-158917438D01*
X117717731Y-158917438D02*
X117812969Y-159012676D01*
X117812969Y-159012676D02*
X117860588Y-159107914D01*
X117860588Y-159107914D02*
X117908207Y-159298390D01*
X117908207Y-159298390D02*
X117908207Y-159441247D01*
X117908207Y-159441247D02*
X117860588Y-159631723D01*
X117860588Y-159631723D02*
X117812969Y-159726961D01*
X117812969Y-159726961D02*
X117717731Y-159822200D01*
X117717731Y-159822200D02*
X117574874Y-159869819D01*
X117574874Y-159869819D02*
X117336779Y-159869819D01*
X118717731Y-159822200D02*
X118622493Y-159869819D01*
X118622493Y-159869819D02*
X118432017Y-159869819D01*
X118432017Y-159869819D02*
X118336779Y-159822200D01*
X118336779Y-159822200D02*
X118289160Y-159726961D01*
X118289160Y-159726961D02*
X118289160Y-159346009D01*
X118289160Y-159346009D02*
X118336779Y-159250771D01*
X118336779Y-159250771D02*
X118432017Y-159203152D01*
X118432017Y-159203152D02*
X118622493Y-159203152D01*
X118622493Y-159203152D02*
X118717731Y-159250771D01*
X118717731Y-159250771D02*
X118765350Y-159346009D01*
X118765350Y-159346009D02*
X118765350Y-159441247D01*
X118765350Y-159441247D02*
X118289160Y-159536485D01*
X119146303Y-159822200D02*
X119241541Y-159869819D01*
X119241541Y-159869819D02*
X119432017Y-159869819D01*
X119432017Y-159869819D02*
X119527255Y-159822200D01*
X119527255Y-159822200D02*
X119574874Y-159726961D01*
X119574874Y-159726961D02*
X119574874Y-159679342D01*
X119574874Y-159679342D02*
X119527255Y-159584104D01*
X119527255Y-159584104D02*
X119432017Y-159536485D01*
X119432017Y-159536485D02*
X119289160Y-159536485D01*
X119289160Y-159536485D02*
X119193922Y-159488866D01*
X119193922Y-159488866D02*
X119146303Y-159393628D01*
X119146303Y-159393628D02*
X119146303Y-159346009D01*
X119146303Y-159346009D02*
X119193922Y-159250771D01*
X119193922Y-159250771D02*
X119289160Y-159203152D01*
X119289160Y-159203152D02*
X119432017Y-159203152D01*
X119432017Y-159203152D02*
X119527255Y-159250771D01*
X120003446Y-159869819D02*
X120003446Y-159203152D01*
X120003446Y-158869819D02*
X119955827Y-158917438D01*
X119955827Y-158917438D02*
X120003446Y-158965057D01*
X120003446Y-158965057D02*
X120051065Y-158917438D01*
X120051065Y-158917438D02*
X120003446Y-158869819D01*
X120003446Y-158869819D02*
X120003446Y-158965057D01*
X120908207Y-159203152D02*
X120908207Y-160012676D01*
X120908207Y-160012676D02*
X120860588Y-160107914D01*
X120860588Y-160107914D02*
X120812969Y-160155533D01*
X120812969Y-160155533D02*
X120717731Y-160203152D01*
X120717731Y-160203152D02*
X120574874Y-160203152D01*
X120574874Y-160203152D02*
X120479636Y-160155533D01*
X120908207Y-159822200D02*
X120812969Y-159869819D01*
X120812969Y-159869819D02*
X120622493Y-159869819D01*
X120622493Y-159869819D02*
X120527255Y-159822200D01*
X120527255Y-159822200D02*
X120479636Y-159774580D01*
X120479636Y-159774580D02*
X120432017Y-159679342D01*
X120432017Y-159679342D02*
X120432017Y-159393628D01*
X120432017Y-159393628D02*
X120479636Y-159298390D01*
X120479636Y-159298390D02*
X120527255Y-159250771D01*
X120527255Y-159250771D02*
X120622493Y-159203152D01*
X120622493Y-159203152D02*
X120812969Y-159203152D01*
X120812969Y-159203152D02*
X120908207Y-159250771D01*
X121384398Y-159203152D02*
X121384398Y-159869819D01*
X121384398Y-159298390D02*
X121432017Y-159250771D01*
X121432017Y-159250771D02*
X121527255Y-159203152D01*
X121527255Y-159203152D02*
X121670112Y-159203152D01*
X121670112Y-159203152D02*
X121765350Y-159250771D01*
X121765350Y-159250771D02*
X121812969Y-159346009D01*
X121812969Y-159346009D02*
X121812969Y-159869819D01*
X122670112Y-159822200D02*
X122574874Y-159869819D01*
X122574874Y-159869819D02*
X122384398Y-159869819D01*
X122384398Y-159869819D02*
X122289160Y-159822200D01*
X122289160Y-159822200D02*
X122241541Y-159726961D01*
X122241541Y-159726961D02*
X122241541Y-159346009D01*
X122241541Y-159346009D02*
X122289160Y-159250771D01*
X122289160Y-159250771D02*
X122384398Y-159203152D01*
X122384398Y-159203152D02*
X122574874Y-159203152D01*
X122574874Y-159203152D02*
X122670112Y-159250771D01*
X122670112Y-159250771D02*
X122717731Y-159346009D01*
X122717731Y-159346009D02*
X122717731Y-159441247D01*
X122717731Y-159441247D02*
X122241541Y-159536485D01*
X123574874Y-159869819D02*
X123574874Y-158869819D01*
X123574874Y-159822200D02*
X123479636Y-159869819D01*
X123479636Y-159869819D02*
X123289160Y-159869819D01*
X123289160Y-159869819D02*
X123193922Y-159822200D01*
X123193922Y-159822200D02*
X123146303Y-159774580D01*
X123146303Y-159774580D02*
X123098684Y-159679342D01*
X123098684Y-159679342D02*
X123098684Y-159393628D01*
X123098684Y-159393628D02*
X123146303Y-159298390D01*
X123146303Y-159298390D02*
X123193922Y-159250771D01*
X123193922Y-159250771D02*
X123289160Y-159203152D01*
X123289160Y-159203152D02*
X123479636Y-159203152D01*
X123479636Y-159203152D02*
X123574874Y-159250771D01*
X124812970Y-159869819D02*
X124812970Y-158869819D01*
X124812970Y-159250771D02*
X124908208Y-159203152D01*
X124908208Y-159203152D02*
X125098684Y-159203152D01*
X125098684Y-159203152D02*
X125193922Y-159250771D01*
X125193922Y-159250771D02*
X125241541Y-159298390D01*
X125241541Y-159298390D02*
X125289160Y-159393628D01*
X125289160Y-159393628D02*
X125289160Y-159679342D01*
X125289160Y-159679342D02*
X125241541Y-159774580D01*
X125241541Y-159774580D02*
X125193922Y-159822200D01*
X125193922Y-159822200D02*
X125098684Y-159869819D01*
X125098684Y-159869819D02*
X124908208Y-159869819D01*
X124908208Y-159869819D02*
X124812970Y-159822200D01*
X125622494Y-159203152D02*
X125860589Y-159869819D01*
X126098684Y-159203152D02*
X125860589Y-159869819D01*
X125860589Y-159869819D02*
X125765351Y-160107914D01*
X125765351Y-160107914D02*
X125717732Y-160155533D01*
X125717732Y-160155533D02*
X125622494Y-160203152D01*
X127812970Y-159774580D02*
X127765351Y-159822200D01*
X127765351Y-159822200D02*
X127622494Y-159869819D01*
X127622494Y-159869819D02*
X127527256Y-159869819D01*
X127527256Y-159869819D02*
X127384399Y-159822200D01*
X127384399Y-159822200D02*
X127289161Y-159726961D01*
X127289161Y-159726961D02*
X127241542Y-159631723D01*
X127241542Y-159631723D02*
X127193923Y-159441247D01*
X127193923Y-159441247D02*
X127193923Y-159298390D01*
X127193923Y-159298390D02*
X127241542Y-159107914D01*
X127241542Y-159107914D02*
X127289161Y-159012676D01*
X127289161Y-159012676D02*
X127384399Y-158917438D01*
X127384399Y-158917438D02*
X127527256Y-158869819D01*
X127527256Y-158869819D02*
X127622494Y-158869819D01*
X127622494Y-158869819D02*
X127765351Y-158917438D01*
X127765351Y-158917438D02*
X127812970Y-158965057D01*
X128241542Y-159869819D02*
X128241542Y-159203152D01*
X128241542Y-158869819D02*
X128193923Y-158917438D01*
X128193923Y-158917438D02*
X128241542Y-158965057D01*
X128241542Y-158965057D02*
X128289161Y-158917438D01*
X128289161Y-158917438D02*
X128241542Y-158869819D01*
X128241542Y-158869819D02*
X128241542Y-158965057D01*
X128717732Y-159869819D02*
X128717732Y-159203152D01*
X128717732Y-159393628D02*
X128765351Y-159298390D01*
X128765351Y-159298390D02*
X128812970Y-159250771D01*
X128812970Y-159250771D02*
X128908208Y-159203152D01*
X128908208Y-159203152D02*
X129003446Y-159203152D01*
X129765351Y-159822200D02*
X129670113Y-159869819D01*
X129670113Y-159869819D02*
X129479637Y-159869819D01*
X129479637Y-159869819D02*
X129384399Y-159822200D01*
X129384399Y-159822200D02*
X129336780Y-159774580D01*
X129336780Y-159774580D02*
X129289161Y-159679342D01*
X129289161Y-159679342D02*
X129289161Y-159393628D01*
X129289161Y-159393628D02*
X129336780Y-159298390D01*
X129336780Y-159298390D02*
X129384399Y-159250771D01*
X129384399Y-159250771D02*
X129479637Y-159203152D01*
X129479637Y-159203152D02*
X129670113Y-159203152D01*
X129670113Y-159203152D02*
X129765351Y-159250771D01*
X130622494Y-159203152D02*
X130622494Y-159869819D01*
X130193923Y-159203152D02*
X130193923Y-159726961D01*
X130193923Y-159726961D02*
X130241542Y-159822200D01*
X130241542Y-159822200D02*
X130336780Y-159869819D01*
X130336780Y-159869819D02*
X130479637Y-159869819D01*
X130479637Y-159869819D02*
X130574875Y-159822200D01*
X130574875Y-159822200D02*
X130622494Y-159774580D01*
X131098685Y-159869819D02*
X131098685Y-159203152D01*
X131098685Y-158869819D02*
X131051066Y-158917438D01*
X131051066Y-158917438D02*
X131098685Y-158965057D01*
X131098685Y-158965057D02*
X131146304Y-158917438D01*
X131146304Y-158917438D02*
X131098685Y-158869819D01*
X131098685Y-158869819D02*
X131098685Y-158965057D01*
X131432018Y-159203152D02*
X131812970Y-159203152D01*
X131574875Y-158869819D02*
X131574875Y-159726961D01*
X131574875Y-159726961D02*
X131622494Y-159822200D01*
X131622494Y-159822200D02*
X131717732Y-159869819D01*
X131717732Y-159869819D02*
X131812970Y-159869819D01*
X132717732Y-159869819D02*
X132384399Y-159393628D01*
X132146304Y-159869819D02*
X132146304Y-158869819D01*
X132146304Y-158869819D02*
X132527256Y-158869819D01*
X132527256Y-158869819D02*
X132622494Y-158917438D01*
X132622494Y-158917438D02*
X132670113Y-158965057D01*
X132670113Y-158965057D02*
X132717732Y-159060295D01*
X132717732Y-159060295D02*
X132717732Y-159203152D01*
X132717732Y-159203152D02*
X132670113Y-159298390D01*
X132670113Y-159298390D02*
X132622494Y-159346009D01*
X132622494Y-159346009D02*
X132527256Y-159393628D01*
X132527256Y-159393628D02*
X132146304Y-159393628D01*
X133146304Y-159869819D02*
X133146304Y-159203152D01*
X133146304Y-158869819D02*
X133098685Y-158917438D01*
X133098685Y-158917438D02*
X133146304Y-158965057D01*
X133146304Y-158965057D02*
X133193923Y-158917438D01*
X133193923Y-158917438D02*
X133146304Y-158869819D01*
X133146304Y-158869819D02*
X133146304Y-158965057D01*
X134051065Y-159869819D02*
X134051065Y-158869819D01*
X134051065Y-159822200D02*
X133955827Y-159869819D01*
X133955827Y-159869819D02*
X133765351Y-159869819D01*
X133765351Y-159869819D02*
X133670113Y-159822200D01*
X133670113Y-159822200D02*
X133622494Y-159774580D01*
X133622494Y-159774580D02*
X133574875Y-159679342D01*
X133574875Y-159679342D02*
X133574875Y-159393628D01*
X133574875Y-159393628D02*
X133622494Y-159298390D01*
X133622494Y-159298390D02*
X133670113Y-159250771D01*
X133670113Y-159250771D02*
X133765351Y-159203152D01*
X133765351Y-159203152D02*
X133955827Y-159203152D01*
X133955827Y-159203152D02*
X134051065Y-159250771D01*
X134908208Y-159822200D02*
X134812970Y-159869819D01*
X134812970Y-159869819D02*
X134622494Y-159869819D01*
X134622494Y-159869819D02*
X134527256Y-159822200D01*
X134527256Y-159822200D02*
X134479637Y-159726961D01*
X134479637Y-159726961D02*
X134479637Y-159346009D01*
X134479637Y-159346009D02*
X134527256Y-159250771D01*
X134527256Y-159250771D02*
X134622494Y-159203152D01*
X134622494Y-159203152D02*
X134812970Y-159203152D01*
X134812970Y-159203152D02*
X134908208Y-159250771D01*
X134908208Y-159250771D02*
X134955827Y-159346009D01*
X134955827Y-159346009D02*
X134955827Y-159441247D01*
X134955827Y-159441247D02*
X134479637Y-159536485D01*
X135384399Y-159869819D02*
X135384399Y-159203152D01*
X135384399Y-159393628D02*
X135432018Y-159298390D01*
X135432018Y-159298390D02*
X135479637Y-159250771D01*
X135479637Y-159250771D02*
X135574875Y-159203152D01*
X135574875Y-159203152D02*
X135670113Y-159203152D01*
X89346009Y-122143220D02*
X89346009Y-121809887D01*
X89869819Y-121667030D02*
X89869819Y-122143220D01*
X89869819Y-122143220D02*
X88869819Y-122143220D01*
X88869819Y-122143220D02*
X88869819Y-121667030D01*
X89869819Y-121238458D02*
X88869819Y-121238458D01*
X88869819Y-121238458D02*
X89869819Y-120667030D01*
X89869819Y-120667030D02*
X88869819Y-120667030D01*
X89584104Y-120238458D02*
X89584104Y-119762268D01*
X89869819Y-120333696D02*
X88869819Y-120000363D01*
X88869819Y-120000363D02*
X89869819Y-119667030D01*
X135469819Y-134187030D02*
X135469819Y-134663220D01*
X135469819Y-134663220D02*
X135946009Y-134710839D01*
X135946009Y-134710839D02*
X135898390Y-134663220D01*
X135898390Y-134663220D02*
X135850771Y-134567982D01*
X135850771Y-134567982D02*
X135850771Y-134329887D01*
X135850771Y-134329887D02*
X135898390Y-134234649D01*
X135898390Y-134234649D02*
X135946009Y-134187030D01*
X135946009Y-134187030D02*
X136041247Y-134139411D01*
X136041247Y-134139411D02*
X136279342Y-134139411D01*
X136279342Y-134139411D02*
X136374580Y-134187030D01*
X136374580Y-134187030D02*
X136422200Y-134234649D01*
X136422200Y-134234649D02*
X136469819Y-134329887D01*
X136469819Y-134329887D02*
X136469819Y-134567982D01*
X136469819Y-134567982D02*
X136422200Y-134663220D01*
X136422200Y-134663220D02*
X136374580Y-134710839D01*
X135469819Y-133853696D02*
X136469819Y-133520363D01*
X136469819Y-133520363D02*
X135469819Y-133187030D01*
X89246009Y-132109887D02*
X89293628Y-131967030D01*
X89293628Y-131967030D02*
X89341247Y-131919411D01*
X89341247Y-131919411D02*
X89436485Y-131871792D01*
X89436485Y-131871792D02*
X89579342Y-131871792D01*
X89579342Y-131871792D02*
X89674580Y-131919411D01*
X89674580Y-131919411D02*
X89722200Y-131967030D01*
X89722200Y-131967030D02*
X89769819Y-132062268D01*
X89769819Y-132062268D02*
X89769819Y-132443220D01*
X89769819Y-132443220D02*
X88769819Y-132443220D01*
X88769819Y-132443220D02*
X88769819Y-132109887D01*
X88769819Y-132109887D02*
X88817438Y-132014649D01*
X88817438Y-132014649D02*
X88865057Y-131967030D01*
X88865057Y-131967030D02*
X88960295Y-131919411D01*
X88960295Y-131919411D02*
X89055533Y-131919411D01*
X89055533Y-131919411D02*
X89150771Y-131967030D01*
X89150771Y-131967030D02*
X89198390Y-132014649D01*
X89198390Y-132014649D02*
X89246009Y-132109887D01*
X89246009Y-132109887D02*
X89246009Y-132443220D01*
X88865057Y-131490839D02*
X88817438Y-131443220D01*
X88817438Y-131443220D02*
X88769819Y-131347982D01*
X88769819Y-131347982D02*
X88769819Y-131109887D01*
X88769819Y-131109887D02*
X88817438Y-131014649D01*
X88817438Y-131014649D02*
X88865057Y-130967030D01*
X88865057Y-130967030D02*
X88960295Y-130919411D01*
X88960295Y-130919411D02*
X89055533Y-130919411D01*
X89055533Y-130919411D02*
X89198390Y-130967030D01*
X89198390Y-130967030D02*
X89769819Y-131538458D01*
X89769819Y-131538458D02*
X89769819Y-130919411D01*
X101350180Y-113712969D02*
X101350180Y-113236779D01*
X101350180Y-113236779D02*
X100873990Y-113189160D01*
X100873990Y-113189160D02*
X100921609Y-113236779D01*
X100921609Y-113236779D02*
X100969228Y-113332017D01*
X100969228Y-113332017D02*
X100969228Y-113570112D01*
X100969228Y-113570112D02*
X100921609Y-113665350D01*
X100921609Y-113665350D02*
X100873990Y-113712969D01*
X100873990Y-113712969D02*
X100778752Y-113760588D01*
X100778752Y-113760588D02*
X100540657Y-113760588D01*
X100540657Y-113760588D02*
X100445419Y-113712969D01*
X100445419Y-113712969D02*
X100397800Y-113665350D01*
X100397800Y-113665350D02*
X100350180Y-113570112D01*
X100350180Y-113570112D02*
X100350180Y-113332017D01*
X100350180Y-113332017D02*
X100397800Y-113236779D01*
X100397800Y-113236779D02*
X100445419Y-113189160D01*
X101350180Y-114046303D02*
X100350180Y-114379636D01*
X100350180Y-114379636D02*
X101350180Y-114712969D01*
X89346009Y-129609887D02*
X89393628Y-129467030D01*
X89393628Y-129467030D02*
X89441247Y-129419411D01*
X89441247Y-129419411D02*
X89536485Y-129371792D01*
X89536485Y-129371792D02*
X89679342Y-129371792D01*
X89679342Y-129371792D02*
X89774580Y-129419411D01*
X89774580Y-129419411D02*
X89822200Y-129467030D01*
X89822200Y-129467030D02*
X89869819Y-129562268D01*
X89869819Y-129562268D02*
X89869819Y-129943220D01*
X89869819Y-129943220D02*
X88869819Y-129943220D01*
X88869819Y-129943220D02*
X88869819Y-129609887D01*
X88869819Y-129609887D02*
X88917438Y-129514649D01*
X88917438Y-129514649D02*
X88965057Y-129467030D01*
X88965057Y-129467030D02*
X89060295Y-129419411D01*
X89060295Y-129419411D02*
X89155533Y-129419411D01*
X89155533Y-129419411D02*
X89250771Y-129467030D01*
X89250771Y-129467030D02*
X89298390Y-129514649D01*
X89298390Y-129514649D02*
X89346009Y-129609887D01*
X89346009Y-129609887D02*
X89346009Y-129943220D01*
X89869819Y-128419411D02*
X89869819Y-128990839D01*
X89869819Y-128705125D02*
X88869819Y-128705125D01*
X88869819Y-128705125D02*
X89012676Y-128800363D01*
X89012676Y-128800363D02*
X89107914Y-128895601D01*
X89107914Y-128895601D02*
X89155533Y-128990839D01*
X89584104Y-127390839D02*
X89584104Y-126914649D01*
X89869819Y-127486077D02*
X88869819Y-127152744D01*
X88869819Y-127152744D02*
X89869819Y-126819411D01*
X88965057Y-126533696D02*
X88917438Y-126486077D01*
X88917438Y-126486077D02*
X88869819Y-126390839D01*
X88869819Y-126390839D02*
X88869819Y-126152744D01*
X88869819Y-126152744D02*
X88917438Y-126057506D01*
X88917438Y-126057506D02*
X88965057Y-126009887D01*
X88965057Y-126009887D02*
X89060295Y-125962268D01*
X89060295Y-125962268D02*
X89155533Y-125962268D01*
X89155533Y-125962268D02*
X89298390Y-126009887D01*
X89298390Y-126009887D02*
X89869819Y-126581315D01*
X89869819Y-126581315D02*
X89869819Y-125962268D01*
X89584104Y-124590839D02*
X89584104Y-124114649D01*
X89869819Y-124686077D02*
X88869819Y-124352744D01*
X88869819Y-124352744D02*
X89869819Y-124019411D01*
X89869819Y-123162268D02*
X89869819Y-123733696D01*
X89869819Y-123447982D02*
X88869819Y-123447982D01*
X88869819Y-123447982D02*
X89012676Y-123543220D01*
X89012676Y-123543220D02*
X89107914Y-123638458D01*
X89107914Y-123638458D02*
X89155533Y-123733696D01*
X98702561Y-112760588D02*
X98750180Y-112665350D01*
X98750180Y-112665350D02*
X98750180Y-112522493D01*
X98750180Y-112522493D02*
X98702561Y-112379636D01*
X98702561Y-112379636D02*
X98607323Y-112284398D01*
X98607323Y-112284398D02*
X98512085Y-112236779D01*
X98512085Y-112236779D02*
X98321609Y-112189160D01*
X98321609Y-112189160D02*
X98178752Y-112189160D01*
X98178752Y-112189160D02*
X97988276Y-112236779D01*
X97988276Y-112236779D02*
X97893038Y-112284398D01*
X97893038Y-112284398D02*
X97797800Y-112379636D01*
X97797800Y-112379636D02*
X97750180Y-112522493D01*
X97750180Y-112522493D02*
X97750180Y-112617731D01*
X97750180Y-112617731D02*
X97797800Y-112760588D01*
X97797800Y-112760588D02*
X97845419Y-112808207D01*
X97845419Y-112808207D02*
X98178752Y-112808207D01*
X98178752Y-112808207D02*
X98178752Y-112617731D01*
X97750180Y-113236779D02*
X98750180Y-113236779D01*
X98750180Y-113236779D02*
X97750180Y-113808207D01*
X97750180Y-113808207D02*
X98750180Y-113808207D01*
X97750180Y-114284398D02*
X98750180Y-114284398D01*
X98750180Y-114284398D02*
X98750180Y-114522493D01*
X98750180Y-114522493D02*
X98702561Y-114665350D01*
X98702561Y-114665350D02*
X98607323Y-114760588D01*
X98607323Y-114760588D02*
X98512085Y-114808207D01*
X98512085Y-114808207D02*
X98321609Y-114855826D01*
X98321609Y-114855826D02*
X98178752Y-114855826D01*
X98178752Y-114855826D02*
X97988276Y-114808207D01*
X97988276Y-114808207D02*
X97893038Y-114760588D01*
X97893038Y-114760588D02*
X97797800Y-114665350D01*
X97797800Y-114665350D02*
X97750180Y-114522493D01*
X97750180Y-114522493D02*
X97750180Y-114284398D01*
X109408207Y-161619819D02*
X109074874Y-161143628D01*
X108836779Y-161619819D02*
X108836779Y-160619819D01*
X108836779Y-160619819D02*
X109217731Y-160619819D01*
X109217731Y-160619819D02*
X109312969Y-160667438D01*
X109312969Y-160667438D02*
X109360588Y-160715057D01*
X109360588Y-160715057D02*
X109408207Y-160810295D01*
X109408207Y-160810295D02*
X109408207Y-160953152D01*
X109408207Y-160953152D02*
X109360588Y-161048390D01*
X109360588Y-161048390D02*
X109312969Y-161096009D01*
X109312969Y-161096009D02*
X109217731Y-161143628D01*
X109217731Y-161143628D02*
X108836779Y-161143628D01*
X109741541Y-160619819D02*
X110408207Y-161619819D01*
X110408207Y-160619819D02*
X109741541Y-161619819D01*
X103097800Y-112289160D02*
X103050180Y-112432017D01*
X103050180Y-112432017D02*
X103050180Y-112670112D01*
X103050180Y-112670112D02*
X103097800Y-112765350D01*
X103097800Y-112765350D02*
X103145419Y-112812969D01*
X103145419Y-112812969D02*
X103240657Y-112860588D01*
X103240657Y-112860588D02*
X103335895Y-112860588D01*
X103335895Y-112860588D02*
X103431133Y-112812969D01*
X103431133Y-112812969D02*
X103478752Y-112765350D01*
X103478752Y-112765350D02*
X103526371Y-112670112D01*
X103526371Y-112670112D02*
X103573990Y-112479636D01*
X103573990Y-112479636D02*
X103621609Y-112384398D01*
X103621609Y-112384398D02*
X103669228Y-112336779D01*
X103669228Y-112336779D02*
X103764466Y-112289160D01*
X103764466Y-112289160D02*
X103859704Y-112289160D01*
X103859704Y-112289160D02*
X103954942Y-112336779D01*
X103954942Y-112336779D02*
X104002561Y-112384398D01*
X104002561Y-112384398D02*
X104050180Y-112479636D01*
X104050180Y-112479636D02*
X104050180Y-112717731D01*
X104050180Y-112717731D02*
X104002561Y-112860588D01*
X103050180Y-113289160D02*
X104050180Y-113289160D01*
X104050180Y-113289160D02*
X104050180Y-113527255D01*
X104050180Y-113527255D02*
X104002561Y-113670112D01*
X104002561Y-113670112D02*
X103907323Y-113765350D01*
X103907323Y-113765350D02*
X103812085Y-113812969D01*
X103812085Y-113812969D02*
X103621609Y-113860588D01*
X103621609Y-113860588D02*
X103478752Y-113860588D01*
X103478752Y-113860588D02*
X103288276Y-113812969D01*
X103288276Y-113812969D02*
X103193038Y-113765350D01*
X103193038Y-113765350D02*
X103097800Y-113670112D01*
X103097800Y-113670112D02*
X103050180Y-113527255D01*
X103050180Y-113527255D02*
X103050180Y-113289160D01*
X103335895Y-114241541D02*
X103335895Y-114717731D01*
X103050180Y-114146303D02*
X104050180Y-114479636D01*
X104050180Y-114479636D02*
X103050180Y-114812969D01*
X105697800Y-112289160D02*
X105650180Y-112432017D01*
X105650180Y-112432017D02*
X105650180Y-112670112D01*
X105650180Y-112670112D02*
X105697800Y-112765350D01*
X105697800Y-112765350D02*
X105745419Y-112812969D01*
X105745419Y-112812969D02*
X105840657Y-112860588D01*
X105840657Y-112860588D02*
X105935895Y-112860588D01*
X105935895Y-112860588D02*
X106031133Y-112812969D01*
X106031133Y-112812969D02*
X106078752Y-112765350D01*
X106078752Y-112765350D02*
X106126371Y-112670112D01*
X106126371Y-112670112D02*
X106173990Y-112479636D01*
X106173990Y-112479636D02*
X106221609Y-112384398D01*
X106221609Y-112384398D02*
X106269228Y-112336779D01*
X106269228Y-112336779D02*
X106364466Y-112289160D01*
X106364466Y-112289160D02*
X106459704Y-112289160D01*
X106459704Y-112289160D02*
X106554942Y-112336779D01*
X106554942Y-112336779D02*
X106602561Y-112384398D01*
X106602561Y-112384398D02*
X106650180Y-112479636D01*
X106650180Y-112479636D02*
X106650180Y-112717731D01*
X106650180Y-112717731D02*
X106602561Y-112860588D01*
X105745419Y-113860588D02*
X105697800Y-113812969D01*
X105697800Y-113812969D02*
X105650180Y-113670112D01*
X105650180Y-113670112D02*
X105650180Y-113574874D01*
X105650180Y-113574874D02*
X105697800Y-113432017D01*
X105697800Y-113432017D02*
X105793038Y-113336779D01*
X105793038Y-113336779D02*
X105888276Y-113289160D01*
X105888276Y-113289160D02*
X106078752Y-113241541D01*
X106078752Y-113241541D02*
X106221609Y-113241541D01*
X106221609Y-113241541D02*
X106412085Y-113289160D01*
X106412085Y-113289160D02*
X106507323Y-113336779D01*
X106507323Y-113336779D02*
X106602561Y-113432017D01*
X106602561Y-113432017D02*
X106650180Y-113574874D01*
X106650180Y-113574874D02*
X106650180Y-113670112D01*
X106650180Y-113670112D02*
X106602561Y-113812969D01*
X106602561Y-113812969D02*
X106554942Y-113860588D01*
X105650180Y-114765350D02*
X105650180Y-114289160D01*
X105650180Y-114289160D02*
X106650180Y-114289160D01*
X89346009Y-135643220D02*
X89346009Y-135309887D01*
X89869819Y-135167030D02*
X89869819Y-135643220D01*
X89869819Y-135643220D02*
X88869819Y-135643220D01*
X88869819Y-135643220D02*
X88869819Y-135167030D01*
X89869819Y-134738458D02*
X88869819Y-134738458D01*
X88869819Y-134738458D02*
X89869819Y-134167030D01*
X89869819Y-134167030D02*
X88869819Y-134167030D01*
X89346009Y-133357506D02*
X89393628Y-133214649D01*
X89393628Y-133214649D02*
X89441247Y-133167030D01*
X89441247Y-133167030D02*
X89536485Y-133119411D01*
X89536485Y-133119411D02*
X89679342Y-133119411D01*
X89679342Y-133119411D02*
X89774580Y-133167030D01*
X89774580Y-133167030D02*
X89822200Y-133214649D01*
X89822200Y-133214649D02*
X89869819Y-133309887D01*
X89869819Y-133309887D02*
X89869819Y-133690839D01*
X89869819Y-133690839D02*
X88869819Y-133690839D01*
X88869819Y-133690839D02*
X88869819Y-133357506D01*
X88869819Y-133357506D02*
X88917438Y-133262268D01*
X88917438Y-133262268D02*
X88965057Y-133214649D01*
X88965057Y-133214649D02*
X89060295Y-133167030D01*
X89060295Y-133167030D02*
X89155533Y-133167030D01*
X89155533Y-133167030D02*
X89250771Y-133214649D01*
X89250771Y-133214649D02*
X89298390Y-133262268D01*
X89298390Y-133262268D02*
X89346009Y-133357506D01*
X89346009Y-133357506D02*
X89346009Y-133690839D01*
X112062969Y-160619819D02*
X111586779Y-160619819D01*
X111586779Y-160619819D02*
X111539160Y-161096009D01*
X111539160Y-161096009D02*
X111586779Y-161048390D01*
X111586779Y-161048390D02*
X111682017Y-161000771D01*
X111682017Y-161000771D02*
X111920112Y-161000771D01*
X111920112Y-161000771D02*
X112015350Y-161048390D01*
X112015350Y-161048390D02*
X112062969Y-161096009D01*
X112062969Y-161096009D02*
X112110588Y-161191247D01*
X112110588Y-161191247D02*
X112110588Y-161429342D01*
X112110588Y-161429342D02*
X112062969Y-161524580D01*
X112062969Y-161524580D02*
X112015350Y-161572200D01*
X112015350Y-161572200D02*
X111920112Y-161619819D01*
X111920112Y-161619819D02*
X111682017Y-161619819D01*
X111682017Y-161619819D02*
X111586779Y-161572200D01*
X111586779Y-161572200D02*
X111539160Y-161524580D01*
X112396303Y-160619819D02*
X112729636Y-161619819D01*
X112729636Y-161619819D02*
X113062969Y-160619819D01*
X99016666Y-154981009D02*
X99159523Y-155028628D01*
X99159523Y-155028628D02*
X99207142Y-155076247D01*
X99207142Y-155076247D02*
X99254761Y-155171485D01*
X99254761Y-155171485D02*
X99254761Y-155314342D01*
X99254761Y-155314342D02*
X99207142Y-155409580D01*
X99207142Y-155409580D02*
X99159523Y-155457200D01*
X99159523Y-155457200D02*
X99064285Y-155504819D01*
X99064285Y-155504819D02*
X98683333Y-155504819D01*
X98683333Y-155504819D02*
X98683333Y-154504819D01*
X98683333Y-154504819D02*
X99016666Y-154504819D01*
X99016666Y-154504819D02*
X99111904Y-154552438D01*
X99111904Y-154552438D02*
X99159523Y-154600057D01*
X99159523Y-154600057D02*
X99207142Y-154695295D01*
X99207142Y-154695295D02*
X99207142Y-154790533D01*
X99207142Y-154790533D02*
X99159523Y-154885771D01*
X99159523Y-154885771D02*
X99111904Y-154933390D01*
X99111904Y-154933390D02*
X99016666Y-154981009D01*
X99016666Y-154981009D02*
X98683333Y-154981009D01*
X99873809Y-154504819D02*
X100064285Y-154504819D01*
X100064285Y-154504819D02*
X100159523Y-154552438D01*
X100159523Y-154552438D02*
X100254761Y-154647676D01*
X100254761Y-154647676D02*
X100302380Y-154838152D01*
X100302380Y-154838152D02*
X100302380Y-155171485D01*
X100302380Y-155171485D02*
X100254761Y-155361961D01*
X100254761Y-155361961D02*
X100159523Y-155457200D01*
X100159523Y-155457200D02*
X100064285Y-155504819D01*
X100064285Y-155504819D02*
X99873809Y-155504819D01*
X99873809Y-155504819D02*
X99778571Y-155457200D01*
X99778571Y-155457200D02*
X99683333Y-155361961D01*
X99683333Y-155361961D02*
X99635714Y-155171485D01*
X99635714Y-155171485D02*
X99635714Y-154838152D01*
X99635714Y-154838152D02*
X99683333Y-154647676D01*
X99683333Y-154647676D02*
X99778571Y-154552438D01*
X99778571Y-154552438D02*
X99873809Y-154504819D01*
X100921428Y-154504819D02*
X101111904Y-154504819D01*
X101111904Y-154504819D02*
X101207142Y-154552438D01*
X101207142Y-154552438D02*
X101302380Y-154647676D01*
X101302380Y-154647676D02*
X101349999Y-154838152D01*
X101349999Y-154838152D02*
X101349999Y-155171485D01*
X101349999Y-155171485D02*
X101302380Y-155361961D01*
X101302380Y-155361961D02*
X101207142Y-155457200D01*
X101207142Y-155457200D02*
X101111904Y-155504819D01*
X101111904Y-155504819D02*
X100921428Y-155504819D01*
X100921428Y-155504819D02*
X100826190Y-155457200D01*
X100826190Y-155457200D02*
X100730952Y-155361961D01*
X100730952Y-155361961D02*
X100683333Y-155171485D01*
X100683333Y-155171485D02*
X100683333Y-154838152D01*
X100683333Y-154838152D02*
X100730952Y-154647676D01*
X100730952Y-154647676D02*
X100826190Y-154552438D01*
X100826190Y-154552438D02*
X100921428Y-154504819D01*
X101635714Y-154504819D02*
X102207142Y-154504819D01*
X101921428Y-155504819D02*
X101921428Y-154504819D01*
X103064285Y-155504819D02*
X102492857Y-155504819D01*
X102778571Y-155504819D02*
X102778571Y-154504819D01*
X102778571Y-154504819D02*
X102683333Y-154647676D01*
X102683333Y-154647676D02*
X102588095Y-154742914D01*
X102588095Y-154742914D02*
X102492857Y-154790533D01*
X128338095Y-149459819D02*
X128338095Y-148459819D01*
X128338095Y-148936009D02*
X128909523Y-148936009D01*
X128909523Y-149459819D02*
X128909523Y-148459819D01*
X129814285Y-148793152D02*
X129814285Y-149459819D01*
X129576190Y-148412200D02*
X129338095Y-149126485D01*
X129338095Y-149126485D02*
X129957142Y-149126485D01*
X121795833Y-143554819D02*
X121462500Y-143078628D01*
X121224405Y-143554819D02*
X121224405Y-142554819D01*
X121224405Y-142554819D02*
X121605357Y-142554819D01*
X121605357Y-142554819D02*
X121700595Y-142602438D01*
X121700595Y-142602438D02*
X121748214Y-142650057D01*
X121748214Y-142650057D02*
X121795833Y-142745295D01*
X121795833Y-142745295D02*
X121795833Y-142888152D01*
X121795833Y-142888152D02*
X121748214Y-142983390D01*
X121748214Y-142983390D02*
X121700595Y-143031009D01*
X121700595Y-143031009D02*
X121605357Y-143078628D01*
X121605357Y-143078628D02*
X121224405Y-143078628D01*
X122700595Y-142554819D02*
X122224405Y-142554819D01*
X122224405Y-142554819D02*
X122176786Y-143031009D01*
X122176786Y-143031009D02*
X122224405Y-142983390D01*
X122224405Y-142983390D02*
X122319643Y-142935771D01*
X122319643Y-142935771D02*
X122557738Y-142935771D01*
X122557738Y-142935771D02*
X122652976Y-142983390D01*
X122652976Y-142983390D02*
X122700595Y-143031009D01*
X122700595Y-143031009D02*
X122748214Y-143126247D01*
X122748214Y-143126247D02*
X122748214Y-143364342D01*
X122748214Y-143364342D02*
X122700595Y-143459580D01*
X122700595Y-143459580D02*
X122652976Y-143507200D01*
X122652976Y-143507200D02*
X122557738Y-143554819D01*
X122557738Y-143554819D02*
X122319643Y-143554819D01*
X122319643Y-143554819D02*
X122224405Y-143507200D01*
X122224405Y-143507200D02*
X122176786Y-143459580D01*
X95354819Y-117233333D02*
X96069104Y-117233333D01*
X96069104Y-117233333D02*
X96211961Y-117280952D01*
X96211961Y-117280952D02*
X96307200Y-117376190D01*
X96307200Y-117376190D02*
X96354819Y-117519047D01*
X96354819Y-117519047D02*
X96354819Y-117614285D01*
X95354819Y-116852380D02*
X95354819Y-116233333D01*
X95354819Y-116233333D02*
X95735771Y-116566666D01*
X95735771Y-116566666D02*
X95735771Y-116423809D01*
X95735771Y-116423809D02*
X95783390Y-116328571D01*
X95783390Y-116328571D02*
X95831009Y-116280952D01*
X95831009Y-116280952D02*
X95926247Y-116233333D01*
X95926247Y-116233333D02*
X96164342Y-116233333D01*
X96164342Y-116233333D02*
X96259580Y-116280952D01*
X96259580Y-116280952D02*
X96307200Y-116328571D01*
X96307200Y-116328571D02*
X96354819Y-116423809D01*
X96354819Y-116423809D02*
X96354819Y-116709523D01*
X96354819Y-116709523D02*
X96307200Y-116804761D01*
X96307200Y-116804761D02*
X96259580Y-116852380D01*
X116992857Y-154981009D02*
X117326190Y-154981009D01*
X117469047Y-155504819D02*
X116992857Y-155504819D01*
X116992857Y-155504819D02*
X116992857Y-154504819D01*
X116992857Y-154504819D02*
X117469047Y-154504819D01*
X117897619Y-155504819D02*
X117897619Y-154504819D01*
X117897619Y-154504819D02*
X118469047Y-155504819D01*
X118469047Y-155504819D02*
X118469047Y-154504819D01*
X118707143Y-155600057D02*
X119469047Y-155600057D01*
X119707143Y-155504819D02*
X119707143Y-154504819D01*
X119707143Y-154504819D02*
X120088095Y-154504819D01*
X120088095Y-154504819D02*
X120183333Y-154552438D01*
X120183333Y-154552438D02*
X120230952Y-154600057D01*
X120230952Y-154600057D02*
X120278571Y-154695295D01*
X120278571Y-154695295D02*
X120278571Y-154838152D01*
X120278571Y-154838152D02*
X120230952Y-154933390D01*
X120230952Y-154933390D02*
X120183333Y-154981009D01*
X120183333Y-154981009D02*
X120088095Y-155028628D01*
X120088095Y-155028628D02*
X119707143Y-155028628D01*
X120707143Y-155504819D02*
X120707143Y-154504819D01*
X121183333Y-155504819D02*
X121183333Y-154504819D01*
X121183333Y-154504819D02*
X121754761Y-155504819D01*
X121754761Y-155504819D02*
X121754761Y-154504819D01*
X122754761Y-155504819D02*
X122183333Y-155504819D01*
X122469047Y-155504819D02*
X122469047Y-154504819D01*
X122469047Y-154504819D02*
X122373809Y-154647676D01*
X122373809Y-154647676D02*
X122278571Y-154742914D01*
X122278571Y-154742914D02*
X122183333Y-154790533D01*
X128204819Y-135954166D02*
X127728628Y-136287499D01*
X128204819Y-136525594D02*
X127204819Y-136525594D01*
X127204819Y-136525594D02*
X127204819Y-136144642D01*
X127204819Y-136144642D02*
X127252438Y-136049404D01*
X127252438Y-136049404D02*
X127300057Y-136001785D01*
X127300057Y-136001785D02*
X127395295Y-135954166D01*
X127395295Y-135954166D02*
X127538152Y-135954166D01*
X127538152Y-135954166D02*
X127633390Y-136001785D01*
X127633390Y-136001785D02*
X127681009Y-136049404D01*
X127681009Y-136049404D02*
X127728628Y-136144642D01*
X127728628Y-136144642D02*
X127728628Y-136525594D01*
X127300057Y-135573213D02*
X127252438Y-135525594D01*
X127252438Y-135525594D02*
X127204819Y-135430356D01*
X127204819Y-135430356D02*
X127204819Y-135192261D01*
X127204819Y-135192261D02*
X127252438Y-135097023D01*
X127252438Y-135097023D02*
X127300057Y-135049404D01*
X127300057Y-135049404D02*
X127395295Y-135001785D01*
X127395295Y-135001785D02*
X127490533Y-135001785D01*
X127490533Y-135001785D02*
X127633390Y-135049404D01*
X127633390Y-135049404D02*
X128204819Y-135620832D01*
X128204819Y-135620832D02*
X128204819Y-135001785D01*
X90238095Y-149459819D02*
X90238095Y-148459819D01*
X90238095Y-148936009D02*
X90809523Y-148936009D01*
X90809523Y-149459819D02*
X90809523Y-148459819D01*
X91190476Y-148459819D02*
X91809523Y-148459819D01*
X91809523Y-148459819D02*
X91476190Y-148840771D01*
X91476190Y-148840771D02*
X91619047Y-148840771D01*
X91619047Y-148840771D02*
X91714285Y-148888390D01*
X91714285Y-148888390D02*
X91761904Y-148936009D01*
X91761904Y-148936009D02*
X91809523Y-149031247D01*
X91809523Y-149031247D02*
X91809523Y-149269342D01*
X91809523Y-149269342D02*
X91761904Y-149364580D01*
X91761904Y-149364580D02*
X91714285Y-149412200D01*
X91714285Y-149412200D02*
X91619047Y-149459819D01*
X91619047Y-149459819D02*
X91333333Y-149459819D01*
X91333333Y-149459819D02*
X91238095Y-149412200D01*
X91238095Y-149412200D02*
X91190476Y-149364580D01*
X102583333Y-143504819D02*
X102250000Y-143028628D01*
X102011905Y-143504819D02*
X102011905Y-142504819D01*
X102011905Y-142504819D02*
X102392857Y-142504819D01*
X102392857Y-142504819D02*
X102488095Y-142552438D01*
X102488095Y-142552438D02*
X102535714Y-142600057D01*
X102535714Y-142600057D02*
X102583333Y-142695295D01*
X102583333Y-142695295D02*
X102583333Y-142838152D01*
X102583333Y-142838152D02*
X102535714Y-142933390D01*
X102535714Y-142933390D02*
X102488095Y-142981009D01*
X102488095Y-142981009D02*
X102392857Y-143028628D01*
X102392857Y-143028628D02*
X102011905Y-143028628D01*
X102916667Y-142504819D02*
X103535714Y-142504819D01*
X103535714Y-142504819D02*
X103202381Y-142885771D01*
X103202381Y-142885771D02*
X103345238Y-142885771D01*
X103345238Y-142885771D02*
X103440476Y-142933390D01*
X103440476Y-142933390D02*
X103488095Y-142981009D01*
X103488095Y-142981009D02*
X103535714Y-143076247D01*
X103535714Y-143076247D02*
X103535714Y-143314342D01*
X103535714Y-143314342D02*
X103488095Y-143409580D01*
X103488095Y-143409580D02*
X103440476Y-143457200D01*
X103440476Y-143457200D02*
X103345238Y-143504819D01*
X103345238Y-143504819D02*
X103059524Y-143504819D01*
X103059524Y-143504819D02*
X102964286Y-143457200D01*
X102964286Y-143457200D02*
X102916667Y-143409580D01*
X116954819Y-161333333D02*
X117669104Y-161333333D01*
X117669104Y-161333333D02*
X117811961Y-161380952D01*
X117811961Y-161380952D02*
X117907200Y-161476190D01*
X117907200Y-161476190D02*
X117954819Y-161619047D01*
X117954819Y-161619047D02*
X117954819Y-161714285D01*
X116954819Y-160380952D02*
X116954819Y-160857142D01*
X116954819Y-160857142D02*
X117431009Y-160904761D01*
X117431009Y-160904761D02*
X117383390Y-160857142D01*
X117383390Y-160857142D02*
X117335771Y-160761904D01*
X117335771Y-160761904D02*
X117335771Y-160523809D01*
X117335771Y-160523809D02*
X117383390Y-160428571D01*
X117383390Y-160428571D02*
X117431009Y-160380952D01*
X117431009Y-160380952D02*
X117526247Y-160333333D01*
X117526247Y-160333333D02*
X117764342Y-160333333D01*
X117764342Y-160333333D02*
X117859580Y-160380952D01*
X117859580Y-160380952D02*
X117907200Y-160428571D01*
X117907200Y-160428571D02*
X117954819Y-160523809D01*
X117954819Y-160523809D02*
X117954819Y-160761904D01*
X117954819Y-160761904D02*
X117907200Y-160857142D01*
X117907200Y-160857142D02*
X117859580Y-160904761D01*
X92366666Y-118954819D02*
X92366666Y-119669104D01*
X92366666Y-119669104D02*
X92319047Y-119811961D01*
X92319047Y-119811961D02*
X92223809Y-119907200D01*
X92223809Y-119907200D02*
X92080952Y-119954819D01*
X92080952Y-119954819D02*
X91985714Y-119954819D01*
X93271428Y-119288152D02*
X93271428Y-119954819D01*
X93033333Y-118907200D02*
X92795238Y-119621485D01*
X92795238Y-119621485D02*
X93414285Y-119621485D01*
X118004819Y-126583333D02*
X118719104Y-126583333D01*
X118719104Y-126583333D02*
X118861961Y-126630952D01*
X118861961Y-126630952D02*
X118957200Y-126726190D01*
X118957200Y-126726190D02*
X119004819Y-126869047D01*
X119004819Y-126869047D02*
X119004819Y-126964285D01*
X118100057Y-126154761D02*
X118052438Y-126107142D01*
X118052438Y-126107142D02*
X118004819Y-126011904D01*
X118004819Y-126011904D02*
X118004819Y-125773809D01*
X118004819Y-125773809D02*
X118052438Y-125678571D01*
X118052438Y-125678571D02*
X118100057Y-125630952D01*
X118100057Y-125630952D02*
X118195295Y-125583333D01*
X118195295Y-125583333D02*
X118290533Y-125583333D01*
X118290533Y-125583333D02*
X118433390Y-125630952D01*
X118433390Y-125630952D02*
X119004819Y-126202380D01*
X119004819Y-126202380D02*
X119004819Y-125583333D01*
X128338095Y-111359819D02*
X128338095Y-110359819D01*
X128338095Y-110836009D02*
X128909523Y-110836009D01*
X128909523Y-111359819D02*
X128909523Y-110359819D01*
X129338095Y-110455057D02*
X129385714Y-110407438D01*
X129385714Y-110407438D02*
X129480952Y-110359819D01*
X129480952Y-110359819D02*
X129719047Y-110359819D01*
X129719047Y-110359819D02*
X129814285Y-110407438D01*
X129814285Y-110407438D02*
X129861904Y-110455057D01*
X129861904Y-110455057D02*
X129909523Y-110550295D01*
X129909523Y-110550295D02*
X129909523Y-110645533D01*
X129909523Y-110645533D02*
X129861904Y-110788390D01*
X129861904Y-110788390D02*
X129290476Y-111359819D01*
X129290476Y-111359819D02*
X129909523Y-111359819D01*
X90238095Y-111359819D02*
X90238095Y-110359819D01*
X90238095Y-110836009D02*
X90809523Y-110836009D01*
X90809523Y-111359819D02*
X90809523Y-110359819D01*
X91809523Y-111359819D02*
X91238095Y-111359819D01*
X91523809Y-111359819D02*
X91523809Y-110359819D01*
X91523809Y-110359819D02*
X91428571Y-110502676D01*
X91428571Y-110502676D02*
X91333333Y-110597914D01*
X91333333Y-110597914D02*
X91238095Y-110645533D01*
X98283333Y-143454819D02*
X97950000Y-142978628D01*
X97711905Y-143454819D02*
X97711905Y-142454819D01*
X97711905Y-142454819D02*
X98092857Y-142454819D01*
X98092857Y-142454819D02*
X98188095Y-142502438D01*
X98188095Y-142502438D02*
X98235714Y-142550057D01*
X98235714Y-142550057D02*
X98283333Y-142645295D01*
X98283333Y-142645295D02*
X98283333Y-142788152D01*
X98283333Y-142788152D02*
X98235714Y-142883390D01*
X98235714Y-142883390D02*
X98188095Y-142931009D01*
X98188095Y-142931009D02*
X98092857Y-142978628D01*
X98092857Y-142978628D02*
X97711905Y-142978628D01*
X99140476Y-142788152D02*
X99140476Y-143454819D01*
X98902381Y-142407200D02*
X98664286Y-143121485D01*
X98664286Y-143121485D02*
X99283333Y-143121485D01*
X128204819Y-139854166D02*
X127728628Y-140187499D01*
X128204819Y-140425594D02*
X127204819Y-140425594D01*
X127204819Y-140425594D02*
X127204819Y-140044642D01*
X127204819Y-140044642D02*
X127252438Y-139949404D01*
X127252438Y-139949404D02*
X127300057Y-139901785D01*
X127300057Y-139901785D02*
X127395295Y-139854166D01*
X127395295Y-139854166D02*
X127538152Y-139854166D01*
X127538152Y-139854166D02*
X127633390Y-139901785D01*
X127633390Y-139901785D02*
X127681009Y-139949404D01*
X127681009Y-139949404D02*
X127728628Y-140044642D01*
X127728628Y-140044642D02*
X127728628Y-140425594D01*
X128204819Y-138901785D02*
X128204819Y-139473213D01*
X128204819Y-139187499D02*
X127204819Y-139187499D01*
X127204819Y-139187499D02*
X127347676Y-139282737D01*
X127347676Y-139282737D02*
X127442914Y-139377975D01*
X127442914Y-139377975D02*
X127490533Y-139473213D01*
X133066666Y-131534819D02*
X133066666Y-132249104D01*
X133066666Y-132249104D02*
X133019047Y-132391961D01*
X133019047Y-132391961D02*
X132923809Y-132487200D01*
X132923809Y-132487200D02*
X132780952Y-132534819D01*
X132780952Y-132534819D02*
X132685714Y-132534819D01*
X133971428Y-131534819D02*
X133780952Y-131534819D01*
X133780952Y-131534819D02*
X133685714Y-131582438D01*
X133685714Y-131582438D02*
X133638095Y-131630057D01*
X133638095Y-131630057D02*
X133542857Y-131772914D01*
X133542857Y-131772914D02*
X133495238Y-131963390D01*
X133495238Y-131963390D02*
X133495238Y-132344342D01*
X133495238Y-132344342D02*
X133542857Y-132439580D01*
X133542857Y-132439580D02*
X133590476Y-132487200D01*
X133590476Y-132487200D02*
X133685714Y-132534819D01*
X133685714Y-132534819D02*
X133876190Y-132534819D01*
X133876190Y-132534819D02*
X133971428Y-132487200D01*
X133971428Y-132487200D02*
X134019047Y-132439580D01*
X134019047Y-132439580D02*
X134066666Y-132344342D01*
X134066666Y-132344342D02*
X134066666Y-132106247D01*
X134066666Y-132106247D02*
X134019047Y-132011009D01*
X134019047Y-132011009D02*
X133971428Y-131963390D01*
X133971428Y-131963390D02*
X133876190Y-131915771D01*
X133876190Y-131915771D02*
X133685714Y-131915771D01*
X133685714Y-131915771D02*
X133590476Y-131963390D01*
X133590476Y-131963390D02*
X133542857Y-132011009D01*
X133542857Y-132011009D02*
X133495238Y-132106247D01*
X117583333Y-143554819D02*
X117250000Y-143078628D01*
X117011905Y-143554819D02*
X117011905Y-142554819D01*
X117011905Y-142554819D02*
X117392857Y-142554819D01*
X117392857Y-142554819D02*
X117488095Y-142602438D01*
X117488095Y-142602438D02*
X117535714Y-142650057D01*
X117535714Y-142650057D02*
X117583333Y-142745295D01*
X117583333Y-142745295D02*
X117583333Y-142888152D01*
X117583333Y-142888152D02*
X117535714Y-142983390D01*
X117535714Y-142983390D02*
X117488095Y-143031009D01*
X117488095Y-143031009D02*
X117392857Y-143078628D01*
X117392857Y-143078628D02*
X117011905Y-143078628D01*
X118440476Y-142554819D02*
X118250000Y-142554819D01*
X118250000Y-142554819D02*
X118154762Y-142602438D01*
X118154762Y-142602438D02*
X118107143Y-142650057D01*
X118107143Y-142650057D02*
X118011905Y-142792914D01*
X118011905Y-142792914D02*
X117964286Y-142983390D01*
X117964286Y-142983390D02*
X117964286Y-143364342D01*
X117964286Y-143364342D02*
X118011905Y-143459580D01*
X118011905Y-143459580D02*
X118059524Y-143507200D01*
X118059524Y-143507200D02*
X118154762Y-143554819D01*
X118154762Y-143554819D02*
X118345238Y-143554819D01*
X118345238Y-143554819D02*
X118440476Y-143507200D01*
X118440476Y-143507200D02*
X118488095Y-143459580D01*
X118488095Y-143459580D02*
X118535714Y-143364342D01*
X118535714Y-143364342D02*
X118535714Y-143126247D01*
X118535714Y-143126247D02*
X118488095Y-143031009D01*
X118488095Y-143031009D02*
X118440476Y-142983390D01*
X118440476Y-142983390D02*
X118345238Y-142935771D01*
X118345238Y-142935771D02*
X118154762Y-142935771D01*
X118154762Y-142935771D02*
X118059524Y-142983390D01*
X118059524Y-142983390D02*
X118011905Y-143031009D01*
X118011905Y-143031009D02*
X117964286Y-143126247D01*
X112968095Y-140414819D02*
X112968095Y-141224342D01*
X112968095Y-141224342D02*
X113015714Y-141319580D01*
X113015714Y-141319580D02*
X113063333Y-141367200D01*
X113063333Y-141367200D02*
X113158571Y-141414819D01*
X113158571Y-141414819D02*
X113349047Y-141414819D01*
X113349047Y-141414819D02*
X113444285Y-141367200D01*
X113444285Y-141367200D02*
X113491904Y-141319580D01*
X113491904Y-141319580D02*
X113539523Y-141224342D01*
X113539523Y-141224342D02*
X113539523Y-140414819D01*
X114539523Y-141414819D02*
X113968095Y-141414819D01*
X114253809Y-141414819D02*
X114253809Y-140414819D01*
X114253809Y-140414819D02*
X114158571Y-140557676D01*
X114158571Y-140557676D02*
X114063333Y-140652914D01*
X114063333Y-140652914D02*
X113968095Y-140700533D01*
D11*
%TO.C,BOOT1*%
X97050000Y-149500000D02*
X97050000Y-151000000D01*
X98300000Y-153500000D02*
X102800000Y-153500000D01*
X102800000Y-147000000D02*
X98300000Y-147000000D01*
X104050000Y-151000000D02*
X104050000Y-149500000D01*
%TO.C,R5*%
X121735436Y-144015000D02*
X122189564Y-144015000D01*
X121735436Y-145485000D02*
X122189564Y-145485000D01*
%TO.C,J3*%
X96900000Y-118280000D02*
X96900000Y-116900000D01*
X98280000Y-118280000D02*
X96900000Y-118280000D01*
X99550000Y-115520000D02*
X107280000Y-115520000D01*
X99550000Y-118280000D02*
X99550000Y-115520000D01*
X99550000Y-118280000D02*
X107280000Y-118280000D01*
X107280000Y-118280000D02*
X107280000Y-115520000D01*
%TO.C,EN_PIN1*%
X116250000Y-149500000D02*
X116250000Y-151000000D01*
X117500000Y-153500000D02*
X122000000Y-153500000D01*
X122000000Y-147000000D02*
X117500000Y-147000000D01*
X123250000Y-151000000D02*
X123250000Y-149500000D01*
%TO.C,R2*%
X128665000Y-136014564D02*
X128665000Y-135560436D01*
X130135000Y-136014564D02*
X130135000Y-135560436D01*
%TO.C,R3*%
X102522936Y-143915000D02*
X102977064Y-143915000D01*
X102522936Y-145385000D02*
X102977064Y-145385000D01*
%TO.C,J5*%
X103360000Y-157220000D02*
X103360000Y-159980000D01*
X113630000Y-157220000D02*
X103360000Y-157220000D01*
X113630000Y-157220000D02*
X113630000Y-159980000D01*
X113630000Y-159980000D02*
X103360000Y-159980000D01*
X114900000Y-157220000D02*
X116280000Y-157220000D01*
X116280000Y-157220000D02*
X116280000Y-158600000D01*
%TO.C,J4*%
X91320000Y-120500000D02*
X92700000Y-120500000D01*
X91320000Y-121880000D02*
X91320000Y-120500000D01*
X91320000Y-123150000D02*
X91320000Y-135960000D01*
X91320000Y-123150000D02*
X94080000Y-123150000D01*
X91320000Y-135960000D02*
X94080000Y-135960000D01*
X94080000Y-123150000D02*
X94080000Y-135960000D01*
%TO.C,J2*%
X120050000Y-129450000D02*
X120050000Y-131150000D01*
X120050000Y-131150000D02*
X121350000Y-131150000D01*
X120350000Y-121650000D02*
X121650000Y-121650000D01*
X120350000Y-123650000D02*
X120350000Y-121650000D01*
X120350000Y-130850000D02*
X120350000Y-128850000D01*
X126250000Y-121650000D02*
X134850000Y-121650000D01*
X134850000Y-121650000D02*
X134850000Y-130850000D01*
X134850000Y-130850000D02*
X120350000Y-130850000D01*
%TO.C,R4*%
X98222936Y-143915000D02*
X98677064Y-143915000D01*
X98222936Y-145385000D02*
X98677064Y-145385000D01*
%TO.C,R1*%
X128665000Y-139914564D02*
X128665000Y-139460436D01*
X130135000Y-139914564D02*
X130135000Y-139460436D01*
%TO.C,J6*%
X132020000Y-133080000D02*
X133400000Y-133080000D01*
X132020000Y-134460000D02*
X132020000Y-133080000D01*
X132020000Y-135730000D02*
X132020000Y-140920000D01*
X132020000Y-135730000D02*
X134780000Y-135730000D01*
X132020000Y-140920000D02*
X134780000Y-140920000D01*
X134780000Y-135730000D02*
X134780000Y-140920000D01*
%TO.C,R6*%
X117522936Y-144015000D02*
X117977064Y-144015000D01*
X117522936Y-145485000D02*
X117977064Y-145485000D01*
%TO.C,U1*%
X97030000Y-120740000D02*
X98030000Y-120740000D01*
X97030000Y-121360000D02*
X97030000Y-120740000D01*
X97030000Y-140180000D02*
X97030000Y-139760000D01*
X115270000Y-120740000D02*
X114270000Y-120740000D01*
X115270000Y-121360000D02*
X115270000Y-120740000D01*
X115270000Y-140180000D02*
X97030000Y-140180000D01*
X115275000Y-139935000D02*
X115275000Y-139435000D01*
X115775000Y-139435000D01*
X115275000Y-139935000D01*
G36*
X115275000Y-139935000D02*
G01*
X115275000Y-139435000D01*
X115775000Y-139435000D01*
X115275000Y-139935000D01*
G37*
%TD*%
M02*
