%TF.GenerationSoftware,KiCad,Pcbnew,9.0.6*%
%TF.CreationDate,2026-01-28T21:09:15+07:00*%
%TF.ProjectId,BluetoothCar,426c7565-746f-46f7-9468-4361722e6b69,rev?*%
%TF.SameCoordinates,Original*%
%TF.FileFunction,Soldermask,Top*%
%TF.FilePolarity,Negative*%
%FSLAX46Y46*%
G04 Gerber Fmt 4.6, Leading zero omitted, Abs format (unit mm)*
G04 Created by KiCad (PCBNEW 9.0.6) date 2026-01-28 21:09:15*
%MOMM*%
%LPD*%
G01*
G04 APERTURE LIST*
G04 Aperture macros list*
%AMRoundRect*
0 Rectangle with rounded corners*
0 $1 Rounding radius*
0 $2 $3 $4 $5 $6 $7 $8 $9 X,Y pos of 4 corners*
0 Add a 4 corners polygon primitive as box body*
4,1,4,$2,$3,$4,$5,$6,$7,$8,$9,$2,$3,0*
0 Add four circle primitives for the rounded corners*
1,1,$1+$1,$2,$3*
1,1,$1+$1,$4,$5*
1,1,$1+$1,$6,$7*
1,1,$1+$1,$8,$9*
0 Add four rect primitives between the rounded corners*
20,1,$1+$1,$2,$3,$4,$5,0*
20,1,$1+$1,$4,$5,$6,$7,0*
20,1,$1+$1,$6,$7,$8,$9,0*
20,1,$1+$1,$8,$9,$2,$3,0*%
G04 Aperture macros list end*
%ADD10C,2.000000*%
%ADD11C,6.000000*%
%ADD12RoundRect,0.250000X-0.262500X-0.450000X0.262500X-0.450000X0.262500X0.450000X-0.262500X0.450000X0*%
%ADD13R,1.700000X1.700000*%
%ADD14C,1.700000*%
%ADD15RoundRect,0.250000X0.450000X-0.262500X0.450000X0.262500X-0.450000X0.262500X-0.450000X-0.262500X0*%
%ADD16R,2.000000X4.600000*%
%ADD17O,2.000000X4.200000*%
%ADD18O,4.200000X2.000000*%
%ADD19R,1.500000X0.900000*%
%ADD20R,0.900000X1.500000*%
%ADD21C,0.600000*%
%ADD22R,3.800000X3.800000*%
G04 APERTURE END LIST*
D10*
%TO.C,BOOT1*%
X103800000Y-152500000D03*
X97300000Y-152500000D03*
X103800000Y-148000000D03*
X97300000Y-148000000D03*
%TD*%
D11*
%TO.C,H4*%
X129100000Y-152955000D03*
%TD*%
D12*
%TO.C,R5*%
X121050000Y-144750000D03*
X122875000Y-144750000D03*
%TD*%
D13*
%TO.C,J3*%
X98280000Y-116900000D03*
D14*
X100820000Y-116900000D03*
X103360000Y-116900000D03*
X105900000Y-116900000D03*
%TD*%
D10*
%TO.C,EN_PIN1*%
X123000000Y-152500000D03*
X116500000Y-152500000D03*
X123000000Y-148000000D03*
X116500000Y-148000000D03*
%TD*%
D15*
%TO.C,R2*%
X129400000Y-136700000D03*
X129400000Y-134875000D03*
%TD*%
D11*
%TO.C,H3*%
X91000000Y-152955000D03*
%TD*%
D12*
%TO.C,R3*%
X101837500Y-144650000D03*
X103662500Y-144650000D03*
%TD*%
D13*
%TO.C,J5*%
X114900000Y-158600000D03*
D14*
X112360000Y-158600000D03*
X109820000Y-158600000D03*
X107280000Y-158600000D03*
X104740000Y-158600000D03*
%TD*%
D13*
%TO.C,J4*%
X92700000Y-121880000D03*
D14*
X92700000Y-124420000D03*
X92700000Y-126960000D03*
X92700000Y-129500000D03*
X92700000Y-132040000D03*
X92700000Y-134580000D03*
%TD*%
D16*
%TO.C,J2*%
X121050000Y-126250000D03*
D17*
X127350000Y-126250000D03*
D18*
X123950000Y-121450000D03*
%TD*%
D11*
%TO.C,H2*%
X129100000Y-114855000D03*
%TD*%
%TO.C,H1*%
X91000000Y-114855000D03*
%TD*%
D12*
%TO.C,R4*%
X97537500Y-144650000D03*
X99362500Y-144650000D03*
%TD*%
D15*
%TO.C,R1*%
X129400000Y-140600000D03*
X129400000Y-138775000D03*
%TD*%
D13*
%TO.C,J6*%
X133400000Y-134460000D03*
D14*
X133400000Y-137000000D03*
X133400000Y-139540000D03*
%TD*%
D12*
%TO.C,R6*%
X116837500Y-144750000D03*
X118662500Y-144750000D03*
%TD*%
D19*
%TO.C,U1*%
X114900000Y-138715000D03*
X114900000Y-137445000D03*
X114900000Y-136175000D03*
X114900000Y-134905000D03*
X114900000Y-133635000D03*
X114900000Y-132365000D03*
X114900000Y-131095000D03*
X114900000Y-129825000D03*
X114900000Y-128555000D03*
X114900000Y-127285000D03*
X114900000Y-126015000D03*
X114900000Y-124745000D03*
X114900000Y-123475000D03*
X114900000Y-122205000D03*
D20*
X111865000Y-121110000D03*
X110595000Y-121110000D03*
X109325000Y-121110000D03*
X108055000Y-121110000D03*
X106785000Y-121110000D03*
X105515000Y-121110000D03*
X104245000Y-121110000D03*
X102975000Y-121110000D03*
X101705000Y-121110000D03*
X100435000Y-121110000D03*
D19*
X97400000Y-122205000D03*
X97400000Y-123475000D03*
X97400000Y-124745000D03*
X97400000Y-126015000D03*
X97400000Y-127285000D03*
X97400000Y-128555000D03*
X97400000Y-129825000D03*
X97400000Y-131095000D03*
X97400000Y-132365000D03*
X97400000Y-133635000D03*
X97400000Y-134905000D03*
X97400000Y-136175000D03*
X97400000Y-137445000D03*
X97400000Y-138715000D03*
D21*
X109050000Y-131850000D03*
X109050000Y-130450000D03*
X108350000Y-132550000D03*
X108350000Y-131150000D03*
X108350000Y-129750000D03*
X107650000Y-131850000D03*
D22*
X107650000Y-131150000D03*
D21*
X107650000Y-130450000D03*
X106950000Y-132550000D03*
X106950000Y-131150000D03*
X106950000Y-129750000D03*
X106250000Y-131850000D03*
X106250000Y-130450000D03*
%TD*%
M02*
