%TF.GenerationSoftware,KiCad,Pcbnew,9.0.6*%
%TF.CreationDate,2026-01-28T21:09:14+07:00*%
%TF.ProjectId,BluetoothCar,426c7565-746f-46f7-9468-4361722e6b69,rev?*%
%TF.SameCoordinates,Original*%
%TF.FileFunction,Copper,L2,Bot*%
%TF.FilePolarity,Positive*%
%FSLAX46Y46*%
G04 Gerber Fmt 4.6, Leading zero omitted, Abs format (unit mm)*
G04 Created by KiCad (PCBNEW 9.0.6) date 2026-01-28 21:09:14*
%MOMM*%
%LPD*%
G01*
G04 APERTURE LIST*
%TA.AperFunction,ComponentPad*%
%ADD10C,2.000000*%
%TD*%
%TA.AperFunction,ComponentPad*%
%ADD11C,6.000000*%
%TD*%
%TA.AperFunction,ComponentPad*%
%ADD12R,1.700000X1.700000*%
%TD*%
%TA.AperFunction,ComponentPad*%
%ADD13C,1.700000*%
%TD*%
%TA.AperFunction,ComponentPad*%
%ADD14R,2.000000X4.600000*%
%TD*%
%TA.AperFunction,ComponentPad*%
%ADD15O,2.000000X4.200000*%
%TD*%
%TA.AperFunction,ComponentPad*%
%ADD16O,4.200000X2.000000*%
%TD*%
%TA.AperFunction,HeatsinkPad*%
%ADD17C,0.600000*%
%TD*%
%TA.AperFunction,ViaPad*%
%ADD18C,1.200000*%
%TD*%
%TA.AperFunction,Conductor*%
%ADD19C,1.000000*%
%TD*%
%TA.AperFunction,Conductor*%
%ADD20C,0.700000*%
%TD*%
%TA.AperFunction,Conductor*%
%ADD21C,0.500000*%
%TD*%
%TA.AperFunction,Conductor*%
%ADD22C,2.000000*%
%TD*%
G04 APERTURE END LIST*
D10*
%TO.P,BOOT1,1,C*%
%TO.N,GND*%
X103800000Y-152500000D03*
X97300000Y-152500000D03*
%TO.P,BOOT1,2,D*%
%TO.N,Net-(BOOT1A-D)*%
X103800000Y-148000000D03*
X97300000Y-148000000D03*
%TD*%
D11*
%TO.P,H4,1,1*%
%TO.N,unconnected-(H4-Pad1)*%
X129100000Y-152955000D03*
%TD*%
D12*
%TO.P,J3,1,Pin_1*%
%TO.N,GND*%
X98280000Y-116900000D03*
D13*
%TO.P,J3,2,Pin_2*%
%TO.N,+5V*%
X100820000Y-116900000D03*
%TO.P,J3,3,Pin_3*%
%TO.N,SDA*%
X103360000Y-116900000D03*
%TO.P,J3,4,Pin_4*%
%TO.N,SCL*%
X105900000Y-116900000D03*
%TD*%
D10*
%TO.P,EN_PIN1,1,C*%
%TO.N,GND*%
X123000000Y-152500000D03*
X116500000Y-152500000D03*
%TO.P,EN_PIN1,2,D*%
%TO.N,Net-(EN_PIN1A-D)*%
X123000000Y-148000000D03*
X116500000Y-148000000D03*
%TD*%
D11*
%TO.P,H3,1,1*%
%TO.N,unconnected-(H3-Pad1)*%
X91000000Y-152955000D03*
%TD*%
D12*
%TO.P,J5,1,Pin_1*%
%TO.N,unconnected-(J5-Pin_1-Pad1)*%
X114900000Y-158600000D03*
D13*
%TO.P,J5,2,Pin_2*%
%TO.N,+5V*%
X112360000Y-158600000D03*
%TO.P,J5,3,Pin_3*%
%TO.N,RX0*%
X109820000Y-158600000D03*
%TO.P,J5,4,Pin_4*%
%TO.N,TX0*%
X107280000Y-158600000D03*
%TO.P,J5,5,Pin_5*%
%TO.N,GND*%
X104740000Y-158600000D03*
%TD*%
D12*
%TO.P,J4,1,Pin_1*%
%TO.N,ENA*%
X92700000Y-121880000D03*
D13*
%TO.P,J4,2,Pin_2*%
%TO.N,INA1*%
X92700000Y-124420000D03*
%TO.P,J4,3,Pin_3*%
%TO.N,INA2*%
X92700000Y-126960000D03*
%TO.P,J4,4,Pin_4*%
%TO.N,INB1*%
X92700000Y-129500000D03*
%TO.P,J4,5,Pin_5*%
%TO.N,INB2*%
X92700000Y-132040000D03*
%TO.P,J4,6,Pin_6*%
%TO.N,ENB*%
X92700000Y-134580000D03*
%TD*%
D14*
%TO.P,J2,1*%
%TO.N,+12V*%
X121050000Y-126250000D03*
D15*
%TO.P,J2,2*%
%TO.N,GND*%
X127350000Y-126250000D03*
D16*
%TO.P,J2,3*%
%TO.N,N/C*%
X123950000Y-121450000D03*
%TD*%
D11*
%TO.P,H2,1,1*%
%TO.N,unconnected-(H2-Pad1)*%
X129100000Y-114855000D03*
%TD*%
%TO.P,H1,1,1*%
%TO.N,unconnected-(H1-Pad1)*%
X91000000Y-114855000D03*
%TD*%
D12*
%TO.P,J6,1,Pin_1*%
%TO.N,+5V*%
X133400000Y-134460000D03*
D13*
%TO.P,J6,2,Pin_2*%
%TO.N,GND*%
X133400000Y-137000000D03*
%TO.P,J6,3,Pin_3*%
%TO.N,+12V*%
X133400000Y-139540000D03*
%TD*%
D17*
%TO.P,U1,39*%
%TO.N,N/C*%
X109050000Y-131850000D03*
X109050000Y-130450000D03*
X108350000Y-132550000D03*
X108350000Y-131150000D03*
X108350000Y-129750000D03*
X107650000Y-131850000D03*
X107650000Y-130450000D03*
X106950000Y-132550000D03*
X106950000Y-131150000D03*
X106950000Y-129750000D03*
X106250000Y-131850000D03*
X106250000Y-130450000D03*
%TD*%
D18*
%TO.N,+5V*%
X105000000Y-144500000D03*
%TO.N,ENB*%
X108200000Y-136500000D03*
%TO.N,BOOT*%
X99500000Y-128700000D03*
%TO.N,ENA*%
X101400000Y-123600000D03*
%TO.N,BOOT*%
X99400000Y-141100000D03*
%TO.N,SDA*%
X99400000Y-132300000D03*
%TO.N,SCL*%
X99600000Y-136100000D03*
%TD*%
D19*
%TO.N,+5V*%
X112360000Y-158600000D02*
X112360000Y-147110000D01*
X112360000Y-147110000D02*
X109750000Y-144500000D01*
X109750000Y-144500000D02*
X105000000Y-144500000D01*
D20*
%TO.N,ENB*%
X92700000Y-134580000D02*
X92700000Y-141400000D01*
X92700000Y-141400000D02*
X94500000Y-143200000D01*
X94500000Y-143200000D02*
X101500000Y-143200000D01*
X101500000Y-143200000D02*
X108200000Y-136500000D01*
D21*
%TO.N,BOOT*%
X97900000Y-139600000D02*
X97900000Y-130300000D01*
X99400000Y-141100000D02*
X97900000Y-139600000D01*
X97900000Y-130300000D02*
X99500000Y-128700000D01*
D20*
%TO.N,ENA*%
X101400000Y-123600000D02*
X99680000Y-121880000D01*
X99680000Y-121880000D02*
X92700000Y-121880000D01*
D19*
%TO.N,+5V*%
X112360000Y-158600000D02*
X112360000Y-159760000D01*
X113500000Y-160900000D02*
X132300000Y-160900000D01*
X134460000Y-134460000D02*
X133400000Y-134460000D01*
X112360000Y-159760000D02*
X113500000Y-160900000D01*
X135600000Y-157600000D02*
X135600000Y-135600000D01*
X132300000Y-160900000D02*
X135600000Y-157600000D01*
X135600000Y-135600000D02*
X134460000Y-134460000D01*
D22*
%TO.N,+12V*%
X121050000Y-132730000D02*
X127860000Y-139540000D01*
X127860000Y-139540000D02*
X133400000Y-139540000D01*
X121050000Y-126250000D02*
X121050000Y-132730000D01*
D21*
%TO.N,SDA*%
X99500000Y-132400000D02*
X100700000Y-132400000D01*
X103100000Y-117160000D02*
X103360000Y-116900000D01*
X100700000Y-132400000D02*
X103100000Y-130000000D01*
X103100000Y-130000000D02*
X103100000Y-117160000D01*
X99400000Y-132300000D02*
X99500000Y-132400000D01*
%TO.N,SCL*%
X104000000Y-118800000D02*
X105900000Y-116900000D01*
X104000000Y-133300000D02*
X104000000Y-118800000D01*
X101200000Y-136100000D02*
X104000000Y-133300000D01*
X99600000Y-136100000D02*
X101200000Y-136100000D01*
%TD*%
%TA.AperFunction,Conductor*%
%TO.N,GND*%
G36*
X134515270Y-137761717D02*
G01*
X134515270Y-137761716D01*
X134554622Y-137707554D01*
X134615015Y-137589028D01*
X134662990Y-137538232D01*
X134730811Y-137521437D01*
X134796946Y-137543974D01*
X134840397Y-137598690D01*
X134849500Y-137645323D01*
X134849500Y-139171491D01*
X134829815Y-139238530D01*
X134777011Y-139284285D01*
X134707853Y-139294229D01*
X134644297Y-139265204D01*
X134607569Y-139209810D01*
X134558882Y-139059970D01*
X134469523Y-138884594D01*
X134353828Y-138725354D01*
X134214646Y-138586172D01*
X134055405Y-138470476D01*
X133988370Y-138436320D01*
X133937574Y-138388345D01*
X133920779Y-138320524D01*
X133943316Y-138254389D01*
X133988370Y-138215350D01*
X134107554Y-138154622D01*
X134161716Y-138115270D01*
X134161717Y-138115270D01*
X133529408Y-137482962D01*
X133592993Y-137465925D01*
X133707007Y-137400099D01*
X133800099Y-137307007D01*
X133865925Y-137192993D01*
X133882962Y-137129408D01*
X134515270Y-137761717D01*
G37*
%TD.AperFunction*%
%TA.AperFunction,Conductor*%
G36*
X134479209Y-135545281D02*
G01*
X134501738Y-135563105D01*
X134813181Y-135874548D01*
X134846666Y-135935871D01*
X134849500Y-135962229D01*
X134849500Y-136354676D01*
X134829815Y-136421715D01*
X134777011Y-136467470D01*
X134707853Y-136477414D01*
X134644297Y-136448389D01*
X134615015Y-136410971D01*
X134554624Y-136292450D01*
X134515270Y-136238282D01*
X134515269Y-136238282D01*
X133882962Y-136870590D01*
X133865925Y-136807007D01*
X133800099Y-136692993D01*
X133707007Y-136599901D01*
X133592993Y-136534075D01*
X133529409Y-136517037D01*
X134161716Y-135884728D01*
X134107550Y-135845375D01*
X134008655Y-135794985D01*
X133957859Y-135747010D01*
X133941064Y-135679189D01*
X133963602Y-135613054D01*
X134018317Y-135569603D01*
X134064950Y-135560500D01*
X134274676Y-135560500D01*
X134274677Y-135560499D01*
X134347740Y-135545966D01*
X134347744Y-135545963D01*
X134359020Y-135541293D01*
X134359773Y-135543112D01*
X134411826Y-135526806D01*
X134479209Y-135545281D01*
G37*
%TD.AperFunction*%
%TA.AperFunction,Conductor*%
G36*
X132502702Y-108500617D02*
G01*
X132886771Y-108517386D01*
X132897506Y-108518326D01*
X133275971Y-108568152D01*
X133286597Y-108570025D01*
X133659284Y-108652648D01*
X133669710Y-108655442D01*
X134033765Y-108770227D01*
X134043911Y-108773920D01*
X134396578Y-108920000D01*
X134406369Y-108924566D01*
X134744942Y-109100816D01*
X134754310Y-109106224D01*
X135076244Y-109311318D01*
X135085105Y-109317523D01*
X135387930Y-109549889D01*
X135396217Y-109556843D01*
X135677635Y-109814715D01*
X135685284Y-109822364D01*
X135943156Y-110103782D01*
X135950110Y-110112069D01*
X136182476Y-110414894D01*
X136188681Y-110423755D01*
X136393775Y-110745689D01*
X136399183Y-110755057D01*
X136575430Y-111093623D01*
X136580002Y-111103427D01*
X136726075Y-111456078D01*
X136729775Y-111466244D01*
X136844554Y-111830278D01*
X136847354Y-111840727D01*
X136929971Y-112213389D01*
X136931849Y-112224042D01*
X136981671Y-112602473D01*
X136982614Y-112613249D01*
X136999382Y-112997297D01*
X136999500Y-113002706D01*
X136999500Y-157497293D01*
X136999382Y-157502702D01*
X136982614Y-157886750D01*
X136981671Y-157897526D01*
X136931849Y-158275957D01*
X136929971Y-158286610D01*
X136847354Y-158659272D01*
X136844554Y-158669721D01*
X136729775Y-159033755D01*
X136726075Y-159043921D01*
X136580002Y-159396572D01*
X136575430Y-159406376D01*
X136399183Y-159744942D01*
X136393775Y-159754310D01*
X136188681Y-160076244D01*
X136182476Y-160085105D01*
X135950110Y-160387930D01*
X135943156Y-160396217D01*
X135685284Y-160677635D01*
X135677635Y-160685284D01*
X135396217Y-160943156D01*
X135387930Y-160950110D01*
X135085105Y-161182476D01*
X135076244Y-161188681D01*
X134754310Y-161393775D01*
X134744942Y-161399183D01*
X134406376Y-161575430D01*
X134396572Y-161580002D01*
X134043921Y-161726075D01*
X134033755Y-161729775D01*
X133669721Y-161844554D01*
X133659272Y-161847354D01*
X133286610Y-161929971D01*
X133275957Y-161931849D01*
X132897526Y-161981671D01*
X132894633Y-161981219D01*
X132886750Y-161982614D01*
X132502703Y-161999382D01*
X132497294Y-161999500D01*
X85002706Y-161999500D01*
X84997297Y-161999382D01*
X84613249Y-161982614D01*
X84602473Y-161981671D01*
X84224042Y-161931849D01*
X84213389Y-161929971D01*
X83840727Y-161847354D01*
X83830278Y-161844554D01*
X83466244Y-161729775D01*
X83456078Y-161726075D01*
X83103427Y-161580002D01*
X83093623Y-161575430D01*
X82755057Y-161399183D01*
X82745689Y-161393775D01*
X82423755Y-161188681D01*
X82414894Y-161182476D01*
X82112069Y-160950110D01*
X82103782Y-160943156D01*
X81822364Y-160685284D01*
X81814715Y-160677635D01*
X81556843Y-160396217D01*
X81549889Y-160387930D01*
X81317523Y-160085105D01*
X81311318Y-160076244D01*
X81249311Y-159978913D01*
X81106223Y-159754309D01*
X81100822Y-159744954D01*
X80924566Y-159406369D01*
X80919997Y-159396572D01*
X80905560Y-159361717D01*
X80773920Y-159043911D01*
X80770224Y-159033755D01*
X80766659Y-159022447D01*
X80655442Y-158669710D01*
X80652649Y-158659290D01*
X80615950Y-158493753D01*
X103390000Y-158493753D01*
X103390000Y-158706246D01*
X103423242Y-158916127D01*
X103423242Y-158916130D01*
X103488904Y-159118217D01*
X103585375Y-159307550D01*
X103624728Y-159361716D01*
X104257037Y-158729408D01*
X104274075Y-158792993D01*
X104339901Y-158907007D01*
X104432993Y-159000099D01*
X104547007Y-159065925D01*
X104610590Y-159082962D01*
X103978282Y-159715269D01*
X103978282Y-159715270D01*
X104032449Y-159754624D01*
X104221782Y-159851095D01*
X104423870Y-159916757D01*
X104633754Y-159950000D01*
X104846246Y-159950000D01*
X105056127Y-159916757D01*
X105056130Y-159916757D01*
X105258217Y-159851095D01*
X105447554Y-159754622D01*
X105501716Y-159715270D01*
X105501717Y-159715270D01*
X104869408Y-159082962D01*
X104932993Y-159065925D01*
X105047007Y-159000099D01*
X105140099Y-158907007D01*
X105205925Y-158792993D01*
X105222962Y-158729408D01*
X105855270Y-159361717D01*
X105855270Y-159361716D01*
X105894622Y-159307554D01*
X105991096Y-159118215D01*
X106023239Y-159019288D01*
X106062676Y-158961612D01*
X106127034Y-158934413D01*
X106195880Y-158946327D01*
X106247357Y-158993571D01*
X106259100Y-159019284D01*
X106260127Y-159022446D01*
X106268521Y-159038920D01*
X106338768Y-159176788D01*
X106440586Y-159316928D01*
X106563072Y-159439414D01*
X106703212Y-159541232D01*
X106857555Y-159619873D01*
X107022299Y-159673402D01*
X107193389Y-159700500D01*
X107193390Y-159700500D01*
X107366610Y-159700500D01*
X107366611Y-159700500D01*
X107537701Y-159673402D01*
X107702445Y-159619873D01*
X107856788Y-159541232D01*
X107996928Y-159439414D01*
X108119414Y-159316928D01*
X108221232Y-159176788D01*
X108299873Y-159022445D01*
X108353402Y-158857701D01*
X108380500Y-158686611D01*
X108380500Y-158513389D01*
X108719500Y-158513389D01*
X108719500Y-158686611D01*
X108746598Y-158857701D01*
X108800127Y-159022445D01*
X108878768Y-159176788D01*
X108980586Y-159316928D01*
X109103072Y-159439414D01*
X109243212Y-159541232D01*
X109397555Y-159619873D01*
X109562299Y-159673402D01*
X109733389Y-159700500D01*
X109733390Y-159700500D01*
X109906610Y-159700500D01*
X109906611Y-159700500D01*
X110077701Y-159673402D01*
X110242445Y-159619873D01*
X110396788Y-159541232D01*
X110536928Y-159439414D01*
X110659414Y-159316928D01*
X110761232Y-159176788D01*
X110839873Y-159022445D01*
X110893402Y-158857701D01*
X110920500Y-158686611D01*
X110920500Y-158513389D01*
X110893402Y-158342299D01*
X110839873Y-158177555D01*
X110761232Y-158023212D01*
X110659414Y-157883072D01*
X110536928Y-157760586D01*
X110396788Y-157658768D01*
X110242445Y-157580127D01*
X110077701Y-157526598D01*
X110077699Y-157526597D01*
X110077698Y-157526597D01*
X109946271Y-157505781D01*
X109906611Y-157499500D01*
X109733389Y-157499500D01*
X109693728Y-157505781D01*
X109562302Y-157526597D01*
X109397552Y-157580128D01*
X109243211Y-157658768D01*
X109163256Y-157716859D01*
X109103072Y-157760586D01*
X109103070Y-157760588D01*
X109103069Y-157760588D01*
X108980588Y-157883069D01*
X108980588Y-157883070D01*
X108980586Y-157883072D01*
X108970085Y-157897526D01*
X108878768Y-158023211D01*
X108800128Y-158177552D01*
X108746597Y-158342302D01*
X108736349Y-158407007D01*
X108719500Y-158513389D01*
X108380500Y-158513389D01*
X108353402Y-158342299D01*
X108299873Y-158177555D01*
X108221232Y-158023212D01*
X108119414Y-157883072D01*
X107996928Y-157760586D01*
X107856788Y-157658768D01*
X107702445Y-157580127D01*
X107537701Y-157526598D01*
X107537699Y-157526597D01*
X107537698Y-157526597D01*
X107406271Y-157505781D01*
X107366611Y-157499500D01*
X107193389Y-157499500D01*
X107153728Y-157505781D01*
X107022302Y-157526597D01*
X106857552Y-157580128D01*
X106703211Y-157658768D01*
X106623256Y-157716859D01*
X106563072Y-157760586D01*
X106563070Y-157760588D01*
X106563069Y-157760588D01*
X106440588Y-157883069D01*
X106440588Y-157883070D01*
X106440586Y-157883072D01*
X106430085Y-157897526D01*
X106338768Y-158023211D01*
X106260128Y-158177550D01*
X106259099Y-158180720D01*
X106258381Y-158181769D01*
X106258266Y-158182048D01*
X106258207Y-158182023D01*
X106219657Y-158238393D01*
X106155297Y-158265587D01*
X106086451Y-158253668D01*
X106034979Y-158206420D01*
X106023239Y-158180711D01*
X105991096Y-158081784D01*
X105894624Y-157892449D01*
X105855270Y-157838282D01*
X105855269Y-157838282D01*
X105222962Y-158470590D01*
X105205925Y-158407007D01*
X105140099Y-158292993D01*
X105047007Y-158199901D01*
X104932993Y-158134075D01*
X104869409Y-158117037D01*
X105501716Y-157484728D01*
X105447550Y-157445375D01*
X105258217Y-157348904D01*
X105056129Y-157283242D01*
X104846246Y-157250000D01*
X104633754Y-157250000D01*
X104423872Y-157283242D01*
X104423869Y-157283242D01*
X104221782Y-157348904D01*
X104032439Y-157445380D01*
X103978282Y-157484727D01*
X103978282Y-157484728D01*
X104610591Y-158117037D01*
X104547007Y-158134075D01*
X104432993Y-158199901D01*
X104339901Y-158292993D01*
X104274075Y-158407007D01*
X104257037Y-158470591D01*
X103624728Y-157838282D01*
X103624727Y-157838282D01*
X103585380Y-157892439D01*
X103488904Y-158081782D01*
X103423242Y-158283869D01*
X103423242Y-158283872D01*
X103390000Y-158493753D01*
X80615950Y-158493753D01*
X80570025Y-158286597D01*
X80568152Y-158275971D01*
X80518326Y-157897506D01*
X80517386Y-157886769D01*
X80505028Y-157603720D01*
X80502133Y-157537397D01*
X80500618Y-157502703D01*
X80500618Y-157502702D01*
X80500500Y-157497293D01*
X80500500Y-152795316D01*
X87749500Y-152795316D01*
X87749500Y-153114683D01*
X87780803Y-153432522D01*
X87843109Y-153745754D01*
X87935820Y-154051382D01*
X88058040Y-154346446D01*
X88058042Y-154346451D01*
X88208584Y-154628094D01*
X88208601Y-154628122D01*
X88386012Y-154893638D01*
X88386029Y-154893661D01*
X88588638Y-155140540D01*
X88814459Y-155366361D01*
X88814464Y-155366365D01*
X88814465Y-155366366D01*
X89061344Y-155568975D01*
X89061351Y-155568980D01*
X89061361Y-155568987D01*
X89326877Y-155746398D01*
X89326882Y-155746401D01*
X89326894Y-155746409D01*
X89326903Y-155746413D01*
X89326905Y-155746415D01*
X89608548Y-155896957D01*
X89608550Y-155896957D01*
X89608556Y-155896961D01*
X89903619Y-156019180D01*
X90209240Y-156111889D01*
X90522477Y-156174196D01*
X90840313Y-156205500D01*
X90840316Y-156205500D01*
X91159684Y-156205500D01*
X91159687Y-156205500D01*
X91477523Y-156174196D01*
X91790760Y-156111889D01*
X92096381Y-156019180D01*
X92391444Y-155896961D01*
X92673106Y-155746409D01*
X92938656Y-155568975D01*
X93185535Y-155366366D01*
X93411366Y-155140535D01*
X93613975Y-154893656D01*
X93791409Y-154628106D01*
X93941961Y-154346444D01*
X94064180Y-154051381D01*
X94156889Y-153745760D01*
X94219196Y-153432523D01*
X94250500Y-153114687D01*
X94250500Y-152795313D01*
X94219196Y-152477477D01*
X94200194Y-152381947D01*
X95800000Y-152381947D01*
X95800000Y-152618052D01*
X95836934Y-152851247D01*
X95909897Y-153075802D01*
X96017087Y-153286174D01*
X96077338Y-153369104D01*
X96077340Y-153369105D01*
X96776212Y-152670233D01*
X96787482Y-152712292D01*
X96859890Y-152837708D01*
X96962292Y-152940110D01*
X97087708Y-153012518D01*
X97129765Y-153023787D01*
X96430893Y-153722658D01*
X96513828Y-153782914D01*
X96724197Y-153890102D01*
X96948752Y-153963065D01*
X96948751Y-153963065D01*
X97181948Y-154000000D01*
X97418052Y-154000000D01*
X97651247Y-153963065D01*
X97875802Y-153890102D01*
X98086163Y-153782918D01*
X98086169Y-153782914D01*
X98169104Y-153722658D01*
X98169105Y-153722658D01*
X97470233Y-153023787D01*
X97512292Y-153012518D01*
X97637708Y-152940110D01*
X97740110Y-152837708D01*
X97812518Y-152712292D01*
X97823787Y-152670234D01*
X98522658Y-153369105D01*
X98522658Y-153369104D01*
X98582914Y-153286169D01*
X98582918Y-153286163D01*
X98690102Y-153075802D01*
X98763065Y-152851247D01*
X98800000Y-152618052D01*
X98800000Y-152381947D01*
X102300000Y-152381947D01*
X102300000Y-152618052D01*
X102336934Y-152851247D01*
X102409897Y-153075802D01*
X102517087Y-153286174D01*
X102577338Y-153369104D01*
X102577340Y-153369105D01*
X103276212Y-152670233D01*
X103287482Y-152712292D01*
X103359890Y-152837708D01*
X103462292Y-152940110D01*
X103587708Y-153012518D01*
X103629765Y-153023787D01*
X102930893Y-153722658D01*
X103013828Y-153782914D01*
X103224197Y-153890102D01*
X103448752Y-153963065D01*
X103448751Y-153963065D01*
X103681948Y-154000000D01*
X103918052Y-154000000D01*
X104151247Y-153963065D01*
X104375802Y-153890102D01*
X104586163Y-153782918D01*
X104586169Y-153782914D01*
X104669104Y-153722658D01*
X104669105Y-153722658D01*
X103970233Y-153023787D01*
X104012292Y-153012518D01*
X104137708Y-152940110D01*
X104240110Y-152837708D01*
X104312518Y-152712292D01*
X104323787Y-152670234D01*
X105022658Y-153369105D01*
X105022658Y-153369104D01*
X105082914Y-153286169D01*
X105082918Y-153286163D01*
X105190102Y-153075802D01*
X105263065Y-152851247D01*
X105300000Y-152618052D01*
X105300000Y-152381947D01*
X105263065Y-152148752D01*
X105190102Y-151924197D01*
X105082914Y-151713828D01*
X105022658Y-151630894D01*
X105022658Y-151630893D01*
X104323787Y-152329765D01*
X104312518Y-152287708D01*
X104240110Y-152162292D01*
X104137708Y-152059890D01*
X104012292Y-151987482D01*
X103970234Y-151976212D01*
X104669105Y-151277340D01*
X104669104Y-151277338D01*
X104586174Y-151217087D01*
X104375802Y-151109897D01*
X104151247Y-151036934D01*
X104151248Y-151036934D01*
X103918052Y-151000000D01*
X103681948Y-151000000D01*
X103448752Y-151036934D01*
X103224197Y-151109897D01*
X103013830Y-151217084D01*
X102930894Y-151277340D01*
X103629766Y-151976212D01*
X103587708Y-151987482D01*
X103462292Y-152059890D01*
X103359890Y-152162292D01*
X103287482Y-152287708D01*
X103276212Y-152329766D01*
X102577340Y-151630894D01*
X102517084Y-151713830D01*
X102409897Y-151924197D01*
X102336934Y-152148752D01*
X102300000Y-152381947D01*
X98800000Y-152381947D01*
X98763065Y-152148752D01*
X98690102Y-151924197D01*
X98582914Y-151713828D01*
X98522658Y-151630894D01*
X98522658Y-151630893D01*
X97823787Y-152329765D01*
X97812518Y-152287708D01*
X97740110Y-152162292D01*
X97637708Y-152059890D01*
X97512292Y-151987482D01*
X97470234Y-151976212D01*
X98169105Y-151277340D01*
X98169104Y-151277339D01*
X98086174Y-151217087D01*
X97875802Y-151109897D01*
X97651247Y-151036934D01*
X97651248Y-151036934D01*
X97418052Y-151000000D01*
X97181948Y-151000000D01*
X96948752Y-151036934D01*
X96724197Y-151109897D01*
X96513830Y-151217084D01*
X96430894Y-151277340D01*
X97129766Y-151976212D01*
X97087708Y-151987482D01*
X96962292Y-152059890D01*
X96859890Y-152162292D01*
X96787482Y-152287708D01*
X96776212Y-152329766D01*
X96077340Y-151630894D01*
X96017084Y-151713830D01*
X95909897Y-151924197D01*
X95836934Y-152148752D01*
X95800000Y-152381947D01*
X94200194Y-152381947D01*
X94156889Y-152164240D01*
X94064180Y-151858619D01*
X93941961Y-151563556D01*
X93941957Y-151563548D01*
X93845481Y-151383054D01*
X93845480Y-151383053D01*
X93832039Y-151357908D01*
X93791409Y-151281894D01*
X93788366Y-151277340D01*
X93613987Y-151016361D01*
X93613980Y-151016351D01*
X93613975Y-151016344D01*
X93411366Y-150769465D01*
X93411365Y-150769464D01*
X93411361Y-150769459D01*
X93185540Y-150543638D01*
X92938661Y-150341029D01*
X92938638Y-150341012D01*
X92673122Y-150163601D01*
X92673094Y-150163584D01*
X92391451Y-150013042D01*
X92391446Y-150013040D01*
X92096382Y-149890820D01*
X91790754Y-149798109D01*
X91477521Y-149735803D01*
X91477522Y-149735803D01*
X91238141Y-149712227D01*
X91159687Y-149704500D01*
X90840313Y-149704500D01*
X90767822Y-149711639D01*
X90522477Y-149735803D01*
X90209245Y-149798109D01*
X89903617Y-149890820D01*
X89608553Y-150013040D01*
X89608548Y-150013042D01*
X89326905Y-150163584D01*
X89326877Y-150163601D01*
X89061361Y-150341012D01*
X89061338Y-150341029D01*
X88814459Y-150543638D01*
X88588638Y-150769459D01*
X88386029Y-151016338D01*
X88386012Y-151016361D01*
X88208601Y-151281877D01*
X88208584Y-151281905D01*
X88058042Y-151563548D01*
X88058040Y-151563553D01*
X87935820Y-151858617D01*
X87843109Y-152164245D01*
X87780803Y-152477477D01*
X87757677Y-152712292D01*
X87751711Y-152772871D01*
X87749500Y-152795316D01*
X80500500Y-152795316D01*
X80500500Y-147901577D01*
X96049500Y-147901577D01*
X96049500Y-148098422D01*
X96080290Y-148292826D01*
X96141117Y-148480029D01*
X96230476Y-148655405D01*
X96346172Y-148814646D01*
X96485354Y-148953828D01*
X96644595Y-149069524D01*
X96727455Y-149111743D01*
X96819970Y-149158882D01*
X96819972Y-149158882D01*
X96819975Y-149158884D01*
X96920317Y-149191487D01*
X97007173Y-149219709D01*
X97201578Y-149250500D01*
X97201583Y-149250500D01*
X97398422Y-149250500D01*
X97592826Y-149219709D01*
X97780025Y-149158884D01*
X97955405Y-149069524D01*
X98114646Y-148953828D01*
X98253828Y-148814646D01*
X98369524Y-148655405D01*
X98458884Y-148480025D01*
X98519709Y-148292826D01*
X98550500Y-148098422D01*
X98550500Y-147901577D01*
X102549500Y-147901577D01*
X102549500Y-148098422D01*
X102580290Y-148292826D01*
X102641117Y-148480029D01*
X102730476Y-148655405D01*
X102846172Y-148814646D01*
X102985354Y-148953828D01*
X103144595Y-149069524D01*
X103227455Y-149111743D01*
X103319970Y-149158882D01*
X103319972Y-149158882D01*
X103319975Y-149158884D01*
X103420317Y-149191487D01*
X103507173Y-149219709D01*
X103701578Y-149250500D01*
X103701583Y-149250500D01*
X103898422Y-149250500D01*
X104092826Y-149219709D01*
X104280025Y-149158884D01*
X104455405Y-149069524D01*
X104614646Y-148953828D01*
X104753828Y-148814646D01*
X104869524Y-148655405D01*
X104958884Y-148480025D01*
X105019709Y-148292826D01*
X105050500Y-148098422D01*
X105050500Y-147901577D01*
X105019709Y-147707173D01*
X104958882Y-147519970D01*
X104869523Y-147344594D01*
X104753828Y-147185354D01*
X104614646Y-147046172D01*
X104455405Y-146930476D01*
X104280029Y-146841117D01*
X104092826Y-146780290D01*
X103898422Y-146749500D01*
X103898417Y-146749500D01*
X103701583Y-146749500D01*
X103701578Y-146749500D01*
X103507173Y-146780290D01*
X103319970Y-146841117D01*
X103144594Y-146930476D01*
X103053741Y-146996485D01*
X102985354Y-147046172D01*
X102985352Y-147046174D01*
X102985351Y-147046174D01*
X102846174Y-147185351D01*
X102846174Y-147185352D01*
X102846172Y-147185354D01*
X102796485Y-147253741D01*
X102730476Y-147344594D01*
X102641117Y-147519970D01*
X102580290Y-147707173D01*
X102549500Y-147901577D01*
X98550500Y-147901577D01*
X98519709Y-147707173D01*
X98458882Y-147519970D01*
X98369523Y-147344594D01*
X98253828Y-147185354D01*
X98114646Y-147046172D01*
X97955405Y-146930476D01*
X97780029Y-146841117D01*
X97592826Y-146780290D01*
X97398422Y-146749500D01*
X97398417Y-146749500D01*
X97201583Y-146749500D01*
X97201578Y-146749500D01*
X97007173Y-146780290D01*
X96819970Y-146841117D01*
X96644594Y-146930476D01*
X96553741Y-146996485D01*
X96485354Y-147046172D01*
X96485352Y-147046174D01*
X96485351Y-147046174D01*
X96346174Y-147185351D01*
X96346174Y-147185352D01*
X96346172Y-147185354D01*
X96296485Y-147253741D01*
X96230476Y-147344594D01*
X96141117Y-147519970D01*
X96080290Y-147707173D01*
X96049500Y-147901577D01*
X80500500Y-147901577D01*
X80500500Y-144416228D01*
X104149500Y-144416228D01*
X104149500Y-144583771D01*
X104182182Y-144748074D01*
X104182184Y-144748082D01*
X104246295Y-144902860D01*
X104339373Y-145042162D01*
X104457837Y-145160626D01*
X104550494Y-145222537D01*
X104597137Y-145253703D01*
X104751918Y-145317816D01*
X104916228Y-145350499D01*
X104916232Y-145350500D01*
X104916233Y-145350500D01*
X105083768Y-145350500D01*
X105083769Y-145350499D01*
X105248082Y-145317816D01*
X105387808Y-145259938D01*
X105435261Y-145250500D01*
X109387770Y-145250500D01*
X109454809Y-145270185D01*
X109475451Y-145286819D01*
X111573181Y-147384548D01*
X111606666Y-147445871D01*
X111609500Y-147472229D01*
X111609500Y-157742796D01*
X111589815Y-157809835D01*
X111573181Y-157830477D01*
X111520588Y-157883069D01*
X111520588Y-157883070D01*
X111520586Y-157883072D01*
X111510085Y-157897526D01*
X111418768Y-158023211D01*
X111340128Y-158177552D01*
X111286597Y-158342302D01*
X111276349Y-158407007D01*
X111259500Y-158513389D01*
X111259500Y-158686611D01*
X111286598Y-158857701D01*
X111340127Y-159022445D01*
X111418768Y-159176788D01*
X111520586Y-159316928D01*
X111520588Y-159316930D01*
X111573181Y-159369523D01*
X111606666Y-159430846D01*
X111609500Y-159457204D01*
X111609500Y-159833918D01*
X111609500Y-159833920D01*
X111609499Y-159833920D01*
X111638340Y-159978907D01*
X111638343Y-159978917D01*
X111694914Y-160115492D01*
X111694915Y-160115494D01*
X111694916Y-160115495D01*
X111717637Y-160149500D01*
X111727812Y-160164727D01*
X111727813Y-160164730D01*
X111777046Y-160238414D01*
X111777052Y-160238421D01*
X112721109Y-161182476D01*
X112917048Y-161378415D01*
X112917049Y-161378416D01*
X113021583Y-161482950D01*
X113021585Y-161482952D01*
X113144498Y-161565080D01*
X113144511Y-161565087D01*
X113281082Y-161621656D01*
X113281087Y-161621658D01*
X113281091Y-161621658D01*
X113281092Y-161621659D01*
X113426079Y-161650500D01*
X113426082Y-161650500D01*
X132373920Y-161650500D01*
X132471462Y-161631096D01*
X132518913Y-161621658D01*
X132655495Y-161565084D01*
X132704729Y-161532186D01*
X132778416Y-161482952D01*
X136182952Y-158078416D01*
X136235013Y-158000500D01*
X136265084Y-157955495D01*
X136297042Y-157878342D01*
X136321659Y-157818912D01*
X136350500Y-157673917D01*
X136350500Y-157526082D01*
X136350500Y-135526082D01*
X136350500Y-135526079D01*
X136321659Y-135381092D01*
X136321658Y-135381091D01*
X136321658Y-135381087D01*
X136286799Y-135296929D01*
X136265087Y-135244511D01*
X136265080Y-135244498D01*
X136182952Y-135121585D01*
X136182951Y-135121584D01*
X136078416Y-135017049D01*
X135899064Y-134837697D01*
X134938421Y-133877052D01*
X134938414Y-133877046D01*
X134864729Y-133827812D01*
X134864729Y-133827813D01*
X134815491Y-133794913D01*
X134678917Y-133738343D01*
X134678908Y-133738340D01*
X134600307Y-133722705D01*
X134538397Y-133690319D01*
X134503823Y-133629603D01*
X134500500Y-133601088D01*
X134500500Y-133585323D01*
X134500499Y-133585321D01*
X134485967Y-133512264D01*
X134485966Y-133512260D01*
X134473221Y-133493186D01*
X134430601Y-133429399D01*
X134347740Y-133374034D01*
X134347739Y-133374033D01*
X134347735Y-133374032D01*
X134274677Y-133359500D01*
X134274674Y-133359500D01*
X132525326Y-133359500D01*
X132525323Y-133359500D01*
X132452264Y-133374032D01*
X132452260Y-133374033D01*
X132369399Y-133429399D01*
X132314033Y-133512260D01*
X132314032Y-133512264D01*
X132299500Y-133585321D01*
X132299500Y-135334678D01*
X132314032Y-135407735D01*
X132314033Y-135407739D01*
X132321834Y-135419414D01*
X132369399Y-135490601D01*
X132423585Y-135526806D01*
X132452260Y-135545966D01*
X132452264Y-135545967D01*
X132525321Y-135560499D01*
X132525324Y-135560500D01*
X132735051Y-135560500D01*
X132802090Y-135580185D01*
X132847845Y-135632989D01*
X132857789Y-135702147D01*
X132828764Y-135765703D01*
X132791346Y-135794985D01*
X132692439Y-135845380D01*
X132638282Y-135884727D01*
X132638282Y-135884728D01*
X133270591Y-136517037D01*
X133207007Y-136534075D01*
X133092993Y-136599901D01*
X132999901Y-136692993D01*
X132934075Y-136807007D01*
X132917037Y-136870591D01*
X132284728Y-136238282D01*
X132284727Y-136238282D01*
X132245380Y-136292439D01*
X132148904Y-136481782D01*
X132083242Y-136683869D01*
X132083242Y-136683872D01*
X132050000Y-136893753D01*
X132050000Y-137106246D01*
X132083242Y-137316127D01*
X132083242Y-137316130D01*
X132148904Y-137518217D01*
X132245375Y-137707550D01*
X132284728Y-137761716D01*
X132917037Y-137129408D01*
X132934075Y-137192993D01*
X132999901Y-137307007D01*
X133092993Y-137400099D01*
X133207007Y-137465925D01*
X133270590Y-137482962D01*
X132638282Y-138115269D01*
X132641470Y-138155771D01*
X132627106Y-138224148D01*
X132578055Y-138273905D01*
X132517852Y-138289500D01*
X128429336Y-138289500D01*
X128362297Y-138269815D01*
X128341655Y-138253181D01*
X122336819Y-132248345D01*
X122303334Y-132187022D01*
X122300500Y-132160664D01*
X122300500Y-125031947D01*
X125850000Y-125031947D01*
X125850000Y-126000000D01*
X126850000Y-126000000D01*
X126850000Y-126500000D01*
X125850000Y-126500000D01*
X125850000Y-127468052D01*
X125886934Y-127701247D01*
X125959897Y-127925802D01*
X126067085Y-128136171D01*
X126205866Y-128327186D01*
X126372813Y-128494133D01*
X126563828Y-128632914D01*
X126774195Y-128740102D01*
X126998744Y-128813063D01*
X126998750Y-128813065D01*
X127100000Y-128829101D01*
X127100000Y-127783012D01*
X127157007Y-127815925D01*
X127284174Y-127850000D01*
X127415826Y-127850000D01*
X127542993Y-127815925D01*
X127600000Y-127783012D01*
X127600000Y-128829100D01*
X127701249Y-128813065D01*
X127701255Y-128813063D01*
X127925804Y-128740102D01*
X128136171Y-128632914D01*
X128327186Y-128494133D01*
X128494133Y-128327186D01*
X128632914Y-128136171D01*
X128740102Y-127925802D01*
X128813065Y-127701247D01*
X128850000Y-127468052D01*
X128850000Y-126500000D01*
X127850000Y-126500000D01*
X127850000Y-126000000D01*
X128850000Y-126000000D01*
X128850000Y-125031947D01*
X128813065Y-124798752D01*
X128740102Y-124574197D01*
X128632914Y-124363828D01*
X128494133Y-124172813D01*
X128327186Y-124005866D01*
X128136171Y-123867085D01*
X127925802Y-123759897D01*
X127701247Y-123686934D01*
X127600000Y-123670897D01*
X127600000Y-124716988D01*
X127542993Y-124684075D01*
X127415826Y-124650000D01*
X127284174Y-124650000D01*
X127157007Y-124684075D01*
X127100000Y-124716988D01*
X127100000Y-123670897D01*
X126998752Y-123686934D01*
X126774197Y-123759897D01*
X126563828Y-123867085D01*
X126372813Y-124005866D01*
X126205866Y-124172813D01*
X126067085Y-124363828D01*
X125959897Y-124574197D01*
X125886934Y-124798752D01*
X125850000Y-125031947D01*
X122300500Y-125031947D01*
X122300500Y-123925323D01*
X122300499Y-123925321D01*
X122285967Y-123852264D01*
X122285966Y-123852260D01*
X122279920Y-123843211D01*
X122230601Y-123769399D01*
X122147740Y-123714034D01*
X122147739Y-123714033D01*
X122147735Y-123714032D01*
X122074677Y-123699500D01*
X122074674Y-123699500D01*
X120025326Y-123699500D01*
X120025323Y-123699500D01*
X119952264Y-123714032D01*
X119952260Y-123714033D01*
X119869399Y-123769399D01*
X119814033Y-123852260D01*
X119814032Y-123852264D01*
X119799500Y-123925321D01*
X119799500Y-132828422D01*
X119830290Y-133022826D01*
X119891117Y-133210030D01*
X119967277Y-133359500D01*
X119980476Y-133385405D01*
X120096172Y-133544646D01*
X127045354Y-140493828D01*
X127204594Y-140609524D01*
X127265389Y-140640500D01*
X127322682Y-140669692D01*
X127379974Y-140698884D01*
X127379980Y-140698886D01*
X127445361Y-140720129D01*
X127506346Y-140739944D01*
X127506347Y-140739945D01*
X127506348Y-140739945D01*
X127567173Y-140759709D01*
X127640076Y-140771255D01*
X127761578Y-140790500D01*
X127761583Y-140790500D01*
X133498422Y-140790500D01*
X133692826Y-140759709D01*
X133880025Y-140698884D01*
X134055405Y-140609524D01*
X134214646Y-140493828D01*
X134353828Y-140354646D01*
X134469524Y-140195405D01*
X134558884Y-140020025D01*
X134607569Y-139870189D01*
X134647007Y-139812514D01*
X134711366Y-139785316D01*
X134780212Y-139797231D01*
X134831688Y-139844475D01*
X134849500Y-139908508D01*
X134849500Y-157237770D01*
X134829815Y-157304809D01*
X134813181Y-157325451D01*
X132025451Y-160113181D01*
X131964128Y-160146666D01*
X131937770Y-160149500D01*
X113862229Y-160149500D01*
X113795190Y-160129815D01*
X113774548Y-160113181D01*
X113495285Y-159833918D01*
X113176533Y-159515166D01*
X113143050Y-159453845D01*
X113148034Y-159384153D01*
X113176532Y-159339809D01*
X113199414Y-159316928D01*
X113301232Y-159176788D01*
X113379873Y-159022445D01*
X113433402Y-158857701D01*
X113460500Y-158686611D01*
X113460500Y-158513389D01*
X113433402Y-158342299D01*
X113379873Y-158177555D01*
X113301232Y-158023212D01*
X113199414Y-157883072D01*
X113146819Y-157830477D01*
X113132115Y-157803549D01*
X113115523Y-157777731D01*
X113114631Y-157771530D01*
X113113334Y-157769154D01*
X113110500Y-157742796D01*
X113110500Y-157725321D01*
X113799500Y-157725321D01*
X113799500Y-159474678D01*
X113814032Y-159547735D01*
X113814033Y-159547739D01*
X113814034Y-159547740D01*
X113869399Y-159630601D01*
X113952260Y-159685966D01*
X113952264Y-159685967D01*
X114025321Y-159700499D01*
X114025324Y-159700500D01*
X114025326Y-159700500D01*
X115774676Y-159700500D01*
X115774677Y-159700499D01*
X115847740Y-159685966D01*
X115930601Y-159630601D01*
X115985966Y-159547740D01*
X116000500Y-159474674D01*
X116000500Y-157725326D01*
X116000500Y-157725323D01*
X116000499Y-157725321D01*
X115985967Y-157652264D01*
X115985966Y-157652260D01*
X115930601Y-157569399D01*
X115866542Y-157526597D01*
X115847739Y-157514033D01*
X115847735Y-157514032D01*
X115774677Y-157499500D01*
X115774674Y-157499500D01*
X114025326Y-157499500D01*
X114025323Y-157499500D01*
X113952264Y-157514032D01*
X113952260Y-157514033D01*
X113869399Y-157569399D01*
X113814033Y-157652260D01*
X113814032Y-157652264D01*
X113799500Y-157725321D01*
X113110500Y-157725321D01*
X113110500Y-152381947D01*
X115000000Y-152381947D01*
X115000000Y-152618052D01*
X115036934Y-152851247D01*
X115109897Y-153075802D01*
X115217087Y-153286174D01*
X115277338Y-153369104D01*
X115277340Y-153369105D01*
X115976212Y-152670233D01*
X115987482Y-152712292D01*
X116059890Y-152837708D01*
X116162292Y-152940110D01*
X116287708Y-153012518D01*
X116329765Y-153023787D01*
X115630893Y-153722658D01*
X115713828Y-153782914D01*
X115924197Y-153890102D01*
X116148752Y-153963065D01*
X116148751Y-153963065D01*
X116381948Y-154000000D01*
X116618052Y-154000000D01*
X116851247Y-153963065D01*
X117075802Y-153890102D01*
X117286163Y-153782918D01*
X117286169Y-153782914D01*
X117369104Y-153722658D01*
X117369105Y-153722658D01*
X116670233Y-153023787D01*
X116712292Y-153012518D01*
X116837708Y-152940110D01*
X116940110Y-152837708D01*
X117012518Y-152712292D01*
X117023787Y-152670234D01*
X117722658Y-153369105D01*
X117722658Y-153369104D01*
X117782914Y-153286169D01*
X117782918Y-153286163D01*
X117890102Y-153075802D01*
X117963065Y-152851247D01*
X118000000Y-152618052D01*
X118000000Y-152381947D01*
X121500000Y-152381947D01*
X121500000Y-152618052D01*
X121536934Y-152851247D01*
X121609897Y-153075802D01*
X121717087Y-153286174D01*
X121777338Y-153369104D01*
X121777340Y-153369105D01*
X122476212Y-152670233D01*
X122487482Y-152712292D01*
X122559890Y-152837708D01*
X122662292Y-152940110D01*
X122787708Y-153012518D01*
X122829765Y-153023787D01*
X122130893Y-153722658D01*
X122213828Y-153782914D01*
X122424197Y-153890102D01*
X122648752Y-153963065D01*
X122648751Y-153963065D01*
X122881948Y-154000000D01*
X123118052Y-154000000D01*
X123351247Y-153963065D01*
X123575802Y-153890102D01*
X123786163Y-153782918D01*
X123786169Y-153782914D01*
X123869104Y-153722658D01*
X123869105Y-153722658D01*
X123170233Y-153023787D01*
X123212292Y-153012518D01*
X123337708Y-152940110D01*
X123440110Y-152837708D01*
X123512518Y-152712292D01*
X123523787Y-152670233D01*
X124222658Y-153369105D01*
X124222658Y-153369104D01*
X124282914Y-153286169D01*
X124282918Y-153286163D01*
X124390102Y-153075802D01*
X124463065Y-152851247D01*
X124463066Y-152851246D01*
X124471924Y-152795316D01*
X125849500Y-152795316D01*
X125849500Y-153114683D01*
X125880803Y-153432522D01*
X125943109Y-153745754D01*
X126035820Y-154051382D01*
X126158040Y-154346446D01*
X126158042Y-154346451D01*
X126308584Y-154628094D01*
X126308601Y-154628122D01*
X126486012Y-154893638D01*
X126486029Y-154893661D01*
X126688638Y-155140540D01*
X126914459Y-155366361D01*
X126914464Y-155366365D01*
X126914465Y-155366366D01*
X127161344Y-155568975D01*
X127161351Y-155568980D01*
X127161361Y-155568987D01*
X127426877Y-155746398D01*
X127426882Y-155746401D01*
X127426894Y-155746409D01*
X127426903Y-155746413D01*
X127426905Y-155746415D01*
X127708548Y-155896957D01*
X127708550Y-155896957D01*
X127708556Y-155896961D01*
X128003619Y-156019180D01*
X128309240Y-156111889D01*
X128622477Y-156174196D01*
X128940313Y-156205500D01*
X128940316Y-156205500D01*
X129259684Y-156205500D01*
X129259687Y-156205500D01*
X129577523Y-156174196D01*
X129890760Y-156111889D01*
X130196381Y-156019180D01*
X130491444Y-155896961D01*
X130773106Y-155746409D01*
X131038656Y-155568975D01*
X131285535Y-155366366D01*
X131511366Y-155140535D01*
X131713975Y-154893656D01*
X131891409Y-154628106D01*
X132041961Y-154346444D01*
X132164180Y-154051381D01*
X132256889Y-153745760D01*
X132319196Y-153432523D01*
X132350500Y-153114687D01*
X132350500Y-152795313D01*
X132319196Y-152477477D01*
X132256889Y-152164240D01*
X132164180Y-151858619D01*
X132041961Y-151563556D01*
X131945480Y-151383054D01*
X131891415Y-151281905D01*
X131891413Y-151281903D01*
X131891409Y-151281894D01*
X131888366Y-151277340D01*
X131713987Y-151016361D01*
X131713980Y-151016351D01*
X131713975Y-151016344D01*
X131511366Y-150769465D01*
X131511365Y-150769464D01*
X131511361Y-150769459D01*
X131285540Y-150543638D01*
X131038661Y-150341029D01*
X131038638Y-150341012D01*
X130773122Y-150163601D01*
X130773094Y-150163584D01*
X130491451Y-150013042D01*
X130491446Y-150013040D01*
X130196382Y-149890820D01*
X129890754Y-149798109D01*
X129577521Y-149735803D01*
X129577522Y-149735803D01*
X129338141Y-149712227D01*
X129259687Y-149704500D01*
X128940313Y-149704500D01*
X128867822Y-149711639D01*
X128622477Y-149735803D01*
X128309245Y-149798109D01*
X128003617Y-149890820D01*
X127708553Y-150013040D01*
X127708548Y-150013042D01*
X127426905Y-150163584D01*
X127426877Y-150163601D01*
X127161361Y-150341012D01*
X127161338Y-150341029D01*
X126914459Y-150543638D01*
X126688638Y-150769459D01*
X126486029Y-151016338D01*
X126486012Y-151016361D01*
X126308601Y-151281877D01*
X126308584Y-151281905D01*
X126158042Y-151563548D01*
X126158040Y-151563553D01*
X126035820Y-151858617D01*
X125943109Y-152164245D01*
X125880803Y-152477477D01*
X125857677Y-152712292D01*
X125851711Y-152772871D01*
X125849500Y-152795316D01*
X124471924Y-152795316D01*
X124475479Y-152772872D01*
X124475479Y-152772871D01*
X124500000Y-152618052D01*
X124500000Y-152381947D01*
X124463065Y-152148752D01*
X124390102Y-151924197D01*
X124282914Y-151713828D01*
X124222658Y-151630894D01*
X124222658Y-151630893D01*
X123523787Y-152329765D01*
X123512518Y-152287708D01*
X123440110Y-152162292D01*
X123337708Y-152059890D01*
X123212292Y-151987482D01*
X123170234Y-151976212D01*
X123869105Y-151277340D01*
X123869104Y-151277338D01*
X123786174Y-151217087D01*
X123575802Y-151109897D01*
X123351247Y-151036934D01*
X123351248Y-151036934D01*
X123118052Y-151000000D01*
X122881948Y-151000000D01*
X122648752Y-151036934D01*
X122424197Y-151109897D01*
X122213830Y-151217084D01*
X122130894Y-151277340D01*
X122829766Y-151976212D01*
X122787708Y-151987482D01*
X122662292Y-152059890D01*
X122559890Y-152162292D01*
X122487482Y-152287708D01*
X122476212Y-152329766D01*
X121777340Y-151630894D01*
X121717084Y-151713830D01*
X121609897Y-151924197D01*
X121536934Y-152148752D01*
X121500000Y-152381947D01*
X118000000Y-152381947D01*
X117963065Y-152148752D01*
X117890102Y-151924197D01*
X117782914Y-151713828D01*
X117722658Y-151630894D01*
X117722658Y-151630893D01*
X117023787Y-152329765D01*
X117012518Y-152287708D01*
X116940110Y-152162292D01*
X116837708Y-152059890D01*
X116712292Y-151987482D01*
X116670234Y-151976212D01*
X117369105Y-151277340D01*
X117369104Y-151277339D01*
X117286174Y-151217087D01*
X117075802Y-151109897D01*
X116851247Y-151036934D01*
X116851248Y-151036934D01*
X116618052Y-151000000D01*
X116381948Y-151000000D01*
X116148752Y-151036934D01*
X115924197Y-151109897D01*
X115713830Y-151217084D01*
X115630894Y-151277340D01*
X116329766Y-151976212D01*
X116287708Y-151987482D01*
X116162292Y-152059890D01*
X116059890Y-152162292D01*
X115987482Y-152287708D01*
X115976212Y-152329766D01*
X115277340Y-151630894D01*
X115217084Y-151713830D01*
X115109897Y-151924197D01*
X115036934Y-152148752D01*
X115000000Y-152381947D01*
X113110500Y-152381947D01*
X113110500Y-147901577D01*
X115249500Y-147901577D01*
X115249500Y-148098422D01*
X115280290Y-148292826D01*
X115341117Y-148480029D01*
X115430476Y-148655405D01*
X115546172Y-148814646D01*
X115685354Y-148953828D01*
X115844595Y-149069524D01*
X115927455Y-149111743D01*
X116019970Y-149158882D01*
X116019972Y-149158882D01*
X116019975Y-149158884D01*
X116120317Y-149191487D01*
X116207173Y-149219709D01*
X116401578Y-149250500D01*
X116401583Y-149250500D01*
X116598422Y-149250500D01*
X116792826Y-149219709D01*
X116980025Y-149158884D01*
X117155405Y-149069524D01*
X117314646Y-148953828D01*
X117453828Y-148814646D01*
X117569524Y-148655405D01*
X117658884Y-148480025D01*
X117719709Y-148292826D01*
X117750500Y-148098422D01*
X117750500Y-147901577D01*
X121749500Y-147901577D01*
X121749500Y-148098422D01*
X121780290Y-148292826D01*
X121841117Y-148480029D01*
X121930476Y-148655405D01*
X122046172Y-148814646D01*
X122185354Y-148953828D01*
X122344595Y-149069524D01*
X122427455Y-149111743D01*
X122519970Y-149158882D01*
X122519972Y-149158882D01*
X122519975Y-149158884D01*
X122620317Y-149191487D01*
X122707173Y-149219709D01*
X122901578Y-149250500D01*
X122901583Y-149250500D01*
X123098422Y-149250500D01*
X123292826Y-149219709D01*
X123480025Y-149158884D01*
X123655405Y-149069524D01*
X123814646Y-148953828D01*
X123953828Y-148814646D01*
X124069524Y-148655405D01*
X124158884Y-148480025D01*
X124219709Y-148292826D01*
X124250500Y-148098422D01*
X124250500Y-147901577D01*
X124219709Y-147707173D01*
X124158882Y-147519970D01*
X124069523Y-147344594D01*
X123953828Y-147185354D01*
X123814646Y-147046172D01*
X123655405Y-146930476D01*
X123480029Y-146841117D01*
X123292826Y-146780290D01*
X123098422Y-146749500D01*
X123098417Y-146749500D01*
X122901583Y-146749500D01*
X122901578Y-146749500D01*
X122707173Y-146780290D01*
X122519970Y-146841117D01*
X122344594Y-146930476D01*
X122253741Y-146996485D01*
X122185354Y-147046172D01*
X122185352Y-147046174D01*
X122185351Y-147046174D01*
X122046174Y-147185351D01*
X122046174Y-147185352D01*
X122046172Y-147185354D01*
X121996485Y-147253741D01*
X121930476Y-147344594D01*
X121841117Y-147519970D01*
X121780290Y-147707173D01*
X121749500Y-147901577D01*
X117750500Y-147901577D01*
X117719709Y-147707173D01*
X117658882Y-147519970D01*
X117569523Y-147344594D01*
X117453828Y-147185354D01*
X117314646Y-147046172D01*
X117155405Y-146930476D01*
X116980029Y-146841117D01*
X116792826Y-146780290D01*
X116598422Y-146749500D01*
X116598417Y-146749500D01*
X116401583Y-146749500D01*
X116401578Y-146749500D01*
X116207173Y-146780290D01*
X116019970Y-146841117D01*
X115844594Y-146930476D01*
X115753741Y-146996485D01*
X115685354Y-147046172D01*
X115685352Y-147046174D01*
X115685351Y-147046174D01*
X115546174Y-147185351D01*
X115546174Y-147185352D01*
X115546172Y-147185354D01*
X115496485Y-147253741D01*
X115430476Y-147344594D01*
X115341117Y-147519970D01*
X115280290Y-147707173D01*
X115249500Y-147901577D01*
X113110500Y-147901577D01*
X113110500Y-147036079D01*
X113081659Y-146891092D01*
X113081658Y-146891091D01*
X113081658Y-146891087D01*
X113060960Y-146841117D01*
X113025087Y-146754511D01*
X113025080Y-146754498D01*
X112942952Y-146631585D01*
X112942951Y-146631584D01*
X112838416Y-146527049D01*
X110228421Y-143917052D01*
X110228414Y-143917046D01*
X110154729Y-143867812D01*
X110154729Y-143867813D01*
X110105491Y-143834913D01*
X109968917Y-143778343D01*
X109968907Y-143778340D01*
X109823920Y-143749500D01*
X109823918Y-143749500D01*
X105435261Y-143749500D01*
X105387808Y-143740061D01*
X105248082Y-143682184D01*
X105248074Y-143682182D01*
X105083771Y-143649500D01*
X105083767Y-143649500D01*
X104916233Y-143649500D01*
X104916228Y-143649500D01*
X104751925Y-143682182D01*
X104751917Y-143682184D01*
X104597139Y-143746295D01*
X104457837Y-143839373D01*
X104339373Y-143957837D01*
X104246295Y-144097139D01*
X104182184Y-144251917D01*
X104182182Y-144251925D01*
X104149500Y-144416228D01*
X80500500Y-144416228D01*
X80500500Y-134493389D01*
X91599500Y-134493389D01*
X91599500Y-134666611D01*
X91626598Y-134837701D01*
X91680127Y-135002445D01*
X91758768Y-135156788D01*
X91860586Y-135296928D01*
X91983072Y-135419414D01*
X92048388Y-135466868D01*
X92091051Y-135522195D01*
X92099500Y-135567184D01*
X92099500Y-141313330D01*
X92099499Y-141313348D01*
X92099499Y-141479054D01*
X92099498Y-141479054D01*
X92140423Y-141631785D01*
X92169358Y-141681900D01*
X92169359Y-141681904D01*
X92169360Y-141681904D01*
X92219479Y-141768714D01*
X92219481Y-141768717D01*
X92338349Y-141887585D01*
X92338355Y-141887590D01*
X94015139Y-143564374D01*
X94015149Y-143564385D01*
X94019479Y-143568715D01*
X94019480Y-143568716D01*
X94131284Y-143680520D01*
X94131286Y-143680521D01*
X94131290Y-143680524D01*
X94245214Y-143746297D01*
X94268216Y-143759577D01*
X94380019Y-143789534D01*
X94420942Y-143800500D01*
X94420943Y-143800500D01*
X101413331Y-143800500D01*
X101413347Y-143800501D01*
X101420943Y-143800501D01*
X101579054Y-143800501D01*
X101579057Y-143800501D01*
X101731785Y-143759577D01*
X101781904Y-143730639D01*
X101868716Y-143680520D01*
X101980520Y-143568716D01*
X101980520Y-143568714D01*
X101990728Y-143558507D01*
X101990729Y-143558504D01*
X108162416Y-137386819D01*
X108223739Y-137353334D01*
X108250097Y-137350500D01*
X108283768Y-137350500D01*
X108283769Y-137350499D01*
X108448082Y-137317816D01*
X108602863Y-137253703D01*
X108742162Y-137160626D01*
X108860626Y-137042162D01*
X108953703Y-136902863D01*
X109017816Y-136748082D01*
X109050500Y-136583767D01*
X109050500Y-136416233D01*
X109017816Y-136251918D01*
X108953703Y-136097137D01*
X108922537Y-136050494D01*
X108860626Y-135957837D01*
X108742162Y-135839373D01*
X108602860Y-135746295D01*
X108448082Y-135682184D01*
X108448074Y-135682182D01*
X108283771Y-135649500D01*
X108283767Y-135649500D01*
X108116233Y-135649500D01*
X108116228Y-135649500D01*
X107951925Y-135682182D01*
X107951917Y-135682184D01*
X107797139Y-135746295D01*
X107657837Y-135839373D01*
X107539373Y-135957837D01*
X107446295Y-136097139D01*
X107382184Y-136251917D01*
X107382182Y-136251925D01*
X107349500Y-136416228D01*
X107349500Y-136449903D01*
X107329815Y-136516942D01*
X107313181Y-136537584D01*
X101287584Y-142563181D01*
X101226261Y-142596666D01*
X101199903Y-142599500D01*
X94800097Y-142599500D01*
X94733058Y-142579815D01*
X94712416Y-142563181D01*
X93336819Y-141187584D01*
X93303334Y-141126261D01*
X93300500Y-141099903D01*
X93300500Y-135567184D01*
X93320185Y-135500145D01*
X93351609Y-135466870D01*
X93416928Y-135419414D01*
X93539414Y-135296928D01*
X93641232Y-135156788D01*
X93719873Y-135002445D01*
X93773402Y-134837701D01*
X93800500Y-134666611D01*
X93800500Y-134493389D01*
X93773402Y-134322299D01*
X93719873Y-134157555D01*
X93641232Y-134003212D01*
X93539414Y-133863072D01*
X93416928Y-133740586D01*
X93276788Y-133638768D01*
X93122445Y-133560127D01*
X92957701Y-133506598D01*
X92957699Y-133506597D01*
X92957698Y-133506597D01*
X92826271Y-133485781D01*
X92786611Y-133479500D01*
X92613389Y-133479500D01*
X92573728Y-133485781D01*
X92442302Y-133506597D01*
X92277552Y-133560128D01*
X92123211Y-133638768D01*
X92052258Y-133690319D01*
X91983072Y-133740586D01*
X91983070Y-133740588D01*
X91983069Y-133740588D01*
X91860588Y-133863069D01*
X91860588Y-133863070D01*
X91860586Y-133863072D01*
X91850432Y-133877048D01*
X91758768Y-134003211D01*
X91680128Y-134157552D01*
X91626597Y-134322302D01*
X91599500Y-134493389D01*
X80500500Y-134493389D01*
X80500500Y-131953389D01*
X91599500Y-131953389D01*
X91599500Y-132126611D01*
X91626598Y-132297701D01*
X91680127Y-132462445D01*
X91758768Y-132616788D01*
X91860586Y-132756928D01*
X91983072Y-132879414D01*
X92123212Y-132981232D01*
X92277555Y-133059873D01*
X92442299Y-133113402D01*
X92613389Y-133140500D01*
X92613390Y-133140500D01*
X92786610Y-133140500D01*
X92786611Y-133140500D01*
X92957701Y-133113402D01*
X93122445Y-133059873D01*
X93276788Y-132981232D01*
X93416928Y-132879414D01*
X93539414Y-132756928D01*
X93641232Y-132616788D01*
X93719873Y-132462445D01*
X93773402Y-132297701D01*
X93800500Y-132126611D01*
X93800500Y-131953389D01*
X93773402Y-131782299D01*
X93719873Y-131617555D01*
X93641232Y-131463212D01*
X93539414Y-131323072D01*
X93416928Y-131200586D01*
X93276788Y-131098768D01*
X93122445Y-131020127D01*
X92957701Y-130966598D01*
X92957699Y-130966597D01*
X92957698Y-130966597D01*
X92826271Y-130945781D01*
X92786611Y-130939500D01*
X92613389Y-130939500D01*
X92573728Y-130945781D01*
X92442302Y-130966597D01*
X92277552Y-131020128D01*
X92123211Y-131098768D01*
X92043256Y-131156859D01*
X91983072Y-131200586D01*
X91983070Y-131200588D01*
X91983069Y-131200588D01*
X91860588Y-131323069D01*
X91860588Y-131323070D01*
X91860586Y-131323072D01*
X91816859Y-131383256D01*
X91758768Y-131463211D01*
X91680128Y-131617552D01*
X91626597Y-131782302D01*
X91608484Y-131896666D01*
X91599500Y-131953389D01*
X80500500Y-131953389D01*
X80500500Y-129413389D01*
X91599500Y-129413389D01*
X91599500Y-129586611D01*
X91626598Y-129757701D01*
X91680127Y-129922445D01*
X91758768Y-130076788D01*
X91860586Y-130216928D01*
X91983072Y-130339414D01*
X92123212Y-130441232D01*
X92277555Y-130519873D01*
X92442299Y-130573402D01*
X92613389Y-130600500D01*
X92613390Y-130600500D01*
X92786610Y-130600500D01*
X92786611Y-130600500D01*
X92957701Y-130573402D01*
X93122445Y-130519873D01*
X93276788Y-130441232D01*
X93416928Y-130339414D01*
X93522234Y-130234108D01*
X97399500Y-130234108D01*
X97399500Y-139665891D01*
X97433608Y-139793187D01*
X97435943Y-139797231D01*
X97499500Y-139907314D01*
X97499502Y-139907316D01*
X98513312Y-140921126D01*
X98546797Y-140982449D01*
X98548409Y-141010141D01*
X98549500Y-141010141D01*
X98549500Y-141183771D01*
X98582182Y-141348074D01*
X98582184Y-141348082D01*
X98646295Y-141502860D01*
X98739373Y-141642162D01*
X98857837Y-141760626D01*
X98950494Y-141822537D01*
X98997137Y-141853703D01*
X99151918Y-141917816D01*
X99316228Y-141950499D01*
X99316232Y-141950500D01*
X99316233Y-141950500D01*
X99483768Y-141950500D01*
X99483769Y-141950499D01*
X99648082Y-141917816D01*
X99802863Y-141853703D01*
X99942162Y-141760626D01*
X100060626Y-141642162D01*
X100153703Y-141502863D01*
X100217816Y-141348082D01*
X100250500Y-141183767D01*
X100250500Y-141016233D01*
X100217816Y-140851918D01*
X100168227Y-140732201D01*
X100153704Y-140697139D01*
X100060626Y-140557837D01*
X99942162Y-140439373D01*
X99802860Y-140346295D01*
X99648082Y-140282184D01*
X99648074Y-140282182D01*
X99483771Y-140249500D01*
X99483767Y-140249500D01*
X99316233Y-140249500D01*
X99310141Y-140249500D01*
X99310141Y-140246988D01*
X99252283Y-140235999D01*
X99221126Y-140213312D01*
X98436819Y-139429005D01*
X98403334Y-139367682D01*
X98400500Y-139341324D01*
X98400500Y-132732847D01*
X98420185Y-132665808D01*
X98472989Y-132620053D01*
X98542147Y-132610109D01*
X98605703Y-132639134D01*
X98639061Y-132685395D01*
X98646294Y-132702858D01*
X98646295Y-132702860D01*
X98739373Y-132842162D01*
X98857837Y-132960626D01*
X98950494Y-133022537D01*
X98997137Y-133053703D01*
X98997138Y-133053703D01*
X98997139Y-133053704D01*
X99019538Y-133062982D01*
X99151918Y-133117816D01*
X99316228Y-133150499D01*
X99316232Y-133150500D01*
X99316233Y-133150500D01*
X99483768Y-133150500D01*
X99483769Y-133150499D01*
X99648082Y-133117816D01*
X99802863Y-133053703D01*
X99942162Y-132960626D01*
X99942165Y-132960623D01*
X99965970Y-132936819D01*
X100027293Y-132903334D01*
X100053651Y-132900500D01*
X100765890Y-132900500D01*
X100765892Y-132900500D01*
X100893186Y-132866392D01*
X101007314Y-132800500D01*
X103287819Y-130519995D01*
X103349142Y-130486510D01*
X103418834Y-130491494D01*
X103474767Y-130533366D01*
X103499184Y-130598830D01*
X103499500Y-130607676D01*
X103499500Y-133041324D01*
X103479815Y-133108363D01*
X103463181Y-133129005D01*
X101029005Y-135563181D01*
X100967682Y-135596666D01*
X100941324Y-135599500D01*
X100353465Y-135599500D01*
X100286426Y-135579815D01*
X100265709Y-135561369D01*
X100264934Y-135562145D01*
X100142162Y-135439373D01*
X100002860Y-135346295D01*
X99848082Y-135282184D01*
X99848074Y-135282182D01*
X99683771Y-135249500D01*
X99683767Y-135249500D01*
X99516233Y-135249500D01*
X99516228Y-135249500D01*
X99351925Y-135282182D01*
X99351917Y-135282184D01*
X99197139Y-135346295D01*
X99057837Y-135439373D01*
X98939373Y-135557837D01*
X98846295Y-135697139D01*
X98782184Y-135851917D01*
X98782182Y-135851925D01*
X98749500Y-136016228D01*
X98749500Y-136183771D01*
X98782182Y-136348074D01*
X98782184Y-136348082D01*
X98846295Y-136502860D01*
X98939373Y-136642162D01*
X99057837Y-136760626D01*
X99127252Y-136807007D01*
X99197137Y-136853703D01*
X99351918Y-136917816D01*
X99516228Y-136950499D01*
X99516232Y-136950500D01*
X99516233Y-136950500D01*
X99683768Y-136950500D01*
X99683769Y-136950499D01*
X99848082Y-136917816D01*
X100002863Y-136853703D01*
X100142162Y-136760626D01*
X100154714Y-136748074D01*
X100264934Y-136637855D01*
X100266716Y-136639637D01*
X100315342Y-136606506D01*
X100353465Y-136600500D01*
X101265890Y-136600500D01*
X101265892Y-136600500D01*
X101393186Y-136566392D01*
X101507314Y-136500500D01*
X104400500Y-133607314D01*
X104466392Y-133493186D01*
X104500500Y-133365892D01*
X104500500Y-133234108D01*
X104500500Y-130377525D01*
X105699500Y-130377525D01*
X105699500Y-130522475D01*
X105737016Y-130662485D01*
X105737017Y-130662488D01*
X105809488Y-130788011D01*
X105809490Y-130788013D01*
X105809491Y-130788015D01*
X105911985Y-130890509D01*
X105911986Y-130890510D01*
X105911988Y-130890511D01*
X106037511Y-130962982D01*
X106037512Y-130962982D01*
X106037515Y-130962984D01*
X106177525Y-131000500D01*
X106177528Y-131000500D01*
X106275500Y-131000500D01*
X106284185Y-131003050D01*
X106293147Y-131001762D01*
X106317187Y-131012740D01*
X106342539Y-131020185D01*
X106348466Y-131027025D01*
X106356703Y-131030787D01*
X106370992Y-131053021D01*
X106388294Y-131072989D01*
X106390581Y-131083503D01*
X106394477Y-131089565D01*
X106399500Y-131124500D01*
X106399500Y-131175500D01*
X106379815Y-131242539D01*
X106327011Y-131288294D01*
X106275500Y-131299500D01*
X106177525Y-131299500D01*
X106072309Y-131327693D01*
X106037511Y-131337017D01*
X105911988Y-131409488D01*
X105911982Y-131409493D01*
X105809493Y-131511982D01*
X105809488Y-131511988D01*
X105737017Y-131637511D01*
X105737016Y-131637515D01*
X105699500Y-131777525D01*
X105699500Y-131922475D01*
X105734185Y-132051918D01*
X105737017Y-132062488D01*
X105809488Y-132188011D01*
X105809490Y-132188013D01*
X105809491Y-132188015D01*
X105911985Y-132290509D01*
X105911986Y-132290510D01*
X105911988Y-132290511D01*
X106037511Y-132362982D01*
X106037512Y-132362982D01*
X106037515Y-132362984D01*
X106177525Y-132400500D01*
X106177528Y-132400500D01*
X106275500Y-132400500D01*
X106342539Y-132420185D01*
X106388294Y-132472989D01*
X106399500Y-132524500D01*
X106399500Y-132622475D01*
X106435527Y-132756928D01*
X106437017Y-132762488D01*
X106509488Y-132888011D01*
X106509490Y-132888013D01*
X106509491Y-132888015D01*
X106611985Y-132990509D01*
X106611986Y-132990510D01*
X106611988Y-132990511D01*
X106737511Y-133062982D01*
X106737512Y-133062982D01*
X106737515Y-133062984D01*
X106877525Y-133100500D01*
X106877528Y-133100500D01*
X107022472Y-133100500D01*
X107022475Y-133100500D01*
X107162485Y-133062984D01*
X107288015Y-132990509D01*
X107390509Y-132888015D01*
X107462984Y-132762485D01*
X107500500Y-132622475D01*
X107500500Y-132524500D01*
X107503050Y-132515814D01*
X107501762Y-132506853D01*
X107512740Y-132482812D01*
X107520185Y-132457461D01*
X107527025Y-132451533D01*
X107530787Y-132443297D01*
X107553021Y-132429007D01*
X107572989Y-132411706D01*
X107583503Y-132409418D01*
X107589565Y-132405523D01*
X107624500Y-132400500D01*
X107675500Y-132400500D01*
X107742539Y-132420185D01*
X107788294Y-132472989D01*
X107799500Y-132524500D01*
X107799500Y-132622475D01*
X107835527Y-132756928D01*
X107837017Y-132762488D01*
X107909488Y-132888011D01*
X107909490Y-132888013D01*
X107909491Y-132888015D01*
X108011985Y-132990509D01*
X108011986Y-132990510D01*
X108011988Y-132990511D01*
X108137511Y-133062982D01*
X108137512Y-133062982D01*
X108137515Y-133062984D01*
X108277525Y-133100500D01*
X108277528Y-133100500D01*
X108422472Y-133100500D01*
X108422475Y-133100500D01*
X108562485Y-133062984D01*
X108688015Y-132990509D01*
X108790509Y-132888015D01*
X108862984Y-132762485D01*
X108900500Y-132622475D01*
X108900500Y-132524500D01*
X108920185Y-132457461D01*
X108972989Y-132411706D01*
X109024500Y-132400500D01*
X109122472Y-132400500D01*
X109122475Y-132400500D01*
X109262485Y-132362984D01*
X109388015Y-132290509D01*
X109490509Y-132188015D01*
X109562984Y-132062485D01*
X109600500Y-131922475D01*
X109600500Y-131777525D01*
X109562984Y-131637515D01*
X109551458Y-131617552D01*
X109490511Y-131511988D01*
X109490506Y-131511982D01*
X109388017Y-131409493D01*
X109388011Y-131409488D01*
X109262488Y-131337017D01*
X109262489Y-131337017D01*
X109227691Y-131327693D01*
X109122475Y-131299500D01*
X109024500Y-131299500D01*
X109015814Y-131296949D01*
X109006853Y-131298238D01*
X108982812Y-131287259D01*
X108957461Y-131279815D01*
X108951533Y-131272974D01*
X108943297Y-131269213D01*
X108929007Y-131246978D01*
X108911706Y-131227011D01*
X108909418Y-131216496D01*
X108905523Y-131210435D01*
X108900500Y-131175500D01*
X108900500Y-131124500D01*
X108920185Y-131057461D01*
X108972989Y-131011706D01*
X109024500Y-131000500D01*
X109122472Y-131000500D01*
X109122475Y-131000500D01*
X109262485Y-130962984D01*
X109388015Y-130890509D01*
X109490509Y-130788015D01*
X109562984Y-130662485D01*
X109600500Y-130522475D01*
X109600500Y-130377525D01*
X109562984Y-130237515D01*
X109551099Y-130216930D01*
X109490511Y-130111988D01*
X109490506Y-130111982D01*
X109388017Y-130009493D01*
X109388011Y-130009488D01*
X109262488Y-129937017D01*
X109262489Y-129937017D01*
X109227691Y-129927693D01*
X109122475Y-129899500D01*
X109024500Y-129899500D01*
X108957461Y-129879815D01*
X108911706Y-129827011D01*
X108900500Y-129775500D01*
X108900500Y-129677527D01*
X108900500Y-129677525D01*
X108862984Y-129537515D01*
X108851611Y-129517817D01*
X108790511Y-129411988D01*
X108790506Y-129411982D01*
X108688017Y-129309493D01*
X108688011Y-129309488D01*
X108562488Y-129237017D01*
X108562489Y-129237017D01*
X108551006Y-129233940D01*
X108422475Y-129199500D01*
X108277525Y-129199500D01*
X108148993Y-129233940D01*
X108137511Y-129237017D01*
X108011988Y-129309488D01*
X108011982Y-129309493D01*
X107909493Y-129411982D01*
X107909488Y-129411988D01*
X107837017Y-129537511D01*
X107837016Y-129537515D01*
X107799500Y-129677525D01*
X107799500Y-129677527D01*
X107799500Y-129775500D01*
X107796949Y-129784185D01*
X107798238Y-129793147D01*
X107787259Y-129817187D01*
X107779815Y-129842539D01*
X107772974Y-129848466D01*
X107769213Y-129856703D01*
X107746978Y-129870992D01*
X107727011Y-129888294D01*
X107716496Y-129890581D01*
X107710435Y-129894477D01*
X107675500Y-129899500D01*
X107624500Y-129899500D01*
X107557461Y-129879815D01*
X107511706Y-129827011D01*
X107500500Y-129775500D01*
X107500500Y-129677527D01*
X107500500Y-129677525D01*
X107462984Y-129537515D01*
X107451611Y-129517817D01*
X107390511Y-129411988D01*
X107390506Y-129411982D01*
X107288017Y-129309493D01*
X107288011Y-129309488D01*
X107162488Y-129237017D01*
X107162489Y-129237017D01*
X107151006Y-129233940D01*
X107022475Y-129199500D01*
X106877525Y-129199500D01*
X106748993Y-129233940D01*
X106737511Y-129237017D01*
X106611988Y-129309488D01*
X106611982Y-129309493D01*
X106509493Y-129411982D01*
X106509488Y-129411988D01*
X106437017Y-129537511D01*
X106437016Y-129537515D01*
X106399500Y-129677525D01*
X106399500Y-129677527D01*
X106399500Y-129775500D01*
X106379815Y-129842539D01*
X106327011Y-129888294D01*
X106275500Y-129899500D01*
X106177525Y-129899500D01*
X106072309Y-129927693D01*
X106037511Y-129937017D01*
X105911988Y-130009488D01*
X105911982Y-130009493D01*
X105809493Y-130111982D01*
X105809488Y-130111988D01*
X105737017Y-130237511D01*
X105737016Y-130237515D01*
X105699500Y-130377525D01*
X104500500Y-130377525D01*
X104500500Y-121351577D01*
X121599500Y-121351577D01*
X121599500Y-121548422D01*
X121630290Y-121742826D01*
X121691117Y-121930029D01*
X121780476Y-122105405D01*
X121896172Y-122264646D01*
X122035354Y-122403828D01*
X122194595Y-122519524D01*
X122229799Y-122537461D01*
X122369970Y-122608882D01*
X122369972Y-122608882D01*
X122369975Y-122608884D01*
X122470317Y-122641487D01*
X122557173Y-122669709D01*
X122751578Y-122700500D01*
X122751583Y-122700500D01*
X125148422Y-122700500D01*
X125342826Y-122669709D01*
X125530025Y-122608884D01*
X125705405Y-122519524D01*
X125864646Y-122403828D01*
X126003828Y-122264646D01*
X126119524Y-122105405D01*
X126208884Y-121930025D01*
X126269709Y-121742826D01*
X126300500Y-121548422D01*
X126300500Y-121351577D01*
X126269709Y-121157173D01*
X126220369Y-121005323D01*
X126208884Y-120969975D01*
X126208882Y-120969972D01*
X126208882Y-120969970D01*
X126119523Y-120794594D01*
X126119116Y-120794034D01*
X126003828Y-120635354D01*
X125864646Y-120496172D01*
X125705405Y-120380476D01*
X125530029Y-120291117D01*
X125342826Y-120230290D01*
X125148422Y-120199500D01*
X125148417Y-120199500D01*
X122751583Y-120199500D01*
X122751578Y-120199500D01*
X122557173Y-120230290D01*
X122369970Y-120291117D01*
X122194594Y-120380476D01*
X122103741Y-120446485D01*
X122035354Y-120496172D01*
X122035352Y-120496174D01*
X122035351Y-120496174D01*
X121896174Y-120635351D01*
X121896174Y-120635352D01*
X121896172Y-120635354D01*
X121846485Y-120703741D01*
X121780476Y-120794594D01*
X121691117Y-120969970D01*
X121630290Y-121157173D01*
X121599500Y-121351577D01*
X104500500Y-121351577D01*
X104500500Y-119058675D01*
X104520185Y-118991636D01*
X104536814Y-118970998D01*
X105507138Y-118000674D01*
X105568461Y-117967190D01*
X105633136Y-117970424D01*
X105642299Y-117973402D01*
X105813389Y-118000500D01*
X105813390Y-118000500D01*
X105986610Y-118000500D01*
X105986611Y-118000500D01*
X106157701Y-117973402D01*
X106322445Y-117919873D01*
X106476788Y-117841232D01*
X106616928Y-117739414D01*
X106739414Y-117616928D01*
X106841232Y-117476788D01*
X106919873Y-117322445D01*
X106973402Y-117157701D01*
X107000500Y-116986611D01*
X107000500Y-116813389D01*
X106973402Y-116642299D01*
X106919873Y-116477555D01*
X106841232Y-116323212D01*
X106739414Y-116183072D01*
X106616928Y-116060586D01*
X106476788Y-115958768D01*
X106322445Y-115880127D01*
X106157701Y-115826598D01*
X106157699Y-115826597D01*
X106157698Y-115826597D01*
X106026271Y-115805781D01*
X105986611Y-115799500D01*
X105813389Y-115799500D01*
X105773728Y-115805781D01*
X105642302Y-115826597D01*
X105477552Y-115880128D01*
X105323211Y-115958768D01*
X105243256Y-116016859D01*
X105183072Y-116060586D01*
X105183070Y-116060588D01*
X105183069Y-116060588D01*
X105060588Y-116183069D01*
X105060588Y-116183070D01*
X105060586Y-116183072D01*
X105016859Y-116243256D01*
X104958768Y-116323211D01*
X104880128Y-116477552D01*
X104826597Y-116642302D01*
X104799500Y-116813389D01*
X104799500Y-116986610D01*
X104826597Y-117157697D01*
X104829576Y-117166866D01*
X104831568Y-117236707D01*
X104799324Y-117292860D01*
X104528460Y-117563724D01*
X104467137Y-117597209D01*
X104397445Y-117592225D01*
X104341512Y-117550353D01*
X104317095Y-117484889D01*
X104330294Y-117419748D01*
X104379873Y-117322445D01*
X104433402Y-117157701D01*
X104460500Y-116986611D01*
X104460500Y-116813389D01*
X104433402Y-116642299D01*
X104379873Y-116477555D01*
X104301232Y-116323212D01*
X104199414Y-116183072D01*
X104076928Y-116060586D01*
X103936788Y-115958768D01*
X103782445Y-115880127D01*
X103617701Y-115826598D01*
X103617699Y-115826597D01*
X103617698Y-115826597D01*
X103486271Y-115805781D01*
X103446611Y-115799500D01*
X103273389Y-115799500D01*
X103233728Y-115805781D01*
X103102302Y-115826597D01*
X102937552Y-115880128D01*
X102783211Y-115958768D01*
X102703256Y-116016859D01*
X102643072Y-116060586D01*
X102643070Y-116060588D01*
X102643069Y-116060588D01*
X102520588Y-116183069D01*
X102520588Y-116183070D01*
X102520586Y-116183072D01*
X102476859Y-116243256D01*
X102418768Y-116323211D01*
X102340128Y-116477552D01*
X102286597Y-116642302D01*
X102285378Y-116650000D01*
X102259500Y-116813389D01*
X102259500Y-116986611D01*
X102286598Y-117157701D01*
X102340127Y-117322445D01*
X102418768Y-117476788D01*
X102520586Y-117616928D01*
X102520588Y-117616930D01*
X102563181Y-117659523D01*
X102596666Y-117720846D01*
X102599500Y-117747204D01*
X102599500Y-129741324D01*
X102579815Y-129808363D01*
X102563181Y-129829005D01*
X100529005Y-131863181D01*
X100502077Y-131877884D01*
X100476259Y-131894477D01*
X100470058Y-131895368D01*
X100467682Y-131896666D01*
X100441324Y-131899500D01*
X100221561Y-131899500D01*
X100154522Y-131879815D01*
X100118459Y-131844391D01*
X100060626Y-131757837D01*
X99942162Y-131639373D01*
X99802860Y-131546295D01*
X99648082Y-131482184D01*
X99648074Y-131482182D01*
X99483771Y-131449500D01*
X99483767Y-131449500D01*
X99316233Y-131449500D01*
X99316228Y-131449500D01*
X99151925Y-131482182D01*
X99151917Y-131482184D01*
X98997139Y-131546295D01*
X98857837Y-131639373D01*
X98739373Y-131757837D01*
X98646295Y-131897139D01*
X98646293Y-131897143D01*
X98639060Y-131914606D01*
X98595219Y-131969009D01*
X98528924Y-131991073D01*
X98461225Y-131973793D01*
X98413615Y-131922655D01*
X98400500Y-131867152D01*
X98400500Y-130558675D01*
X98420185Y-130491636D01*
X98436815Y-130470998D01*
X99321127Y-129586685D01*
X99382448Y-129553202D01*
X99410141Y-129551598D01*
X99410141Y-129550500D01*
X99583768Y-129550500D01*
X99583769Y-129550499D01*
X99748082Y-129517816D01*
X99902863Y-129453703D01*
X100042162Y-129360626D01*
X100160626Y-129242162D01*
X100253703Y-129102863D01*
X100317816Y-128948082D01*
X100350500Y-128783767D01*
X100350500Y-128616233D01*
X100317816Y-128451918D01*
X100253703Y-128297137D01*
X100222537Y-128250494D01*
X100160626Y-128157837D01*
X100042162Y-128039373D01*
X99902860Y-127946295D01*
X99748082Y-127882184D01*
X99748074Y-127882182D01*
X99583771Y-127849500D01*
X99583767Y-127849500D01*
X99416233Y-127849500D01*
X99416228Y-127849500D01*
X99251925Y-127882182D01*
X99251917Y-127882184D01*
X99097139Y-127946295D01*
X98957837Y-128039373D01*
X98839373Y-128157837D01*
X98746295Y-128297139D01*
X98682184Y-128451917D01*
X98682182Y-128451925D01*
X98649500Y-128616228D01*
X98649500Y-128789859D01*
X98646985Y-128789859D01*
X98636007Y-128847699D01*
X98613312Y-128878872D01*
X97592686Y-129899500D01*
X97499502Y-129992683D01*
X97499500Y-129992686D01*
X97433608Y-130106812D01*
X97399500Y-130234108D01*
X93522234Y-130234108D01*
X93539414Y-130216928D01*
X93641232Y-130076788D01*
X93719873Y-129922445D01*
X93773402Y-129757701D01*
X93800500Y-129586611D01*
X93800500Y-129413389D01*
X93773402Y-129242299D01*
X93719873Y-129077555D01*
X93641232Y-128923212D01*
X93539414Y-128783072D01*
X93416928Y-128660586D01*
X93276788Y-128558768D01*
X93122445Y-128480127D01*
X92957701Y-128426598D01*
X92957699Y-128426597D01*
X92957698Y-128426597D01*
X92826271Y-128405781D01*
X92786611Y-128399500D01*
X92613389Y-128399500D01*
X92573728Y-128405781D01*
X92442302Y-128426597D01*
X92277552Y-128480128D01*
X92123211Y-128558768D01*
X92044125Y-128616228D01*
X91983072Y-128660586D01*
X91983070Y-128660588D01*
X91983069Y-128660588D01*
X91860588Y-128783069D01*
X91860588Y-128783070D01*
X91860586Y-128783072D01*
X91816859Y-128843256D01*
X91758768Y-128923211D01*
X91680128Y-129077552D01*
X91626597Y-129242302D01*
X91607857Y-129360626D01*
X91599500Y-129413389D01*
X80500500Y-129413389D01*
X80500500Y-126873389D01*
X91599500Y-126873389D01*
X91599500Y-127046611D01*
X91626598Y-127217701D01*
X91680127Y-127382445D01*
X91758768Y-127536788D01*
X91860586Y-127676928D01*
X91983072Y-127799414D01*
X92123212Y-127901232D01*
X92277555Y-127979873D01*
X92442299Y-128033402D01*
X92613389Y-128060500D01*
X92613390Y-128060500D01*
X92786610Y-128060500D01*
X92786611Y-128060500D01*
X92957701Y-128033402D01*
X93122445Y-127979873D01*
X93276788Y-127901232D01*
X93416928Y-127799414D01*
X93539414Y-127676928D01*
X93641232Y-127536788D01*
X93719873Y-127382445D01*
X93773402Y-127217701D01*
X93800500Y-127046611D01*
X93800500Y-126873389D01*
X93773402Y-126702299D01*
X93719873Y-126537555D01*
X93641232Y-126383212D01*
X93539414Y-126243072D01*
X93416928Y-126120586D01*
X93276788Y-126018768D01*
X93122445Y-125940127D01*
X92957701Y-125886598D01*
X92957699Y-125886597D01*
X92957698Y-125886597D01*
X92826271Y-125865781D01*
X92786611Y-125859500D01*
X92613389Y-125859500D01*
X92573728Y-125865781D01*
X92442302Y-125886597D01*
X92277552Y-125940128D01*
X92123211Y-126018768D01*
X92043256Y-126076859D01*
X91983072Y-126120586D01*
X91983070Y-126120588D01*
X91983069Y-126120588D01*
X91860588Y-126243069D01*
X91860588Y-126243070D01*
X91860586Y-126243072D01*
X91816859Y-126303256D01*
X91758768Y-126383211D01*
X91680128Y-126537552D01*
X91626597Y-126702302D01*
X91599500Y-126873389D01*
X80500500Y-126873389D01*
X80500500Y-124333389D01*
X91599500Y-124333389D01*
X91599500Y-124506610D01*
X91622210Y-124650000D01*
X91626598Y-124677701D01*
X91680127Y-124842445D01*
X91758768Y-124996788D01*
X91860586Y-125136928D01*
X91983072Y-125259414D01*
X92123212Y-125361232D01*
X92277555Y-125439873D01*
X92442299Y-125493402D01*
X92613389Y-125520500D01*
X92613390Y-125520500D01*
X92786610Y-125520500D01*
X92786611Y-125520500D01*
X92957701Y-125493402D01*
X93122445Y-125439873D01*
X93276788Y-125361232D01*
X93416928Y-125259414D01*
X93539414Y-125136928D01*
X93641232Y-124996788D01*
X93719873Y-124842445D01*
X93773402Y-124677701D01*
X93800500Y-124506611D01*
X93800500Y-124333389D01*
X93773402Y-124162299D01*
X93719873Y-123997555D01*
X93641232Y-123843212D01*
X93539414Y-123703072D01*
X93416928Y-123580586D01*
X93276788Y-123478768D01*
X93122445Y-123400127D01*
X92957701Y-123346598D01*
X92957699Y-123346597D01*
X92957698Y-123346597D01*
X92826271Y-123325781D01*
X92786611Y-123319500D01*
X92613389Y-123319500D01*
X92573728Y-123325781D01*
X92442302Y-123346597D01*
X92277552Y-123400128D01*
X92123211Y-123478768D01*
X92071653Y-123516228D01*
X91983072Y-123580586D01*
X91983070Y-123580588D01*
X91983069Y-123580588D01*
X91860588Y-123703069D01*
X91860588Y-123703070D01*
X91860586Y-123703072D01*
X91852622Y-123714034D01*
X91758768Y-123843211D01*
X91680128Y-123997552D01*
X91626597Y-124162302D01*
X91599500Y-124333389D01*
X80500500Y-124333389D01*
X80500500Y-121005321D01*
X91599500Y-121005321D01*
X91599500Y-122754678D01*
X91614032Y-122827735D01*
X91614033Y-122827739D01*
X91614034Y-122827740D01*
X91669399Y-122910601D01*
X91712462Y-122939374D01*
X91752260Y-122965966D01*
X91752264Y-122965967D01*
X91825321Y-122980499D01*
X91825324Y-122980500D01*
X91825326Y-122980500D01*
X93574676Y-122980500D01*
X93574677Y-122980499D01*
X93647740Y-122965966D01*
X93730601Y-122910601D01*
X93785966Y-122827740D01*
X93800500Y-122754674D01*
X93800500Y-122604500D01*
X93820185Y-122537461D01*
X93872989Y-122491706D01*
X93924500Y-122480500D01*
X99379903Y-122480500D01*
X99446942Y-122500185D01*
X99467584Y-122516819D01*
X100513181Y-123562416D01*
X100546666Y-123623739D01*
X100549500Y-123650097D01*
X100549500Y-123683771D01*
X100582182Y-123848074D01*
X100582184Y-123848082D01*
X100646295Y-124002860D01*
X100739373Y-124142162D01*
X100857837Y-124260626D01*
X100950494Y-124322537D01*
X100997137Y-124353703D01*
X101151918Y-124417816D01*
X101316228Y-124450499D01*
X101316232Y-124450500D01*
X101316233Y-124450500D01*
X101483768Y-124450500D01*
X101483769Y-124450499D01*
X101648082Y-124417816D01*
X101802863Y-124353703D01*
X101942162Y-124260626D01*
X102060626Y-124142162D01*
X102153703Y-124002863D01*
X102217816Y-123848082D01*
X102250500Y-123683767D01*
X102250500Y-123516233D01*
X102217816Y-123351918D01*
X102153703Y-123197137D01*
X102122537Y-123150494D01*
X102060626Y-123057837D01*
X101942162Y-122939373D01*
X101802860Y-122846295D01*
X101648082Y-122782184D01*
X101648074Y-122782182D01*
X101483771Y-122749500D01*
X101483767Y-122749500D01*
X101450097Y-122749500D01*
X101383058Y-122729815D01*
X101362416Y-122713181D01*
X100167590Y-121518355D01*
X100167588Y-121518352D01*
X100048717Y-121399481D01*
X100048716Y-121399480D01*
X99961904Y-121349360D01*
X99961904Y-121349359D01*
X99961900Y-121349358D01*
X99911785Y-121320423D01*
X99759057Y-121279499D01*
X99600943Y-121279499D01*
X99593347Y-121279499D01*
X99593331Y-121279500D01*
X93924500Y-121279500D01*
X93857461Y-121259815D01*
X93811706Y-121207011D01*
X93800500Y-121155500D01*
X93800500Y-121005323D01*
X93800499Y-121005321D01*
X93785967Y-120932264D01*
X93785966Y-120932260D01*
X93730601Y-120849399D01*
X93648580Y-120794595D01*
X93647739Y-120794033D01*
X93647735Y-120794032D01*
X93574677Y-120779500D01*
X93574674Y-120779500D01*
X91825326Y-120779500D01*
X91825323Y-120779500D01*
X91752264Y-120794032D01*
X91752260Y-120794033D01*
X91669399Y-120849399D01*
X91614033Y-120932260D01*
X91614032Y-120932264D01*
X91599500Y-121005321D01*
X80500500Y-121005321D01*
X80500500Y-114695316D01*
X87749500Y-114695316D01*
X87749500Y-115014683D01*
X87780803Y-115332522D01*
X87843109Y-115645754D01*
X87935820Y-115951382D01*
X87956851Y-116002155D01*
X88031789Y-116183072D01*
X88058040Y-116246446D01*
X88058042Y-116246451D01*
X88208584Y-116528094D01*
X88208601Y-116528122D01*
X88386012Y-116793638D01*
X88386029Y-116793661D01*
X88588638Y-117040540D01*
X88814459Y-117266361D01*
X88814464Y-117266365D01*
X88814465Y-117266366D01*
X89061344Y-117468975D01*
X89061351Y-117468980D01*
X89061361Y-117468987D01*
X89326877Y-117646398D01*
X89326882Y-117646401D01*
X89326894Y-117646409D01*
X89326903Y-117646413D01*
X89326905Y-117646415D01*
X89608548Y-117796957D01*
X89608550Y-117796957D01*
X89608556Y-117796961D01*
X89903619Y-117919180D01*
X90209240Y-118011889D01*
X90522477Y-118074196D01*
X90840313Y-118105500D01*
X90840316Y-118105500D01*
X91159684Y-118105500D01*
X91159687Y-118105500D01*
X91477523Y-118074196D01*
X91790760Y-118011889D01*
X92096381Y-117919180D01*
X92391444Y-117796961D01*
X92673106Y-117646409D01*
X92938656Y-117468975D01*
X93185535Y-117266366D01*
X93411366Y-117040535D01*
X93613975Y-116793656D01*
X93791409Y-116528106D01*
X93941961Y-116246444D01*
X94043149Y-116002155D01*
X96930000Y-116002155D01*
X96930000Y-116650000D01*
X97846988Y-116650000D01*
X97814075Y-116707007D01*
X97780000Y-116834174D01*
X97780000Y-116965826D01*
X97814075Y-117092993D01*
X97846988Y-117150000D01*
X96930000Y-117150000D01*
X96930000Y-117797844D01*
X96936401Y-117857372D01*
X96936403Y-117857379D01*
X96986645Y-117992086D01*
X96986649Y-117992093D01*
X97072809Y-118107187D01*
X97072812Y-118107190D01*
X97187906Y-118193350D01*
X97187913Y-118193354D01*
X97322620Y-118243596D01*
X97322627Y-118243598D01*
X97382155Y-118249999D01*
X97382172Y-118250000D01*
X98030000Y-118250000D01*
X98030000Y-117333012D01*
X98087007Y-117365925D01*
X98214174Y-117400000D01*
X98345826Y-117400000D01*
X98472993Y-117365925D01*
X98530000Y-117333012D01*
X98530000Y-118250000D01*
X99177828Y-118250000D01*
X99177844Y-118249999D01*
X99237372Y-118243598D01*
X99237379Y-118243596D01*
X99372086Y-118193354D01*
X99372093Y-118193350D01*
X99487187Y-118107190D01*
X99487190Y-118107187D01*
X99573350Y-117992093D01*
X99573354Y-117992086D01*
X99623596Y-117857379D01*
X99623598Y-117857372D01*
X99629999Y-117797844D01*
X99630000Y-117797827D01*
X99630000Y-117505050D01*
X99649685Y-117438011D01*
X99702489Y-117392256D01*
X99771647Y-117382312D01*
X99835203Y-117411337D01*
X99864485Y-117448756D01*
X99878766Y-117476786D01*
X99909357Y-117518890D01*
X99980586Y-117616928D01*
X100103072Y-117739414D01*
X100243212Y-117841232D01*
X100397555Y-117919873D01*
X100562299Y-117973402D01*
X100733389Y-118000500D01*
X100733390Y-118000500D01*
X100906610Y-118000500D01*
X100906611Y-118000500D01*
X101077701Y-117973402D01*
X101242445Y-117919873D01*
X101396788Y-117841232D01*
X101536928Y-117739414D01*
X101659414Y-117616928D01*
X101761232Y-117476788D01*
X101839873Y-117322445D01*
X101893402Y-117157701D01*
X101920500Y-116986611D01*
X101920500Y-116813389D01*
X101893402Y-116642299D01*
X101839873Y-116477555D01*
X101761232Y-116323212D01*
X101659414Y-116183072D01*
X101536928Y-116060586D01*
X101396788Y-115958768D01*
X101242445Y-115880127D01*
X101077701Y-115826598D01*
X101077699Y-115826597D01*
X101077698Y-115826597D01*
X100946271Y-115805781D01*
X100906611Y-115799500D01*
X100733389Y-115799500D01*
X100693728Y-115805781D01*
X100562302Y-115826597D01*
X100397552Y-115880128D01*
X100243211Y-115958768D01*
X100163256Y-116016859D01*
X100103072Y-116060586D01*
X100103070Y-116060588D01*
X100103069Y-116060588D01*
X99980588Y-116183069D01*
X99980588Y-116183070D01*
X99980586Y-116183072D01*
X99936859Y-116243256D01*
X99878768Y-116323211D01*
X99864485Y-116351244D01*
X99816510Y-116402040D01*
X99748689Y-116418835D01*
X99682554Y-116396297D01*
X99639103Y-116341582D01*
X99630000Y-116294949D01*
X99630000Y-116002172D01*
X99629999Y-116002155D01*
X99623598Y-115942627D01*
X99623596Y-115942620D01*
X99573354Y-115807913D01*
X99573350Y-115807906D01*
X99487190Y-115692812D01*
X99487187Y-115692809D01*
X99372093Y-115606649D01*
X99372086Y-115606645D01*
X99237379Y-115556403D01*
X99237372Y-115556401D01*
X99177844Y-115550000D01*
X98530000Y-115550000D01*
X98530000Y-116466988D01*
X98472993Y-116434075D01*
X98345826Y-116400000D01*
X98214174Y-116400000D01*
X98087007Y-116434075D01*
X98030000Y-116466988D01*
X98030000Y-115550000D01*
X97382155Y-115550000D01*
X97322627Y-115556401D01*
X97322620Y-115556403D01*
X97187913Y-115606645D01*
X97187906Y-115606649D01*
X97072812Y-115692809D01*
X97072809Y-115692812D01*
X96986649Y-115807906D01*
X96986645Y-115807913D01*
X96936403Y-115942620D01*
X96936401Y-115942627D01*
X96930000Y-116002155D01*
X94043149Y-116002155D01*
X94064180Y-115951381D01*
X94156889Y-115645760D01*
X94219196Y-115332523D01*
X94250500Y-115014687D01*
X94250500Y-114695316D01*
X125849500Y-114695316D01*
X125849500Y-115014683D01*
X125880803Y-115332522D01*
X125943109Y-115645754D01*
X126035820Y-115951382D01*
X126056851Y-116002155D01*
X126131789Y-116183072D01*
X126158040Y-116246446D01*
X126158042Y-116246451D01*
X126308584Y-116528094D01*
X126308601Y-116528122D01*
X126486012Y-116793638D01*
X126486029Y-116793661D01*
X126688638Y-117040540D01*
X126914459Y-117266361D01*
X126914464Y-117266365D01*
X126914465Y-117266366D01*
X127161344Y-117468975D01*
X127161351Y-117468980D01*
X127161361Y-117468987D01*
X127426877Y-117646398D01*
X127426882Y-117646401D01*
X127426894Y-117646409D01*
X127426903Y-117646413D01*
X127426905Y-117646415D01*
X127708548Y-117796957D01*
X127708550Y-117796957D01*
X127708556Y-117796961D01*
X128003619Y-117919180D01*
X128309240Y-118011889D01*
X128622477Y-118074196D01*
X128940313Y-118105500D01*
X128940316Y-118105500D01*
X129259684Y-118105500D01*
X129259687Y-118105500D01*
X129577523Y-118074196D01*
X129890760Y-118011889D01*
X130196381Y-117919180D01*
X130491444Y-117796961D01*
X130773106Y-117646409D01*
X131038656Y-117468975D01*
X131285535Y-117266366D01*
X131511366Y-117040535D01*
X131713975Y-116793656D01*
X131891409Y-116528106D01*
X132041961Y-116246444D01*
X132164180Y-115951381D01*
X132256889Y-115645760D01*
X132319196Y-115332523D01*
X132350500Y-115014687D01*
X132350500Y-114695313D01*
X132319196Y-114377477D01*
X132256889Y-114064240D01*
X132164180Y-113758619D01*
X132041961Y-113463556D01*
X131891409Y-113181894D01*
X131891398Y-113181877D01*
X131713987Y-112916361D01*
X131713980Y-112916351D01*
X131713975Y-112916344D01*
X131511366Y-112669465D01*
X131511365Y-112669464D01*
X131511361Y-112669459D01*
X131285540Y-112443638D01*
X131038661Y-112241029D01*
X131038638Y-112241012D01*
X130773122Y-112063601D01*
X130773094Y-112063584D01*
X130491451Y-111913042D01*
X130491446Y-111913040D01*
X130196382Y-111790820D01*
X129890754Y-111698109D01*
X129577521Y-111635803D01*
X129577522Y-111635803D01*
X129338141Y-111612227D01*
X129259687Y-111604500D01*
X128940313Y-111604500D01*
X128867822Y-111611639D01*
X128622477Y-111635803D01*
X128309245Y-111698109D01*
X128003617Y-111790820D01*
X127708553Y-111913040D01*
X127708548Y-111913042D01*
X127426905Y-112063584D01*
X127426877Y-112063601D01*
X127161361Y-112241012D01*
X127161338Y-112241029D01*
X126914459Y-112443638D01*
X126688638Y-112669459D01*
X126486029Y-112916338D01*
X126486012Y-112916361D01*
X126308601Y-113181877D01*
X126308584Y-113181905D01*
X126158042Y-113463548D01*
X126158040Y-113463553D01*
X126035820Y-113758617D01*
X125943109Y-114064245D01*
X125880803Y-114377477D01*
X125849500Y-114695316D01*
X94250500Y-114695316D01*
X94250500Y-114695313D01*
X94219196Y-114377477D01*
X94156889Y-114064240D01*
X94064180Y-113758619D01*
X93941961Y-113463556D01*
X93791409Y-113181894D01*
X93791398Y-113181877D01*
X93613987Y-112916361D01*
X93613980Y-112916351D01*
X93613975Y-112916344D01*
X93411366Y-112669465D01*
X93411365Y-112669464D01*
X93411361Y-112669459D01*
X93185540Y-112443638D01*
X92938661Y-112241029D01*
X92938638Y-112241012D01*
X92673122Y-112063601D01*
X92673094Y-112063584D01*
X92391451Y-111913042D01*
X92391446Y-111913040D01*
X92096382Y-111790820D01*
X91790754Y-111698109D01*
X91477521Y-111635803D01*
X91477522Y-111635803D01*
X91238141Y-111612227D01*
X91159687Y-111604500D01*
X90840313Y-111604500D01*
X90767822Y-111611639D01*
X90522477Y-111635803D01*
X90209245Y-111698109D01*
X89903617Y-111790820D01*
X89608553Y-111913040D01*
X89608548Y-111913042D01*
X89326905Y-112063584D01*
X89326877Y-112063601D01*
X89061361Y-112241012D01*
X89061338Y-112241029D01*
X88814459Y-112443638D01*
X88588638Y-112669459D01*
X88386029Y-112916338D01*
X88386012Y-112916361D01*
X88208601Y-113181877D01*
X88208584Y-113181905D01*
X88058042Y-113463548D01*
X88058040Y-113463553D01*
X87935820Y-113758617D01*
X87843109Y-114064245D01*
X87780803Y-114377477D01*
X87749500Y-114695316D01*
X80500500Y-114695316D01*
X80500500Y-113002706D01*
X80500618Y-112997297D01*
X80504152Y-112916361D01*
X80517386Y-112613226D01*
X80518326Y-112602495D01*
X80568152Y-112224025D01*
X80570025Y-112213405D01*
X80652649Y-111840709D01*
X80655440Y-111830295D01*
X80770230Y-111466227D01*
X80773917Y-111456095D01*
X80920003Y-111103412D01*
X80924561Y-111093638D01*
X81100822Y-110755045D01*
X81106217Y-110745700D01*
X81311325Y-110423744D01*
X81317515Y-110414905D01*
X81549896Y-110112060D01*
X81556834Y-110103791D01*
X81814726Y-109822352D01*
X81822352Y-109814726D01*
X82103791Y-109556834D01*
X82112060Y-109549896D01*
X82414905Y-109317515D01*
X82423744Y-109311325D01*
X82745700Y-109106217D01*
X82755045Y-109100822D01*
X83093638Y-108924561D01*
X83103412Y-108920003D01*
X83456095Y-108773917D01*
X83466227Y-108770230D01*
X83830295Y-108655440D01*
X83840709Y-108652649D01*
X84213405Y-108570025D01*
X84224025Y-108568152D01*
X84602495Y-108518326D01*
X84613226Y-108517386D01*
X84997297Y-108500617D01*
X85002706Y-108500500D01*
X85065892Y-108500500D01*
X132434108Y-108500500D01*
X132497294Y-108500500D01*
X132502702Y-108500617D01*
G37*
%TD.AperFunction*%
%TD*%
M02*
