%TF.GenerationSoftware,KiCad,Pcbnew,9.0.6*%
%TF.CreationDate,2026-01-26T22:39:46+07:00*%
%TF.ProjectId,BluetoothCar,426c7565-746f-46f7-9468-4361722e6b69,rev?*%
%TF.SameCoordinates,Original*%
%TF.FileFunction,Legend,Top*%
%TF.FilePolarity,Positive*%
%FSLAX46Y46*%
G04 Gerber Fmt 4.6, Leading zero omitted, Abs format (unit mm)*
G04 Created by KiCad (PCBNEW 9.0.6) date 2026-01-26 22:39:46*
%MOMM*%
%LPD*%
G01*
G04 APERTURE LIST*
%ADD10C,0.150000*%
%ADD11C,0.120000*%
%ADD12C,0.127000*%
G04 APERTURE END LIST*
D10*
X147734819Y-100239411D02*
X147734819Y-100810839D01*
X147734819Y-100525125D02*
X146734819Y-100525125D01*
X146734819Y-100525125D02*
X146877676Y-100620363D01*
X146877676Y-100620363D02*
X146972914Y-100715601D01*
X146972914Y-100715601D02*
X147020533Y-100810839D01*
X146830057Y-99858458D02*
X146782438Y-99810839D01*
X146782438Y-99810839D02*
X146734819Y-99715601D01*
X146734819Y-99715601D02*
X146734819Y-99477506D01*
X146734819Y-99477506D02*
X146782438Y-99382268D01*
X146782438Y-99382268D02*
X146830057Y-99334649D01*
X146830057Y-99334649D02*
X146925295Y-99287030D01*
X146925295Y-99287030D02*
X147020533Y-99287030D01*
X147020533Y-99287030D02*
X147163390Y-99334649D01*
X147163390Y-99334649D02*
X147734819Y-99906077D01*
X147734819Y-99906077D02*
X147734819Y-99287030D01*
X146734819Y-99001315D02*
X147734819Y-98667982D01*
X147734819Y-98667982D02*
X146734819Y-98334649D01*
X146782438Y-97039411D02*
X146734819Y-97134649D01*
X146734819Y-97134649D02*
X146734819Y-97277506D01*
X146734819Y-97277506D02*
X146782438Y-97420363D01*
X146782438Y-97420363D02*
X146877676Y-97515601D01*
X146877676Y-97515601D02*
X146972914Y-97563220D01*
X146972914Y-97563220D02*
X147163390Y-97610839D01*
X147163390Y-97610839D02*
X147306247Y-97610839D01*
X147306247Y-97610839D02*
X147496723Y-97563220D01*
X147496723Y-97563220D02*
X147591961Y-97515601D01*
X147591961Y-97515601D02*
X147687200Y-97420363D01*
X147687200Y-97420363D02*
X147734819Y-97277506D01*
X147734819Y-97277506D02*
X147734819Y-97182268D01*
X147734819Y-97182268D02*
X147687200Y-97039411D01*
X147687200Y-97039411D02*
X147639580Y-96991792D01*
X147639580Y-96991792D02*
X147306247Y-96991792D01*
X147306247Y-96991792D02*
X147306247Y-97182268D01*
X147734819Y-96563220D02*
X146734819Y-96563220D01*
X146734819Y-96563220D02*
X147734819Y-95991792D01*
X147734819Y-95991792D02*
X146734819Y-95991792D01*
X147734819Y-95515601D02*
X146734819Y-95515601D01*
X146734819Y-95515601D02*
X146734819Y-95277506D01*
X146734819Y-95277506D02*
X146782438Y-95134649D01*
X146782438Y-95134649D02*
X146877676Y-95039411D01*
X146877676Y-95039411D02*
X146972914Y-94991792D01*
X146972914Y-94991792D02*
X147163390Y-94944173D01*
X147163390Y-94944173D02*
X147306247Y-94944173D01*
X147306247Y-94944173D02*
X147496723Y-94991792D01*
X147496723Y-94991792D02*
X147591961Y-95039411D01*
X147591961Y-95039411D02*
X147687200Y-95134649D01*
X147687200Y-95134649D02*
X147734819Y-95277506D01*
X147734819Y-95277506D02*
X147734819Y-95515601D01*
X103470112Y-121536065D02*
X103612969Y-121583684D01*
X103612969Y-121583684D02*
X103660588Y-121631303D01*
X103660588Y-121631303D02*
X103708207Y-121726541D01*
X103708207Y-121726541D02*
X103708207Y-121869398D01*
X103708207Y-121869398D02*
X103660588Y-121964636D01*
X103660588Y-121964636D02*
X103612969Y-122012256D01*
X103612969Y-122012256D02*
X103517731Y-122059875D01*
X103517731Y-122059875D02*
X103136779Y-122059875D01*
X103136779Y-122059875D02*
X103136779Y-121059875D01*
X103136779Y-121059875D02*
X103470112Y-121059875D01*
X103470112Y-121059875D02*
X103565350Y-121107494D01*
X103565350Y-121107494D02*
X103612969Y-121155113D01*
X103612969Y-121155113D02*
X103660588Y-121250351D01*
X103660588Y-121250351D02*
X103660588Y-121345589D01*
X103660588Y-121345589D02*
X103612969Y-121440827D01*
X103612969Y-121440827D02*
X103565350Y-121488446D01*
X103565350Y-121488446D02*
X103470112Y-121536065D01*
X103470112Y-121536065D02*
X103136779Y-121536065D01*
X104279636Y-122059875D02*
X104184398Y-122012256D01*
X104184398Y-122012256D02*
X104136779Y-121917017D01*
X104136779Y-121917017D02*
X104136779Y-121059875D01*
X105089160Y-121393208D02*
X105089160Y-122059875D01*
X104660589Y-121393208D02*
X104660589Y-121917017D01*
X104660589Y-121917017D02*
X104708208Y-122012256D01*
X104708208Y-122012256D02*
X104803446Y-122059875D01*
X104803446Y-122059875D02*
X104946303Y-122059875D01*
X104946303Y-122059875D02*
X105041541Y-122012256D01*
X105041541Y-122012256D02*
X105089160Y-121964636D01*
X105946303Y-122012256D02*
X105851065Y-122059875D01*
X105851065Y-122059875D02*
X105660589Y-122059875D01*
X105660589Y-122059875D02*
X105565351Y-122012256D01*
X105565351Y-122012256D02*
X105517732Y-121917017D01*
X105517732Y-121917017D02*
X105517732Y-121536065D01*
X105517732Y-121536065D02*
X105565351Y-121440827D01*
X105565351Y-121440827D02*
X105660589Y-121393208D01*
X105660589Y-121393208D02*
X105851065Y-121393208D01*
X105851065Y-121393208D02*
X105946303Y-121440827D01*
X105946303Y-121440827D02*
X105993922Y-121536065D01*
X105993922Y-121536065D02*
X105993922Y-121631303D01*
X105993922Y-121631303D02*
X105517732Y-121726541D01*
X106279637Y-121393208D02*
X106660589Y-121393208D01*
X106422494Y-121059875D02*
X106422494Y-121917017D01*
X106422494Y-121917017D02*
X106470113Y-122012256D01*
X106470113Y-122012256D02*
X106565351Y-122059875D01*
X106565351Y-122059875D02*
X106660589Y-122059875D01*
X107136780Y-122059875D02*
X107041542Y-122012256D01*
X107041542Y-122012256D02*
X106993923Y-121964636D01*
X106993923Y-121964636D02*
X106946304Y-121869398D01*
X106946304Y-121869398D02*
X106946304Y-121583684D01*
X106946304Y-121583684D02*
X106993923Y-121488446D01*
X106993923Y-121488446D02*
X107041542Y-121440827D01*
X107041542Y-121440827D02*
X107136780Y-121393208D01*
X107136780Y-121393208D02*
X107279637Y-121393208D01*
X107279637Y-121393208D02*
X107374875Y-121440827D01*
X107374875Y-121440827D02*
X107422494Y-121488446D01*
X107422494Y-121488446D02*
X107470113Y-121583684D01*
X107470113Y-121583684D02*
X107470113Y-121869398D01*
X107470113Y-121869398D02*
X107422494Y-121964636D01*
X107422494Y-121964636D02*
X107374875Y-122012256D01*
X107374875Y-122012256D02*
X107279637Y-122059875D01*
X107279637Y-122059875D02*
X107136780Y-122059875D01*
X108041542Y-122059875D02*
X107946304Y-122012256D01*
X107946304Y-122012256D02*
X107898685Y-121964636D01*
X107898685Y-121964636D02*
X107851066Y-121869398D01*
X107851066Y-121869398D02*
X107851066Y-121583684D01*
X107851066Y-121583684D02*
X107898685Y-121488446D01*
X107898685Y-121488446D02*
X107946304Y-121440827D01*
X107946304Y-121440827D02*
X108041542Y-121393208D01*
X108041542Y-121393208D02*
X108184399Y-121393208D01*
X108184399Y-121393208D02*
X108279637Y-121440827D01*
X108279637Y-121440827D02*
X108327256Y-121488446D01*
X108327256Y-121488446D02*
X108374875Y-121583684D01*
X108374875Y-121583684D02*
X108374875Y-121869398D01*
X108374875Y-121869398D02*
X108327256Y-121964636D01*
X108327256Y-121964636D02*
X108279637Y-122012256D01*
X108279637Y-122012256D02*
X108184399Y-122059875D01*
X108184399Y-122059875D02*
X108041542Y-122059875D01*
X108660590Y-121393208D02*
X109041542Y-121393208D01*
X108803447Y-121059875D02*
X108803447Y-121917017D01*
X108803447Y-121917017D02*
X108851066Y-122012256D01*
X108851066Y-122012256D02*
X108946304Y-122059875D01*
X108946304Y-122059875D02*
X109041542Y-122059875D01*
X109374876Y-122059875D02*
X109374876Y-121059875D01*
X109803447Y-122059875D02*
X109803447Y-121536065D01*
X109803447Y-121536065D02*
X109755828Y-121440827D01*
X109755828Y-121440827D02*
X109660590Y-121393208D01*
X109660590Y-121393208D02*
X109517733Y-121393208D01*
X109517733Y-121393208D02*
X109422495Y-121440827D01*
X109422495Y-121440827D02*
X109374876Y-121488446D01*
X110851066Y-121964636D02*
X110803447Y-122012256D01*
X110803447Y-122012256D02*
X110660590Y-122059875D01*
X110660590Y-122059875D02*
X110565352Y-122059875D01*
X110565352Y-122059875D02*
X110422495Y-122012256D01*
X110422495Y-122012256D02*
X110327257Y-121917017D01*
X110327257Y-121917017D02*
X110279638Y-121821779D01*
X110279638Y-121821779D02*
X110232019Y-121631303D01*
X110232019Y-121631303D02*
X110232019Y-121488446D01*
X110232019Y-121488446D02*
X110279638Y-121297970D01*
X110279638Y-121297970D02*
X110327257Y-121202732D01*
X110327257Y-121202732D02*
X110422495Y-121107494D01*
X110422495Y-121107494D02*
X110565352Y-121059875D01*
X110565352Y-121059875D02*
X110660590Y-121059875D01*
X110660590Y-121059875D02*
X110803447Y-121107494D01*
X110803447Y-121107494D02*
X110851066Y-121155113D01*
X111708209Y-122059875D02*
X111708209Y-121536065D01*
X111708209Y-121536065D02*
X111660590Y-121440827D01*
X111660590Y-121440827D02*
X111565352Y-121393208D01*
X111565352Y-121393208D02*
X111374876Y-121393208D01*
X111374876Y-121393208D02*
X111279638Y-121440827D01*
X111708209Y-122012256D02*
X111612971Y-122059875D01*
X111612971Y-122059875D02*
X111374876Y-122059875D01*
X111374876Y-122059875D02*
X111279638Y-122012256D01*
X111279638Y-122012256D02*
X111232019Y-121917017D01*
X111232019Y-121917017D02*
X111232019Y-121821779D01*
X111232019Y-121821779D02*
X111279638Y-121726541D01*
X111279638Y-121726541D02*
X111374876Y-121678922D01*
X111374876Y-121678922D02*
X111612971Y-121678922D01*
X111612971Y-121678922D02*
X111708209Y-121631303D01*
X112184400Y-122059875D02*
X112184400Y-121393208D01*
X112184400Y-121583684D02*
X112232019Y-121488446D01*
X112232019Y-121488446D02*
X112279638Y-121440827D01*
X112279638Y-121440827D02*
X112374876Y-121393208D01*
X112374876Y-121393208D02*
X112470114Y-121393208D01*
X113422496Y-121059875D02*
X113755829Y-122059875D01*
X113755829Y-122059875D02*
X114089162Y-121059875D01*
X114946305Y-122059875D02*
X114374877Y-122059875D01*
X114660591Y-122059875D02*
X114660591Y-121059875D01*
X114660591Y-121059875D02*
X114565353Y-121202732D01*
X114565353Y-121202732D02*
X114470115Y-121297970D01*
X114470115Y-121297970D02*
X114374877Y-121345589D01*
X115374877Y-121964636D02*
X115422496Y-122012256D01*
X115422496Y-122012256D02*
X115374877Y-122059875D01*
X115374877Y-122059875D02*
X115327258Y-122012256D01*
X115327258Y-122012256D02*
X115374877Y-121964636D01*
X115374877Y-121964636D02*
X115374877Y-122059875D01*
X116041543Y-121059875D02*
X116136781Y-121059875D01*
X116136781Y-121059875D02*
X116232019Y-121107494D01*
X116232019Y-121107494D02*
X116279638Y-121155113D01*
X116279638Y-121155113D02*
X116327257Y-121250351D01*
X116327257Y-121250351D02*
X116374876Y-121440827D01*
X116374876Y-121440827D02*
X116374876Y-121678922D01*
X116374876Y-121678922D02*
X116327257Y-121869398D01*
X116327257Y-121869398D02*
X116279638Y-121964636D01*
X116279638Y-121964636D02*
X116232019Y-122012256D01*
X116232019Y-122012256D02*
X116136781Y-122059875D01*
X116136781Y-122059875D02*
X116041543Y-122059875D01*
X116041543Y-122059875D02*
X115946305Y-122012256D01*
X115946305Y-122012256D02*
X115898686Y-121964636D01*
X115898686Y-121964636D02*
X115851067Y-121869398D01*
X115851067Y-121869398D02*
X115803448Y-121678922D01*
X115803448Y-121678922D02*
X115803448Y-121440827D01*
X115803448Y-121440827D02*
X115851067Y-121250351D01*
X115851067Y-121250351D02*
X115898686Y-121155113D01*
X115898686Y-121155113D02*
X115946305Y-121107494D01*
X115946305Y-121107494D02*
X116041543Y-121059875D01*
X103136779Y-123669819D02*
X103136779Y-122669819D01*
X103136779Y-122669819D02*
X103374874Y-122669819D01*
X103374874Y-122669819D02*
X103517731Y-122717438D01*
X103517731Y-122717438D02*
X103612969Y-122812676D01*
X103612969Y-122812676D02*
X103660588Y-122907914D01*
X103660588Y-122907914D02*
X103708207Y-123098390D01*
X103708207Y-123098390D02*
X103708207Y-123241247D01*
X103708207Y-123241247D02*
X103660588Y-123431723D01*
X103660588Y-123431723D02*
X103612969Y-123526961D01*
X103612969Y-123526961D02*
X103517731Y-123622200D01*
X103517731Y-123622200D02*
X103374874Y-123669819D01*
X103374874Y-123669819D02*
X103136779Y-123669819D01*
X104517731Y-123622200D02*
X104422493Y-123669819D01*
X104422493Y-123669819D02*
X104232017Y-123669819D01*
X104232017Y-123669819D02*
X104136779Y-123622200D01*
X104136779Y-123622200D02*
X104089160Y-123526961D01*
X104089160Y-123526961D02*
X104089160Y-123146009D01*
X104089160Y-123146009D02*
X104136779Y-123050771D01*
X104136779Y-123050771D02*
X104232017Y-123003152D01*
X104232017Y-123003152D02*
X104422493Y-123003152D01*
X104422493Y-123003152D02*
X104517731Y-123050771D01*
X104517731Y-123050771D02*
X104565350Y-123146009D01*
X104565350Y-123146009D02*
X104565350Y-123241247D01*
X104565350Y-123241247D02*
X104089160Y-123336485D01*
X104946303Y-123622200D02*
X105041541Y-123669819D01*
X105041541Y-123669819D02*
X105232017Y-123669819D01*
X105232017Y-123669819D02*
X105327255Y-123622200D01*
X105327255Y-123622200D02*
X105374874Y-123526961D01*
X105374874Y-123526961D02*
X105374874Y-123479342D01*
X105374874Y-123479342D02*
X105327255Y-123384104D01*
X105327255Y-123384104D02*
X105232017Y-123336485D01*
X105232017Y-123336485D02*
X105089160Y-123336485D01*
X105089160Y-123336485D02*
X104993922Y-123288866D01*
X104993922Y-123288866D02*
X104946303Y-123193628D01*
X104946303Y-123193628D02*
X104946303Y-123146009D01*
X104946303Y-123146009D02*
X104993922Y-123050771D01*
X104993922Y-123050771D02*
X105089160Y-123003152D01*
X105089160Y-123003152D02*
X105232017Y-123003152D01*
X105232017Y-123003152D02*
X105327255Y-123050771D01*
X105803446Y-123669819D02*
X105803446Y-123003152D01*
X105803446Y-122669819D02*
X105755827Y-122717438D01*
X105755827Y-122717438D02*
X105803446Y-122765057D01*
X105803446Y-122765057D02*
X105851065Y-122717438D01*
X105851065Y-122717438D02*
X105803446Y-122669819D01*
X105803446Y-122669819D02*
X105803446Y-122765057D01*
X106708207Y-123003152D02*
X106708207Y-123812676D01*
X106708207Y-123812676D02*
X106660588Y-123907914D01*
X106660588Y-123907914D02*
X106612969Y-123955533D01*
X106612969Y-123955533D02*
X106517731Y-124003152D01*
X106517731Y-124003152D02*
X106374874Y-124003152D01*
X106374874Y-124003152D02*
X106279636Y-123955533D01*
X106708207Y-123622200D02*
X106612969Y-123669819D01*
X106612969Y-123669819D02*
X106422493Y-123669819D01*
X106422493Y-123669819D02*
X106327255Y-123622200D01*
X106327255Y-123622200D02*
X106279636Y-123574580D01*
X106279636Y-123574580D02*
X106232017Y-123479342D01*
X106232017Y-123479342D02*
X106232017Y-123193628D01*
X106232017Y-123193628D02*
X106279636Y-123098390D01*
X106279636Y-123098390D02*
X106327255Y-123050771D01*
X106327255Y-123050771D02*
X106422493Y-123003152D01*
X106422493Y-123003152D02*
X106612969Y-123003152D01*
X106612969Y-123003152D02*
X106708207Y-123050771D01*
X107184398Y-123003152D02*
X107184398Y-123669819D01*
X107184398Y-123098390D02*
X107232017Y-123050771D01*
X107232017Y-123050771D02*
X107327255Y-123003152D01*
X107327255Y-123003152D02*
X107470112Y-123003152D01*
X107470112Y-123003152D02*
X107565350Y-123050771D01*
X107565350Y-123050771D02*
X107612969Y-123146009D01*
X107612969Y-123146009D02*
X107612969Y-123669819D01*
X108470112Y-123622200D02*
X108374874Y-123669819D01*
X108374874Y-123669819D02*
X108184398Y-123669819D01*
X108184398Y-123669819D02*
X108089160Y-123622200D01*
X108089160Y-123622200D02*
X108041541Y-123526961D01*
X108041541Y-123526961D02*
X108041541Y-123146009D01*
X108041541Y-123146009D02*
X108089160Y-123050771D01*
X108089160Y-123050771D02*
X108184398Y-123003152D01*
X108184398Y-123003152D02*
X108374874Y-123003152D01*
X108374874Y-123003152D02*
X108470112Y-123050771D01*
X108470112Y-123050771D02*
X108517731Y-123146009D01*
X108517731Y-123146009D02*
X108517731Y-123241247D01*
X108517731Y-123241247D02*
X108041541Y-123336485D01*
X109374874Y-123669819D02*
X109374874Y-122669819D01*
X109374874Y-123622200D02*
X109279636Y-123669819D01*
X109279636Y-123669819D02*
X109089160Y-123669819D01*
X109089160Y-123669819D02*
X108993922Y-123622200D01*
X108993922Y-123622200D02*
X108946303Y-123574580D01*
X108946303Y-123574580D02*
X108898684Y-123479342D01*
X108898684Y-123479342D02*
X108898684Y-123193628D01*
X108898684Y-123193628D02*
X108946303Y-123098390D01*
X108946303Y-123098390D02*
X108993922Y-123050771D01*
X108993922Y-123050771D02*
X109089160Y-123003152D01*
X109089160Y-123003152D02*
X109279636Y-123003152D01*
X109279636Y-123003152D02*
X109374874Y-123050771D01*
X110612970Y-123669819D02*
X110612970Y-122669819D01*
X110612970Y-123050771D02*
X110708208Y-123003152D01*
X110708208Y-123003152D02*
X110898684Y-123003152D01*
X110898684Y-123003152D02*
X110993922Y-123050771D01*
X110993922Y-123050771D02*
X111041541Y-123098390D01*
X111041541Y-123098390D02*
X111089160Y-123193628D01*
X111089160Y-123193628D02*
X111089160Y-123479342D01*
X111089160Y-123479342D02*
X111041541Y-123574580D01*
X111041541Y-123574580D02*
X110993922Y-123622200D01*
X110993922Y-123622200D02*
X110898684Y-123669819D01*
X110898684Y-123669819D02*
X110708208Y-123669819D01*
X110708208Y-123669819D02*
X110612970Y-123622200D01*
X111422494Y-123003152D02*
X111660589Y-123669819D01*
X111898684Y-123003152D02*
X111660589Y-123669819D01*
X111660589Y-123669819D02*
X111565351Y-123907914D01*
X111565351Y-123907914D02*
X111517732Y-123955533D01*
X111517732Y-123955533D02*
X111422494Y-124003152D01*
X113612970Y-123574580D02*
X113565351Y-123622200D01*
X113565351Y-123622200D02*
X113422494Y-123669819D01*
X113422494Y-123669819D02*
X113327256Y-123669819D01*
X113327256Y-123669819D02*
X113184399Y-123622200D01*
X113184399Y-123622200D02*
X113089161Y-123526961D01*
X113089161Y-123526961D02*
X113041542Y-123431723D01*
X113041542Y-123431723D02*
X112993923Y-123241247D01*
X112993923Y-123241247D02*
X112993923Y-123098390D01*
X112993923Y-123098390D02*
X113041542Y-122907914D01*
X113041542Y-122907914D02*
X113089161Y-122812676D01*
X113089161Y-122812676D02*
X113184399Y-122717438D01*
X113184399Y-122717438D02*
X113327256Y-122669819D01*
X113327256Y-122669819D02*
X113422494Y-122669819D01*
X113422494Y-122669819D02*
X113565351Y-122717438D01*
X113565351Y-122717438D02*
X113612970Y-122765057D01*
X114041542Y-123669819D02*
X114041542Y-123003152D01*
X114041542Y-122669819D02*
X113993923Y-122717438D01*
X113993923Y-122717438D02*
X114041542Y-122765057D01*
X114041542Y-122765057D02*
X114089161Y-122717438D01*
X114089161Y-122717438D02*
X114041542Y-122669819D01*
X114041542Y-122669819D02*
X114041542Y-122765057D01*
X114517732Y-123669819D02*
X114517732Y-123003152D01*
X114517732Y-123193628D02*
X114565351Y-123098390D01*
X114565351Y-123098390D02*
X114612970Y-123050771D01*
X114612970Y-123050771D02*
X114708208Y-123003152D01*
X114708208Y-123003152D02*
X114803446Y-123003152D01*
X115565351Y-123622200D02*
X115470113Y-123669819D01*
X115470113Y-123669819D02*
X115279637Y-123669819D01*
X115279637Y-123669819D02*
X115184399Y-123622200D01*
X115184399Y-123622200D02*
X115136780Y-123574580D01*
X115136780Y-123574580D02*
X115089161Y-123479342D01*
X115089161Y-123479342D02*
X115089161Y-123193628D01*
X115089161Y-123193628D02*
X115136780Y-123098390D01*
X115136780Y-123098390D02*
X115184399Y-123050771D01*
X115184399Y-123050771D02*
X115279637Y-123003152D01*
X115279637Y-123003152D02*
X115470113Y-123003152D01*
X115470113Y-123003152D02*
X115565351Y-123050771D01*
X116422494Y-123003152D02*
X116422494Y-123669819D01*
X115993923Y-123003152D02*
X115993923Y-123526961D01*
X115993923Y-123526961D02*
X116041542Y-123622200D01*
X116041542Y-123622200D02*
X116136780Y-123669819D01*
X116136780Y-123669819D02*
X116279637Y-123669819D01*
X116279637Y-123669819D02*
X116374875Y-123622200D01*
X116374875Y-123622200D02*
X116422494Y-123574580D01*
X116898685Y-123669819D02*
X116898685Y-123003152D01*
X116898685Y-122669819D02*
X116851066Y-122717438D01*
X116851066Y-122717438D02*
X116898685Y-122765057D01*
X116898685Y-122765057D02*
X116946304Y-122717438D01*
X116946304Y-122717438D02*
X116898685Y-122669819D01*
X116898685Y-122669819D02*
X116898685Y-122765057D01*
X117232018Y-123003152D02*
X117612970Y-123003152D01*
X117374875Y-122669819D02*
X117374875Y-123526961D01*
X117374875Y-123526961D02*
X117422494Y-123622200D01*
X117422494Y-123622200D02*
X117517732Y-123669819D01*
X117517732Y-123669819D02*
X117612970Y-123669819D01*
X118517732Y-123669819D02*
X118184399Y-123193628D01*
X117946304Y-123669819D02*
X117946304Y-122669819D01*
X117946304Y-122669819D02*
X118327256Y-122669819D01*
X118327256Y-122669819D02*
X118422494Y-122717438D01*
X118422494Y-122717438D02*
X118470113Y-122765057D01*
X118470113Y-122765057D02*
X118517732Y-122860295D01*
X118517732Y-122860295D02*
X118517732Y-123003152D01*
X118517732Y-123003152D02*
X118470113Y-123098390D01*
X118470113Y-123098390D02*
X118422494Y-123146009D01*
X118422494Y-123146009D02*
X118327256Y-123193628D01*
X118327256Y-123193628D02*
X117946304Y-123193628D01*
X118946304Y-123669819D02*
X118946304Y-123003152D01*
X118946304Y-122669819D02*
X118898685Y-122717438D01*
X118898685Y-122717438D02*
X118946304Y-122765057D01*
X118946304Y-122765057D02*
X118993923Y-122717438D01*
X118993923Y-122717438D02*
X118946304Y-122669819D01*
X118946304Y-122669819D02*
X118946304Y-122765057D01*
X119851065Y-123669819D02*
X119851065Y-122669819D01*
X119851065Y-123622200D02*
X119755827Y-123669819D01*
X119755827Y-123669819D02*
X119565351Y-123669819D01*
X119565351Y-123669819D02*
X119470113Y-123622200D01*
X119470113Y-123622200D02*
X119422494Y-123574580D01*
X119422494Y-123574580D02*
X119374875Y-123479342D01*
X119374875Y-123479342D02*
X119374875Y-123193628D01*
X119374875Y-123193628D02*
X119422494Y-123098390D01*
X119422494Y-123098390D02*
X119470113Y-123050771D01*
X119470113Y-123050771D02*
X119565351Y-123003152D01*
X119565351Y-123003152D02*
X119755827Y-123003152D01*
X119755827Y-123003152D02*
X119851065Y-123050771D01*
X120708208Y-123622200D02*
X120612970Y-123669819D01*
X120612970Y-123669819D02*
X120422494Y-123669819D01*
X120422494Y-123669819D02*
X120327256Y-123622200D01*
X120327256Y-123622200D02*
X120279637Y-123526961D01*
X120279637Y-123526961D02*
X120279637Y-123146009D01*
X120279637Y-123146009D02*
X120327256Y-123050771D01*
X120327256Y-123050771D02*
X120422494Y-123003152D01*
X120422494Y-123003152D02*
X120612970Y-123003152D01*
X120612970Y-123003152D02*
X120708208Y-123050771D01*
X120708208Y-123050771D02*
X120755827Y-123146009D01*
X120755827Y-123146009D02*
X120755827Y-123241247D01*
X120755827Y-123241247D02*
X120279637Y-123336485D01*
X121184399Y-123669819D02*
X121184399Y-123003152D01*
X121184399Y-123193628D02*
X121232018Y-123098390D01*
X121232018Y-123098390D02*
X121279637Y-123050771D01*
X121279637Y-123050771D02*
X121374875Y-123003152D01*
X121374875Y-123003152D02*
X121470113Y-123003152D01*
X107352969Y-80044819D02*
X106876779Y-80044819D01*
X106876779Y-80044819D02*
X106829160Y-80521009D01*
X106829160Y-80521009D02*
X106876779Y-80473390D01*
X106876779Y-80473390D02*
X106972017Y-80425771D01*
X106972017Y-80425771D02*
X107210112Y-80425771D01*
X107210112Y-80425771D02*
X107305350Y-80473390D01*
X107305350Y-80473390D02*
X107352969Y-80521009D01*
X107352969Y-80521009D02*
X107400588Y-80616247D01*
X107400588Y-80616247D02*
X107400588Y-80854342D01*
X107400588Y-80854342D02*
X107352969Y-80949580D01*
X107352969Y-80949580D02*
X107305350Y-80997200D01*
X107305350Y-80997200D02*
X107210112Y-81044819D01*
X107210112Y-81044819D02*
X106972017Y-81044819D01*
X106972017Y-81044819D02*
X106876779Y-80997200D01*
X106876779Y-80997200D02*
X106829160Y-80949580D01*
X107686303Y-80044819D02*
X108019636Y-81044819D01*
X108019636Y-81044819D02*
X108352969Y-80044819D01*
X80946009Y-90363220D02*
X80946009Y-90029887D01*
X81469819Y-89887030D02*
X81469819Y-90363220D01*
X81469819Y-90363220D02*
X80469819Y-90363220D01*
X80469819Y-90363220D02*
X80469819Y-89887030D01*
X81469819Y-89458458D02*
X80469819Y-89458458D01*
X80469819Y-89458458D02*
X81469819Y-88887030D01*
X81469819Y-88887030D02*
X80469819Y-88887030D01*
X81184104Y-88458458D02*
X81184104Y-87982268D01*
X81469819Y-88553696D02*
X80469819Y-88220363D01*
X80469819Y-88220363D02*
X81469819Y-87887030D01*
X146734819Y-93487030D02*
X146734819Y-93963220D01*
X146734819Y-93963220D02*
X147211009Y-94010839D01*
X147211009Y-94010839D02*
X147163390Y-93963220D01*
X147163390Y-93963220D02*
X147115771Y-93867982D01*
X147115771Y-93867982D02*
X147115771Y-93629887D01*
X147115771Y-93629887D02*
X147163390Y-93534649D01*
X147163390Y-93534649D02*
X147211009Y-93487030D01*
X147211009Y-93487030D02*
X147306247Y-93439411D01*
X147306247Y-93439411D02*
X147544342Y-93439411D01*
X147544342Y-93439411D02*
X147639580Y-93487030D01*
X147639580Y-93487030D02*
X147687200Y-93534649D01*
X147687200Y-93534649D02*
X147734819Y-93629887D01*
X147734819Y-93629887D02*
X147734819Y-93867982D01*
X147734819Y-93867982D02*
X147687200Y-93963220D01*
X147687200Y-93963220D02*
X147639580Y-94010839D01*
X146734819Y-93153696D02*
X147734819Y-92820363D01*
X147734819Y-92820363D02*
X146734819Y-92487030D01*
X103376779Y-81044819D02*
X103376779Y-80044819D01*
X103376779Y-80044819D02*
X103757731Y-80044819D01*
X103757731Y-80044819D02*
X103852969Y-80092438D01*
X103852969Y-80092438D02*
X103900588Y-80140057D01*
X103900588Y-80140057D02*
X103948207Y-80235295D01*
X103948207Y-80235295D02*
X103948207Y-80378152D01*
X103948207Y-80378152D02*
X103900588Y-80473390D01*
X103900588Y-80473390D02*
X103852969Y-80521009D01*
X103852969Y-80521009D02*
X103757731Y-80568628D01*
X103757731Y-80568628D02*
X103376779Y-80568628D01*
X104281541Y-80044819D02*
X104519636Y-81044819D01*
X104519636Y-81044819D02*
X104710112Y-80330533D01*
X104710112Y-80330533D02*
X104900588Y-81044819D01*
X104900588Y-81044819D02*
X105138684Y-80044819D01*
X105519636Y-81044819D02*
X105519636Y-80044819D01*
X105519636Y-80044819D02*
X105852969Y-80759104D01*
X105852969Y-80759104D02*
X106186302Y-80044819D01*
X106186302Y-80044819D02*
X106186302Y-81044819D01*
X80846009Y-100329887D02*
X80893628Y-100187030D01*
X80893628Y-100187030D02*
X80941247Y-100139411D01*
X80941247Y-100139411D02*
X81036485Y-100091792D01*
X81036485Y-100091792D02*
X81179342Y-100091792D01*
X81179342Y-100091792D02*
X81274580Y-100139411D01*
X81274580Y-100139411D02*
X81322200Y-100187030D01*
X81322200Y-100187030D02*
X81369819Y-100282268D01*
X81369819Y-100282268D02*
X81369819Y-100663220D01*
X81369819Y-100663220D02*
X80369819Y-100663220D01*
X80369819Y-100663220D02*
X80369819Y-100329887D01*
X80369819Y-100329887D02*
X80417438Y-100234649D01*
X80417438Y-100234649D02*
X80465057Y-100187030D01*
X80465057Y-100187030D02*
X80560295Y-100139411D01*
X80560295Y-100139411D02*
X80655533Y-100139411D01*
X80655533Y-100139411D02*
X80750771Y-100187030D01*
X80750771Y-100187030D02*
X80798390Y-100234649D01*
X80798390Y-100234649D02*
X80846009Y-100329887D01*
X80846009Y-100329887D02*
X80846009Y-100663220D01*
X80465057Y-99710839D02*
X80417438Y-99663220D01*
X80417438Y-99663220D02*
X80369819Y-99567982D01*
X80369819Y-99567982D02*
X80369819Y-99329887D01*
X80369819Y-99329887D02*
X80417438Y-99234649D01*
X80417438Y-99234649D02*
X80465057Y-99187030D01*
X80465057Y-99187030D02*
X80560295Y-99139411D01*
X80560295Y-99139411D02*
X80655533Y-99139411D01*
X80655533Y-99139411D02*
X80798390Y-99187030D01*
X80798390Y-99187030D02*
X81369819Y-99758458D01*
X81369819Y-99758458D02*
X81369819Y-99139411D01*
X122512969Y-71769819D02*
X122036779Y-71769819D01*
X122036779Y-71769819D02*
X121989160Y-72246009D01*
X121989160Y-72246009D02*
X122036779Y-72198390D01*
X122036779Y-72198390D02*
X122132017Y-72150771D01*
X122132017Y-72150771D02*
X122370112Y-72150771D01*
X122370112Y-72150771D02*
X122465350Y-72198390D01*
X122465350Y-72198390D02*
X122512969Y-72246009D01*
X122512969Y-72246009D02*
X122560588Y-72341247D01*
X122560588Y-72341247D02*
X122560588Y-72579342D01*
X122560588Y-72579342D02*
X122512969Y-72674580D01*
X122512969Y-72674580D02*
X122465350Y-72722200D01*
X122465350Y-72722200D02*
X122370112Y-72769819D01*
X122370112Y-72769819D02*
X122132017Y-72769819D01*
X122132017Y-72769819D02*
X122036779Y-72722200D01*
X122036779Y-72722200D02*
X121989160Y-72674580D01*
X122846303Y-71769819D02*
X123179636Y-72769819D01*
X123179636Y-72769819D02*
X123512969Y-71769819D01*
X80946009Y-97829887D02*
X80993628Y-97687030D01*
X80993628Y-97687030D02*
X81041247Y-97639411D01*
X81041247Y-97639411D02*
X81136485Y-97591792D01*
X81136485Y-97591792D02*
X81279342Y-97591792D01*
X81279342Y-97591792D02*
X81374580Y-97639411D01*
X81374580Y-97639411D02*
X81422200Y-97687030D01*
X81422200Y-97687030D02*
X81469819Y-97782268D01*
X81469819Y-97782268D02*
X81469819Y-98163220D01*
X81469819Y-98163220D02*
X80469819Y-98163220D01*
X80469819Y-98163220D02*
X80469819Y-97829887D01*
X80469819Y-97829887D02*
X80517438Y-97734649D01*
X80517438Y-97734649D02*
X80565057Y-97687030D01*
X80565057Y-97687030D02*
X80660295Y-97639411D01*
X80660295Y-97639411D02*
X80755533Y-97639411D01*
X80755533Y-97639411D02*
X80850771Y-97687030D01*
X80850771Y-97687030D02*
X80898390Y-97734649D01*
X80898390Y-97734649D02*
X80946009Y-97829887D01*
X80946009Y-97829887D02*
X80946009Y-98163220D01*
X81469819Y-96639411D02*
X81469819Y-97210839D01*
X81469819Y-96925125D02*
X80469819Y-96925125D01*
X80469819Y-96925125D02*
X80612676Y-97020363D01*
X80612676Y-97020363D02*
X80707914Y-97115601D01*
X80707914Y-97115601D02*
X80755533Y-97210839D01*
X81184104Y-95610839D02*
X81184104Y-95134649D01*
X81469819Y-95706077D02*
X80469819Y-95372744D01*
X80469819Y-95372744D02*
X81469819Y-95039411D01*
X80565057Y-94753696D02*
X80517438Y-94706077D01*
X80517438Y-94706077D02*
X80469819Y-94610839D01*
X80469819Y-94610839D02*
X80469819Y-94372744D01*
X80469819Y-94372744D02*
X80517438Y-94277506D01*
X80517438Y-94277506D02*
X80565057Y-94229887D01*
X80565057Y-94229887D02*
X80660295Y-94182268D01*
X80660295Y-94182268D02*
X80755533Y-94182268D01*
X80755533Y-94182268D02*
X80898390Y-94229887D01*
X80898390Y-94229887D02*
X81469819Y-94801315D01*
X81469819Y-94801315D02*
X81469819Y-94182268D01*
X81184104Y-92810839D02*
X81184104Y-92334649D01*
X81469819Y-92906077D02*
X80469819Y-92572744D01*
X80469819Y-92572744D02*
X81469819Y-92239411D01*
X81469819Y-91382268D02*
X81469819Y-91953696D01*
X81469819Y-91667982D02*
X80469819Y-91667982D01*
X80469819Y-91667982D02*
X80612676Y-91763220D01*
X80612676Y-91763220D02*
X80707914Y-91858458D01*
X80707914Y-91858458D02*
X80755533Y-91953696D01*
X109800588Y-80092438D02*
X109705350Y-80044819D01*
X109705350Y-80044819D02*
X109562493Y-80044819D01*
X109562493Y-80044819D02*
X109419636Y-80092438D01*
X109419636Y-80092438D02*
X109324398Y-80187676D01*
X109324398Y-80187676D02*
X109276779Y-80282914D01*
X109276779Y-80282914D02*
X109229160Y-80473390D01*
X109229160Y-80473390D02*
X109229160Y-80616247D01*
X109229160Y-80616247D02*
X109276779Y-80806723D01*
X109276779Y-80806723D02*
X109324398Y-80901961D01*
X109324398Y-80901961D02*
X109419636Y-80997200D01*
X109419636Y-80997200D02*
X109562493Y-81044819D01*
X109562493Y-81044819D02*
X109657731Y-81044819D01*
X109657731Y-81044819D02*
X109800588Y-80997200D01*
X109800588Y-80997200D02*
X109848207Y-80949580D01*
X109848207Y-80949580D02*
X109848207Y-80616247D01*
X109848207Y-80616247D02*
X109657731Y-80616247D01*
X110276779Y-81044819D02*
X110276779Y-80044819D01*
X110276779Y-80044819D02*
X110848207Y-81044819D01*
X110848207Y-81044819D02*
X110848207Y-80044819D01*
X111324398Y-81044819D02*
X111324398Y-80044819D01*
X111324398Y-80044819D02*
X111562493Y-80044819D01*
X111562493Y-80044819D02*
X111705350Y-80092438D01*
X111705350Y-80092438D02*
X111800588Y-80187676D01*
X111800588Y-80187676D02*
X111848207Y-80282914D01*
X111848207Y-80282914D02*
X111895826Y-80473390D01*
X111895826Y-80473390D02*
X111895826Y-80616247D01*
X111895826Y-80616247D02*
X111848207Y-80806723D01*
X111848207Y-80806723D02*
X111800588Y-80901961D01*
X111800588Y-80901961D02*
X111705350Y-80997200D01*
X111705350Y-80997200D02*
X111562493Y-81044819D01*
X111562493Y-81044819D02*
X111324398Y-81044819D01*
X122360588Y-69417438D02*
X122265350Y-69369819D01*
X122265350Y-69369819D02*
X122122493Y-69369819D01*
X122122493Y-69369819D02*
X121979636Y-69417438D01*
X121979636Y-69417438D02*
X121884398Y-69512676D01*
X121884398Y-69512676D02*
X121836779Y-69607914D01*
X121836779Y-69607914D02*
X121789160Y-69798390D01*
X121789160Y-69798390D02*
X121789160Y-69941247D01*
X121789160Y-69941247D02*
X121836779Y-70131723D01*
X121836779Y-70131723D02*
X121884398Y-70226961D01*
X121884398Y-70226961D02*
X121979636Y-70322200D01*
X121979636Y-70322200D02*
X122122493Y-70369819D01*
X122122493Y-70369819D02*
X122217731Y-70369819D01*
X122217731Y-70369819D02*
X122360588Y-70322200D01*
X122360588Y-70322200D02*
X122408207Y-70274580D01*
X122408207Y-70274580D02*
X122408207Y-69941247D01*
X122408207Y-69941247D02*
X122217731Y-69941247D01*
X122836779Y-70369819D02*
X122836779Y-69369819D01*
X122836779Y-69369819D02*
X123408207Y-70369819D01*
X123408207Y-70369819D02*
X123408207Y-69369819D01*
X123884398Y-70369819D02*
X123884398Y-69369819D01*
X123884398Y-69369819D02*
X124122493Y-69369819D01*
X124122493Y-69369819D02*
X124265350Y-69417438D01*
X124265350Y-69417438D02*
X124360588Y-69512676D01*
X124360588Y-69512676D02*
X124408207Y-69607914D01*
X124408207Y-69607914D02*
X124455826Y-69798390D01*
X124455826Y-69798390D02*
X124455826Y-69941247D01*
X124455826Y-69941247D02*
X124408207Y-70131723D01*
X124408207Y-70131723D02*
X124360588Y-70226961D01*
X124360588Y-70226961D02*
X124265350Y-70322200D01*
X124265350Y-70322200D02*
X124122493Y-70369819D01*
X124122493Y-70369819D02*
X123884398Y-70369819D01*
X121889160Y-75022200D02*
X122032017Y-75069819D01*
X122032017Y-75069819D02*
X122270112Y-75069819D01*
X122270112Y-75069819D02*
X122365350Y-75022200D01*
X122365350Y-75022200D02*
X122412969Y-74974580D01*
X122412969Y-74974580D02*
X122460588Y-74879342D01*
X122460588Y-74879342D02*
X122460588Y-74784104D01*
X122460588Y-74784104D02*
X122412969Y-74688866D01*
X122412969Y-74688866D02*
X122365350Y-74641247D01*
X122365350Y-74641247D02*
X122270112Y-74593628D01*
X122270112Y-74593628D02*
X122079636Y-74546009D01*
X122079636Y-74546009D02*
X121984398Y-74498390D01*
X121984398Y-74498390D02*
X121936779Y-74450771D01*
X121936779Y-74450771D02*
X121889160Y-74355533D01*
X121889160Y-74355533D02*
X121889160Y-74260295D01*
X121889160Y-74260295D02*
X121936779Y-74165057D01*
X121936779Y-74165057D02*
X121984398Y-74117438D01*
X121984398Y-74117438D02*
X122079636Y-74069819D01*
X122079636Y-74069819D02*
X122317731Y-74069819D01*
X122317731Y-74069819D02*
X122460588Y-74117438D01*
X122889160Y-75069819D02*
X122889160Y-74069819D01*
X122889160Y-74069819D02*
X123127255Y-74069819D01*
X123127255Y-74069819D02*
X123270112Y-74117438D01*
X123270112Y-74117438D02*
X123365350Y-74212676D01*
X123365350Y-74212676D02*
X123412969Y-74307914D01*
X123412969Y-74307914D02*
X123460588Y-74498390D01*
X123460588Y-74498390D02*
X123460588Y-74641247D01*
X123460588Y-74641247D02*
X123412969Y-74831723D01*
X123412969Y-74831723D02*
X123365350Y-74926961D01*
X123365350Y-74926961D02*
X123270112Y-75022200D01*
X123270112Y-75022200D02*
X123127255Y-75069819D01*
X123127255Y-75069819D02*
X122889160Y-75069819D01*
X123841541Y-74784104D02*
X124317731Y-74784104D01*
X123746303Y-75069819D02*
X124079636Y-74069819D01*
X124079636Y-74069819D02*
X124412969Y-75069819D01*
X121889160Y-77922200D02*
X122032017Y-77969819D01*
X122032017Y-77969819D02*
X122270112Y-77969819D01*
X122270112Y-77969819D02*
X122365350Y-77922200D01*
X122365350Y-77922200D02*
X122412969Y-77874580D01*
X122412969Y-77874580D02*
X122460588Y-77779342D01*
X122460588Y-77779342D02*
X122460588Y-77684104D01*
X122460588Y-77684104D02*
X122412969Y-77588866D01*
X122412969Y-77588866D02*
X122365350Y-77541247D01*
X122365350Y-77541247D02*
X122270112Y-77493628D01*
X122270112Y-77493628D02*
X122079636Y-77446009D01*
X122079636Y-77446009D02*
X121984398Y-77398390D01*
X121984398Y-77398390D02*
X121936779Y-77350771D01*
X121936779Y-77350771D02*
X121889160Y-77255533D01*
X121889160Y-77255533D02*
X121889160Y-77160295D01*
X121889160Y-77160295D02*
X121936779Y-77065057D01*
X121936779Y-77065057D02*
X121984398Y-77017438D01*
X121984398Y-77017438D02*
X122079636Y-76969819D01*
X122079636Y-76969819D02*
X122317731Y-76969819D01*
X122317731Y-76969819D02*
X122460588Y-77017438D01*
X123460588Y-77874580D02*
X123412969Y-77922200D01*
X123412969Y-77922200D02*
X123270112Y-77969819D01*
X123270112Y-77969819D02*
X123174874Y-77969819D01*
X123174874Y-77969819D02*
X123032017Y-77922200D01*
X123032017Y-77922200D02*
X122936779Y-77826961D01*
X122936779Y-77826961D02*
X122889160Y-77731723D01*
X122889160Y-77731723D02*
X122841541Y-77541247D01*
X122841541Y-77541247D02*
X122841541Y-77398390D01*
X122841541Y-77398390D02*
X122889160Y-77207914D01*
X122889160Y-77207914D02*
X122936779Y-77112676D01*
X122936779Y-77112676D02*
X123032017Y-77017438D01*
X123032017Y-77017438D02*
X123174874Y-76969819D01*
X123174874Y-76969819D02*
X123270112Y-76969819D01*
X123270112Y-76969819D02*
X123412969Y-77017438D01*
X123412969Y-77017438D02*
X123460588Y-77065057D01*
X124365350Y-77969819D02*
X123889160Y-77969819D01*
X123889160Y-77969819D02*
X123889160Y-76969819D01*
X80946009Y-103863220D02*
X80946009Y-103529887D01*
X81469819Y-103387030D02*
X81469819Y-103863220D01*
X81469819Y-103863220D02*
X80469819Y-103863220D01*
X80469819Y-103863220D02*
X80469819Y-103387030D01*
X81469819Y-102958458D02*
X80469819Y-102958458D01*
X80469819Y-102958458D02*
X81469819Y-102387030D01*
X81469819Y-102387030D02*
X80469819Y-102387030D01*
X80946009Y-101577506D02*
X80993628Y-101434649D01*
X80993628Y-101434649D02*
X81041247Y-101387030D01*
X81041247Y-101387030D02*
X81136485Y-101339411D01*
X81136485Y-101339411D02*
X81279342Y-101339411D01*
X81279342Y-101339411D02*
X81374580Y-101387030D01*
X81374580Y-101387030D02*
X81422200Y-101434649D01*
X81422200Y-101434649D02*
X81469819Y-101529887D01*
X81469819Y-101529887D02*
X81469819Y-101910839D01*
X81469819Y-101910839D02*
X80469819Y-101910839D01*
X80469819Y-101910839D02*
X80469819Y-101577506D01*
X80469819Y-101577506D02*
X80517438Y-101482268D01*
X80517438Y-101482268D02*
X80565057Y-101434649D01*
X80565057Y-101434649D02*
X80660295Y-101387030D01*
X80660295Y-101387030D02*
X80755533Y-101387030D01*
X80755533Y-101387030D02*
X80850771Y-101434649D01*
X80850771Y-101434649D02*
X80898390Y-101482268D01*
X80898390Y-101482268D02*
X80946009Y-101577506D01*
X80946009Y-101577506D02*
X80946009Y-101910839D01*
X109886666Y-130809819D02*
X109553333Y-130333628D01*
X109315238Y-130809819D02*
X109315238Y-129809819D01*
X109315238Y-129809819D02*
X109696190Y-129809819D01*
X109696190Y-129809819D02*
X109791428Y-129857438D01*
X109791428Y-129857438D02*
X109839047Y-129905057D01*
X109839047Y-129905057D02*
X109886666Y-130000295D01*
X109886666Y-130000295D02*
X109886666Y-130143152D01*
X109886666Y-130143152D02*
X109839047Y-130238390D01*
X109839047Y-130238390D02*
X109791428Y-130286009D01*
X109791428Y-130286009D02*
X109696190Y-130333628D01*
X109696190Y-130333628D02*
X109315238Y-130333628D01*
X110315238Y-130286009D02*
X110648571Y-130286009D01*
X110791428Y-130809819D02*
X110315238Y-130809819D01*
X110315238Y-130809819D02*
X110315238Y-129809819D01*
X110315238Y-129809819D02*
X110791428Y-129809819D01*
X111553333Y-130286009D02*
X111220000Y-130286009D01*
X111220000Y-130809819D02*
X111220000Y-129809819D01*
X111220000Y-129809819D02*
X111696190Y-129809819D01*
X112220000Y-129809819D02*
X112220000Y-130047914D01*
X111981905Y-129952676D02*
X112220000Y-130047914D01*
X112220000Y-130047914D02*
X112458095Y-129952676D01*
X112077143Y-130238390D02*
X112220000Y-130047914D01*
X112220000Y-130047914D02*
X112362857Y-130238390D01*
X112981905Y-129809819D02*
X112981905Y-130047914D01*
X112743810Y-129952676D02*
X112981905Y-130047914D01*
X112981905Y-130047914D02*
X113220000Y-129952676D01*
X112839048Y-130238390D02*
X112981905Y-130047914D01*
X112981905Y-130047914D02*
X113124762Y-130238390D01*
X113606666Y-74929819D02*
X113606666Y-75644104D01*
X113606666Y-75644104D02*
X113559047Y-75786961D01*
X113559047Y-75786961D02*
X113463809Y-75882200D01*
X113463809Y-75882200D02*
X113320952Y-75929819D01*
X113320952Y-75929819D02*
X113225714Y-75929819D01*
X114559047Y-74929819D02*
X114082857Y-74929819D01*
X114082857Y-74929819D02*
X114035238Y-75406009D01*
X114035238Y-75406009D02*
X114082857Y-75358390D01*
X114082857Y-75358390D02*
X114178095Y-75310771D01*
X114178095Y-75310771D02*
X114416190Y-75310771D01*
X114416190Y-75310771D02*
X114511428Y-75358390D01*
X114511428Y-75358390D02*
X114559047Y-75406009D01*
X114559047Y-75406009D02*
X114606666Y-75501247D01*
X114606666Y-75501247D02*
X114606666Y-75739342D01*
X114606666Y-75739342D02*
X114559047Y-75834580D01*
X114559047Y-75834580D02*
X114511428Y-75882200D01*
X114511428Y-75882200D02*
X114416190Y-75929819D01*
X114416190Y-75929819D02*
X114178095Y-75929819D01*
X114178095Y-75929819D02*
X114082857Y-75882200D01*
X114082857Y-75882200D02*
X114035238Y-75834580D01*
X128338095Y-149459819D02*
X128338095Y-148459819D01*
X128338095Y-148936009D02*
X128909523Y-148936009D01*
X128909523Y-149459819D02*
X128909523Y-148459819D01*
X129814285Y-148793152D02*
X129814285Y-149459819D01*
X129576190Y-148412200D02*
X129338095Y-149126485D01*
X129338095Y-149126485D02*
X129957142Y-149126485D01*
X129433333Y-76004819D02*
X129100000Y-75528628D01*
X128861905Y-76004819D02*
X128861905Y-75004819D01*
X128861905Y-75004819D02*
X129242857Y-75004819D01*
X129242857Y-75004819D02*
X129338095Y-75052438D01*
X129338095Y-75052438D02*
X129385714Y-75100057D01*
X129385714Y-75100057D02*
X129433333Y-75195295D01*
X129433333Y-75195295D02*
X129433333Y-75338152D01*
X129433333Y-75338152D02*
X129385714Y-75433390D01*
X129385714Y-75433390D02*
X129338095Y-75481009D01*
X129338095Y-75481009D02*
X129242857Y-75528628D01*
X129242857Y-75528628D02*
X128861905Y-75528628D01*
X130290476Y-75338152D02*
X130290476Y-76004819D01*
X130052381Y-74957200D02*
X129814286Y-75671485D01*
X129814286Y-75671485D02*
X130433333Y-75671485D01*
X94438095Y-121104819D02*
X94438095Y-120104819D01*
X94438095Y-120581009D02*
X95009523Y-120581009D01*
X95009523Y-121104819D02*
X95009523Y-120104819D01*
X95390476Y-120104819D02*
X96057142Y-120104819D01*
X96057142Y-120104819D02*
X95628571Y-121104819D01*
X119366666Y-66934819D02*
X119366666Y-67649104D01*
X119366666Y-67649104D02*
X119319047Y-67791961D01*
X119319047Y-67791961D02*
X119223809Y-67887200D01*
X119223809Y-67887200D02*
X119080952Y-67934819D01*
X119080952Y-67934819D02*
X118985714Y-67934819D01*
X119747619Y-66934819D02*
X120366666Y-66934819D01*
X120366666Y-66934819D02*
X120033333Y-67315771D01*
X120033333Y-67315771D02*
X120176190Y-67315771D01*
X120176190Y-67315771D02*
X120271428Y-67363390D01*
X120271428Y-67363390D02*
X120319047Y-67411009D01*
X120319047Y-67411009D02*
X120366666Y-67506247D01*
X120366666Y-67506247D02*
X120366666Y-67744342D01*
X120366666Y-67744342D02*
X120319047Y-67839580D01*
X120319047Y-67839580D02*
X120271428Y-67887200D01*
X120271428Y-67887200D02*
X120176190Y-67934819D01*
X120176190Y-67934819D02*
X119890476Y-67934819D01*
X119890476Y-67934819D02*
X119795238Y-67887200D01*
X119795238Y-67887200D02*
X119747619Y-67839580D01*
X132044405Y-75154819D02*
X132044405Y-74154819D01*
X132044405Y-74154819D02*
X132282500Y-74154819D01*
X132282500Y-74154819D02*
X132425357Y-74202438D01*
X132425357Y-74202438D02*
X132520595Y-74297676D01*
X132520595Y-74297676D02*
X132568214Y-74392914D01*
X132568214Y-74392914D02*
X132615833Y-74583390D01*
X132615833Y-74583390D02*
X132615833Y-74726247D01*
X132615833Y-74726247D02*
X132568214Y-74916723D01*
X132568214Y-74916723D02*
X132520595Y-75011961D01*
X132520595Y-75011961D02*
X132425357Y-75107200D01*
X132425357Y-75107200D02*
X132282500Y-75154819D01*
X132282500Y-75154819D02*
X132044405Y-75154819D01*
X132996786Y-74250057D02*
X133044405Y-74202438D01*
X133044405Y-74202438D02*
X133139643Y-74154819D01*
X133139643Y-74154819D02*
X133377738Y-74154819D01*
X133377738Y-74154819D02*
X133472976Y-74202438D01*
X133472976Y-74202438D02*
X133520595Y-74250057D01*
X133520595Y-74250057D02*
X133568214Y-74345295D01*
X133568214Y-74345295D02*
X133568214Y-74440533D01*
X133568214Y-74440533D02*
X133520595Y-74583390D01*
X133520595Y-74583390D02*
X132949167Y-75154819D01*
X132949167Y-75154819D02*
X133568214Y-75154819D01*
X125280952Y-66931009D02*
X124947619Y-66931009D01*
X124947619Y-67454819D02*
X124947619Y-66454819D01*
X124947619Y-66454819D02*
X125423809Y-66454819D01*
X125566667Y-67550057D02*
X126328571Y-67550057D01*
X127042857Y-67454819D02*
X126566667Y-67454819D01*
X126566667Y-67454819D02*
X126566667Y-66454819D01*
X127376191Y-66931009D02*
X127709524Y-66931009D01*
X127852381Y-67454819D02*
X127376191Y-67454819D01*
X127376191Y-67454819D02*
X127376191Y-66454819D01*
X127376191Y-66454819D02*
X127852381Y-66454819D01*
X128280953Y-67454819D02*
X128280953Y-66454819D01*
X128280953Y-66454819D02*
X128519048Y-66454819D01*
X128519048Y-66454819D02*
X128661905Y-66502438D01*
X128661905Y-66502438D02*
X128757143Y-66597676D01*
X128757143Y-66597676D02*
X128804762Y-66692914D01*
X128804762Y-66692914D02*
X128852381Y-66883390D01*
X128852381Y-66883390D02*
X128852381Y-67026247D01*
X128852381Y-67026247D02*
X128804762Y-67216723D01*
X128804762Y-67216723D02*
X128757143Y-67311961D01*
X128757143Y-67311961D02*
X128661905Y-67407200D01*
X128661905Y-67407200D02*
X128519048Y-67454819D01*
X128519048Y-67454819D02*
X128280953Y-67454819D01*
X129042858Y-67550057D02*
X129804762Y-67550057D01*
X130614286Y-67454819D02*
X130280953Y-66978628D01*
X130042858Y-67454819D02*
X130042858Y-66454819D01*
X130042858Y-66454819D02*
X130423810Y-66454819D01*
X130423810Y-66454819D02*
X130519048Y-66502438D01*
X130519048Y-66502438D02*
X130566667Y-66550057D01*
X130566667Y-66550057D02*
X130614286Y-66645295D01*
X130614286Y-66645295D02*
X130614286Y-66788152D01*
X130614286Y-66788152D02*
X130566667Y-66883390D01*
X130566667Y-66883390D02*
X130519048Y-66931009D01*
X130519048Y-66931009D02*
X130423810Y-66978628D01*
X130423810Y-66978628D02*
X130042858Y-66978628D01*
X131042858Y-67454819D02*
X131042858Y-66454819D01*
X132042857Y-66502438D02*
X131947619Y-66454819D01*
X131947619Y-66454819D02*
X131804762Y-66454819D01*
X131804762Y-66454819D02*
X131661905Y-66502438D01*
X131661905Y-66502438D02*
X131566667Y-66597676D01*
X131566667Y-66597676D02*
X131519048Y-66692914D01*
X131519048Y-66692914D02*
X131471429Y-66883390D01*
X131471429Y-66883390D02*
X131471429Y-67026247D01*
X131471429Y-67026247D02*
X131519048Y-67216723D01*
X131519048Y-67216723D02*
X131566667Y-67311961D01*
X131566667Y-67311961D02*
X131661905Y-67407200D01*
X131661905Y-67407200D02*
X131804762Y-67454819D01*
X131804762Y-67454819D02*
X131900000Y-67454819D01*
X131900000Y-67454819D02*
X132042857Y-67407200D01*
X132042857Y-67407200D02*
X132090476Y-67359580D01*
X132090476Y-67359580D02*
X132090476Y-67026247D01*
X132090476Y-67026247D02*
X131900000Y-67026247D01*
X132519048Y-67454819D02*
X132519048Y-66454819D01*
X132519048Y-66931009D02*
X133090476Y-66931009D01*
X133090476Y-67454819D02*
X133090476Y-66454819D01*
X133423810Y-66454819D02*
X133995238Y-66454819D01*
X133709524Y-67454819D02*
X133709524Y-66454819D01*
X133504819Y-94566666D02*
X133028628Y-94899999D01*
X133504819Y-95138094D02*
X132504819Y-95138094D01*
X132504819Y-95138094D02*
X132504819Y-94757142D01*
X132504819Y-94757142D02*
X132552438Y-94661904D01*
X132552438Y-94661904D02*
X132600057Y-94614285D01*
X132600057Y-94614285D02*
X132695295Y-94566666D01*
X132695295Y-94566666D02*
X132838152Y-94566666D01*
X132838152Y-94566666D02*
X132933390Y-94614285D01*
X132933390Y-94614285D02*
X132981009Y-94661904D01*
X132981009Y-94661904D02*
X133028628Y-94757142D01*
X133028628Y-94757142D02*
X133028628Y-95138094D01*
X132600057Y-94185713D02*
X132552438Y-94138094D01*
X132552438Y-94138094D02*
X132504819Y-94042856D01*
X132504819Y-94042856D02*
X132504819Y-93804761D01*
X132504819Y-93804761D02*
X132552438Y-93709523D01*
X132552438Y-93709523D02*
X132600057Y-93661904D01*
X132600057Y-93661904D02*
X132695295Y-93614285D01*
X132695295Y-93614285D02*
X132790533Y-93614285D01*
X132790533Y-93614285D02*
X132933390Y-93661904D01*
X132933390Y-93661904D02*
X133504819Y-94233332D01*
X133504819Y-94233332D02*
X133504819Y-93614285D01*
X90238095Y-149459819D02*
X90238095Y-148459819D01*
X90238095Y-148936009D02*
X90809523Y-148936009D01*
X90809523Y-149459819D02*
X90809523Y-148459819D01*
X91190476Y-148459819D02*
X91809523Y-148459819D01*
X91809523Y-148459819D02*
X91476190Y-148840771D01*
X91476190Y-148840771D02*
X91619047Y-148840771D01*
X91619047Y-148840771D02*
X91714285Y-148888390D01*
X91714285Y-148888390D02*
X91761904Y-148936009D01*
X91761904Y-148936009D02*
X91809523Y-149031247D01*
X91809523Y-149031247D02*
X91809523Y-149269342D01*
X91809523Y-149269342D02*
X91761904Y-149364580D01*
X91761904Y-149364580D02*
X91714285Y-149412200D01*
X91714285Y-149412200D02*
X91619047Y-149459819D01*
X91619047Y-149459819D02*
X91333333Y-149459819D01*
X91333333Y-149459819D02*
X91238095Y-149412200D01*
X91238095Y-149412200D02*
X91190476Y-149364580D01*
X124538095Y-57004819D02*
X124538095Y-56004819D01*
X124538095Y-56481009D02*
X125109523Y-56481009D01*
X125109523Y-57004819D02*
X125109523Y-56004819D01*
X126014285Y-56004819D02*
X125823809Y-56004819D01*
X125823809Y-56004819D02*
X125728571Y-56052438D01*
X125728571Y-56052438D02*
X125680952Y-56100057D01*
X125680952Y-56100057D02*
X125585714Y-56242914D01*
X125585714Y-56242914D02*
X125538095Y-56433390D01*
X125538095Y-56433390D02*
X125538095Y-56814342D01*
X125538095Y-56814342D02*
X125585714Y-56909580D01*
X125585714Y-56909580D02*
X125633333Y-56957200D01*
X125633333Y-56957200D02*
X125728571Y-57004819D01*
X125728571Y-57004819D02*
X125919047Y-57004819D01*
X125919047Y-57004819D02*
X126014285Y-56957200D01*
X126014285Y-56957200D02*
X126061904Y-56909580D01*
X126061904Y-56909580D02*
X126109523Y-56814342D01*
X126109523Y-56814342D02*
X126109523Y-56576247D01*
X126109523Y-56576247D02*
X126061904Y-56481009D01*
X126061904Y-56481009D02*
X126014285Y-56433390D01*
X126014285Y-56433390D02*
X125919047Y-56385771D01*
X125919047Y-56385771D02*
X125728571Y-56385771D01*
X125728571Y-56385771D02*
X125633333Y-56433390D01*
X125633333Y-56433390D02*
X125585714Y-56481009D01*
X125585714Y-56481009D02*
X125538095Y-56576247D01*
X87433333Y-77654819D02*
X87100000Y-77178628D01*
X86861905Y-77654819D02*
X86861905Y-76654819D01*
X86861905Y-76654819D02*
X87242857Y-76654819D01*
X87242857Y-76654819D02*
X87338095Y-76702438D01*
X87338095Y-76702438D02*
X87385714Y-76750057D01*
X87385714Y-76750057D02*
X87433333Y-76845295D01*
X87433333Y-76845295D02*
X87433333Y-76988152D01*
X87433333Y-76988152D02*
X87385714Y-77083390D01*
X87385714Y-77083390D02*
X87338095Y-77131009D01*
X87338095Y-77131009D02*
X87242857Y-77178628D01*
X87242857Y-77178628D02*
X86861905Y-77178628D01*
X87766667Y-76654819D02*
X88385714Y-76654819D01*
X88385714Y-76654819D02*
X88052381Y-77035771D01*
X88052381Y-77035771D02*
X88195238Y-77035771D01*
X88195238Y-77035771D02*
X88290476Y-77083390D01*
X88290476Y-77083390D02*
X88338095Y-77131009D01*
X88338095Y-77131009D02*
X88385714Y-77226247D01*
X88385714Y-77226247D02*
X88385714Y-77464342D01*
X88385714Y-77464342D02*
X88338095Y-77559580D01*
X88338095Y-77559580D02*
X88290476Y-77607200D01*
X88290476Y-77607200D02*
X88195238Y-77654819D01*
X88195238Y-77654819D02*
X87909524Y-77654819D01*
X87909524Y-77654819D02*
X87814286Y-77607200D01*
X87814286Y-77607200D02*
X87766667Y-77559580D01*
X87361905Y-137409819D02*
X87361905Y-136409819D01*
X87361905Y-136409819D02*
X87600000Y-136409819D01*
X87600000Y-136409819D02*
X87742857Y-136457438D01*
X87742857Y-136457438D02*
X87838095Y-136552676D01*
X87838095Y-136552676D02*
X87885714Y-136647914D01*
X87885714Y-136647914D02*
X87933333Y-136838390D01*
X87933333Y-136838390D02*
X87933333Y-136981247D01*
X87933333Y-136981247D02*
X87885714Y-137171723D01*
X87885714Y-137171723D02*
X87838095Y-137266961D01*
X87838095Y-137266961D02*
X87742857Y-137362200D01*
X87742857Y-137362200D02*
X87600000Y-137409819D01*
X87600000Y-137409819D02*
X87361905Y-137409819D01*
X88266667Y-136409819D02*
X88885714Y-136409819D01*
X88885714Y-136409819D02*
X88552381Y-136790771D01*
X88552381Y-136790771D02*
X88695238Y-136790771D01*
X88695238Y-136790771D02*
X88790476Y-136838390D01*
X88790476Y-136838390D02*
X88838095Y-136886009D01*
X88838095Y-136886009D02*
X88885714Y-136981247D01*
X88885714Y-136981247D02*
X88885714Y-137219342D01*
X88885714Y-137219342D02*
X88838095Y-137314580D01*
X88838095Y-137314580D02*
X88790476Y-137362200D01*
X88790476Y-137362200D02*
X88695238Y-137409819D01*
X88695238Y-137409819D02*
X88409524Y-137409819D01*
X88409524Y-137409819D02*
X88314286Y-137362200D01*
X88314286Y-137362200D02*
X88266667Y-137314580D01*
X75754819Y-86533333D02*
X76469104Y-86533333D01*
X76469104Y-86533333D02*
X76611961Y-86580952D01*
X76611961Y-86580952D02*
X76707200Y-86676190D01*
X76707200Y-86676190D02*
X76754819Y-86819047D01*
X76754819Y-86819047D02*
X76754819Y-86914285D01*
X76088152Y-85628571D02*
X76754819Y-85628571D01*
X75707200Y-85866666D02*
X76421485Y-86104761D01*
X76421485Y-86104761D02*
X76421485Y-85485714D01*
X113666666Y-137654819D02*
X113666666Y-138369104D01*
X113666666Y-138369104D02*
X113619047Y-138511961D01*
X113619047Y-138511961D02*
X113523809Y-138607200D01*
X113523809Y-138607200D02*
X113380952Y-138654819D01*
X113380952Y-138654819D02*
X113285714Y-138654819D01*
X114095238Y-137750057D02*
X114142857Y-137702438D01*
X114142857Y-137702438D02*
X114238095Y-137654819D01*
X114238095Y-137654819D02*
X114476190Y-137654819D01*
X114476190Y-137654819D02*
X114571428Y-137702438D01*
X114571428Y-137702438D02*
X114619047Y-137750057D01*
X114619047Y-137750057D02*
X114666666Y-137845295D01*
X114666666Y-137845295D02*
X114666666Y-137940533D01*
X114666666Y-137940533D02*
X114619047Y-138083390D01*
X114619047Y-138083390D02*
X114047619Y-138654819D01*
X114047619Y-138654819D02*
X114666666Y-138654819D01*
X128338095Y-111359819D02*
X128338095Y-110359819D01*
X128338095Y-110836009D02*
X128909523Y-110836009D01*
X128909523Y-111359819D02*
X128909523Y-110359819D01*
X129338095Y-110455057D02*
X129385714Y-110407438D01*
X129385714Y-110407438D02*
X129480952Y-110359819D01*
X129480952Y-110359819D02*
X129719047Y-110359819D01*
X129719047Y-110359819D02*
X129814285Y-110407438D01*
X129814285Y-110407438D02*
X129861904Y-110455057D01*
X129861904Y-110455057D02*
X129909523Y-110550295D01*
X129909523Y-110550295D02*
X129909523Y-110645533D01*
X129909523Y-110645533D02*
X129861904Y-110788390D01*
X129861904Y-110788390D02*
X129290476Y-111359819D01*
X129290476Y-111359819D02*
X129909523Y-111359819D01*
X90238095Y-111359819D02*
X90238095Y-110359819D01*
X90238095Y-110836009D02*
X90809523Y-110836009D01*
X90809523Y-111359819D02*
X90809523Y-110359819D01*
X91809523Y-111359819D02*
X91238095Y-111359819D01*
X91523809Y-111359819D02*
X91523809Y-110359819D01*
X91523809Y-110359819D02*
X91428571Y-110502676D01*
X91428571Y-110502676D02*
X91333333Y-110597914D01*
X91333333Y-110597914D02*
X91238095Y-110645533D01*
X133504819Y-99479166D02*
X133028628Y-99812499D01*
X133504819Y-100050594D02*
X132504819Y-100050594D01*
X132504819Y-100050594D02*
X132504819Y-99669642D01*
X132504819Y-99669642D02*
X132552438Y-99574404D01*
X132552438Y-99574404D02*
X132600057Y-99526785D01*
X132600057Y-99526785D02*
X132695295Y-99479166D01*
X132695295Y-99479166D02*
X132838152Y-99479166D01*
X132838152Y-99479166D02*
X132933390Y-99526785D01*
X132933390Y-99526785D02*
X132981009Y-99574404D01*
X132981009Y-99574404D02*
X133028628Y-99669642D01*
X133028628Y-99669642D02*
X133028628Y-100050594D01*
X133504819Y-98526785D02*
X133504819Y-99098213D01*
X133504819Y-98812499D02*
X132504819Y-98812499D01*
X132504819Y-98812499D02*
X132647676Y-98907737D01*
X132647676Y-98907737D02*
X132742914Y-99002975D01*
X132742914Y-99002975D02*
X132790533Y-99098213D01*
X125061905Y-135214819D02*
X125061905Y-134214819D01*
X125061905Y-134214819D02*
X125300000Y-134214819D01*
X125300000Y-134214819D02*
X125442857Y-134262438D01*
X125442857Y-134262438D02*
X125538095Y-134357676D01*
X125538095Y-134357676D02*
X125585714Y-134452914D01*
X125585714Y-134452914D02*
X125633333Y-134643390D01*
X125633333Y-134643390D02*
X125633333Y-134786247D01*
X125633333Y-134786247D02*
X125585714Y-134976723D01*
X125585714Y-134976723D02*
X125538095Y-135071961D01*
X125538095Y-135071961D02*
X125442857Y-135167200D01*
X125442857Y-135167200D02*
X125300000Y-135214819D01*
X125300000Y-135214819D02*
X125061905Y-135214819D01*
X126490476Y-134548152D02*
X126490476Y-135214819D01*
X126252381Y-134167200D02*
X126014286Y-134881485D01*
X126014286Y-134881485D02*
X126633333Y-134881485D01*
X97338095Y-57004819D02*
X97338095Y-56004819D01*
X97338095Y-56481009D02*
X97909523Y-56481009D01*
X97909523Y-57004819D02*
X97909523Y-56004819D01*
X98861904Y-56004819D02*
X98385714Y-56004819D01*
X98385714Y-56004819D02*
X98338095Y-56481009D01*
X98338095Y-56481009D02*
X98385714Y-56433390D01*
X98385714Y-56433390D02*
X98480952Y-56385771D01*
X98480952Y-56385771D02*
X98719047Y-56385771D01*
X98719047Y-56385771D02*
X98814285Y-56433390D01*
X98814285Y-56433390D02*
X98861904Y-56481009D01*
X98861904Y-56481009D02*
X98909523Y-56576247D01*
X98909523Y-56576247D02*
X98909523Y-56814342D01*
X98909523Y-56814342D02*
X98861904Y-56909580D01*
X98861904Y-56909580D02*
X98814285Y-56957200D01*
X98814285Y-56957200D02*
X98719047Y-57004819D01*
X98719047Y-57004819D02*
X98480952Y-57004819D01*
X98480952Y-57004819D02*
X98385714Y-56957200D01*
X98385714Y-56957200D02*
X98338095Y-56909580D01*
X143219819Y-90433333D02*
X143934104Y-90433333D01*
X143934104Y-90433333D02*
X144076961Y-90480952D01*
X144076961Y-90480952D02*
X144172200Y-90576190D01*
X144172200Y-90576190D02*
X144219819Y-90719047D01*
X144219819Y-90719047D02*
X144219819Y-90814285D01*
X143219819Y-89528571D02*
X143219819Y-89719047D01*
X143219819Y-89719047D02*
X143267438Y-89814285D01*
X143267438Y-89814285D02*
X143315057Y-89861904D01*
X143315057Y-89861904D02*
X143457914Y-89957142D01*
X143457914Y-89957142D02*
X143648390Y-90004761D01*
X143648390Y-90004761D02*
X144029342Y-90004761D01*
X144029342Y-90004761D02*
X144124580Y-89957142D01*
X144124580Y-89957142D02*
X144172200Y-89909523D01*
X144172200Y-89909523D02*
X144219819Y-89814285D01*
X144219819Y-89814285D02*
X144219819Y-89623809D01*
X144219819Y-89623809D02*
X144172200Y-89528571D01*
X144172200Y-89528571D02*
X144124580Y-89480952D01*
X144124580Y-89480952D02*
X144029342Y-89433333D01*
X144029342Y-89433333D02*
X143791247Y-89433333D01*
X143791247Y-89433333D02*
X143696009Y-89480952D01*
X143696009Y-89480952D02*
X143648390Y-89528571D01*
X143648390Y-89528571D02*
X143600771Y-89623809D01*
X143600771Y-89623809D02*
X143600771Y-89814285D01*
X143600771Y-89814285D02*
X143648390Y-89909523D01*
X143648390Y-89909523D02*
X143696009Y-89957142D01*
X143696009Y-89957142D02*
X143791247Y-90004761D01*
X122633333Y-134509819D02*
X122300000Y-134033628D01*
X122061905Y-134509819D02*
X122061905Y-133509819D01*
X122061905Y-133509819D02*
X122442857Y-133509819D01*
X122442857Y-133509819D02*
X122538095Y-133557438D01*
X122538095Y-133557438D02*
X122585714Y-133605057D01*
X122585714Y-133605057D02*
X122633333Y-133700295D01*
X122633333Y-133700295D02*
X122633333Y-133843152D01*
X122633333Y-133843152D02*
X122585714Y-133938390D01*
X122585714Y-133938390D02*
X122538095Y-133986009D01*
X122538095Y-133986009D02*
X122442857Y-134033628D01*
X122442857Y-134033628D02*
X122061905Y-134033628D01*
X123490476Y-133509819D02*
X123300000Y-133509819D01*
X123300000Y-133509819D02*
X123204762Y-133557438D01*
X123204762Y-133557438D02*
X123157143Y-133605057D01*
X123157143Y-133605057D02*
X123061905Y-133747914D01*
X123061905Y-133747914D02*
X123014286Y-133938390D01*
X123014286Y-133938390D02*
X123014286Y-134319342D01*
X123014286Y-134319342D02*
X123061905Y-134414580D01*
X123061905Y-134414580D02*
X123109524Y-134462200D01*
X123109524Y-134462200D02*
X123204762Y-134509819D01*
X123204762Y-134509819D02*
X123395238Y-134509819D01*
X123395238Y-134509819D02*
X123490476Y-134462200D01*
X123490476Y-134462200D02*
X123538095Y-134414580D01*
X123538095Y-134414580D02*
X123585714Y-134319342D01*
X123585714Y-134319342D02*
X123585714Y-134081247D01*
X123585714Y-134081247D02*
X123538095Y-133986009D01*
X123538095Y-133986009D02*
X123490476Y-133938390D01*
X123490476Y-133938390D02*
X123395238Y-133890771D01*
X123395238Y-133890771D02*
X123204762Y-133890771D01*
X123204762Y-133890771D02*
X123109524Y-133938390D01*
X123109524Y-133938390D02*
X123061905Y-133986009D01*
X123061905Y-133986009D02*
X123014286Y-134081247D01*
X93536905Y-73319819D02*
X93536905Y-72319819D01*
X93536905Y-72319819D02*
X93775000Y-72319819D01*
X93775000Y-72319819D02*
X93917857Y-72367438D01*
X93917857Y-72367438D02*
X94013095Y-72462676D01*
X94013095Y-72462676D02*
X94060714Y-72557914D01*
X94060714Y-72557914D02*
X94108333Y-72748390D01*
X94108333Y-72748390D02*
X94108333Y-72891247D01*
X94108333Y-72891247D02*
X94060714Y-73081723D01*
X94060714Y-73081723D02*
X94013095Y-73176961D01*
X94013095Y-73176961D02*
X93917857Y-73272200D01*
X93917857Y-73272200D02*
X93775000Y-73319819D01*
X93775000Y-73319819D02*
X93536905Y-73319819D01*
X95060714Y-73319819D02*
X94489286Y-73319819D01*
X94775000Y-73319819D02*
X94775000Y-72319819D01*
X94775000Y-72319819D02*
X94679762Y-72462676D01*
X94679762Y-72462676D02*
X94584524Y-72557914D01*
X94584524Y-72557914D02*
X94489286Y-72605533D01*
X88557142Y-66831009D02*
X88223809Y-66831009D01*
X88223809Y-67354819D02*
X88223809Y-66354819D01*
X88223809Y-66354819D02*
X88699999Y-66354819D01*
X88842857Y-67450057D02*
X89604761Y-67450057D01*
X90319047Y-67354819D02*
X89842857Y-67354819D01*
X89842857Y-67354819D02*
X89842857Y-66354819D01*
X90652381Y-66831009D02*
X90985714Y-66831009D01*
X91128571Y-67354819D02*
X90652381Y-67354819D01*
X90652381Y-67354819D02*
X90652381Y-66354819D01*
X90652381Y-66354819D02*
X91128571Y-66354819D01*
X91557143Y-67354819D02*
X91557143Y-66354819D01*
X91557143Y-66354819D02*
X91795238Y-66354819D01*
X91795238Y-66354819D02*
X91938095Y-66402438D01*
X91938095Y-66402438D02*
X92033333Y-66497676D01*
X92033333Y-66497676D02*
X92080952Y-66592914D01*
X92080952Y-66592914D02*
X92128571Y-66783390D01*
X92128571Y-66783390D02*
X92128571Y-66926247D01*
X92128571Y-66926247D02*
X92080952Y-67116723D01*
X92080952Y-67116723D02*
X92033333Y-67211961D01*
X92033333Y-67211961D02*
X91938095Y-67307200D01*
X91938095Y-67307200D02*
X91795238Y-67354819D01*
X91795238Y-67354819D02*
X91557143Y-67354819D01*
X92319048Y-67450057D02*
X93080952Y-67450057D01*
X93795238Y-67354819D02*
X93319048Y-67354819D01*
X93319048Y-67354819D02*
X93319048Y-66354819D01*
X94128572Y-66831009D02*
X94461905Y-66831009D01*
X94604762Y-67354819D02*
X94128572Y-67354819D01*
X94128572Y-67354819D02*
X94128572Y-66354819D01*
X94128572Y-66354819D02*
X94604762Y-66354819D01*
X95366667Y-66831009D02*
X95033334Y-66831009D01*
X95033334Y-67354819D02*
X95033334Y-66354819D01*
X95033334Y-66354819D02*
X95509524Y-66354819D01*
X95747620Y-66354819D02*
X96319048Y-66354819D01*
X96033334Y-67354819D02*
X96033334Y-66354819D01*
X132638095Y-62004819D02*
X132638095Y-61004819D01*
X132638095Y-61481009D02*
X133209523Y-61481009D01*
X133209523Y-62004819D02*
X133209523Y-61004819D01*
X133828571Y-61433390D02*
X133733333Y-61385771D01*
X133733333Y-61385771D02*
X133685714Y-61338152D01*
X133685714Y-61338152D02*
X133638095Y-61242914D01*
X133638095Y-61242914D02*
X133638095Y-61195295D01*
X133638095Y-61195295D02*
X133685714Y-61100057D01*
X133685714Y-61100057D02*
X133733333Y-61052438D01*
X133733333Y-61052438D02*
X133828571Y-61004819D01*
X133828571Y-61004819D02*
X134019047Y-61004819D01*
X134019047Y-61004819D02*
X134114285Y-61052438D01*
X134114285Y-61052438D02*
X134161904Y-61100057D01*
X134161904Y-61100057D02*
X134209523Y-61195295D01*
X134209523Y-61195295D02*
X134209523Y-61242914D01*
X134209523Y-61242914D02*
X134161904Y-61338152D01*
X134161904Y-61338152D02*
X134114285Y-61385771D01*
X134114285Y-61385771D02*
X134019047Y-61433390D01*
X134019047Y-61433390D02*
X133828571Y-61433390D01*
X133828571Y-61433390D02*
X133733333Y-61481009D01*
X133733333Y-61481009D02*
X133685714Y-61528628D01*
X133685714Y-61528628D02*
X133638095Y-61623866D01*
X133638095Y-61623866D02*
X133638095Y-61814342D01*
X133638095Y-61814342D02*
X133685714Y-61909580D01*
X133685714Y-61909580D02*
X133733333Y-61957200D01*
X133733333Y-61957200D02*
X133828571Y-62004819D01*
X133828571Y-62004819D02*
X134019047Y-62004819D01*
X134019047Y-62004819D02*
X134114285Y-61957200D01*
X134114285Y-61957200D02*
X134161904Y-61909580D01*
X134161904Y-61909580D02*
X134209523Y-61814342D01*
X134209523Y-61814342D02*
X134209523Y-61623866D01*
X134209523Y-61623866D02*
X134161904Y-61528628D01*
X134161904Y-61528628D02*
X134114285Y-61481009D01*
X134114285Y-61481009D02*
X134019047Y-61433390D01*
X94933333Y-134409819D02*
X94600000Y-133933628D01*
X94361905Y-134409819D02*
X94361905Y-133409819D01*
X94361905Y-133409819D02*
X94742857Y-133409819D01*
X94742857Y-133409819D02*
X94838095Y-133457438D01*
X94838095Y-133457438D02*
X94885714Y-133505057D01*
X94885714Y-133505057D02*
X94933333Y-133600295D01*
X94933333Y-133600295D02*
X94933333Y-133743152D01*
X94933333Y-133743152D02*
X94885714Y-133838390D01*
X94885714Y-133838390D02*
X94838095Y-133886009D01*
X94838095Y-133886009D02*
X94742857Y-133933628D01*
X94742857Y-133933628D02*
X94361905Y-133933628D01*
X95838095Y-133409819D02*
X95361905Y-133409819D01*
X95361905Y-133409819D02*
X95314286Y-133886009D01*
X95314286Y-133886009D02*
X95361905Y-133838390D01*
X95361905Y-133838390D02*
X95457143Y-133790771D01*
X95457143Y-133790771D02*
X95695238Y-133790771D01*
X95695238Y-133790771D02*
X95790476Y-133838390D01*
X95790476Y-133838390D02*
X95838095Y-133886009D01*
X95838095Y-133886009D02*
X95885714Y-133981247D01*
X95885714Y-133981247D02*
X95885714Y-134219342D01*
X95885714Y-134219342D02*
X95838095Y-134314580D01*
X95838095Y-134314580D02*
X95790476Y-134362200D01*
X95790476Y-134362200D02*
X95695238Y-134409819D01*
X95695238Y-134409819D02*
X95457143Y-134409819D01*
X95457143Y-134409819D02*
X95361905Y-134362200D01*
X95361905Y-134362200D02*
X95314286Y-134314580D01*
X80328567Y-107291373D02*
X81138403Y-107291373D01*
X81138403Y-107291373D02*
X81233678Y-107243736D01*
X81233678Y-107243736D02*
X81281316Y-107196099D01*
X81281316Y-107196099D02*
X81328953Y-107100824D01*
X81328953Y-107100824D02*
X81328953Y-106910274D01*
X81328953Y-106910274D02*
X81281316Y-106814999D01*
X81281316Y-106814999D02*
X81233678Y-106767362D01*
X81233678Y-106767362D02*
X81138403Y-106719724D01*
X81138403Y-106719724D02*
X80328567Y-106719724D01*
X81328953Y-105719339D02*
X81328953Y-106290988D01*
X81328953Y-106005163D02*
X80328567Y-106005163D01*
X80328567Y-106005163D02*
X80471479Y-106100438D01*
X80471479Y-106100438D02*
X80566754Y-106195713D01*
X80566754Y-106195713D02*
X80614392Y-106290988D01*
%TO.C,REF\u002A\u002A*%
X131540000Y-153215000D02*
G75*
G02*
X126460000Y-153215000I-2540000J0D01*
G01*
X126460000Y-153215000D02*
G75*
G02*
X131540000Y-153215000I2540000J0D01*
G01*
X131540000Y-115115000D02*
G75*
G02*
X126460000Y-115115000I-2540000J0D01*
G01*
X126460000Y-115115000D02*
G75*
G02*
X131540000Y-115115000I2540000J0D01*
G01*
X93440000Y-153215000D02*
G75*
G02*
X88360000Y-153215000I-2540000J0D01*
G01*
X88360000Y-153215000D02*
G75*
G02*
X93440000Y-153215000I2540000J0D01*
G01*
X93440000Y-115115000D02*
G75*
G02*
X88360000Y-115115000I-2540000J0D01*
G01*
X88360000Y-115115000D02*
G75*
G02*
X93440000Y-115115000I2540000J0D01*
G01*
X131540000Y-155755000D02*
X131540000Y-112575000D01*
X131540000Y-112575000D02*
X88360000Y-112575000D01*
X121380000Y-155755000D02*
X121380000Y-140515000D01*
X121380000Y-145595000D02*
X98520000Y-145595000D01*
X117570000Y-145595000D02*
X117570000Y-153215000D01*
X112490000Y-153215000D02*
X112490000Y-145595000D01*
X107410000Y-153215000D02*
X107410000Y-145595000D01*
X102330000Y-145595000D02*
X102330000Y-153215000D01*
X98520000Y-155755000D02*
X98520000Y-140515000D01*
X88360000Y-155755000D02*
X131540000Y-155755000D01*
X88360000Y-112575000D02*
X88360000Y-155755000D01*
D11*
%TO.C,J5*%
X102640000Y-73590000D02*
X102640000Y-79560000D01*
X102640000Y-79560000D02*
X112760000Y-79560000D01*
X102650000Y-77300000D02*
X103400000Y-77300000D01*
X102650000Y-78800000D02*
X102650000Y-79550000D01*
X102650000Y-79550000D02*
X104450000Y-79550000D01*
X103400000Y-74350000D02*
X107700000Y-74350000D01*
X103400000Y-77300000D02*
X103400000Y-74350000D01*
X104450000Y-78800000D02*
X102650000Y-78800000D01*
X104450000Y-79550000D02*
X104450000Y-78800000D01*
X105950000Y-78800000D02*
X105950000Y-79550000D01*
X105950000Y-79550000D02*
X109450000Y-79550000D01*
X109450000Y-78800000D02*
X105950000Y-78800000D01*
X109450000Y-79550000D02*
X109450000Y-78800000D01*
X110950000Y-78800000D02*
X110950000Y-79550000D01*
X110950000Y-79550000D02*
X112750000Y-79550000D01*
X111800000Y-79850000D02*
X113050000Y-79850000D01*
X112000000Y-74350000D02*
X107700000Y-74350000D01*
X112000000Y-77300000D02*
X112000000Y-74350000D01*
X112750000Y-77300000D02*
X112000000Y-77300000D01*
X112750000Y-78800000D02*
X110950000Y-78800000D01*
X112750000Y-79550000D02*
X112750000Y-78800000D01*
X112760000Y-73590000D02*
X102640000Y-73590000D01*
X112760000Y-79560000D02*
X112760000Y-73590000D01*
X113050000Y-79850000D02*
X113050000Y-78600000D01*
%TO.C,R4*%
X129372936Y-76465000D02*
X129827064Y-76465000D01*
X129372936Y-77935000D02*
X129827064Y-77935000D01*
%TO.C,J3*%
X118320000Y-68480000D02*
X119700000Y-68480000D01*
X118320000Y-69860000D02*
X118320000Y-68480000D01*
X118320000Y-71130000D02*
X118320000Y-78860000D01*
X118320000Y-71130000D02*
X121080000Y-71130000D01*
X118320000Y-78860000D02*
X121080000Y-78860000D01*
X121080000Y-71130000D02*
X121080000Y-78860000D01*
%TO.C,D2*%
X127552500Y-72370000D02*
X127952500Y-72370000D01*
X127552500Y-73490000D02*
X127552500Y-72370000D01*
X127952500Y-72370000D02*
X127952500Y-73490000D01*
X127952500Y-73490000D02*
X127552500Y-73490000D01*
X127952500Y-73490000D02*
X127952500Y-69630000D01*
X128242500Y-73490000D02*
X128242500Y-73620000D01*
X128242500Y-73620000D02*
X128242500Y-73490000D01*
X130782500Y-73490000D02*
X130782500Y-73620000D01*
X130782500Y-73620000D02*
X130782500Y-73490000D01*
X131072500Y-73490000D02*
X127952500Y-73490000D01*
X131072500Y-73490000D02*
X131072500Y-69630000D01*
X127952500Y-69630000D02*
G75*
G02*
X131072500Y-69630000I1560000J0D01*
G01*
%TO.C,R2*%
X133965000Y-94627064D02*
X133965000Y-94172936D01*
X135435000Y-94627064D02*
X135435000Y-94172936D01*
%TO.C,R3*%
X90460436Y-76465000D02*
X90914564Y-76465000D01*
X90460436Y-77935000D02*
X90914564Y-77935000D01*
%TO.C,D3*%
X90540000Y-137830000D02*
X90540000Y-141690000D01*
X90540000Y-137830000D02*
X93660000Y-137830000D01*
X90830000Y-137700000D02*
X90830000Y-137830000D01*
X90830000Y-137830000D02*
X90830000Y-137700000D01*
X93370000Y-137700000D02*
X93370000Y-137830000D01*
X93370000Y-137830000D02*
X93370000Y-137700000D01*
X93660000Y-137830000D02*
X93660000Y-141690000D01*
X93660000Y-137830000D02*
X94060000Y-137830000D01*
X93660000Y-138950000D02*
X93660000Y-137830000D01*
X94060000Y-137830000D02*
X94060000Y-138950000D01*
X94060000Y-138950000D02*
X93660000Y-138950000D01*
X93660000Y-141690000D02*
G75*
G02*
X90540000Y-141690000I-1560000J0D01*
G01*
%TO.C,J4*%
X73890000Y-87540000D02*
X73890000Y-105160000D01*
X73890000Y-105160000D02*
X79860000Y-105160000D01*
X74650000Y-88300000D02*
X74650000Y-96350000D01*
X74650000Y-104400000D02*
X74650000Y-96350000D01*
X77600000Y-87550000D02*
X77600000Y-88300000D01*
X77600000Y-88300000D02*
X74650000Y-88300000D01*
X77600000Y-104400000D02*
X74650000Y-104400000D01*
X77600000Y-105150000D02*
X77600000Y-104400000D01*
X79100000Y-87550000D02*
X79100000Y-89350000D01*
X79100000Y-89350000D02*
X79850000Y-89350000D01*
X79100000Y-90850000D02*
X79100000Y-101850000D01*
X79100000Y-101850000D02*
X79850000Y-101850000D01*
X79100000Y-103350000D02*
X79100000Y-105150000D01*
X79100000Y-105150000D02*
X79850000Y-105150000D01*
X79850000Y-87550000D02*
X79100000Y-87550000D01*
X79850000Y-89350000D02*
X79850000Y-87550000D01*
X79850000Y-90850000D02*
X79100000Y-90850000D01*
X79850000Y-101850000D02*
X79850000Y-90850000D01*
X79850000Y-103350000D02*
X79100000Y-103350000D01*
X79850000Y-105150000D02*
X79850000Y-103350000D01*
X79860000Y-87540000D02*
X73890000Y-87540000D01*
X79860000Y-105160000D02*
X79860000Y-87540000D01*
X80150000Y-87250000D02*
X78900000Y-87250000D01*
X80150000Y-88500000D02*
X80150000Y-87250000D01*
%TO.C,J2*%
X109100000Y-139700000D02*
X109100000Y-141000000D01*
X109400000Y-140000000D02*
X111400000Y-140000000D01*
X109400000Y-154500000D02*
X109400000Y-140000000D01*
X110800000Y-139700000D02*
X109100000Y-139700000D01*
X116600000Y-140000000D02*
X118600000Y-140000000D01*
X118600000Y-140000000D02*
X118600000Y-141300000D01*
X118600000Y-145900000D02*
X118600000Y-154500000D01*
X118600000Y-154500000D02*
X109400000Y-154500000D01*
%TO.C,R1*%
X133965000Y-99539564D02*
X133965000Y-99085436D01*
X135435000Y-99539564D02*
X135435000Y-99085436D01*
%TO.C,D4*%
X124240000Y-137930000D02*
X124240000Y-141790000D01*
X124240000Y-137930000D02*
X127360000Y-137930000D01*
X124530000Y-137800000D02*
X124530000Y-137930000D01*
X124530000Y-137930000D02*
X124530000Y-137800000D01*
X127070000Y-137800000D02*
X127070000Y-137930000D01*
X127070000Y-137930000D02*
X127070000Y-137800000D01*
X127360000Y-137930000D02*
X127360000Y-141790000D01*
X127360000Y-137930000D02*
X127760000Y-137930000D01*
X127360000Y-139050000D02*
X127360000Y-137930000D01*
X127760000Y-137930000D02*
X127760000Y-139050000D01*
X127760000Y-139050000D02*
X127360000Y-139050000D01*
X127360000Y-141790000D02*
G75*
G02*
X124240000Y-141790000I-1560000J0D01*
G01*
%TO.C,J6*%
X140115000Y-91340000D02*
X140115000Y-101460000D01*
X140115000Y-101460000D02*
X146085000Y-101460000D01*
X140875000Y-92100000D02*
X140875000Y-96400000D01*
X140875000Y-100700000D02*
X140875000Y-96400000D01*
X143825000Y-91350000D02*
X143825000Y-92100000D01*
X143825000Y-92100000D02*
X140875000Y-92100000D01*
X143825000Y-100700000D02*
X140875000Y-100700000D01*
X143825000Y-101450000D02*
X143825000Y-100700000D01*
X145325000Y-91350000D02*
X145325000Y-93150000D01*
X145325000Y-93150000D02*
X146075000Y-93150000D01*
X145325000Y-94650000D02*
X145325000Y-98150000D01*
X145325000Y-98150000D02*
X146075000Y-98150000D01*
X145325000Y-99650000D02*
X145325000Y-101450000D01*
X145325000Y-101450000D02*
X146075000Y-101450000D01*
X146075000Y-91350000D02*
X145325000Y-91350000D01*
X146075000Y-93150000D02*
X146075000Y-91350000D01*
X146075000Y-94650000D02*
X145325000Y-94650000D01*
X146075000Y-98150000D02*
X146075000Y-94650000D01*
X146075000Y-99650000D02*
X145325000Y-99650000D01*
X146075000Y-101450000D02*
X146075000Y-99650000D01*
X146085000Y-91340000D02*
X140115000Y-91340000D01*
X146085000Y-101460000D02*
X146085000Y-91340000D01*
X146375000Y-91050000D02*
X145125000Y-91050000D01*
X146375000Y-92300000D02*
X146375000Y-91050000D01*
%TO.C,R6*%
X126027064Y-133665000D02*
X125572936Y-133665000D01*
X126027064Y-135135000D02*
X125572936Y-135135000D01*
%TO.C,D1*%
X88815000Y-72370000D02*
X89215000Y-72370000D01*
X88815000Y-73490000D02*
X88815000Y-72370000D01*
X89215000Y-72370000D02*
X89215000Y-73490000D01*
X89215000Y-73490000D02*
X88815000Y-73490000D01*
X89215000Y-73490000D02*
X89215000Y-69630000D01*
X89505000Y-73490000D02*
X89505000Y-73620000D01*
X89505000Y-73620000D02*
X89505000Y-73490000D01*
X92045000Y-73490000D02*
X92045000Y-73620000D01*
X92045000Y-73620000D02*
X92045000Y-73490000D01*
X92335000Y-73490000D02*
X89215000Y-73490000D01*
X92335000Y-73490000D02*
X92335000Y-69630000D01*
X89215000Y-69630000D02*
G75*
G02*
X92335000Y-69630000I1560000J0D01*
G01*
%TO.C,R5*%
X92327064Y-133220000D02*
X91872936Y-133220000D01*
X92327064Y-134690000D02*
X91872936Y-134690000D01*
D12*
%TO.C,U1*%
X82170000Y-81750000D02*
X136570000Y-81750000D01*
X82170000Y-109650000D02*
X82170000Y-81750000D01*
X136570000Y-81750000D02*
X136570000Y-109650000D01*
X136570000Y-109650000D02*
X82170000Y-109650000D01*
%TD*%
M02*
