M48
; DRILL file {KiCad 9.0.6} date 2026-01-26T22:39:58+0700
; FORMAT={-:-/ absolute / metric / decimal}
; #@! TF.CreationDate,2026-01-26T22:39:58+07:00
; #@! TF.GenerationSoftware,Kicad,Pcbnew,9.0.6
; #@! TF.FileFunction,Plated,1,2,PTH
FMAT,2
METRIC
; #@! TA.AperFunction,Plated,PTH,ViaDrill
T1C0.600
; #@! TA.AperFunction,Plated,PTH,ComponentDrill
T2C0.900
; #@! TA.AperFunction,Plated,PTH,ComponentDrill
T3C0.950
; #@! TA.AperFunction,Plated,PTH,ComponentDrill
T4C1.000
; #@! TA.AperFunction,Plated,PTH,ComponentDrill
T5C1.040
; #@! TA.AperFunction,Plated,PTH,ComponentDrill
T6C3.000
; #@! TA.AperFunction,Plated,PTH,ComponentDrill
T7C4.300
%
G90
G05
T1
X84.9Y-89.1
X92.2Y-79.2
X114.8Y-105.0
T2
X89.505Y-74.7
X90.83Y-136.62
X92.045Y-74.7
X93.37Y-136.62
X124.53Y-136.72
X127.07Y-136.72
X128.243Y-74.7
X130.782Y-74.7
T3
X77.4Y-90.1
X77.4Y-92.6
X77.4Y-95.1
X77.4Y-97.6
X77.4Y-100.1
X77.4Y-102.6
X105.2Y-77.1
X107.7Y-77.1
X110.2Y-77.1
X143.625Y-93.9
X143.625Y-96.4
X143.625Y-98.9
T4
X119.7Y-69.86
X119.7Y-72.4
X119.7Y-74.94
X119.7Y-77.48
T5
X89.56Y-83.0
X89.56Y-108.4
X92.1Y-83.0
X92.1Y-108.4
X94.64Y-83.0
X94.64Y-108.4
X97.18Y-83.0
X97.18Y-108.4
X99.72Y-83.0
X99.72Y-108.4
X102.26Y-83.0
X102.26Y-108.4
X104.8Y-83.0
X104.8Y-108.4
X107.34Y-83.0
X107.34Y-108.4
X109.88Y-83.0
X109.88Y-108.4
X112.42Y-83.0
X112.42Y-108.4
X114.96Y-83.0
X114.96Y-108.4
X117.5Y-83.0
X117.5Y-108.4
X120.04Y-83.0
X120.04Y-108.4
X122.58Y-83.0
X122.58Y-108.4
X125.12Y-83.0
X125.12Y-108.4
X127.66Y-83.0
X127.66Y-108.4
X130.2Y-83.0
X130.2Y-108.4
X132.74Y-83.0
X132.74Y-108.4
X135.28Y-83.0
X135.28Y-108.4
T6
X91.0Y-114.855
X91.0Y-152.955
X98.1Y-60.5
X125.3Y-60.5
X129.1Y-114.855
X129.1Y-152.955
T7
X95.2Y-125.4
X133.4Y-66.3
T4
G00X112.7Y-140.7
M15
G01X115.3Y-140.7
M16
G05
G00X112.9Y-147.0
M15
G01X115.1Y-147.0
M16
G05
G00X118.8Y-142.5
M15
G01X118.8Y-144.7
M16
G05
M30
