%TF.GenerationSoftware,KiCad,Pcbnew,9.0.6*%
%TF.CreationDate,2026-01-26T22:39:46+07:00*%
%TF.ProjectId,BluetoothCar,426c7565-746f-46f7-9468-4361722e6b69,rev?*%
%TF.SameCoordinates,Original*%
%TF.FileFunction,Copper,L1,Top*%
%TF.FilePolarity,Positive*%
%FSLAX46Y46*%
G04 Gerber Fmt 4.6, Leading zero omitted, Abs format (unit mm)*
G04 Created by KiCad (PCBNEW 9.0.6) date 2026-01-26 22:39:46*
%MOMM*%
%LPD*%
G01*
G04 APERTURE LIST*
G04 Aperture macros list*
%AMRoundRect*
0 Rectangle with rounded corners*
0 $1 Rounding radius*
0 $2 $3 $4 $5 $6 $7 $8 $9 X,Y pos of 4 corners*
0 Add a 4 corners polygon primitive as box body*
4,1,4,$2,$3,$4,$5,$6,$7,$8,$9,$2,$3,0*
0 Add four circle primitives for the rounded corners*
1,1,$1+$1,$2,$3*
1,1,$1+$1,$4,$5*
1,1,$1+$1,$6,$7*
1,1,$1+$1,$8,$9*
0 Add four rect primitives between the rounded corners*
20,1,$1+$1,$2,$3,$4,$5,0*
20,1,$1+$1,$4,$5,$6,$7,0*
20,1,$1+$1,$6,$7,$8,$9,0*
20,1,$1+$1,$8,$9,$2,$3,0*%
G04 Aperture macros list end*
%TA.AperFunction,ComponentPad*%
%ADD10RoundRect,0.250000X0.600000X0.725000X-0.600000X0.725000X-0.600000X-0.725000X0.600000X-0.725000X0*%
%TD*%
%TA.AperFunction,ComponentPad*%
%ADD11O,1.700000X1.950000*%
%TD*%
%TA.AperFunction,ComponentPad*%
%ADD12C,6.000000*%
%TD*%
%TA.AperFunction,SMDPad,CuDef*%
%ADD13RoundRect,0.250000X-0.262500X-0.450000X0.262500X-0.450000X0.262500X0.450000X-0.262500X0.450000X0*%
%TD*%
%TA.AperFunction,ComponentPad*%
%ADD14C,7.600000*%
%TD*%
%TA.AperFunction,ComponentPad*%
%ADD15R,1.700000X1.700000*%
%TD*%
%TA.AperFunction,ComponentPad*%
%ADD16C,1.700000*%
%TD*%
%TA.AperFunction,ComponentPad*%
%ADD17R,1.800000X1.800000*%
%TD*%
%TA.AperFunction,ComponentPad*%
%ADD18C,1.800000*%
%TD*%
%TA.AperFunction,SMDPad,CuDef*%
%ADD19RoundRect,0.250000X0.450000X-0.262500X0.450000X0.262500X-0.450000X0.262500X-0.450000X-0.262500X0*%
%TD*%
%TA.AperFunction,ComponentPad*%
%ADD20RoundRect,0.250000X-0.725000X0.600000X-0.725000X-0.600000X0.725000X-0.600000X0.725000X0.600000X0*%
%TD*%
%TA.AperFunction,ComponentPad*%
%ADD21O,1.950000X1.700000*%
%TD*%
%TA.AperFunction,ComponentPad*%
%ADD22R,4.600000X2.000000*%
%TD*%
%TA.AperFunction,ComponentPad*%
%ADD23O,4.200000X2.000000*%
%TD*%
%TA.AperFunction,ComponentPad*%
%ADD24O,2.000000X4.200000*%
%TD*%
%TA.AperFunction,SMDPad,CuDef*%
%ADD25RoundRect,0.250000X0.262500X0.450000X-0.262500X0.450000X-0.262500X-0.450000X0.262500X-0.450000X0*%
%TD*%
%TA.AperFunction,ComponentPad*%
%ADD26O,1.700000X2.000000*%
%TD*%
%TA.AperFunction,ViaPad*%
%ADD27C,1.200000*%
%TD*%
%TA.AperFunction,Conductor*%
%ADD28C,0.500000*%
%TD*%
%TA.AperFunction,Conductor*%
%ADD29C,1.000000*%
%TD*%
G04 APERTURE END LIST*
D10*
%TO.P,J5,1,Pin_1*%
%TO.N,GND*%
X110200000Y-77100000D03*
D11*
%TO.P,J5,2,Pin_2*%
%TO.N,+5V*%
X107700000Y-77100000D03*
%TO.P,J5,3,Pin_3*%
%TO.N,SERVO_PWM*%
X105200000Y-77100000D03*
%TD*%
D12*
%TO.P,H4,1,1*%
%TO.N,unconnected-(H4-Pad1)*%
X129100000Y-152955000D03*
%TD*%
D13*
%TO.P,R4,1*%
%TO.N,Net-(D2-A)*%
X128687500Y-77200000D03*
%TO.P,R4,2*%
%TO.N,F_LED_RIGHT*%
X130512500Y-77200000D03*
%TD*%
D14*
%TO.P,H7,1,1*%
%TO.N,unconnected-(H7-Pad1)*%
X95200000Y-125400000D03*
%TD*%
D15*
%TO.P,J3,1,Pin_1*%
%TO.N,GND*%
X119700000Y-69860000D03*
D16*
%TO.P,J3,2,Pin_2*%
%TO.N,+5V*%
X119700000Y-72400000D03*
%TO.P,J3,3,Pin_3*%
%TO.N,SDA*%
X119700000Y-74940000D03*
%TO.P,J3,4,Pin_4*%
%TO.N,SCL*%
X119700000Y-77480000D03*
%TD*%
D17*
%TO.P,D2,1,K*%
%TO.N,GND*%
X130782500Y-74700000D03*
D18*
%TO.P,D2,2,A*%
%TO.N,Net-(D2-A)*%
X128242500Y-74700000D03*
%TD*%
D19*
%TO.P,R2,1*%
%TO.N,ADC_VOL*%
X134700000Y-95312500D03*
%TO.P,R2,2*%
%TO.N,GND*%
X134700000Y-93487500D03*
%TD*%
D12*
%TO.P,H3,1,1*%
%TO.N,unconnected-(H3-Pad1)*%
X91000000Y-152955000D03*
%TD*%
%TO.P,H6,1,1*%
%TO.N,unconnected-(H6-Pad1)*%
X125300000Y-60500000D03*
%TD*%
D13*
%TO.P,R3,1*%
%TO.N,Net-(D1-A)*%
X89775000Y-77200000D03*
%TO.P,R3,2*%
%TO.N,F_LED_LEFT*%
X91600000Y-77200000D03*
%TD*%
D17*
%TO.P,D3,1,K*%
%TO.N,GND*%
X90830000Y-136620000D03*
D18*
%TO.P,D3,2,A*%
%TO.N,Net-(D3-A)*%
X93370000Y-136620000D03*
%TD*%
D20*
%TO.P,J4,1,Pin_1*%
%TO.N,ENA*%
X77400000Y-90100000D03*
D21*
%TO.P,J4,2,Pin_2*%
%TO.N,INA1*%
X77400000Y-92600000D03*
%TO.P,J4,3,Pin_3*%
%TO.N,INA2*%
X77400000Y-95100000D03*
%TO.P,J4,4,Pin_4*%
%TO.N,INB1*%
X77400000Y-97600000D03*
%TO.P,J4,5,Pin_5*%
%TO.N,INB2*%
X77400000Y-100100000D03*
%TO.P,J4,6,Pin_6*%
%TO.N,ENB*%
X77400000Y-102600000D03*
%TD*%
D22*
%TO.P,J2,1*%
%TO.N,+12V*%
X114000000Y-140700000D03*
D23*
%TO.P,J2,2*%
%TO.N,GND*%
X114000000Y-147000000D03*
D24*
%TO.P,J2,3*%
%TO.N,N/C*%
X118800000Y-143600000D03*
%TD*%
D12*
%TO.P,H2,1,1*%
%TO.N,unconnected-(H2-Pad1)*%
X129100000Y-114855000D03*
%TD*%
%TO.P,H1,1,1*%
%TO.N,unconnected-(H1-Pad1)*%
X91000000Y-114855000D03*
%TD*%
D19*
%TO.P,R1,1*%
%TO.N,+12V*%
X134700000Y-100225000D03*
%TO.P,R1,2*%
%TO.N,ADC_VOL*%
X134700000Y-98400000D03*
%TD*%
D17*
%TO.P,D4,1,K*%
%TO.N,GND*%
X124530000Y-136720000D03*
D18*
%TO.P,D4,2,A*%
%TO.N,Net-(D4-A)*%
X127070000Y-136720000D03*
%TD*%
D12*
%TO.P,H5,1,1*%
%TO.N,unconnected-(H5-Pad1)*%
X98100000Y-60500000D03*
%TD*%
D20*
%TO.P,J6,1,Pin_1*%
%TO.N,+5V*%
X143625000Y-93900000D03*
D21*
%TO.P,J6,2,Pin_2*%
%TO.N,GND*%
X143625000Y-96400000D03*
%TO.P,J6,3,Pin_3*%
%TO.N,+12V*%
X143625000Y-98900000D03*
%TD*%
D25*
%TO.P,R6,1*%
%TO.N,Net-(D4-A)*%
X126712500Y-134400000D03*
%TO.P,R6,2*%
%TO.N,B_LED_RIGHT*%
X124887500Y-134400000D03*
%TD*%
D17*
%TO.P,D1,1,K*%
%TO.N,GND*%
X92045000Y-74700000D03*
D18*
%TO.P,D1,2,A*%
%TO.N,Net-(D1-A)*%
X89505000Y-74700000D03*
%TD*%
D14*
%TO.P,H8,1,1*%
%TO.N,unconnected-(H8-Pad1)*%
X133400000Y-66300000D03*
%TD*%
D25*
%TO.P,R5,1*%
%TO.N,Net-(D3-A)*%
X93012500Y-133955000D03*
%TO.P,R5,2*%
%TO.N,B_LED_LEFT*%
X91187500Y-133955000D03*
%TD*%
D15*
%TO.P,U1,1,3V3*%
%TO.N,unconnected-(U1-3V3-Pad1)*%
X89560000Y-108400000D03*
D26*
%TO.P,U1,2,CHIP_PU*%
%TO.N,unconnected-(U1-CHIP_PU-Pad2)*%
X92100000Y-108400000D03*
%TO.P,U1,3,SENSOR_VP/GPIO36/ADC1_CH0*%
%TO.N,unconnected-(U1-SENSOR_VP{slash}GPIO36{slash}ADC1_CH0-Pad3)*%
X94640000Y-108400000D03*
%TO.P,U1,4,SENSOR_VN/GPIO39/ADC1_CH3*%
%TO.N,unconnected-(U1-SENSOR_VN{slash}GPIO39{slash}ADC1_CH3-Pad4)*%
X97180000Y-108400000D03*
%TO.P,U1,5,VDET_1/GPIO34/ADC1_CH6*%
%TO.N,ADC_VOL*%
X99720000Y-108400000D03*
%TO.P,U1,6,VDET_2/GPIO35/ADC1_CH7*%
%TO.N,unconnected-(U1-VDET_2{slash}GPIO35{slash}ADC1_CH7-Pad6)*%
X102260000Y-108400000D03*
%TO.P,U1,7,32K_XP/GPIO32/ADC1_CH4*%
%TO.N,ENA*%
X104800000Y-108400000D03*
%TO.P,U1,8,32K_XN/GPIO33/ADC1_CH5*%
%TO.N,ENB*%
X107340000Y-108400000D03*
%TO.P,U1,9,DAC_1/ADC2_CH8/GPIO25*%
%TO.N,F_LED_RIGHT*%
X109880000Y-108400000D03*
%TO.P,U1,10,DAC_2/ADC2_CH9/GPIO26*%
%TO.N,B_LED_LEFT*%
X112420000Y-108400000D03*
%TO.P,U1,11,ADC2_CH7/GPIO27*%
%TO.N,B_LED_RIGHT*%
X114960000Y-108400000D03*
%TO.P,U1,12,MTMS/GPIO14/ADC2_CH6*%
%TO.N,unconnected-(U1-MTMS{slash}GPIO14{slash}ADC2_CH6-Pad12)*%
X117500000Y-108400000D03*
%TO.P,U1,13,MTDI/GPIO12/ADC2_CH5*%
%TO.N,unconnected-(U1-MTDI{slash}GPIO12{slash}ADC2_CH5-Pad13)*%
X120040000Y-108400000D03*
%TO.P,U1,14,GND*%
%TO.N,GND*%
X122580000Y-108400000D03*
%TO.P,U1,15,MTCK/GPIO13/ADC2_CH4*%
%TO.N,SERVO_PWM*%
X125120000Y-108400000D03*
%TO.P,U1,16,SD_DATA2/GPIO9*%
%TO.N,unconnected-(U1-SD_DATA2{slash}GPIO9-Pad16)*%
X127660000Y-108400000D03*
%TO.P,U1,17,SD_DATA3/GPIO10*%
%TO.N,unconnected-(U1-SD_DATA3{slash}GPIO10-Pad17)*%
X130200000Y-108400000D03*
%TO.P,U1,18,CMD*%
%TO.N,unconnected-(U1-CMD-Pad18)*%
X132740000Y-108400000D03*
%TO.P,U1,19,5V*%
%TO.N,+5V*%
X135280000Y-108400000D03*
%TO.P,U1,20,SD_CLK/GPIO6*%
%TO.N,unconnected-(U1-SD_CLK{slash}GPIO6-Pad20)*%
X89560000Y-83000000D03*
%TO.P,U1,21,SD_DATA0/GPIO7*%
%TO.N,unconnected-(U1-SD_DATA0{slash}GPIO7-Pad21)*%
X92100000Y-83000000D03*
%TO.P,U1,22,SD_DATA1/GPIO8*%
%TO.N,unconnected-(U1-SD_DATA1{slash}GPIO8-Pad22)*%
X94640000Y-83000000D03*
%TO.P,U1,23,MTDO/GPIO15/ADC2_CH3*%
%TO.N,unconnected-(U1-MTDO{slash}GPIO15{slash}ADC2_CH3-Pad23)*%
X97180000Y-83000000D03*
%TO.P,U1,24,ADC2_CH2/GPIO2*%
%TO.N,INA1*%
X99720000Y-83000000D03*
%TO.P,U1,25,GPIO0/BOOT/ADC2_CH1*%
%TO.N,unconnected-(U1-GPIO0{slash}BOOT{slash}ADC2_CH1-Pad25)*%
X102260000Y-83000000D03*
%TO.P,U1,26,ADC2_CH0/GPIO4*%
%TO.N,INA2*%
X104800000Y-83000000D03*
%TO.P,U1,27,GPIO16*%
%TO.N,unconnected-(U1-GPIO16-Pad27)*%
X107340000Y-83000000D03*
%TO.P,U1,28,GPIO17*%
%TO.N,unconnected-(U1-GPIO17-Pad28)*%
X109880000Y-83000000D03*
%TO.P,U1,29,GPIO5*%
%TO.N,unconnected-(U1-GPIO5-Pad29)*%
X112420000Y-83000000D03*
%TO.P,U1,30,GPIO18*%
%TO.N,INB1*%
X114960000Y-83000000D03*
%TO.P,U1,31,GPIO19*%
%TO.N,INB2*%
X117500000Y-83000000D03*
%TO.P,U1,32,GND*%
%TO.N,GND*%
X120040000Y-83000000D03*
%TO.P,U1,33,GPIO21*%
%TO.N,SDA*%
X122580000Y-83000000D03*
%TO.P,U1,34,U0RXD/GPIO3*%
%TO.N,unconnected-(U1-U0RXD{slash}GPIO3-Pad34)*%
X125120000Y-83000000D03*
%TO.P,U1,35,U0TXD/GPIO1*%
%TO.N,unconnected-(U1-U0TXD{slash}GPIO1-Pad35)*%
X127660000Y-83000000D03*
%TO.P,U1,36,GPIO22*%
%TO.N,SCL*%
X130200000Y-83000000D03*
%TO.P,U1,37,GPIO23*%
%TO.N,F_LED_LEFT*%
X132740000Y-83000000D03*
%TO.P,U1,38,GND*%
%TO.N,GND*%
X135280000Y-83000000D03*
%TD*%
D27*
%TO.N,SERVO_PWM*%
X84900000Y-89100000D03*
%TO.N,ADC_VOL*%
X114800000Y-105000000D03*
%TO.N,F_LED_LEFT*%
X92200000Y-79200000D03*
%TD*%
D28*
%TO.N,B_LED_LEFT*%
X91187500Y-133955000D02*
X91187500Y-133012500D01*
X91187500Y-133012500D02*
X93000000Y-131200000D01*
X93000000Y-131200000D02*
X108100000Y-131200000D01*
X108100000Y-131200000D02*
X112420000Y-126880000D01*
X112420000Y-126880000D02*
X112420000Y-108400000D01*
%TO.N,B_LED_RIGHT*%
X124887500Y-134400000D02*
X122500000Y-134400000D01*
X122500000Y-134400000D02*
X114900000Y-126800000D01*
X114900000Y-126800000D02*
X114900000Y-108460000D01*
X114900000Y-108460000D02*
X114960000Y-108400000D01*
%TO.N,Net-(D1-A)*%
X89505000Y-74700000D02*
X89505000Y-76930000D01*
X89505000Y-76930000D02*
X89775000Y-77200000D01*
%TO.N,Net-(D2-A)*%
X128242500Y-74700000D02*
X128242500Y-76755000D01*
X128242500Y-76755000D02*
X128687500Y-77200000D01*
%TO.N,Net-(D3-A)*%
X93370000Y-134312500D02*
X93012500Y-133955000D01*
X93370000Y-136620000D02*
X93370000Y-134312500D01*
%TO.N,Net-(D4-A)*%
X127070000Y-134757500D02*
X126712500Y-134400000D01*
X127070000Y-136720000D02*
X127070000Y-134757500D01*
%TO.N,SERVO_PWM*%
X101600000Y-80700000D02*
X87600000Y-80700000D01*
X87600000Y-80700000D02*
X84900000Y-83400000D01*
X84900000Y-83400000D02*
X84900000Y-89100000D01*
X105200000Y-77100000D02*
X101600000Y-80700000D01*
%TO.N,+12V*%
X142300000Y-100225000D02*
X143625000Y-98900000D01*
X134700000Y-100225000D02*
X142300000Y-100225000D01*
%TO.N,SDA*%
X117660000Y-74940000D02*
X116400000Y-76200000D01*
X116400000Y-76200000D02*
X116400000Y-79400000D01*
X119700000Y-74940000D02*
X117660000Y-74940000D01*
X117600000Y-80600000D02*
X121600000Y-80600000D01*
X121600000Y-80600000D02*
X122580000Y-81580000D01*
X116400000Y-79400000D02*
X117600000Y-80600000D01*
X122580000Y-81580000D02*
X122580000Y-83000000D01*
%TO.N,SCL*%
X120020000Y-77800000D02*
X126700000Y-77800000D01*
X119700000Y-77480000D02*
X120020000Y-77800000D01*
X126700000Y-77800000D02*
X130200000Y-81300000D01*
X130200000Y-81300000D02*
X130200000Y-83000000D01*
D29*
%TO.N,+5V*%
X107700000Y-75400000D02*
X109424000Y-73676000D01*
X146200000Y-95700000D02*
X146200000Y-104200000D01*
X142000000Y-108400000D02*
X135280000Y-108400000D01*
X107700000Y-77100000D02*
X107700000Y-75400000D01*
X143625000Y-93900000D02*
X144400000Y-93900000D01*
X118424000Y-73676000D02*
X119700000Y-72400000D01*
X146200000Y-104200000D02*
X142000000Y-108400000D01*
X109424000Y-73676000D02*
X118424000Y-73676000D01*
X144400000Y-93900000D02*
X146200000Y-95700000D01*
D28*
%TO.N,INB1*%
X114960000Y-90740000D02*
X114960000Y-83000000D01*
X77600000Y-97600000D02*
X108100000Y-97600000D01*
X108100000Y-97600000D02*
X114960000Y-90740000D01*
%TO.N,ADC_VOL*%
X134700000Y-98400000D02*
X134700000Y-95312500D01*
X121300000Y-98400000D02*
X134700000Y-98400000D01*
X114800000Y-104900000D02*
X121300000Y-98400000D01*
X114800000Y-105000000D02*
X114800000Y-104900000D01*
%TO.N,INA2*%
X98100000Y-95100000D02*
X104800000Y-88400000D01*
X77600000Y-95100000D02*
X98100000Y-95100000D01*
X104800000Y-88400000D02*
X104800000Y-83000000D01*
%TO.N,ENA*%
X75500000Y-104500000D02*
X73500000Y-102500000D01*
X104800000Y-108400000D02*
X104800000Y-106800000D01*
X73500000Y-91500000D02*
X74900000Y-90100000D01*
X73500000Y-102500000D02*
X73500000Y-91500000D01*
X74900000Y-90100000D02*
X77400000Y-90100000D01*
X104800000Y-106800000D02*
X102500000Y-104500000D01*
X102500000Y-104500000D02*
X75500000Y-104500000D01*
%TO.N,INB2*%
X109300000Y-100100000D02*
X117500000Y-91900000D01*
X77600000Y-100100000D02*
X109300000Y-100100000D01*
X117500000Y-91900000D02*
X117500000Y-83000000D01*
%TO.N,ENB*%
X77600000Y-102600000D02*
X103600000Y-102600000D01*
X107340000Y-106340000D02*
X107340000Y-108400000D01*
X103600000Y-102600000D02*
X107340000Y-106340000D01*
%TO.N,INA1*%
X95700000Y-92600000D02*
X99720000Y-88580000D01*
X77400000Y-92600000D02*
X95700000Y-92600000D01*
X99720000Y-88580000D02*
X99720000Y-83000000D01*
%TO.N,F_LED_LEFT*%
X91600000Y-77200000D02*
X91600000Y-78600000D01*
X91600000Y-78600000D02*
X92200000Y-79200000D01*
%TO.N,F_LED_RIGHT*%
X109880000Y-106520000D02*
X109880000Y-108400000D01*
X138400000Y-87400000D02*
X136900000Y-88900000D01*
X134200000Y-77200000D02*
X138400000Y-81400000D01*
X127500000Y-88900000D02*
X109880000Y-106520000D01*
X138400000Y-81400000D02*
X138400000Y-87400000D01*
X130512500Y-77200000D02*
X134200000Y-77200000D01*
X136900000Y-88900000D02*
X127500000Y-88900000D01*
%TD*%
%TA.AperFunction,Conductor*%
%TO.N,GND*%
G36*
X135003736Y-53500726D02*
G01*
X135293796Y-53518271D01*
X135308659Y-53520076D01*
X135590798Y-53571780D01*
X135605335Y-53575363D01*
X135879172Y-53660695D01*
X135893163Y-53666000D01*
X136154743Y-53783727D01*
X136167989Y-53790680D01*
X136413465Y-53939075D01*
X136425776Y-53947573D01*
X136483359Y-53992686D01*
X136651573Y-54124473D01*
X136662781Y-54134403D01*
X136865596Y-54337218D01*
X136875526Y-54348426D01*
X136995481Y-54501538D01*
X137052422Y-54574217D01*
X137060928Y-54586540D01*
X137209316Y-54832004D01*
X137216275Y-54845263D01*
X137333997Y-55106831D01*
X137339306Y-55120832D01*
X137424635Y-55394663D01*
X137428219Y-55409201D01*
X137479923Y-55691340D01*
X137481728Y-55706205D01*
X137499274Y-55996263D01*
X137499500Y-56003750D01*
X137499500Y-65024756D01*
X137479815Y-65091795D01*
X137427011Y-65137550D01*
X137357853Y-65147494D01*
X137294297Y-65118469D01*
X137256839Y-65060751D01*
X137245920Y-65024756D01*
X137218324Y-64933782D01*
X137066025Y-64566099D01*
X136878420Y-64215115D01*
X136657316Y-63884210D01*
X136404842Y-63576570D01*
X136404841Y-63576569D01*
X136404837Y-63576564D01*
X136123435Y-63295162D01*
X135815795Y-63042688D01*
X135815794Y-63042687D01*
X135815790Y-63042684D01*
X135484885Y-62821580D01*
X135484880Y-62821577D01*
X135484873Y-62821573D01*
X135133908Y-62633978D01*
X135133903Y-62633976D01*
X134766219Y-62481676D01*
X134542643Y-62413855D01*
X134385378Y-62366150D01*
X134385375Y-62366149D01*
X134385374Y-62366149D01*
X133995046Y-62288507D01*
X133716009Y-62261025D01*
X133598988Y-62249500D01*
X133201012Y-62249500D01*
X133094483Y-62259992D01*
X132804953Y-62288507D01*
X132414625Y-62366149D01*
X132033780Y-62481676D01*
X131666096Y-62633976D01*
X131666091Y-62633978D01*
X131315126Y-62821573D01*
X131315108Y-62821584D01*
X130984218Y-63042678D01*
X130984204Y-63042688D01*
X130676564Y-63295162D01*
X130395162Y-63576564D01*
X130142688Y-63884204D01*
X130142678Y-63884218D01*
X129921584Y-64215108D01*
X129921573Y-64215126D01*
X129733978Y-64566091D01*
X129733976Y-64566096D01*
X129581676Y-64933780D01*
X129466149Y-65314625D01*
X129388507Y-65704953D01*
X129349500Y-66101015D01*
X129349500Y-66498984D01*
X129388507Y-66895046D01*
X129466149Y-67285374D01*
X129581676Y-67666219D01*
X129733976Y-68033903D01*
X129733978Y-68033908D01*
X129921573Y-68384873D01*
X129921584Y-68384891D01*
X130142678Y-68715781D01*
X130142688Y-68715795D01*
X130395162Y-69023435D01*
X130676564Y-69304837D01*
X130676569Y-69304841D01*
X130676570Y-69304842D01*
X130984210Y-69557316D01*
X131315115Y-69778420D01*
X131315124Y-69778425D01*
X131315126Y-69778426D01*
X131666091Y-69966021D01*
X131666093Y-69966021D01*
X131666099Y-69966025D01*
X132033782Y-70118324D01*
X132414622Y-70233850D01*
X132804951Y-70311492D01*
X133201012Y-70350500D01*
X133201015Y-70350500D01*
X133598985Y-70350500D01*
X133598988Y-70350500D01*
X133995049Y-70311492D01*
X134385378Y-70233850D01*
X134766218Y-70118324D01*
X135133901Y-69966025D01*
X135484885Y-69778420D01*
X135815790Y-69557316D01*
X136123430Y-69304842D01*
X136404842Y-69023430D01*
X136657316Y-68715790D01*
X136878420Y-68384885D01*
X137066025Y-68033901D01*
X137218324Y-67666218D01*
X137256840Y-67539245D01*
X137295136Y-67480809D01*
X137358949Y-67452353D01*
X137428016Y-67462913D01*
X137480409Y-67509137D01*
X137499500Y-67575243D01*
X137499500Y-76434108D01*
X137499500Y-76500000D01*
X137499500Y-76671969D01*
X137508473Y-76763072D01*
X137533210Y-77014249D01*
X137600308Y-77351572D01*
X137700150Y-77680706D01*
X137831770Y-77998464D01*
X137831772Y-77998469D01*
X137993893Y-78301775D01*
X137993904Y-78301793D01*
X138184975Y-78587751D01*
X138184985Y-78587765D01*
X138403176Y-78853632D01*
X138646367Y-79096823D01*
X138646372Y-79096827D01*
X138646373Y-79096828D01*
X138912240Y-79315019D01*
X139198213Y-79506100D01*
X139198222Y-79506105D01*
X139198224Y-79506106D01*
X139501530Y-79668227D01*
X139501532Y-79668227D01*
X139501538Y-79668231D01*
X139819295Y-79799850D01*
X140148422Y-79899690D01*
X140485750Y-79966789D01*
X140828031Y-80000500D01*
X140934108Y-80000500D01*
X144934108Y-80000500D01*
X144996249Y-80000500D01*
X145003736Y-80000726D01*
X145293796Y-80018271D01*
X145308659Y-80020076D01*
X145590798Y-80071780D01*
X145605335Y-80075363D01*
X145879172Y-80160695D01*
X145893163Y-80166000D01*
X146154743Y-80283727D01*
X146167989Y-80290680D01*
X146413465Y-80439075D01*
X146425776Y-80447573D01*
X146516016Y-80518271D01*
X146651573Y-80624473D01*
X146662781Y-80634403D01*
X146865596Y-80837218D01*
X146875526Y-80848426D01*
X147046291Y-81066392D01*
X147052422Y-81074217D01*
X147060926Y-81086537D01*
X147129819Y-81200500D01*
X147209316Y-81332004D01*
X147216275Y-81345263D01*
X147333997Y-81606831D01*
X147339306Y-81620832D01*
X147424635Y-81894663D01*
X147428219Y-81909201D01*
X147479923Y-82191340D01*
X147481728Y-82206205D01*
X147499274Y-82496263D01*
X147499500Y-82503750D01*
X147499500Y-109996249D01*
X147499274Y-110003736D01*
X147481728Y-110293794D01*
X147479923Y-110308659D01*
X147428219Y-110590798D01*
X147424635Y-110605336D01*
X147339306Y-110879167D01*
X147333997Y-110893168D01*
X147216275Y-111154736D01*
X147209316Y-111167995D01*
X147060928Y-111413459D01*
X147052422Y-111425782D01*
X146875526Y-111651573D01*
X146865596Y-111662781D01*
X146662781Y-111865596D01*
X146651573Y-111875526D01*
X146425782Y-112052422D01*
X146413459Y-112060928D01*
X146167995Y-112209316D01*
X146154736Y-112216275D01*
X145893168Y-112333997D01*
X145879167Y-112339306D01*
X145605336Y-112424635D01*
X145590798Y-112428219D01*
X145308659Y-112479923D01*
X145293794Y-112481728D01*
X145003736Y-112499274D01*
X144996249Y-112499500D01*
X140065892Y-112499500D01*
X140000000Y-112499500D01*
X139828031Y-112499500D01*
X139749966Y-112507188D01*
X139485750Y-112533210D01*
X139148427Y-112600308D01*
X138819293Y-112700150D01*
X138501535Y-112831770D01*
X138501530Y-112831772D01*
X138198224Y-112993893D01*
X138198206Y-112993904D01*
X137912248Y-113184975D01*
X137912234Y-113184985D01*
X137646367Y-113403176D01*
X137403176Y-113646367D01*
X137184985Y-113912234D01*
X137184975Y-113912248D01*
X136993904Y-114198206D01*
X136993893Y-114198224D01*
X136831772Y-114501530D01*
X136831770Y-114501535D01*
X136700150Y-114819293D01*
X136600308Y-115148427D01*
X136533210Y-115485750D01*
X136499500Y-115828034D01*
X136499500Y-154996249D01*
X136499274Y-155003736D01*
X136481728Y-155293794D01*
X136479923Y-155308659D01*
X136428219Y-155590798D01*
X136424635Y-155605336D01*
X136339306Y-155879167D01*
X136333997Y-155893168D01*
X136216275Y-156154736D01*
X136209316Y-156167995D01*
X136060928Y-156413459D01*
X136052422Y-156425782D01*
X135875526Y-156651573D01*
X135865596Y-156662781D01*
X135662781Y-156865596D01*
X135651573Y-156875526D01*
X135425782Y-157052422D01*
X135413459Y-157060928D01*
X135167995Y-157209316D01*
X135154736Y-157216275D01*
X134893168Y-157333997D01*
X134879167Y-157339306D01*
X134605336Y-157424635D01*
X134590798Y-157428219D01*
X134308659Y-157479923D01*
X134293794Y-157481728D01*
X134003736Y-157499274D01*
X133996249Y-157499500D01*
X88503751Y-157499500D01*
X88496264Y-157499274D01*
X88206205Y-157481728D01*
X88191340Y-157479923D01*
X87909201Y-157428219D01*
X87894663Y-157424635D01*
X87620832Y-157339306D01*
X87606831Y-157333997D01*
X87345263Y-157216275D01*
X87332004Y-157209316D01*
X87086540Y-157060928D01*
X87074217Y-157052422D01*
X86848426Y-156875526D01*
X86837218Y-156865596D01*
X86634403Y-156662781D01*
X86624473Y-156651573D01*
X86447573Y-156425776D01*
X86439075Y-156413465D01*
X86290680Y-156167989D01*
X86283727Y-156154743D01*
X86166000Y-155893163D01*
X86160693Y-155879167D01*
X86075364Y-155605336D01*
X86071780Y-155590798D01*
X86020076Y-155308659D01*
X86018271Y-155293794D01*
X86000726Y-155003736D01*
X86000500Y-154996249D01*
X86000500Y-152795316D01*
X87749500Y-152795316D01*
X87749500Y-153114683D01*
X87780803Y-153432522D01*
X87843109Y-153745754D01*
X87935820Y-154051382D01*
X88058040Y-154346446D01*
X88058042Y-154346451D01*
X88208584Y-154628094D01*
X88208601Y-154628122D01*
X88386012Y-154893638D01*
X88386029Y-154893661D01*
X88588638Y-155140540D01*
X88814459Y-155366361D01*
X88814464Y-155366365D01*
X88814465Y-155366366D01*
X89061344Y-155568975D01*
X89061351Y-155568980D01*
X89061361Y-155568987D01*
X89326877Y-155746398D01*
X89326882Y-155746401D01*
X89326894Y-155746409D01*
X89326903Y-155746413D01*
X89326905Y-155746415D01*
X89608548Y-155896957D01*
X89608550Y-155896957D01*
X89608556Y-155896961D01*
X89903619Y-156019180D01*
X90209240Y-156111889D01*
X90522477Y-156174196D01*
X90840313Y-156205500D01*
X90840316Y-156205500D01*
X91159684Y-156205500D01*
X91159687Y-156205500D01*
X91477523Y-156174196D01*
X91790760Y-156111889D01*
X92096381Y-156019180D01*
X92391444Y-155896961D01*
X92673106Y-155746409D01*
X92938656Y-155568975D01*
X93185535Y-155366366D01*
X93411366Y-155140535D01*
X93613975Y-154893656D01*
X93791409Y-154628106D01*
X93941961Y-154346444D01*
X94064180Y-154051381D01*
X94156889Y-153745760D01*
X94219196Y-153432523D01*
X94250500Y-153114687D01*
X94250500Y-152795316D01*
X125849500Y-152795316D01*
X125849500Y-153114683D01*
X125880803Y-153432522D01*
X125943109Y-153745754D01*
X126035820Y-154051382D01*
X126158040Y-154346446D01*
X126158042Y-154346451D01*
X126308584Y-154628094D01*
X126308601Y-154628122D01*
X126486012Y-154893638D01*
X126486029Y-154893661D01*
X126688638Y-155140540D01*
X126914459Y-155366361D01*
X126914464Y-155366365D01*
X126914465Y-155366366D01*
X127161344Y-155568975D01*
X127161351Y-155568980D01*
X127161361Y-155568987D01*
X127426877Y-155746398D01*
X127426882Y-155746401D01*
X127426894Y-155746409D01*
X127426903Y-155746413D01*
X127426905Y-155746415D01*
X127708548Y-155896957D01*
X127708550Y-155896957D01*
X127708556Y-155896961D01*
X128003619Y-156019180D01*
X128309240Y-156111889D01*
X128622477Y-156174196D01*
X128940313Y-156205500D01*
X128940316Y-156205500D01*
X129259684Y-156205500D01*
X129259687Y-156205500D01*
X129577523Y-156174196D01*
X129890760Y-156111889D01*
X130196381Y-156019180D01*
X130491444Y-155896961D01*
X130773106Y-155746409D01*
X131038656Y-155568975D01*
X131285535Y-155366366D01*
X131511366Y-155140535D01*
X131713975Y-154893656D01*
X131891409Y-154628106D01*
X132041961Y-154346444D01*
X132164180Y-154051381D01*
X132256889Y-153745760D01*
X132319196Y-153432523D01*
X132350500Y-153114687D01*
X132350500Y-152795313D01*
X132319196Y-152477477D01*
X132256889Y-152164240D01*
X132164180Y-151858619D01*
X132041961Y-151563556D01*
X131891409Y-151281894D01*
X131891398Y-151281877D01*
X131713987Y-151016361D01*
X131713980Y-151016351D01*
X131713975Y-151016344D01*
X131511366Y-150769465D01*
X131511365Y-150769464D01*
X131511361Y-150769459D01*
X131285540Y-150543638D01*
X131038661Y-150341029D01*
X131038638Y-150341012D01*
X130773122Y-150163601D01*
X130773094Y-150163584D01*
X130491451Y-150013042D01*
X130491446Y-150013040D01*
X130196382Y-149890820D01*
X129890754Y-149798109D01*
X129577521Y-149735803D01*
X129577522Y-149735803D01*
X129338141Y-149712227D01*
X129259687Y-149704500D01*
X128940313Y-149704500D01*
X128867822Y-149711639D01*
X128622477Y-149735803D01*
X128309245Y-149798109D01*
X128003617Y-149890820D01*
X127708553Y-150013040D01*
X127708548Y-150013042D01*
X127426905Y-150163584D01*
X127426877Y-150163601D01*
X127161361Y-150341012D01*
X127161338Y-150341029D01*
X126914459Y-150543638D01*
X126688638Y-150769459D01*
X126486029Y-151016338D01*
X126486012Y-151016361D01*
X126308601Y-151281877D01*
X126308584Y-151281905D01*
X126158042Y-151563548D01*
X126158040Y-151563553D01*
X126035820Y-151858617D01*
X125943109Y-152164245D01*
X125880803Y-152477477D01*
X125849500Y-152795316D01*
X94250500Y-152795316D01*
X94250500Y-152795313D01*
X94219196Y-152477477D01*
X94156889Y-152164240D01*
X94064180Y-151858619D01*
X93941961Y-151563556D01*
X93791409Y-151281894D01*
X93791398Y-151281877D01*
X93613987Y-151016361D01*
X93613980Y-151016351D01*
X93613975Y-151016344D01*
X93411366Y-150769465D01*
X93411365Y-150769464D01*
X93411361Y-150769459D01*
X93185540Y-150543638D01*
X92938661Y-150341029D01*
X92938638Y-150341012D01*
X92673122Y-150163601D01*
X92673094Y-150163584D01*
X92391451Y-150013042D01*
X92391446Y-150013040D01*
X92096382Y-149890820D01*
X91790754Y-149798109D01*
X91477521Y-149735803D01*
X91477522Y-149735803D01*
X91238141Y-149712227D01*
X91159687Y-149704500D01*
X90840313Y-149704500D01*
X90767822Y-149711639D01*
X90522477Y-149735803D01*
X90209245Y-149798109D01*
X89903617Y-149890820D01*
X89608553Y-150013040D01*
X89608548Y-150013042D01*
X89326905Y-150163584D01*
X89326877Y-150163601D01*
X89061361Y-150341012D01*
X89061338Y-150341029D01*
X88814459Y-150543638D01*
X88588638Y-150769459D01*
X88386029Y-151016338D01*
X88386012Y-151016361D01*
X88208601Y-151281877D01*
X88208584Y-151281905D01*
X88058042Y-151563548D01*
X88058040Y-151563553D01*
X87935820Y-151858617D01*
X87843109Y-152164245D01*
X87780803Y-152477477D01*
X87749500Y-152795316D01*
X86000500Y-152795316D01*
X86000500Y-146750000D01*
X111420898Y-146750000D01*
X112466988Y-146750000D01*
X112434075Y-146807007D01*
X112400000Y-146934174D01*
X112400000Y-147065826D01*
X112434075Y-147192993D01*
X112466988Y-147250000D01*
X111420898Y-147250000D01*
X111436934Y-147351247D01*
X111509897Y-147575802D01*
X111617085Y-147786171D01*
X111755866Y-147977186D01*
X111922813Y-148144133D01*
X112113828Y-148282914D01*
X112324197Y-148390102D01*
X112548752Y-148463065D01*
X112548751Y-148463065D01*
X112781948Y-148500000D01*
X113750000Y-148500000D01*
X113750000Y-147500000D01*
X114250000Y-147500000D01*
X114250000Y-148500000D01*
X115218052Y-148500000D01*
X115451247Y-148463065D01*
X115675802Y-148390102D01*
X115886171Y-148282914D01*
X116077186Y-148144133D01*
X116244133Y-147977186D01*
X116382914Y-147786171D01*
X116490102Y-147575802D01*
X116563065Y-147351247D01*
X116579102Y-147250000D01*
X115533012Y-147250000D01*
X115565925Y-147192993D01*
X115600000Y-147065826D01*
X115600000Y-146934174D01*
X115565925Y-146807007D01*
X115533012Y-146750000D01*
X116579102Y-146750000D01*
X116563065Y-146648752D01*
X116490102Y-146424197D01*
X116382914Y-146213828D01*
X116244133Y-146022813D01*
X116077186Y-145855866D01*
X115886171Y-145717085D01*
X115675802Y-145609897D01*
X115451247Y-145536934D01*
X115451248Y-145536934D01*
X115218052Y-145500000D01*
X114250000Y-145500000D01*
X114250000Y-146500000D01*
X113750000Y-146500000D01*
X113750000Y-145500000D01*
X112781948Y-145500000D01*
X112548752Y-145536934D01*
X112324197Y-145609897D01*
X112113828Y-145717085D01*
X111922813Y-145855866D01*
X111755866Y-146022813D01*
X111617085Y-146213828D01*
X111509897Y-146424197D01*
X111436934Y-146648752D01*
X111420898Y-146750000D01*
X86000500Y-146750000D01*
X86000500Y-142401577D01*
X117549500Y-142401577D01*
X117549500Y-144798422D01*
X117580290Y-144992826D01*
X117641117Y-145180029D01*
X117730476Y-145355405D01*
X117846172Y-145514646D01*
X117985354Y-145653828D01*
X118144595Y-145769524D01*
X118227455Y-145811743D01*
X118319970Y-145858882D01*
X118319972Y-145858882D01*
X118319975Y-145858884D01*
X118420317Y-145891487D01*
X118507173Y-145919709D01*
X118701578Y-145950500D01*
X118701583Y-145950500D01*
X118898422Y-145950500D01*
X119092826Y-145919709D01*
X119280025Y-145858884D01*
X119455405Y-145769524D01*
X119614646Y-145653828D01*
X119753828Y-145514646D01*
X119869524Y-145355405D01*
X119958884Y-145180025D01*
X120019709Y-144992826D01*
X120050500Y-144798422D01*
X120050500Y-142401577D01*
X120019709Y-142207173D01*
X119958882Y-142019970D01*
X119869523Y-141844594D01*
X119753828Y-141685354D01*
X119614646Y-141546172D01*
X119455405Y-141430476D01*
X119280029Y-141341117D01*
X119092826Y-141280290D01*
X118898422Y-141249500D01*
X118898417Y-141249500D01*
X118701583Y-141249500D01*
X118701578Y-141249500D01*
X118507173Y-141280290D01*
X118319970Y-141341117D01*
X118144594Y-141430476D01*
X118053741Y-141496485D01*
X117985354Y-141546172D01*
X117985352Y-141546174D01*
X117985351Y-141546174D01*
X117846174Y-141685351D01*
X117846174Y-141685352D01*
X117846172Y-141685354D01*
X117796485Y-141753741D01*
X117730476Y-141844594D01*
X117641117Y-142019970D01*
X117580290Y-142207173D01*
X117549500Y-142401577D01*
X86000500Y-142401577D01*
X86000500Y-139675321D01*
X111449500Y-139675321D01*
X111449500Y-141724678D01*
X111464032Y-141797735D01*
X111464033Y-141797739D01*
X111464034Y-141797740D01*
X111519399Y-141880601D01*
X111602260Y-141935966D01*
X111602264Y-141935967D01*
X111675321Y-141950499D01*
X111675324Y-141950500D01*
X111675326Y-141950500D01*
X116324676Y-141950500D01*
X116324677Y-141950499D01*
X116397740Y-141935966D01*
X116480601Y-141880601D01*
X116535966Y-141797740D01*
X116550500Y-141724674D01*
X116550500Y-139675326D01*
X116550500Y-139675323D01*
X116550499Y-139675321D01*
X116535967Y-139602264D01*
X116535966Y-139602260D01*
X116480601Y-139519399D01*
X116397740Y-139464034D01*
X116397739Y-139464033D01*
X116397735Y-139464032D01*
X116324677Y-139449500D01*
X116324674Y-139449500D01*
X111675326Y-139449500D01*
X111675323Y-139449500D01*
X111602264Y-139464032D01*
X111602260Y-139464033D01*
X111519399Y-139519399D01*
X111464033Y-139602260D01*
X111464032Y-139602264D01*
X111449500Y-139675321D01*
X86000500Y-139675321D01*
X86000500Y-135672155D01*
X89430000Y-135672155D01*
X89430000Y-136370000D01*
X90454722Y-136370000D01*
X90410667Y-136446306D01*
X90380000Y-136560756D01*
X90380000Y-136679244D01*
X90410667Y-136793694D01*
X90454722Y-136870000D01*
X89430000Y-136870000D01*
X89430000Y-137567844D01*
X89436401Y-137627372D01*
X89436403Y-137627379D01*
X89486645Y-137762086D01*
X89486649Y-137762093D01*
X89572809Y-137877187D01*
X89572812Y-137877190D01*
X89687906Y-137963350D01*
X89687913Y-137963354D01*
X89822620Y-138013596D01*
X89822627Y-138013598D01*
X89882155Y-138019999D01*
X89882172Y-138020000D01*
X90580000Y-138020000D01*
X90580000Y-136995277D01*
X90656306Y-137039333D01*
X90770756Y-137070000D01*
X90889244Y-137070000D01*
X91003694Y-137039333D01*
X91080000Y-136995277D01*
X91080000Y-138020000D01*
X91777828Y-138020000D01*
X91777844Y-138019999D01*
X91837372Y-138013598D01*
X91837379Y-138013596D01*
X91972086Y-137963354D01*
X91972093Y-137963350D01*
X92087187Y-137877190D01*
X92087190Y-137877187D01*
X92173350Y-137762093D01*
X92173354Y-137762086D01*
X92223596Y-137627379D01*
X92223598Y-137627372D01*
X92229999Y-137567844D01*
X92230000Y-137567827D01*
X92230000Y-137389906D01*
X92249685Y-137322867D01*
X92302489Y-137277112D01*
X92371647Y-137267168D01*
X92435203Y-137296193D01*
X92454319Y-137317022D01*
X92492443Y-137369497D01*
X92620500Y-137497554D01*
X92620505Y-137497558D01*
X92717223Y-137567827D01*
X92767006Y-137603996D01*
X92872484Y-137657740D01*
X92928360Y-137686211D01*
X92928363Y-137686212D01*
X93014476Y-137714191D01*
X93100591Y-137742171D01*
X93183429Y-137755291D01*
X93279449Y-137770500D01*
X93279454Y-137770500D01*
X93460551Y-137770500D01*
X93547259Y-137756765D01*
X93639409Y-137742171D01*
X93811639Y-137686211D01*
X93972994Y-137603996D01*
X94119501Y-137497553D01*
X94247553Y-137369501D01*
X94353996Y-137222994D01*
X94436211Y-137061639D01*
X94492171Y-136889409D01*
X94507522Y-136792489D01*
X94520500Y-136710551D01*
X94520500Y-136529448D01*
X94495245Y-136370000D01*
X94492171Y-136350591D01*
X94436211Y-136178361D01*
X94436211Y-136178360D01*
X94404947Y-136117002D01*
X94353996Y-136017006D01*
X94325787Y-135978179D01*
X94247558Y-135870505D01*
X94247554Y-135870500D01*
X94119499Y-135742445D01*
X94119494Y-135742441D01*
X93972995Y-135636004D01*
X93938202Y-135618275D01*
X93887408Y-135570300D01*
X93870500Y-135507792D01*
X93870500Y-134246609D01*
X93870500Y-134246608D01*
X93859837Y-134206814D01*
X93836392Y-134119314D01*
X93792112Y-134042620D01*
X93775499Y-133980619D01*
X93775499Y-133457129D01*
X93775498Y-133457123D01*
X93775497Y-133457116D01*
X93769091Y-133397517D01*
X93718796Y-133262669D01*
X93718795Y-133262668D01*
X93718793Y-133262664D01*
X93632547Y-133147455D01*
X93632544Y-133147452D01*
X93517335Y-133061206D01*
X93517328Y-133061202D01*
X93382486Y-133010910D01*
X93382485Y-133010909D01*
X93382483Y-133010909D01*
X93322873Y-133004500D01*
X93322863Y-133004500D01*
X92702129Y-133004500D01*
X92702123Y-133004501D01*
X92642516Y-133010908D01*
X92507671Y-133061202D01*
X92507664Y-133061206D01*
X92392455Y-133147452D01*
X92392452Y-133147455D01*
X92306206Y-133262664D01*
X92306202Y-133262671D01*
X92255908Y-133397517D01*
X92250320Y-133449500D01*
X92249501Y-133457123D01*
X92249500Y-133457135D01*
X92249500Y-134452870D01*
X92249501Y-134452876D01*
X92255908Y-134512483D01*
X92306202Y-134647328D01*
X92306206Y-134647335D01*
X92392452Y-134762544D01*
X92392455Y-134762547D01*
X92507664Y-134848793D01*
X92507671Y-134848797D01*
X92552618Y-134865561D01*
X92642517Y-134899091D01*
X92702127Y-134905500D01*
X92745499Y-134905499D01*
X92812537Y-134925182D01*
X92858293Y-134977985D01*
X92869500Y-135029499D01*
X92869500Y-135507792D01*
X92849815Y-135574831D01*
X92801798Y-135618275D01*
X92767004Y-135636004D01*
X92620505Y-135742441D01*
X92620500Y-135742445D01*
X92492445Y-135870500D01*
X92492441Y-135870505D01*
X92454318Y-135922978D01*
X92398988Y-135965644D01*
X92329375Y-135971623D01*
X92267580Y-135939018D01*
X92233223Y-135878179D01*
X92230000Y-135850093D01*
X92230000Y-135672172D01*
X92229999Y-135672155D01*
X92223598Y-135612627D01*
X92223596Y-135612620D01*
X92173354Y-135477913D01*
X92173350Y-135477906D01*
X92087190Y-135362812D01*
X92087187Y-135362809D01*
X91972093Y-135276649D01*
X91972086Y-135276645D01*
X91837379Y-135226403D01*
X91837372Y-135226401D01*
X91777844Y-135220000D01*
X91080000Y-135220000D01*
X91080000Y-136244722D01*
X91003694Y-136200667D01*
X90889244Y-136170000D01*
X90770756Y-136170000D01*
X90656306Y-136200667D01*
X90580000Y-136244722D01*
X90580000Y-135220000D01*
X89882155Y-135220000D01*
X89822627Y-135226401D01*
X89822620Y-135226403D01*
X89687913Y-135276645D01*
X89687906Y-135276649D01*
X89572812Y-135362809D01*
X89572809Y-135362812D01*
X89486649Y-135477906D01*
X89486645Y-135477913D01*
X89436403Y-135612620D01*
X89436401Y-135612627D01*
X89430000Y-135672155D01*
X86000500Y-135672155D01*
X86000500Y-133457135D01*
X90424500Y-133457135D01*
X90424500Y-134452870D01*
X90424501Y-134452876D01*
X90430908Y-134512483D01*
X90481202Y-134647328D01*
X90481206Y-134647335D01*
X90567452Y-134762544D01*
X90567455Y-134762547D01*
X90682664Y-134848793D01*
X90682671Y-134848797D01*
X90727618Y-134865561D01*
X90817517Y-134899091D01*
X90877127Y-134905500D01*
X91497872Y-134905499D01*
X91557483Y-134899091D01*
X91692331Y-134848796D01*
X91807546Y-134762546D01*
X91893796Y-134647331D01*
X91944091Y-134512483D01*
X91950500Y-134452873D01*
X91950499Y-133457128D01*
X91944091Y-133397517D01*
X91893796Y-133262669D01*
X91851734Y-133206482D01*
X91827318Y-133141019D01*
X91842169Y-133072746D01*
X91863317Y-133044495D01*
X93170995Y-131736819D01*
X93232318Y-131703334D01*
X93258676Y-131700500D01*
X108165890Y-131700500D01*
X108165892Y-131700500D01*
X108293186Y-131666392D01*
X108407314Y-131600500D01*
X112820500Y-127187314D01*
X112886392Y-127073186D01*
X112920500Y-126945892D01*
X112920500Y-126814107D01*
X112920500Y-109606089D01*
X112940185Y-109539050D01*
X112988206Y-109495604D01*
X112996788Y-109491232D01*
X113136928Y-109389414D01*
X113259414Y-109266928D01*
X113361232Y-109126788D01*
X113439873Y-108972445D01*
X113493402Y-108807701D01*
X113520500Y-108636611D01*
X113520500Y-108163389D01*
X113859500Y-108163389D01*
X113859500Y-108636610D01*
X113872594Y-108719287D01*
X113886598Y-108807701D01*
X113940127Y-108972445D01*
X114018768Y-109126788D01*
X114120586Y-109266928D01*
X114243072Y-109389414D01*
X114348386Y-109465929D01*
X114391051Y-109521259D01*
X114399500Y-109566247D01*
X114399500Y-126865891D01*
X114433608Y-126993187D01*
X114466554Y-127050250D01*
X114499500Y-127107314D01*
X122192686Y-134800500D01*
X122306814Y-134866392D01*
X122434107Y-134900500D01*
X122434108Y-134900500D01*
X124023560Y-134900500D01*
X124040095Y-134905355D01*
X124057331Y-134905187D01*
X124072926Y-134914995D01*
X124090599Y-134920185D01*
X124102134Y-134933366D01*
X124116475Y-134942386D01*
X124130533Y-134965818D01*
X124135846Y-134971889D01*
X124137984Y-134976452D01*
X124181204Y-135092331D01*
X124210805Y-135131873D01*
X124216201Y-135143389D01*
X124219655Y-135165855D01*
X124227599Y-135187152D01*
X124224863Y-135199728D01*
X124226819Y-135212447D01*
X124217579Y-135233214D01*
X124212748Y-135255425D01*
X124203649Y-135264524D01*
X124198417Y-135276284D01*
X124179414Y-135288759D01*
X124163344Y-135304831D01*
X124149586Y-135308342D01*
X124140010Y-135314630D01*
X124124353Y-135314783D01*
X124103915Y-135320000D01*
X123582155Y-135320000D01*
X123522627Y-135326401D01*
X123522620Y-135326403D01*
X123387913Y-135376645D01*
X123387906Y-135376649D01*
X123272812Y-135462809D01*
X123272809Y-135462812D01*
X123186649Y-135577906D01*
X123186645Y-135577913D01*
X123136403Y-135712620D01*
X123136401Y-135712627D01*
X123130000Y-135772155D01*
X123130000Y-136470000D01*
X124154722Y-136470000D01*
X124110667Y-136546306D01*
X124080000Y-136660756D01*
X124080000Y-136779244D01*
X124110667Y-136893694D01*
X124154722Y-136970000D01*
X123130000Y-136970000D01*
X123130000Y-137667844D01*
X123136401Y-137727372D01*
X123136403Y-137727379D01*
X123186645Y-137862086D01*
X123186649Y-137862093D01*
X123272809Y-137977187D01*
X123272812Y-137977190D01*
X123387906Y-138063350D01*
X123387913Y-138063354D01*
X123522620Y-138113596D01*
X123522627Y-138113598D01*
X123582155Y-138119999D01*
X123582172Y-138120000D01*
X124280000Y-138120000D01*
X124280000Y-137095277D01*
X124356306Y-137139333D01*
X124470756Y-137170000D01*
X124589244Y-137170000D01*
X124703694Y-137139333D01*
X124780000Y-137095277D01*
X124780000Y-138120000D01*
X125477828Y-138120000D01*
X125477844Y-138119999D01*
X125537372Y-138113598D01*
X125537379Y-138113596D01*
X125672086Y-138063354D01*
X125672093Y-138063350D01*
X125787187Y-137977190D01*
X125787190Y-137977187D01*
X125873350Y-137862093D01*
X125873354Y-137862086D01*
X125923596Y-137727379D01*
X125923598Y-137727372D01*
X125929999Y-137667844D01*
X125930000Y-137667827D01*
X125930000Y-137489906D01*
X125949685Y-137422867D01*
X126002489Y-137377112D01*
X126071647Y-137367168D01*
X126135203Y-137396193D01*
X126154319Y-137417022D01*
X126192443Y-137469497D01*
X126320500Y-137597554D01*
X126320505Y-137597558D01*
X126361551Y-137627379D01*
X126467006Y-137703996D01*
X126572484Y-137757740D01*
X126628360Y-137786211D01*
X126628363Y-137786212D01*
X126714476Y-137814191D01*
X126800591Y-137842171D01*
X126883429Y-137855291D01*
X126979449Y-137870500D01*
X126979454Y-137870500D01*
X127160551Y-137870500D01*
X127247259Y-137856765D01*
X127339409Y-137842171D01*
X127511639Y-137786211D01*
X127672994Y-137703996D01*
X127819501Y-137597553D01*
X127947553Y-137469501D01*
X128053996Y-137322994D01*
X128136211Y-137161639D01*
X128192171Y-136989409D01*
X128208011Y-136889400D01*
X128220500Y-136810551D01*
X128220500Y-136629448D01*
X128195245Y-136470000D01*
X128192171Y-136450591D01*
X128136211Y-136278361D01*
X128136211Y-136278360D01*
X128107740Y-136222484D01*
X128053996Y-136117006D01*
X128040396Y-136098287D01*
X127947558Y-135970505D01*
X127947554Y-135970500D01*
X127819499Y-135842445D01*
X127819494Y-135842441D01*
X127672995Y-135736004D01*
X127638202Y-135718275D01*
X127587408Y-135670300D01*
X127570500Y-135607792D01*
X127570500Y-134691610D01*
X127570500Y-134691608D01*
X127536392Y-134564314D01*
X127492111Y-134487618D01*
X127475499Y-134425619D01*
X127475499Y-133902129D01*
X127475498Y-133902123D01*
X127475497Y-133902116D01*
X127469091Y-133842517D01*
X127460257Y-133818833D01*
X127418797Y-133707671D01*
X127418793Y-133707664D01*
X127332547Y-133592455D01*
X127332544Y-133592452D01*
X127217335Y-133506206D01*
X127217328Y-133506202D01*
X127082486Y-133455910D01*
X127082485Y-133455909D01*
X127082483Y-133455909D01*
X127022873Y-133449500D01*
X127022863Y-133449500D01*
X126402129Y-133449500D01*
X126402123Y-133449501D01*
X126342516Y-133455908D01*
X126207671Y-133506202D01*
X126207664Y-133506206D01*
X126092455Y-133592452D01*
X126092452Y-133592455D01*
X126006206Y-133707664D01*
X126006202Y-133707671D01*
X125955908Y-133842517D01*
X125949816Y-133899184D01*
X125949501Y-133902123D01*
X125949500Y-133902135D01*
X125949500Y-134897870D01*
X125949501Y-134897876D01*
X125955908Y-134957483D01*
X126006202Y-135092328D01*
X126006206Y-135092335D01*
X126092452Y-135207544D01*
X126092455Y-135207547D01*
X126207664Y-135293793D01*
X126207671Y-135293797D01*
X126237255Y-135304831D01*
X126342517Y-135344091D01*
X126402127Y-135350500D01*
X126445499Y-135350499D01*
X126454184Y-135353049D01*
X126463147Y-135351761D01*
X126487184Y-135362738D01*
X126512537Y-135370182D01*
X126518466Y-135377024D01*
X126526703Y-135380786D01*
X126540989Y-135403016D01*
X126558293Y-135422985D01*
X126560580Y-135433501D01*
X126564477Y-135439564D01*
X126569500Y-135474499D01*
X126569500Y-135607792D01*
X126549815Y-135674831D01*
X126501798Y-135718275D01*
X126467004Y-135736004D01*
X126320505Y-135842441D01*
X126320500Y-135842445D01*
X126192445Y-135970500D01*
X126192441Y-135970505D01*
X126154318Y-136022978D01*
X126098988Y-136065644D01*
X126029375Y-136071623D01*
X125967580Y-136039018D01*
X125933223Y-135978179D01*
X125930000Y-135950093D01*
X125930000Y-135772172D01*
X125929999Y-135772155D01*
X125923598Y-135712627D01*
X125923596Y-135712620D01*
X125873354Y-135577913D01*
X125873350Y-135577906D01*
X125787190Y-135462812D01*
X125787187Y-135462809D01*
X125672093Y-135376649D01*
X125672087Y-135376646D01*
X125599703Y-135349648D01*
X125543770Y-135307776D01*
X125519353Y-135242312D01*
X125534205Y-135174039D01*
X125543763Y-135159166D01*
X125593796Y-135092331D01*
X125644091Y-134957483D01*
X125650500Y-134897873D01*
X125650499Y-133902128D01*
X125644091Y-133842517D01*
X125635257Y-133818833D01*
X125593797Y-133707671D01*
X125593793Y-133707664D01*
X125507547Y-133592455D01*
X125507544Y-133592452D01*
X125392335Y-133506206D01*
X125392328Y-133506202D01*
X125257486Y-133455910D01*
X125257485Y-133455909D01*
X125257483Y-133455909D01*
X125197873Y-133449500D01*
X125197863Y-133449500D01*
X124577129Y-133449500D01*
X124577123Y-133449501D01*
X124517516Y-133455908D01*
X124382671Y-133506202D01*
X124382664Y-133506206D01*
X124267455Y-133592452D01*
X124267452Y-133592455D01*
X124181206Y-133707664D01*
X124181202Y-133707671D01*
X124139742Y-133818833D01*
X124097871Y-133874767D01*
X124032407Y-133899184D01*
X124023560Y-133899500D01*
X122758676Y-133899500D01*
X122691637Y-133879815D01*
X122670995Y-133863181D01*
X115436819Y-126629005D01*
X115403334Y-126567682D01*
X115400500Y-126541324D01*
X115400500Y-114695316D01*
X125849500Y-114695316D01*
X125849500Y-115014683D01*
X125880803Y-115332522D01*
X125943109Y-115645754D01*
X126035820Y-115951382D01*
X126158040Y-116246446D01*
X126158042Y-116246451D01*
X126308584Y-116528094D01*
X126308601Y-116528122D01*
X126486012Y-116793638D01*
X126486029Y-116793661D01*
X126688638Y-117040540D01*
X126914459Y-117266361D01*
X126914464Y-117266365D01*
X126914465Y-117266366D01*
X127161344Y-117468975D01*
X127161351Y-117468980D01*
X127161361Y-117468987D01*
X127426877Y-117646398D01*
X127426882Y-117646401D01*
X127426894Y-117646409D01*
X127426903Y-117646413D01*
X127426905Y-117646415D01*
X127708548Y-117796957D01*
X127708550Y-117796957D01*
X127708556Y-117796961D01*
X128003619Y-117919180D01*
X128309240Y-118011889D01*
X128622477Y-118074196D01*
X128940313Y-118105500D01*
X128940316Y-118105500D01*
X129259684Y-118105500D01*
X129259687Y-118105500D01*
X129577523Y-118074196D01*
X129890760Y-118011889D01*
X130196381Y-117919180D01*
X130491444Y-117796961D01*
X130773106Y-117646409D01*
X131038656Y-117468975D01*
X131285535Y-117266366D01*
X131511366Y-117040535D01*
X131713975Y-116793656D01*
X131891409Y-116528106D01*
X132041961Y-116246444D01*
X132164180Y-115951381D01*
X132256889Y-115645760D01*
X132319196Y-115332523D01*
X132350500Y-115014687D01*
X132350500Y-114695313D01*
X132319196Y-114377477D01*
X132256889Y-114064240D01*
X132164180Y-113758619D01*
X132041961Y-113463556D01*
X131891409Y-113181894D01*
X131765799Y-112993904D01*
X131713987Y-112916361D01*
X131713980Y-112916351D01*
X131713975Y-112916344D01*
X131511366Y-112669465D01*
X131511365Y-112669464D01*
X131511361Y-112669459D01*
X131285540Y-112443638D01*
X131038661Y-112241029D01*
X131038638Y-112241012D01*
X130773122Y-112063601D01*
X130773094Y-112063584D01*
X130491451Y-111913042D01*
X130491446Y-111913040D01*
X130196382Y-111790820D01*
X129890754Y-111698109D01*
X129577521Y-111635803D01*
X129577522Y-111635803D01*
X129338141Y-111612227D01*
X129259687Y-111604500D01*
X128940313Y-111604500D01*
X128867822Y-111611639D01*
X128622477Y-111635803D01*
X128309245Y-111698109D01*
X128003617Y-111790820D01*
X127708553Y-111913040D01*
X127708548Y-111913042D01*
X127426905Y-112063584D01*
X127426877Y-112063601D01*
X127161361Y-112241012D01*
X127161338Y-112241029D01*
X126914459Y-112443638D01*
X126688638Y-112669459D01*
X126486029Y-112916338D01*
X126486012Y-112916361D01*
X126308601Y-113181877D01*
X126308584Y-113181905D01*
X126158042Y-113463548D01*
X126158040Y-113463553D01*
X126035820Y-113758617D01*
X125943109Y-114064245D01*
X125880803Y-114377477D01*
X125849500Y-114695316D01*
X115400500Y-114695316D01*
X115400500Y-109636660D01*
X115420185Y-109569621D01*
X115468207Y-109526175D01*
X115477856Y-109521259D01*
X115536788Y-109491232D01*
X115676928Y-109389414D01*
X115799414Y-109266928D01*
X115901232Y-109126788D01*
X115979873Y-108972445D01*
X116033402Y-108807701D01*
X116060500Y-108636611D01*
X116060500Y-108163389D01*
X116399500Y-108163389D01*
X116399500Y-108636610D01*
X116412594Y-108719287D01*
X116426598Y-108807701D01*
X116480127Y-108972445D01*
X116558768Y-109126788D01*
X116660586Y-109266928D01*
X116783072Y-109389414D01*
X116923212Y-109491232D01*
X117077555Y-109569873D01*
X117242299Y-109623402D01*
X117413389Y-109650500D01*
X117413390Y-109650500D01*
X117586610Y-109650500D01*
X117586611Y-109650500D01*
X117757701Y-109623402D01*
X117922445Y-109569873D01*
X118076788Y-109491232D01*
X118216928Y-109389414D01*
X118339414Y-109266928D01*
X118441232Y-109126788D01*
X118519873Y-108972445D01*
X118573402Y-108807701D01*
X118600500Y-108636611D01*
X118600500Y-108163389D01*
X118939500Y-108163389D01*
X118939500Y-108636610D01*
X118952594Y-108719287D01*
X118966598Y-108807701D01*
X119020127Y-108972445D01*
X119098768Y-109126788D01*
X119200586Y-109266928D01*
X119323072Y-109389414D01*
X119463212Y-109491232D01*
X119617555Y-109569873D01*
X119782299Y-109623402D01*
X119953389Y-109650500D01*
X119953390Y-109650500D01*
X120126610Y-109650500D01*
X120126611Y-109650500D01*
X120297701Y-109623402D01*
X120462445Y-109569873D01*
X120616788Y-109491232D01*
X120756928Y-109389414D01*
X120879414Y-109266928D01*
X120981232Y-109126788D01*
X121059873Y-108972445D01*
X121060896Y-108969294D01*
X121061610Y-108968250D01*
X121061734Y-108967952D01*
X121061796Y-108967977D01*
X121100327Y-108911618D01*
X121164683Y-108884415D01*
X121233530Y-108896323D01*
X121285011Y-108943562D01*
X121296760Y-108969287D01*
X121328904Y-109068217D01*
X121425379Y-109257557D01*
X121550272Y-109429459D01*
X121550276Y-109429464D01*
X121700535Y-109579723D01*
X121700540Y-109579727D01*
X121872442Y-109704620D01*
X122061782Y-109801095D01*
X122263871Y-109866757D01*
X122330000Y-109877231D01*
X122330000Y-108856106D01*
X122379288Y-108884563D01*
X122511541Y-108920000D01*
X122648459Y-108920000D01*
X122780712Y-108884563D01*
X122830000Y-108856106D01*
X122830000Y-109877230D01*
X122896126Y-109866757D01*
X122896129Y-109866757D01*
X123098217Y-109801095D01*
X123287557Y-109704620D01*
X123459459Y-109579727D01*
X123459464Y-109579723D01*
X123609723Y-109429464D01*
X123609727Y-109429459D01*
X123734620Y-109257557D01*
X123831096Y-109068215D01*
X123863239Y-108969288D01*
X123902676Y-108911612D01*
X123967034Y-108884413D01*
X124035880Y-108896327D01*
X124087357Y-108943571D01*
X124099100Y-108969284D01*
X124100127Y-108972446D01*
X124148924Y-109068215D01*
X124178768Y-109126788D01*
X124280586Y-109266928D01*
X124403072Y-109389414D01*
X124543212Y-109491232D01*
X124697555Y-109569873D01*
X124862299Y-109623402D01*
X125033389Y-109650500D01*
X125033390Y-109650500D01*
X125206610Y-109650500D01*
X125206611Y-109650500D01*
X125377701Y-109623402D01*
X125542445Y-109569873D01*
X125696788Y-109491232D01*
X125836928Y-109389414D01*
X125959414Y-109266928D01*
X126061232Y-109126788D01*
X126139873Y-108972445D01*
X126193402Y-108807701D01*
X126220500Y-108636611D01*
X126220500Y-108163389D01*
X126559500Y-108163389D01*
X126559500Y-108636610D01*
X126572594Y-108719287D01*
X126586598Y-108807701D01*
X126640127Y-108972445D01*
X126718768Y-109126788D01*
X126820586Y-109266928D01*
X126943072Y-109389414D01*
X127083212Y-109491232D01*
X127237555Y-109569873D01*
X127402299Y-109623402D01*
X127573389Y-109650500D01*
X127573390Y-109650500D01*
X127746610Y-109650500D01*
X127746611Y-109650500D01*
X127917701Y-109623402D01*
X128082445Y-109569873D01*
X128236788Y-109491232D01*
X128376928Y-109389414D01*
X128499414Y-109266928D01*
X128601232Y-109126788D01*
X128679873Y-108972445D01*
X128733402Y-108807701D01*
X128760500Y-108636611D01*
X128760500Y-108163389D01*
X129099500Y-108163389D01*
X129099500Y-108636610D01*
X129112594Y-108719287D01*
X129126598Y-108807701D01*
X129180127Y-108972445D01*
X129258768Y-109126788D01*
X129360586Y-109266928D01*
X129483072Y-109389414D01*
X129623212Y-109491232D01*
X129777555Y-109569873D01*
X129942299Y-109623402D01*
X130113389Y-109650500D01*
X130113390Y-109650500D01*
X130286610Y-109650500D01*
X130286611Y-109650500D01*
X130457701Y-109623402D01*
X130622445Y-109569873D01*
X130776788Y-109491232D01*
X130916928Y-109389414D01*
X131039414Y-109266928D01*
X131141232Y-109126788D01*
X131219873Y-108972445D01*
X131273402Y-108807701D01*
X131300500Y-108636611D01*
X131300500Y-108163389D01*
X131639500Y-108163389D01*
X131639500Y-108636610D01*
X131652594Y-108719287D01*
X131666598Y-108807701D01*
X131720127Y-108972445D01*
X131798768Y-109126788D01*
X131900586Y-109266928D01*
X132023072Y-109389414D01*
X132163212Y-109491232D01*
X132317555Y-109569873D01*
X132482299Y-109623402D01*
X132653389Y-109650500D01*
X132653390Y-109650500D01*
X132826610Y-109650500D01*
X132826611Y-109650500D01*
X132997701Y-109623402D01*
X133162445Y-109569873D01*
X133316788Y-109491232D01*
X133456928Y-109389414D01*
X133579414Y-109266928D01*
X133681232Y-109126788D01*
X133759873Y-108972445D01*
X133813402Y-108807701D01*
X133840500Y-108636611D01*
X133840500Y-108163389D01*
X133813402Y-107992299D01*
X133759873Y-107827555D01*
X133681232Y-107673212D01*
X133579414Y-107533072D01*
X133456928Y-107410586D01*
X133316788Y-107308768D01*
X133162445Y-107230127D01*
X132997701Y-107176598D01*
X132997699Y-107176597D01*
X132997698Y-107176597D01*
X132866271Y-107155781D01*
X132826611Y-107149500D01*
X132653389Y-107149500D01*
X132613728Y-107155781D01*
X132482302Y-107176597D01*
X132317552Y-107230128D01*
X132163211Y-107308768D01*
X132083256Y-107366859D01*
X132023072Y-107410586D01*
X132023070Y-107410588D01*
X132023069Y-107410588D01*
X131900588Y-107533069D01*
X131900588Y-107533070D01*
X131900586Y-107533072D01*
X131856859Y-107593256D01*
X131798768Y-107673211D01*
X131720128Y-107827552D01*
X131666597Y-107992302D01*
X131639500Y-108163389D01*
X131300500Y-108163389D01*
X131273402Y-107992299D01*
X131219873Y-107827555D01*
X131141232Y-107673212D01*
X131039414Y-107533072D01*
X130916928Y-107410586D01*
X130776788Y-107308768D01*
X130622445Y-107230127D01*
X130457701Y-107176598D01*
X130457699Y-107176597D01*
X130457698Y-107176597D01*
X130326271Y-107155781D01*
X130286611Y-107149500D01*
X130113389Y-107149500D01*
X130073728Y-107155781D01*
X129942302Y-107176597D01*
X129777552Y-107230128D01*
X129623211Y-107308768D01*
X129543256Y-107366859D01*
X129483072Y-107410586D01*
X129483070Y-107410588D01*
X129483069Y-107410588D01*
X129360588Y-107533069D01*
X129360588Y-107533070D01*
X129360586Y-107533072D01*
X129316859Y-107593256D01*
X129258768Y-107673211D01*
X129180128Y-107827552D01*
X129126597Y-107992302D01*
X129099500Y-108163389D01*
X128760500Y-108163389D01*
X128733402Y-107992299D01*
X128679873Y-107827555D01*
X128601232Y-107673212D01*
X128499414Y-107533072D01*
X128376928Y-107410586D01*
X128236788Y-107308768D01*
X128082445Y-107230127D01*
X127917701Y-107176598D01*
X127917699Y-107176597D01*
X127917698Y-107176597D01*
X127786271Y-107155781D01*
X127746611Y-107149500D01*
X127573389Y-107149500D01*
X127533728Y-107155781D01*
X127402302Y-107176597D01*
X127237552Y-107230128D01*
X127083211Y-107308768D01*
X127003256Y-107366859D01*
X126943072Y-107410586D01*
X126943070Y-107410588D01*
X126943069Y-107410588D01*
X126820588Y-107533069D01*
X126820588Y-107533070D01*
X126820586Y-107533072D01*
X126776859Y-107593256D01*
X126718768Y-107673211D01*
X126640128Y-107827552D01*
X126586597Y-107992302D01*
X126559500Y-108163389D01*
X126220500Y-108163389D01*
X126193402Y-107992299D01*
X126139873Y-107827555D01*
X126061232Y-107673212D01*
X125959414Y-107533072D01*
X125836928Y-107410586D01*
X125696788Y-107308768D01*
X125542445Y-107230127D01*
X125377701Y-107176598D01*
X125377699Y-107176597D01*
X125377698Y-107176597D01*
X125246271Y-107155781D01*
X125206611Y-107149500D01*
X125033389Y-107149500D01*
X124993728Y-107155781D01*
X124862302Y-107176597D01*
X124697552Y-107230128D01*
X124543211Y-107308768D01*
X124463256Y-107366859D01*
X124403072Y-107410586D01*
X124403070Y-107410588D01*
X124403069Y-107410588D01*
X124280588Y-107533069D01*
X124280588Y-107533070D01*
X124280586Y-107533072D01*
X124236859Y-107593256D01*
X124178768Y-107673211D01*
X124100128Y-107827550D01*
X124099487Y-107829522D01*
X124099102Y-107830712D01*
X124099099Y-107830720D01*
X124098381Y-107831769D01*
X124098266Y-107832048D01*
X124098207Y-107832023D01*
X124059657Y-107888393D01*
X123995297Y-107915587D01*
X123926451Y-107903668D01*
X123874979Y-107856420D01*
X123863239Y-107830711D01*
X123831096Y-107731784D01*
X123734620Y-107542442D01*
X123609727Y-107370540D01*
X123609723Y-107370535D01*
X123459464Y-107220276D01*
X123459459Y-107220272D01*
X123287557Y-107095379D01*
X123098215Y-106998903D01*
X122896124Y-106933241D01*
X122830000Y-106922768D01*
X122830000Y-107943893D01*
X122780712Y-107915437D01*
X122648459Y-107880000D01*
X122511541Y-107880000D01*
X122379288Y-107915437D01*
X122330000Y-107943893D01*
X122330000Y-106922768D01*
X122329999Y-106922768D01*
X122263875Y-106933241D01*
X122061784Y-106998903D01*
X121872442Y-107095379D01*
X121700540Y-107220272D01*
X121700535Y-107220276D01*
X121550276Y-107370535D01*
X121550272Y-107370540D01*
X121425379Y-107542442D01*
X121328904Y-107731783D01*
X121296760Y-107830712D01*
X121257322Y-107888388D01*
X121192964Y-107915586D01*
X121124117Y-107903671D01*
X121072642Y-107856427D01*
X121060898Y-107830711D01*
X121059873Y-107827555D01*
X120981232Y-107673212D01*
X120879414Y-107533072D01*
X120756928Y-107410586D01*
X120616788Y-107308768D01*
X120462445Y-107230127D01*
X120297701Y-107176598D01*
X120297699Y-107176597D01*
X120297698Y-107176597D01*
X120166271Y-107155781D01*
X120126611Y-107149500D01*
X119953389Y-107149500D01*
X119913728Y-107155781D01*
X119782302Y-107176597D01*
X119617552Y-107230128D01*
X119463211Y-107308768D01*
X119383256Y-107366859D01*
X119323072Y-107410586D01*
X119323070Y-107410588D01*
X119323069Y-107410588D01*
X119200588Y-107533069D01*
X119200588Y-107533070D01*
X119200586Y-107533072D01*
X119156859Y-107593256D01*
X119098768Y-107673211D01*
X119020128Y-107827552D01*
X118966597Y-107992302D01*
X118939500Y-108163389D01*
X118600500Y-108163389D01*
X118573402Y-107992299D01*
X118519873Y-107827555D01*
X118441232Y-107673212D01*
X118339414Y-107533072D01*
X118216928Y-107410586D01*
X118076788Y-107308768D01*
X117922445Y-107230127D01*
X117757701Y-107176598D01*
X117757699Y-107176597D01*
X117757698Y-107176597D01*
X117626271Y-107155781D01*
X117586611Y-107149500D01*
X117413389Y-107149500D01*
X117373728Y-107155781D01*
X117242302Y-107176597D01*
X117077552Y-107230128D01*
X116923211Y-107308768D01*
X116843256Y-107366859D01*
X116783072Y-107410586D01*
X116783070Y-107410588D01*
X116783069Y-107410588D01*
X116660588Y-107533069D01*
X116660588Y-107533070D01*
X116660586Y-107533072D01*
X116616859Y-107593256D01*
X116558768Y-107673211D01*
X116480128Y-107827552D01*
X116426597Y-107992302D01*
X116399500Y-108163389D01*
X116060500Y-108163389D01*
X116033402Y-107992299D01*
X115979873Y-107827555D01*
X115901232Y-107673212D01*
X115799414Y-107533072D01*
X115676928Y-107410586D01*
X115536788Y-107308768D01*
X115382445Y-107230127D01*
X115217701Y-107176598D01*
X115217699Y-107176597D01*
X115217698Y-107176597D01*
X115086271Y-107155781D01*
X115046611Y-107149500D01*
X114873389Y-107149500D01*
X114833728Y-107155781D01*
X114702302Y-107176597D01*
X114537552Y-107230128D01*
X114383211Y-107308768D01*
X114303256Y-107366859D01*
X114243072Y-107410586D01*
X114243070Y-107410588D01*
X114243069Y-107410588D01*
X114120588Y-107533069D01*
X114120588Y-107533070D01*
X114120586Y-107533072D01*
X114076859Y-107593256D01*
X114018768Y-107673211D01*
X113940128Y-107827552D01*
X113886597Y-107992302D01*
X113859500Y-108163389D01*
X113520500Y-108163389D01*
X113493402Y-107992299D01*
X113439873Y-107827555D01*
X113361232Y-107673212D01*
X113259414Y-107533072D01*
X113136928Y-107410586D01*
X112996788Y-107308768D01*
X112842445Y-107230127D01*
X112677701Y-107176598D01*
X112677699Y-107176597D01*
X112677698Y-107176597D01*
X112546271Y-107155781D01*
X112506611Y-107149500D01*
X112333389Y-107149500D01*
X112293728Y-107155781D01*
X112162302Y-107176597D01*
X111997552Y-107230128D01*
X111843211Y-107308768D01*
X111763256Y-107366859D01*
X111703072Y-107410586D01*
X111703070Y-107410588D01*
X111703069Y-107410588D01*
X111580588Y-107533069D01*
X111580588Y-107533070D01*
X111580586Y-107533072D01*
X111536859Y-107593256D01*
X111478768Y-107673211D01*
X111400128Y-107827552D01*
X111346597Y-107992302D01*
X111319500Y-108163389D01*
X111319500Y-108636610D01*
X111332594Y-108719287D01*
X111346598Y-108807701D01*
X111400127Y-108972445D01*
X111478768Y-109126788D01*
X111580586Y-109266928D01*
X111703072Y-109389414D01*
X111843212Y-109491232D01*
X111851793Y-109495604D01*
X111902589Y-109543575D01*
X111919500Y-109606089D01*
X111919500Y-126621324D01*
X111899815Y-126688363D01*
X111883181Y-126709005D01*
X107929005Y-130663181D01*
X107867682Y-130696666D01*
X107841324Y-130699500D01*
X92934107Y-130699500D01*
X92806812Y-130733608D01*
X92692686Y-130799500D01*
X92692683Y-130799502D01*
X90787002Y-132705183D01*
X90787000Y-132705186D01*
X90721108Y-132819312D01*
X90687000Y-132946608D01*
X90687000Y-132995892D01*
X90667315Y-133062931D01*
X90637312Y-133095158D01*
X90567452Y-133147455D01*
X90481206Y-133262664D01*
X90481202Y-133262671D01*
X90430908Y-133397517D01*
X90425320Y-133449500D01*
X90424501Y-133457123D01*
X90424500Y-133457135D01*
X86000500Y-133457135D01*
X86000500Y-125201015D01*
X91149500Y-125201015D01*
X91149500Y-125598984D01*
X91188507Y-125995046D01*
X91266149Y-126385374D01*
X91371935Y-126734108D01*
X91381676Y-126766218D01*
X91508826Y-127073187D01*
X91533976Y-127133903D01*
X91533978Y-127133908D01*
X91721573Y-127484873D01*
X91721584Y-127484891D01*
X91942678Y-127815781D01*
X91942688Y-127815795D01*
X92195162Y-128123435D01*
X92476564Y-128404837D01*
X92476569Y-128404841D01*
X92476570Y-128404842D01*
X92784210Y-128657316D01*
X93115115Y-128878420D01*
X93115124Y-128878425D01*
X93115126Y-128878426D01*
X93466091Y-129066021D01*
X93466093Y-129066021D01*
X93466099Y-129066025D01*
X93833782Y-129218324D01*
X94214622Y-129333850D01*
X94604951Y-129411492D01*
X95001012Y-129450500D01*
X95001015Y-129450500D01*
X95398985Y-129450500D01*
X95398988Y-129450500D01*
X95795049Y-129411492D01*
X96185378Y-129333850D01*
X96566218Y-129218324D01*
X96933901Y-129066025D01*
X97284885Y-128878420D01*
X97615790Y-128657316D01*
X97923430Y-128404842D01*
X98204842Y-128123430D01*
X98457316Y-127815790D01*
X98678420Y-127484885D01*
X98866025Y-127133901D01*
X99018324Y-126766218D01*
X99133850Y-126385378D01*
X99211492Y-125995049D01*
X99250500Y-125598988D01*
X99250500Y-125201012D01*
X99211492Y-124804951D01*
X99133850Y-124414622D01*
X99018324Y-124033782D01*
X98866025Y-123666099D01*
X98678420Y-123315115D01*
X98457316Y-122984210D01*
X98204842Y-122676570D01*
X98204841Y-122676569D01*
X98204837Y-122676564D01*
X97923435Y-122395162D01*
X97615795Y-122142688D01*
X97615794Y-122142687D01*
X97615790Y-122142684D01*
X97284885Y-121921580D01*
X97284880Y-121921577D01*
X97284873Y-121921573D01*
X96933908Y-121733978D01*
X96933903Y-121733976D01*
X96566219Y-121581676D01*
X96342643Y-121513855D01*
X96185378Y-121466150D01*
X96185375Y-121466149D01*
X96185374Y-121466149D01*
X95795046Y-121388507D01*
X95516009Y-121361025D01*
X95398988Y-121349500D01*
X95001012Y-121349500D01*
X94894483Y-121359992D01*
X94604953Y-121388507D01*
X94214625Y-121466149D01*
X93833780Y-121581676D01*
X93466096Y-121733976D01*
X93466091Y-121733978D01*
X93115126Y-121921573D01*
X93115108Y-121921584D01*
X92784218Y-122142678D01*
X92784204Y-122142688D01*
X92476564Y-122395162D01*
X92195162Y-122676564D01*
X91942688Y-122984204D01*
X91942678Y-122984218D01*
X91721584Y-123315108D01*
X91721573Y-123315126D01*
X91533978Y-123666091D01*
X91533976Y-123666096D01*
X91381676Y-124033780D01*
X91266149Y-124414625D01*
X91188507Y-124804953D01*
X91149500Y-125201015D01*
X86000500Y-125201015D01*
X86000500Y-115828034D01*
X85966789Y-115485750D01*
X85899691Y-115148427D01*
X85899690Y-115148426D01*
X85899690Y-115148422D01*
X85799850Y-114819295D01*
X85799848Y-114819289D01*
X85766890Y-114739721D01*
X85748497Y-114695316D01*
X87749500Y-114695316D01*
X87749500Y-115014683D01*
X87780803Y-115332522D01*
X87843109Y-115645754D01*
X87935820Y-115951382D01*
X88058040Y-116246446D01*
X88058042Y-116246451D01*
X88208584Y-116528094D01*
X88208601Y-116528122D01*
X88386012Y-116793638D01*
X88386029Y-116793661D01*
X88588638Y-117040540D01*
X88814459Y-117266361D01*
X88814464Y-117266365D01*
X88814465Y-117266366D01*
X89061344Y-117468975D01*
X89061351Y-117468980D01*
X89061361Y-117468987D01*
X89326877Y-117646398D01*
X89326882Y-117646401D01*
X89326894Y-117646409D01*
X89326903Y-117646413D01*
X89326905Y-117646415D01*
X89608548Y-117796957D01*
X89608550Y-117796957D01*
X89608556Y-117796961D01*
X89903619Y-117919180D01*
X90209240Y-118011889D01*
X90522477Y-118074196D01*
X90840313Y-118105500D01*
X90840316Y-118105500D01*
X91159684Y-118105500D01*
X91159687Y-118105500D01*
X91477523Y-118074196D01*
X91790760Y-118011889D01*
X92096381Y-117919180D01*
X92391444Y-117796961D01*
X92673106Y-117646409D01*
X92938656Y-117468975D01*
X93185535Y-117266366D01*
X93411366Y-117040535D01*
X93613975Y-116793656D01*
X93791409Y-116528106D01*
X93941961Y-116246444D01*
X94064180Y-115951381D01*
X94156889Y-115645760D01*
X94219196Y-115332523D01*
X94250500Y-115014687D01*
X94250500Y-114695313D01*
X94219196Y-114377477D01*
X94156889Y-114064240D01*
X94064180Y-113758619D01*
X93941961Y-113463556D01*
X93791409Y-113181894D01*
X93665799Y-112993904D01*
X93613987Y-112916361D01*
X93613980Y-112916351D01*
X93613975Y-112916344D01*
X93411366Y-112669465D01*
X93411365Y-112669464D01*
X93411361Y-112669459D01*
X93185540Y-112443638D01*
X92938661Y-112241029D01*
X92938638Y-112241012D01*
X92673122Y-112063601D01*
X92673094Y-112063584D01*
X92391451Y-111913042D01*
X92391446Y-111913040D01*
X92096382Y-111790820D01*
X91790754Y-111698109D01*
X91477521Y-111635803D01*
X91477522Y-111635803D01*
X91238141Y-111612227D01*
X91159687Y-111604500D01*
X90840313Y-111604500D01*
X90767822Y-111611639D01*
X90522477Y-111635803D01*
X90209245Y-111698109D01*
X89903617Y-111790820D01*
X89608553Y-111913040D01*
X89608548Y-111913042D01*
X89326905Y-112063584D01*
X89326877Y-112063601D01*
X89061361Y-112241012D01*
X89061338Y-112241029D01*
X88814459Y-112443638D01*
X88588638Y-112669459D01*
X88386029Y-112916338D01*
X88386012Y-112916361D01*
X88208601Y-113181877D01*
X88208584Y-113181905D01*
X88058042Y-113463548D01*
X88058040Y-113463553D01*
X87935820Y-113758617D01*
X87843109Y-114064245D01*
X87780803Y-114377477D01*
X87749500Y-114695316D01*
X85748497Y-114695316D01*
X85700781Y-114580122D01*
X85668231Y-114501538D01*
X85506100Y-114198213D01*
X85315019Y-113912240D01*
X85096828Y-113646373D01*
X85096827Y-113646372D01*
X85096823Y-113646367D01*
X84853632Y-113403176D01*
X84587765Y-113184985D01*
X84587764Y-113184984D01*
X84587760Y-113184981D01*
X84301787Y-112993900D01*
X84301782Y-112993897D01*
X84301775Y-112993893D01*
X83998469Y-112831772D01*
X83998464Y-112831770D01*
X83680706Y-112700150D01*
X83351572Y-112600308D01*
X83014248Y-112533210D01*
X83014249Y-112533210D01*
X82756456Y-112507821D01*
X82671969Y-112499500D01*
X82671966Y-112499500D01*
X75003751Y-112499500D01*
X74996264Y-112499274D01*
X74706205Y-112481728D01*
X74691340Y-112479923D01*
X74409201Y-112428219D01*
X74394663Y-112424635D01*
X74120832Y-112339306D01*
X74106831Y-112333997D01*
X73845263Y-112216275D01*
X73832004Y-112209316D01*
X73586540Y-112060928D01*
X73574217Y-112052422D01*
X73348426Y-111875526D01*
X73337218Y-111865596D01*
X73134403Y-111662781D01*
X73124473Y-111651573D01*
X73087594Y-111604500D01*
X72947573Y-111425776D01*
X72939075Y-111413465D01*
X72790680Y-111167989D01*
X72783727Y-111154743D01*
X72666000Y-110893163D01*
X72660693Y-110879167D01*
X72575364Y-110605336D01*
X72571780Y-110590798D01*
X72520076Y-110308659D01*
X72518271Y-110293794D01*
X72500726Y-110003736D01*
X72500500Y-109996249D01*
X72500500Y-107525321D01*
X88459500Y-107525321D01*
X88459500Y-109274678D01*
X88474032Y-109347735D01*
X88474033Y-109347739D01*
X88474034Y-109347740D01*
X88529399Y-109430601D01*
X88612260Y-109485966D01*
X88612264Y-109485967D01*
X88685321Y-109500499D01*
X88685324Y-109500500D01*
X88685326Y-109500500D01*
X90434676Y-109500500D01*
X90434677Y-109500499D01*
X90507740Y-109485966D01*
X90590601Y-109430601D01*
X90645966Y-109347740D01*
X90660500Y-109274674D01*
X90660500Y-108163389D01*
X90999500Y-108163389D01*
X90999500Y-108636610D01*
X91012594Y-108719287D01*
X91026598Y-108807701D01*
X91080127Y-108972445D01*
X91158768Y-109126788D01*
X91260586Y-109266928D01*
X91383072Y-109389414D01*
X91523212Y-109491232D01*
X91677555Y-109569873D01*
X91842299Y-109623402D01*
X92013389Y-109650500D01*
X92013390Y-109650500D01*
X92186610Y-109650500D01*
X92186611Y-109650500D01*
X92357701Y-109623402D01*
X92522445Y-109569873D01*
X92676788Y-109491232D01*
X92816928Y-109389414D01*
X92939414Y-109266928D01*
X93041232Y-109126788D01*
X93119873Y-108972445D01*
X93173402Y-108807701D01*
X93200500Y-108636611D01*
X93200500Y-108163389D01*
X93539500Y-108163389D01*
X93539500Y-108636610D01*
X93552594Y-108719287D01*
X93566598Y-108807701D01*
X93620127Y-108972445D01*
X93698768Y-109126788D01*
X93800586Y-109266928D01*
X93923072Y-109389414D01*
X94063212Y-109491232D01*
X94217555Y-109569873D01*
X94382299Y-109623402D01*
X94553389Y-109650500D01*
X94553390Y-109650500D01*
X94726610Y-109650500D01*
X94726611Y-109650500D01*
X94897701Y-109623402D01*
X95062445Y-109569873D01*
X95216788Y-109491232D01*
X95356928Y-109389414D01*
X95479414Y-109266928D01*
X95581232Y-109126788D01*
X95659873Y-108972445D01*
X95713402Y-108807701D01*
X95740500Y-108636611D01*
X95740500Y-108163389D01*
X96079500Y-108163389D01*
X96079500Y-108636610D01*
X96092594Y-108719287D01*
X96106598Y-108807701D01*
X96160127Y-108972445D01*
X96238768Y-109126788D01*
X96340586Y-109266928D01*
X96463072Y-109389414D01*
X96603212Y-109491232D01*
X96757555Y-109569873D01*
X96922299Y-109623402D01*
X97093389Y-109650500D01*
X97093390Y-109650500D01*
X97266610Y-109650500D01*
X97266611Y-109650500D01*
X97437701Y-109623402D01*
X97602445Y-109569873D01*
X97756788Y-109491232D01*
X97896928Y-109389414D01*
X98019414Y-109266928D01*
X98121232Y-109126788D01*
X98199873Y-108972445D01*
X98253402Y-108807701D01*
X98280500Y-108636611D01*
X98280500Y-108163389D01*
X98619500Y-108163389D01*
X98619500Y-108636610D01*
X98632594Y-108719287D01*
X98646598Y-108807701D01*
X98700127Y-108972445D01*
X98778768Y-109126788D01*
X98880586Y-109266928D01*
X99003072Y-109389414D01*
X99143212Y-109491232D01*
X99297555Y-109569873D01*
X99462299Y-109623402D01*
X99633389Y-109650500D01*
X99633390Y-109650500D01*
X99806610Y-109650500D01*
X99806611Y-109650500D01*
X99977701Y-109623402D01*
X100142445Y-109569873D01*
X100296788Y-109491232D01*
X100436928Y-109389414D01*
X100559414Y-109266928D01*
X100661232Y-109126788D01*
X100739873Y-108972445D01*
X100793402Y-108807701D01*
X100820500Y-108636611D01*
X100820500Y-108163389D01*
X101159500Y-108163389D01*
X101159500Y-108636610D01*
X101172594Y-108719287D01*
X101186598Y-108807701D01*
X101240127Y-108972445D01*
X101318768Y-109126788D01*
X101420586Y-109266928D01*
X101543072Y-109389414D01*
X101683212Y-109491232D01*
X101837555Y-109569873D01*
X102002299Y-109623402D01*
X102173389Y-109650500D01*
X102173390Y-109650500D01*
X102346610Y-109650500D01*
X102346611Y-109650500D01*
X102517701Y-109623402D01*
X102682445Y-109569873D01*
X102836788Y-109491232D01*
X102976928Y-109389414D01*
X103099414Y-109266928D01*
X103201232Y-109126788D01*
X103279873Y-108972445D01*
X103333402Y-108807701D01*
X103360500Y-108636611D01*
X103360500Y-108163389D01*
X103333402Y-107992299D01*
X103279873Y-107827555D01*
X103201232Y-107673212D01*
X103099414Y-107533072D01*
X102976928Y-107410586D01*
X102836788Y-107308768D01*
X102682445Y-107230127D01*
X102517701Y-107176598D01*
X102517699Y-107176597D01*
X102517698Y-107176597D01*
X102386271Y-107155781D01*
X102346611Y-107149500D01*
X102173389Y-107149500D01*
X102133728Y-107155781D01*
X102002302Y-107176597D01*
X101837552Y-107230128D01*
X101683211Y-107308768D01*
X101603256Y-107366859D01*
X101543072Y-107410586D01*
X101543070Y-107410588D01*
X101543069Y-107410588D01*
X101420588Y-107533069D01*
X101420588Y-107533070D01*
X101420586Y-107533072D01*
X101376859Y-107593256D01*
X101318768Y-107673211D01*
X101240128Y-107827552D01*
X101186597Y-107992302D01*
X101159500Y-108163389D01*
X100820500Y-108163389D01*
X100793402Y-107992299D01*
X100739873Y-107827555D01*
X100661232Y-107673212D01*
X100559414Y-107533072D01*
X100436928Y-107410586D01*
X100296788Y-107308768D01*
X100142445Y-107230127D01*
X99977701Y-107176598D01*
X99977699Y-107176597D01*
X99977698Y-107176597D01*
X99846271Y-107155781D01*
X99806611Y-107149500D01*
X99633389Y-107149500D01*
X99593728Y-107155781D01*
X99462302Y-107176597D01*
X99297552Y-107230128D01*
X99143211Y-107308768D01*
X99063256Y-107366859D01*
X99003072Y-107410586D01*
X99003070Y-107410588D01*
X99003069Y-107410588D01*
X98880588Y-107533069D01*
X98880588Y-107533070D01*
X98880586Y-107533072D01*
X98836859Y-107593256D01*
X98778768Y-107673211D01*
X98700128Y-107827552D01*
X98646597Y-107992302D01*
X98619500Y-108163389D01*
X98280500Y-108163389D01*
X98253402Y-107992299D01*
X98199873Y-107827555D01*
X98121232Y-107673212D01*
X98019414Y-107533072D01*
X97896928Y-107410586D01*
X97756788Y-107308768D01*
X97602445Y-107230127D01*
X97437701Y-107176598D01*
X97437699Y-107176597D01*
X97437698Y-107176597D01*
X97306271Y-107155781D01*
X97266611Y-107149500D01*
X97093389Y-107149500D01*
X97053728Y-107155781D01*
X96922302Y-107176597D01*
X96757552Y-107230128D01*
X96603211Y-107308768D01*
X96523256Y-107366859D01*
X96463072Y-107410586D01*
X96463070Y-107410588D01*
X96463069Y-107410588D01*
X96340588Y-107533069D01*
X96340588Y-107533070D01*
X96340586Y-107533072D01*
X96296859Y-107593256D01*
X96238768Y-107673211D01*
X96160128Y-107827552D01*
X96106597Y-107992302D01*
X96079500Y-108163389D01*
X95740500Y-108163389D01*
X95713402Y-107992299D01*
X95659873Y-107827555D01*
X95581232Y-107673212D01*
X95479414Y-107533072D01*
X95356928Y-107410586D01*
X95216788Y-107308768D01*
X95062445Y-107230127D01*
X94897701Y-107176598D01*
X94897699Y-107176597D01*
X94897698Y-107176597D01*
X94766271Y-107155781D01*
X94726611Y-107149500D01*
X94553389Y-107149500D01*
X94513728Y-107155781D01*
X94382302Y-107176597D01*
X94217552Y-107230128D01*
X94063211Y-107308768D01*
X93983256Y-107366859D01*
X93923072Y-107410586D01*
X93923070Y-107410588D01*
X93923069Y-107410588D01*
X93800588Y-107533069D01*
X93800588Y-107533070D01*
X93800586Y-107533072D01*
X93756859Y-107593256D01*
X93698768Y-107673211D01*
X93620128Y-107827552D01*
X93566597Y-107992302D01*
X93539500Y-108163389D01*
X93200500Y-108163389D01*
X93173402Y-107992299D01*
X93119873Y-107827555D01*
X93041232Y-107673212D01*
X92939414Y-107533072D01*
X92816928Y-107410586D01*
X92676788Y-107308768D01*
X92522445Y-107230127D01*
X92357701Y-107176598D01*
X92357699Y-107176597D01*
X92357698Y-107176597D01*
X92226271Y-107155781D01*
X92186611Y-107149500D01*
X92013389Y-107149500D01*
X91973728Y-107155781D01*
X91842302Y-107176597D01*
X91677552Y-107230128D01*
X91523211Y-107308768D01*
X91443256Y-107366859D01*
X91383072Y-107410586D01*
X91383070Y-107410588D01*
X91383069Y-107410588D01*
X91260588Y-107533069D01*
X91260588Y-107533070D01*
X91260586Y-107533072D01*
X91216859Y-107593256D01*
X91158768Y-107673211D01*
X91080128Y-107827552D01*
X91026597Y-107992302D01*
X90999500Y-108163389D01*
X90660500Y-108163389D01*
X90660500Y-107525326D01*
X90660500Y-107525323D01*
X90660499Y-107525321D01*
X90645967Y-107452264D01*
X90645966Y-107452260D01*
X90618122Y-107410588D01*
X90590601Y-107369399D01*
X90507740Y-107314034D01*
X90507739Y-107314033D01*
X90507735Y-107314032D01*
X90434677Y-107299500D01*
X90434674Y-107299500D01*
X88685326Y-107299500D01*
X88685323Y-107299500D01*
X88612264Y-107314032D01*
X88612260Y-107314033D01*
X88529399Y-107369399D01*
X88474033Y-107452260D01*
X88474032Y-107452264D01*
X88459500Y-107525321D01*
X72500500Y-107525321D01*
X72500500Y-91434108D01*
X72999500Y-91434108D01*
X72999500Y-102565891D01*
X73033608Y-102693187D01*
X73066554Y-102750250D01*
X73099500Y-102807314D01*
X75192686Y-104900500D01*
X75306814Y-104966392D01*
X75434107Y-105000500D01*
X75434108Y-105000500D01*
X102241324Y-105000500D01*
X102308363Y-105020185D01*
X102329005Y-105036819D01*
X104263181Y-106970994D01*
X104277884Y-106997921D01*
X104294477Y-107023740D01*
X104295368Y-107029940D01*
X104296666Y-107032317D01*
X104299500Y-107058675D01*
X104299500Y-107193909D01*
X104279815Y-107260948D01*
X104231801Y-107304391D01*
X104223212Y-107308767D01*
X104139761Y-107369399D01*
X104083072Y-107410586D01*
X104083070Y-107410588D01*
X104083069Y-107410588D01*
X103960588Y-107533069D01*
X103960588Y-107533070D01*
X103960586Y-107533072D01*
X103916859Y-107593256D01*
X103858768Y-107673211D01*
X103780128Y-107827552D01*
X103726597Y-107992302D01*
X103699500Y-108163389D01*
X103699500Y-108636610D01*
X103712594Y-108719287D01*
X103726598Y-108807701D01*
X103780127Y-108972445D01*
X103858768Y-109126788D01*
X103960586Y-109266928D01*
X104083072Y-109389414D01*
X104223212Y-109491232D01*
X104377555Y-109569873D01*
X104542299Y-109623402D01*
X104713389Y-109650500D01*
X104713390Y-109650500D01*
X104886610Y-109650500D01*
X104886611Y-109650500D01*
X105057701Y-109623402D01*
X105222445Y-109569873D01*
X105376788Y-109491232D01*
X105516928Y-109389414D01*
X105639414Y-109266928D01*
X105741232Y-109126788D01*
X105819873Y-108972445D01*
X105873402Y-108807701D01*
X105900500Y-108636611D01*
X105900500Y-108163389D01*
X105873402Y-107992299D01*
X105819873Y-107827555D01*
X105741232Y-107673212D01*
X105639414Y-107533072D01*
X105516928Y-107410586D01*
X105384035Y-107314033D01*
X105376787Y-107308767D01*
X105368199Y-107304391D01*
X105317406Y-107256414D01*
X105300500Y-107193909D01*
X105300500Y-106734110D01*
X105300500Y-106734108D01*
X105266392Y-106606814D01*
X105200500Y-106492686D01*
X105107314Y-106399500D01*
X105107313Y-106399499D01*
X105102983Y-106395169D01*
X105102972Y-106395159D01*
X103955895Y-105248082D01*
X102807314Y-104099500D01*
X102750250Y-104066554D01*
X102693187Y-104033608D01*
X102629539Y-104016554D01*
X102565892Y-103999500D01*
X102565891Y-103999500D01*
X75758676Y-103999500D01*
X75691637Y-103979815D01*
X75670995Y-103963181D01*
X74221203Y-102513389D01*
X76174500Y-102513389D01*
X76174500Y-102686611D01*
X76201598Y-102857701D01*
X76255127Y-103022445D01*
X76333768Y-103176788D01*
X76435586Y-103316928D01*
X76558072Y-103439414D01*
X76698212Y-103541232D01*
X76852555Y-103619873D01*
X77017299Y-103673402D01*
X77188389Y-103700500D01*
X77188390Y-103700500D01*
X77611610Y-103700500D01*
X77611611Y-103700500D01*
X77782701Y-103673402D01*
X77947445Y-103619873D01*
X78101788Y-103541232D01*
X78241928Y-103439414D01*
X78364414Y-103316928D01*
X78466232Y-103176788D01*
X78470607Y-103168202D01*
X78518582Y-103117408D01*
X78581090Y-103100500D01*
X103341324Y-103100500D01*
X103408363Y-103120185D01*
X103429005Y-103136819D01*
X106803181Y-106510995D01*
X106836666Y-106572318D01*
X106839500Y-106598676D01*
X106839500Y-107193909D01*
X106819815Y-107260948D01*
X106771801Y-107304391D01*
X106763212Y-107308767D01*
X106679761Y-107369399D01*
X106623072Y-107410586D01*
X106623070Y-107410588D01*
X106623069Y-107410588D01*
X106500588Y-107533069D01*
X106500588Y-107533070D01*
X106500586Y-107533072D01*
X106456859Y-107593256D01*
X106398768Y-107673211D01*
X106320128Y-107827552D01*
X106266597Y-107992302D01*
X106239500Y-108163389D01*
X106239500Y-108636610D01*
X106252594Y-108719287D01*
X106266598Y-108807701D01*
X106320127Y-108972445D01*
X106398768Y-109126788D01*
X106500586Y-109266928D01*
X106623072Y-109389414D01*
X106763212Y-109491232D01*
X106917555Y-109569873D01*
X107082299Y-109623402D01*
X107253389Y-109650500D01*
X107253390Y-109650500D01*
X107426610Y-109650500D01*
X107426611Y-109650500D01*
X107597701Y-109623402D01*
X107762445Y-109569873D01*
X107916788Y-109491232D01*
X108056928Y-109389414D01*
X108179414Y-109266928D01*
X108281232Y-109126788D01*
X108359873Y-108972445D01*
X108413402Y-108807701D01*
X108440500Y-108636611D01*
X108440500Y-108163389D01*
X108779500Y-108163389D01*
X108779500Y-108636610D01*
X108792594Y-108719287D01*
X108806598Y-108807701D01*
X108860127Y-108972445D01*
X108938768Y-109126788D01*
X109040586Y-109266928D01*
X109163072Y-109389414D01*
X109303212Y-109491232D01*
X109457555Y-109569873D01*
X109622299Y-109623402D01*
X109793389Y-109650500D01*
X109793390Y-109650500D01*
X109966610Y-109650500D01*
X109966611Y-109650500D01*
X110137701Y-109623402D01*
X110302445Y-109569873D01*
X110456788Y-109491232D01*
X110596928Y-109389414D01*
X110719414Y-109266928D01*
X110821232Y-109126788D01*
X110899873Y-108972445D01*
X110953402Y-108807701D01*
X110980500Y-108636611D01*
X110980500Y-108163389D01*
X110953402Y-107992299D01*
X110899873Y-107827555D01*
X110821232Y-107673212D01*
X110719414Y-107533072D01*
X110596928Y-107410586D01*
X110464035Y-107314033D01*
X110456787Y-107308767D01*
X110448199Y-107304391D01*
X110397406Y-107256414D01*
X110380500Y-107193909D01*
X110380500Y-106778676D01*
X110400185Y-106711637D01*
X110416819Y-106690995D01*
X112191586Y-104916228D01*
X113949500Y-104916228D01*
X113949500Y-105083771D01*
X113982182Y-105248074D01*
X113982184Y-105248082D01*
X114046295Y-105402860D01*
X114139373Y-105542162D01*
X114257837Y-105660626D01*
X114350494Y-105722537D01*
X114397137Y-105753703D01*
X114551918Y-105817816D01*
X114716228Y-105850499D01*
X114716232Y-105850500D01*
X114716233Y-105850500D01*
X114883768Y-105850500D01*
X114883769Y-105850499D01*
X115048082Y-105817816D01*
X115202863Y-105753703D01*
X115342162Y-105660626D01*
X115460626Y-105542162D01*
X115553703Y-105402863D01*
X115617816Y-105248082D01*
X115650500Y-105083767D01*
X115650500Y-104916233D01*
X115637063Y-104848683D01*
X115643289Y-104779096D01*
X115670997Y-104736815D01*
X120493187Y-99914627D01*
X133749500Y-99914627D01*
X133749500Y-99914634D01*
X133749500Y-99914635D01*
X133749500Y-100535370D01*
X133749501Y-100535376D01*
X133755908Y-100594983D01*
X133806202Y-100729828D01*
X133806206Y-100729835D01*
X133892452Y-100845044D01*
X133892455Y-100845047D01*
X134007664Y-100931293D01*
X134007671Y-100931297D01*
X134142517Y-100981591D01*
X134142516Y-100981591D01*
X134149444Y-100982335D01*
X134202127Y-100988000D01*
X135197872Y-100987999D01*
X135257483Y-100981591D01*
X135392331Y-100931296D01*
X135507546Y-100845046D01*
X135559842Y-100775187D01*
X135615774Y-100733318D01*
X135659107Y-100725500D01*
X142365890Y-100725500D01*
X142365892Y-100725500D01*
X142493186Y-100691392D01*
X142607314Y-100625500D01*
X143212398Y-100020414D01*
X143273719Y-99986931D01*
X143319469Y-99985624D01*
X143413389Y-100000500D01*
X143413391Y-100000500D01*
X143836610Y-100000500D01*
X143836611Y-100000500D01*
X144007701Y-99973402D01*
X144172445Y-99919873D01*
X144326788Y-99841232D01*
X144466928Y-99739414D01*
X144589414Y-99616928D01*
X144691232Y-99476788D01*
X144769873Y-99322445D01*
X144823402Y-99157701D01*
X144850500Y-98986611D01*
X144850500Y-98813389D01*
X144823402Y-98642299D01*
X144769873Y-98477555D01*
X144691232Y-98323212D01*
X144589414Y-98183072D01*
X144466928Y-98060586D01*
X144326788Y-97958768D01*
X144201999Y-97895185D01*
X144151203Y-97847210D01*
X144134408Y-97779389D01*
X144156945Y-97713255D01*
X144211660Y-97669803D01*
X144219978Y-97666768D01*
X144268219Y-97651094D01*
X144457557Y-97554620D01*
X144629459Y-97429727D01*
X144629464Y-97429723D01*
X144779723Y-97279464D01*
X144779727Y-97279459D01*
X144904620Y-97107557D01*
X145001095Y-96918217D01*
X145066757Y-96716129D01*
X145066757Y-96716126D01*
X145077231Y-96650000D01*
X144029146Y-96650000D01*
X144067630Y-96583343D01*
X144100000Y-96462535D01*
X144100000Y-96337465D01*
X144067630Y-96216657D01*
X144029146Y-96150000D01*
X145077231Y-96150000D01*
X145066757Y-96083873D01*
X145066757Y-96083870D01*
X145007011Y-95899989D01*
X145005016Y-95830148D01*
X145041097Y-95770315D01*
X145103798Y-95739487D01*
X145173212Y-95747452D01*
X145212623Y-95773990D01*
X145413181Y-95974548D01*
X145446666Y-96035871D01*
X145449500Y-96062229D01*
X145449500Y-103837770D01*
X145429815Y-103904809D01*
X145413181Y-103925451D01*
X141725451Y-107613181D01*
X141664128Y-107646666D01*
X141637770Y-107649500D01*
X136267185Y-107649500D01*
X136200146Y-107629815D01*
X136166867Y-107598386D01*
X136119414Y-107533072D01*
X135996928Y-107410586D01*
X135856788Y-107308768D01*
X135702445Y-107230127D01*
X135537701Y-107176598D01*
X135537699Y-107176597D01*
X135537698Y-107176597D01*
X135406271Y-107155781D01*
X135366611Y-107149500D01*
X135193389Y-107149500D01*
X135153728Y-107155781D01*
X135022302Y-107176597D01*
X134857552Y-107230128D01*
X134703211Y-107308768D01*
X134623256Y-107366859D01*
X134563072Y-107410586D01*
X134563070Y-107410588D01*
X134563069Y-107410588D01*
X134440588Y-107533069D01*
X134440588Y-107533070D01*
X134440586Y-107533072D01*
X134396859Y-107593256D01*
X134338768Y-107673211D01*
X134260128Y-107827552D01*
X134206597Y-107992302D01*
X134179500Y-108163389D01*
X134179500Y-108636610D01*
X134192594Y-108719287D01*
X134206598Y-108807701D01*
X134260127Y-108972445D01*
X134338768Y-109126788D01*
X134440586Y-109266928D01*
X134563072Y-109389414D01*
X134703212Y-109491232D01*
X134857555Y-109569873D01*
X135022299Y-109623402D01*
X135193389Y-109650500D01*
X135193390Y-109650500D01*
X135366610Y-109650500D01*
X135366611Y-109650500D01*
X135537701Y-109623402D01*
X135702445Y-109569873D01*
X135856788Y-109491232D01*
X135996928Y-109389414D01*
X136119414Y-109266928D01*
X136166868Y-109201613D01*
X136222197Y-109158949D01*
X136267185Y-109150500D01*
X142073920Y-109150500D01*
X142193123Y-109126788D01*
X142218913Y-109121658D01*
X142355495Y-109065084D01*
X142404729Y-109032186D01*
X142478416Y-108982952D01*
X146782952Y-104678416D01*
X146840234Y-104592686D01*
X146865084Y-104555495D01*
X146921658Y-104418913D01*
X146950500Y-104273918D01*
X146950500Y-95626082D01*
X146950500Y-95626079D01*
X146921659Y-95481092D01*
X146921658Y-95481091D01*
X146921658Y-95481087D01*
X146870550Y-95357701D01*
X146865087Y-95344511D01*
X146865080Y-95344498D01*
X146782952Y-95221585D01*
X146747977Y-95186610D01*
X146678416Y-95117049D01*
X145821953Y-94260586D01*
X144885889Y-93324521D01*
X144852404Y-93263198D01*
X144850280Y-93250093D01*
X144848926Y-93237500D01*
X144844091Y-93192517D01*
X144838224Y-93176788D01*
X144793797Y-93057671D01*
X144793793Y-93057664D01*
X144707547Y-92942455D01*
X144707544Y-92942452D01*
X144592335Y-92856206D01*
X144592328Y-92856202D01*
X144457482Y-92805908D01*
X144457483Y-92805908D01*
X144397883Y-92799501D01*
X144397881Y-92799500D01*
X144397873Y-92799500D01*
X144397864Y-92799500D01*
X142852129Y-92799500D01*
X142852123Y-92799501D01*
X142792516Y-92805908D01*
X142657671Y-92856202D01*
X142657664Y-92856206D01*
X142542455Y-92942452D01*
X142542452Y-92942455D01*
X142456206Y-93057664D01*
X142456202Y-93057671D01*
X142405908Y-93192517D01*
X142399501Y-93252116D01*
X142399500Y-93252135D01*
X142399500Y-94547870D01*
X142399501Y-94547876D01*
X142405908Y-94607483D01*
X142456202Y-94742328D01*
X142456206Y-94742335D01*
X142542452Y-94857544D01*
X142542455Y-94857547D01*
X142657664Y-94943793D01*
X142657671Y-94943797D01*
X142792517Y-94994091D01*
X142800062Y-94995874D01*
X142799296Y-94999113D01*
X142849848Y-95020052D01*
X142889696Y-95077444D01*
X142892190Y-95147269D01*
X142856538Y-95207358D01*
X142828339Y-95227088D01*
X142792442Y-95245378D01*
X142620540Y-95370272D01*
X142620535Y-95370276D01*
X142470276Y-95520535D01*
X142470272Y-95520540D01*
X142345379Y-95692442D01*
X142248904Y-95881782D01*
X142183242Y-96083870D01*
X142183242Y-96083873D01*
X142172769Y-96150000D01*
X143220854Y-96150000D01*
X143182370Y-96216657D01*
X143150000Y-96337465D01*
X143150000Y-96462535D01*
X143182370Y-96583343D01*
X143220854Y-96650000D01*
X142172769Y-96650000D01*
X142183242Y-96716126D01*
X142183242Y-96716129D01*
X142248904Y-96918217D01*
X142345379Y-97107557D01*
X142470272Y-97279459D01*
X142470276Y-97279464D01*
X142620535Y-97429723D01*
X142620540Y-97429727D01*
X142792442Y-97554620D01*
X142981778Y-97651093D01*
X143030022Y-97666768D01*
X143087698Y-97706205D01*
X143114897Y-97770563D01*
X143102983Y-97839410D01*
X143055740Y-97890886D01*
X143048000Y-97895185D01*
X142923211Y-97958768D01*
X142865777Y-98000497D01*
X142783072Y-98060586D01*
X142783070Y-98060588D01*
X142783069Y-98060588D01*
X142660588Y-98183069D01*
X142660588Y-98183070D01*
X142660586Y-98183072D01*
X142616859Y-98243256D01*
X142558768Y-98323211D01*
X142480128Y-98477552D01*
X142426597Y-98642302D01*
X142415816Y-98710373D01*
X142399500Y-98813389D01*
X142399500Y-98986611D01*
X142404795Y-99020044D01*
X142426597Y-99157698D01*
X142460229Y-99261206D01*
X142462224Y-99331047D01*
X142429979Y-99387205D01*
X142129003Y-99688182D01*
X142067682Y-99721666D01*
X142041324Y-99724500D01*
X135659107Y-99724500D01*
X135592068Y-99704815D01*
X135559843Y-99674814D01*
X135507546Y-99604954D01*
X135507544Y-99604952D01*
X135507543Y-99604951D01*
X135392335Y-99518706D01*
X135392328Y-99518702D01*
X135257482Y-99468408D01*
X135257483Y-99468408D01*
X135197883Y-99462001D01*
X135197881Y-99462000D01*
X135197873Y-99462000D01*
X135197864Y-99462000D01*
X134202129Y-99462000D01*
X134202123Y-99462001D01*
X134142516Y-99468408D01*
X134007671Y-99518702D01*
X134007664Y-99518706D01*
X133892455Y-99604952D01*
X133892452Y-99604955D01*
X133806206Y-99720164D01*
X133806202Y-99720171D01*
X133760651Y-99842302D01*
X133755909Y-99855017D01*
X133749500Y-99914627D01*
X120493187Y-99914627D01*
X121470995Y-98936819D01*
X121532318Y-98903334D01*
X121558676Y-98900500D01*
X133740893Y-98900500D01*
X133807932Y-98920185D01*
X133840156Y-98950185D01*
X133892454Y-99020046D01*
X133892455Y-99020046D01*
X133892456Y-99020048D01*
X134007664Y-99106293D01*
X134007671Y-99106297D01*
X134142517Y-99156591D01*
X134142516Y-99156591D01*
X134149444Y-99157335D01*
X134202127Y-99163000D01*
X135197872Y-99162999D01*
X135257483Y-99156591D01*
X135392331Y-99106296D01*
X135507546Y-99020046D01*
X135593796Y-98904831D01*
X135644091Y-98769983D01*
X135650500Y-98710373D01*
X135650499Y-98089628D01*
X135644091Y-98030017D01*
X135595411Y-97899500D01*
X135593797Y-97895171D01*
X135593793Y-97895164D01*
X135507547Y-97779955D01*
X135507544Y-97779952D01*
X135392335Y-97693706D01*
X135392329Y-97693703D01*
X135281166Y-97652241D01*
X135225233Y-97610369D01*
X135200816Y-97544905D01*
X135200500Y-97536059D01*
X135200500Y-96176439D01*
X135220185Y-96109400D01*
X135272989Y-96063645D01*
X135281168Y-96060257D01*
X135392326Y-96018798D01*
X135392326Y-96018797D01*
X135392331Y-96018796D01*
X135507546Y-95932546D01*
X135593796Y-95817331D01*
X135644091Y-95682483D01*
X135650500Y-95622873D01*
X135650499Y-95002128D01*
X135644229Y-94943797D01*
X135644091Y-94942516D01*
X135593797Y-94807671D01*
X135593793Y-94807664D01*
X135507547Y-94692455D01*
X135487643Y-94677555D01*
X135446157Y-94646498D01*
X135404287Y-94590564D01*
X135399303Y-94520872D01*
X135432789Y-94459550D01*
X135463090Y-94438335D01*
X135462975Y-94438149D01*
X135466189Y-94436166D01*
X135468081Y-94434842D01*
X135469126Y-94434354D01*
X135618345Y-94342315D01*
X135742315Y-94218345D01*
X135834356Y-94069124D01*
X135834358Y-94069119D01*
X135889505Y-93902697D01*
X135889506Y-93902690D01*
X135899999Y-93799986D01*
X135900000Y-93799973D01*
X135900000Y-93737500D01*
X133500001Y-93737500D01*
X133500001Y-93799986D01*
X133510494Y-93902697D01*
X133565641Y-94069119D01*
X133565643Y-94069124D01*
X133657684Y-94218345D01*
X133781654Y-94342315D01*
X133930877Y-94434356D01*
X133931924Y-94434845D01*
X133932522Y-94435371D01*
X133937025Y-94438149D01*
X133936550Y-94438917D01*
X133984368Y-94481012D01*
X134003526Y-94548204D01*
X133983317Y-94615087D01*
X133953842Y-94646498D01*
X133892452Y-94692455D01*
X133806206Y-94807664D01*
X133806202Y-94807671D01*
X133755910Y-94942513D01*
X133755909Y-94942517D01*
X133749500Y-95002127D01*
X133749500Y-95002134D01*
X133749500Y-95002135D01*
X133749500Y-95622870D01*
X133749501Y-95622876D01*
X133755908Y-95682483D01*
X133806202Y-95817328D01*
X133806206Y-95817335D01*
X133892452Y-95932544D01*
X133892455Y-95932547D01*
X134007664Y-96018793D01*
X134007673Y-96018798D01*
X134118832Y-96060257D01*
X134174766Y-96102127D01*
X134199184Y-96167592D01*
X134199500Y-96176439D01*
X134199500Y-97536060D01*
X134179815Y-97603099D01*
X134127011Y-97648854D01*
X134118833Y-97652242D01*
X134007671Y-97693702D01*
X134007664Y-97693706D01*
X133892456Y-97779951D01*
X133892454Y-97779954D01*
X133840157Y-97849812D01*
X133784226Y-97891682D01*
X133740893Y-97899500D01*
X121234107Y-97899500D01*
X121106812Y-97933608D01*
X120992686Y-97999500D01*
X120992683Y-97999502D01*
X114879005Y-104113181D01*
X114817682Y-104146666D01*
X114791324Y-104149500D01*
X114716228Y-104149500D01*
X114551925Y-104182182D01*
X114551917Y-104182184D01*
X114397139Y-104246295D01*
X114257837Y-104339373D01*
X114139373Y-104457837D01*
X114046295Y-104597139D01*
X113982184Y-104751917D01*
X113982182Y-104751925D01*
X113949500Y-104916228D01*
X112191586Y-104916228D01*
X123932801Y-93175013D01*
X133500000Y-93175013D01*
X133500000Y-93237500D01*
X134450000Y-93237500D01*
X134950000Y-93237500D01*
X135899999Y-93237500D01*
X135899999Y-93175028D01*
X135899998Y-93175013D01*
X135889505Y-93072302D01*
X135834358Y-92905880D01*
X135834356Y-92905875D01*
X135742315Y-92756654D01*
X135618345Y-92632684D01*
X135469124Y-92540643D01*
X135469119Y-92540641D01*
X135302697Y-92485494D01*
X135302690Y-92485493D01*
X135199986Y-92475000D01*
X134950000Y-92475000D01*
X134950000Y-93237500D01*
X134450000Y-93237500D01*
X134450000Y-92475000D01*
X134200029Y-92475000D01*
X134200012Y-92475001D01*
X134097302Y-92485494D01*
X133930880Y-92540641D01*
X133930875Y-92540643D01*
X133781654Y-92632684D01*
X133657684Y-92756654D01*
X133565643Y-92905875D01*
X133565641Y-92905880D01*
X133510494Y-93072302D01*
X133510493Y-93072309D01*
X133500000Y-93175013D01*
X123932801Y-93175013D01*
X127670995Y-89436819D01*
X127732318Y-89403334D01*
X127758676Y-89400500D01*
X136965890Y-89400500D01*
X136965892Y-89400500D01*
X137093186Y-89366392D01*
X137207314Y-89300500D01*
X138800499Y-87707315D01*
X138866392Y-87593186D01*
X138900500Y-87465893D01*
X138900500Y-87334108D01*
X138900500Y-81334108D01*
X138866392Y-81206814D01*
X138800500Y-81092686D01*
X138707314Y-80999500D01*
X134507314Y-76799500D01*
X134444214Y-76763069D01*
X134393187Y-76733608D01*
X134329539Y-76716554D01*
X134265892Y-76699500D01*
X134265891Y-76699500D01*
X131376440Y-76699500D01*
X131309401Y-76679815D01*
X131263646Y-76627011D01*
X131260258Y-76618833D01*
X131218797Y-76507671D01*
X131218793Y-76507664D01*
X131132547Y-76392455D01*
X131132544Y-76392452D01*
X131040124Y-76323266D01*
X130998253Y-76267332D01*
X130993269Y-76197641D01*
X131026755Y-76136318D01*
X131088078Y-76102834D01*
X131114435Y-76100000D01*
X131730328Y-76100000D01*
X131730344Y-76099999D01*
X131789872Y-76093598D01*
X131789879Y-76093596D01*
X131924586Y-76043354D01*
X131924593Y-76043350D01*
X132039687Y-75957190D01*
X132039690Y-75957187D01*
X132125850Y-75842093D01*
X132125854Y-75842086D01*
X132176096Y-75707379D01*
X132176098Y-75707372D01*
X132182499Y-75647844D01*
X132182500Y-75647827D01*
X132182500Y-74950000D01*
X131157778Y-74950000D01*
X131201833Y-74873694D01*
X131232500Y-74759244D01*
X131232500Y-74640756D01*
X131201833Y-74526306D01*
X131157778Y-74450000D01*
X132182500Y-74450000D01*
X132182500Y-73752172D01*
X132182499Y-73752155D01*
X132176098Y-73692627D01*
X132176096Y-73692620D01*
X132125854Y-73557913D01*
X132125850Y-73557906D01*
X132039690Y-73442812D01*
X132039687Y-73442809D01*
X131924593Y-73356649D01*
X131924586Y-73356645D01*
X131789879Y-73306403D01*
X131789872Y-73306401D01*
X131730344Y-73300000D01*
X131032500Y-73300000D01*
X131032500Y-74324722D01*
X130956194Y-74280667D01*
X130841744Y-74250000D01*
X130723256Y-74250000D01*
X130608806Y-74280667D01*
X130532500Y-74324722D01*
X130532500Y-73300000D01*
X129834655Y-73300000D01*
X129775127Y-73306401D01*
X129775120Y-73306403D01*
X129640413Y-73356645D01*
X129640406Y-73356649D01*
X129525312Y-73442809D01*
X129525309Y-73442812D01*
X129439149Y-73557906D01*
X129439145Y-73557913D01*
X129388903Y-73692620D01*
X129388901Y-73692627D01*
X129382500Y-73752155D01*
X129382500Y-73930093D01*
X129362815Y-73997132D01*
X129310011Y-74042887D01*
X129240853Y-74052831D01*
X129177297Y-74023806D01*
X129158182Y-74002978D01*
X129120058Y-73950505D01*
X129120054Y-73950500D01*
X128991999Y-73822445D01*
X128991994Y-73822441D01*
X128845497Y-73716006D01*
X128845496Y-73716005D01*
X128845494Y-73716004D01*
X128793800Y-73689664D01*
X128684139Y-73633788D01*
X128684136Y-73633787D01*
X128511910Y-73577829D01*
X128333051Y-73549500D01*
X128333046Y-73549500D01*
X128151954Y-73549500D01*
X128151949Y-73549500D01*
X127973089Y-73577829D01*
X127800863Y-73633787D01*
X127800860Y-73633788D01*
X127639502Y-73716006D01*
X127493005Y-73822441D01*
X127493000Y-73822445D01*
X127364945Y-73950500D01*
X127364941Y-73950505D01*
X127258506Y-74097002D01*
X127176288Y-74258360D01*
X127176287Y-74258363D01*
X127120329Y-74430589D01*
X127092000Y-74609448D01*
X127092000Y-74790551D01*
X127120329Y-74969409D01*
X127176287Y-75141636D01*
X127176288Y-75141639D01*
X127258506Y-75302997D01*
X127364941Y-75449494D01*
X127364945Y-75449499D01*
X127493000Y-75577554D01*
X127493005Y-75577558D01*
X127639501Y-75683993D01*
X127639503Y-75683994D01*
X127639506Y-75683996D01*
X127674294Y-75701721D01*
X127725090Y-75749694D01*
X127742000Y-75812206D01*
X127742000Y-76689108D01*
X127742000Y-76820892D01*
X127753580Y-76864108D01*
X127776108Y-76948187D01*
X127803651Y-76995892D01*
X127842000Y-77062314D01*
X127842002Y-77062316D01*
X127888181Y-77108495D01*
X127921666Y-77169818D01*
X127924500Y-77196176D01*
X127924500Y-77697870D01*
X127924501Y-77697876D01*
X127930908Y-77757483D01*
X127981202Y-77892328D01*
X127981206Y-77892335D01*
X128067452Y-78007544D01*
X128067455Y-78007547D01*
X128182664Y-78093793D01*
X128182671Y-78093797D01*
X128227618Y-78110561D01*
X128317517Y-78144091D01*
X128377127Y-78150500D01*
X128997872Y-78150499D01*
X129057483Y-78144091D01*
X129192331Y-78093796D01*
X129307546Y-78007546D01*
X129393796Y-77892331D01*
X129444091Y-77757483D01*
X129450500Y-77697873D01*
X129450499Y-76702128D01*
X129444091Y-76642517D01*
X129435257Y-76618833D01*
X129393797Y-76507671D01*
X129393793Y-76507664D01*
X129307547Y-76392455D01*
X129307544Y-76392452D01*
X129192335Y-76306206D01*
X129192328Y-76306202D01*
X129057482Y-76255908D01*
X129057483Y-76255908D01*
X128997883Y-76249501D01*
X128997881Y-76249500D01*
X128997873Y-76249500D01*
X128997865Y-76249500D01*
X128867000Y-76249500D01*
X128799961Y-76229815D01*
X128754206Y-76177011D01*
X128743000Y-76125500D01*
X128743000Y-75812206D01*
X128762685Y-75745167D01*
X128810705Y-75701721D01*
X128845494Y-75683996D01*
X128992001Y-75577553D01*
X129120053Y-75449501D01*
X129158181Y-75397021D01*
X129213511Y-75354355D01*
X129283124Y-75348375D01*
X129344919Y-75380981D01*
X129379277Y-75441819D01*
X129382500Y-75469906D01*
X129382500Y-75647844D01*
X129388901Y-75707372D01*
X129388903Y-75707379D01*
X129439145Y-75842086D01*
X129439149Y-75842093D01*
X129525309Y-75957187D01*
X129525312Y-75957190D01*
X129640406Y-76043350D01*
X129640413Y-76043354D01*
X129775120Y-76093596D01*
X129775127Y-76093598D01*
X129834655Y-76099999D01*
X129834672Y-76100000D01*
X129910565Y-76100000D01*
X129977604Y-76119685D01*
X130023359Y-76172489D01*
X130033303Y-76241647D01*
X130004278Y-76305203D01*
X129984876Y-76323266D01*
X129892455Y-76392452D01*
X129892452Y-76392455D01*
X129806206Y-76507664D01*
X129806202Y-76507671D01*
X129755908Y-76642517D01*
X129749782Y-76699500D01*
X129749501Y-76702123D01*
X129749500Y-76702135D01*
X129749500Y-77697870D01*
X129749501Y-77697876D01*
X129755908Y-77757483D01*
X129806202Y-77892328D01*
X129806206Y-77892335D01*
X129892452Y-78007544D01*
X129892455Y-78007547D01*
X130007664Y-78093793D01*
X130007671Y-78093797D01*
X130052618Y-78110561D01*
X130142517Y-78144091D01*
X130202127Y-78150500D01*
X130822872Y-78150499D01*
X130882483Y-78144091D01*
X131017331Y-78093796D01*
X131132546Y-78007546D01*
X131218796Y-77892331D01*
X131233998Y-77851572D01*
X131260258Y-77781167D01*
X131302129Y-77725233D01*
X131367593Y-77700816D01*
X131376440Y-77700500D01*
X133941324Y-77700500D01*
X134008363Y-77720185D01*
X134029005Y-77736819D01*
X137863181Y-81570995D01*
X137896666Y-81632318D01*
X137899500Y-81658676D01*
X137899500Y-87141324D01*
X137879815Y-87208363D01*
X137863181Y-87229005D01*
X136729005Y-88363181D01*
X136667682Y-88396666D01*
X136641324Y-88399500D01*
X127434108Y-88399500D01*
X127306812Y-88433608D01*
X127192686Y-88499500D01*
X127192683Y-88499502D01*
X109479502Y-106212683D01*
X109479500Y-106212686D01*
X109413608Y-106326812D01*
X109379500Y-106454108D01*
X109379500Y-107193909D01*
X109359815Y-107260948D01*
X109311801Y-107304391D01*
X109303212Y-107308767D01*
X109219761Y-107369399D01*
X109163072Y-107410586D01*
X109163070Y-107410588D01*
X109163069Y-107410588D01*
X109040588Y-107533069D01*
X109040588Y-107533070D01*
X109040586Y-107533072D01*
X108996859Y-107593256D01*
X108938768Y-107673211D01*
X108860128Y-107827552D01*
X108806597Y-107992302D01*
X108779500Y-108163389D01*
X108440500Y-108163389D01*
X108413402Y-107992299D01*
X108359873Y-107827555D01*
X108281232Y-107673212D01*
X108179414Y-107533072D01*
X108056928Y-107410586D01*
X107924035Y-107314033D01*
X107916787Y-107308767D01*
X107908199Y-107304391D01*
X107857406Y-107256414D01*
X107840500Y-107193909D01*
X107840500Y-106274110D01*
X107840500Y-106274108D01*
X107806392Y-106146814D01*
X107740500Y-106032686D01*
X107647314Y-105939500D01*
X103907314Y-102199500D01*
X103850250Y-102166554D01*
X103793187Y-102133608D01*
X103729539Y-102116554D01*
X103665892Y-102099500D01*
X103665891Y-102099500D01*
X78581090Y-102099500D01*
X78514051Y-102079815D01*
X78470607Y-102031798D01*
X78466234Y-102023216D01*
X78466229Y-102023207D01*
X78436672Y-101982526D01*
X78364414Y-101883072D01*
X78241928Y-101760586D01*
X78101788Y-101658768D01*
X77947445Y-101580127D01*
X77782701Y-101526598D01*
X77782699Y-101526597D01*
X77782698Y-101526597D01*
X77651271Y-101505781D01*
X77611611Y-101499500D01*
X77188389Y-101499500D01*
X77148728Y-101505781D01*
X77017302Y-101526597D01*
X76852552Y-101580128D01*
X76698211Y-101658768D01*
X76618256Y-101716859D01*
X76558072Y-101760586D01*
X76558070Y-101760588D01*
X76558069Y-101760588D01*
X76435588Y-101883069D01*
X76435588Y-101883070D01*
X76435586Y-101883072D01*
X76391859Y-101943256D01*
X76333768Y-102023211D01*
X76255128Y-102177552D01*
X76201597Y-102342302D01*
X76187057Y-102434108D01*
X76174500Y-102513389D01*
X74221203Y-102513389D01*
X74036819Y-102329005D01*
X74003334Y-102267682D01*
X74000500Y-102241324D01*
X74000500Y-100013389D01*
X76174500Y-100013389D01*
X76174500Y-100186611D01*
X76201598Y-100357701D01*
X76255127Y-100522445D01*
X76333768Y-100676788D01*
X76435586Y-100816928D01*
X76558072Y-100939414D01*
X76698212Y-101041232D01*
X76852555Y-101119873D01*
X77017299Y-101173402D01*
X77188389Y-101200500D01*
X77188390Y-101200500D01*
X77611610Y-101200500D01*
X77611611Y-101200500D01*
X77782701Y-101173402D01*
X77947445Y-101119873D01*
X78101788Y-101041232D01*
X78241928Y-100939414D01*
X78364414Y-100816928D01*
X78466232Y-100676788D01*
X78470607Y-100668202D01*
X78518582Y-100617408D01*
X78581090Y-100600500D01*
X109365890Y-100600500D01*
X109365892Y-100600500D01*
X109493186Y-100566392D01*
X109607314Y-100500500D01*
X117797104Y-92310707D01*
X117797109Y-92310704D01*
X117807312Y-92300500D01*
X117807314Y-92300500D01*
X117900500Y-92207314D01*
X117966392Y-92093186D01*
X118000500Y-91965893D01*
X118000500Y-91834108D01*
X118000500Y-84206089D01*
X118020185Y-84139050D01*
X118068206Y-84095604D01*
X118076788Y-84091232D01*
X118216928Y-83989414D01*
X118339414Y-83866928D01*
X118441232Y-83726788D01*
X118519873Y-83572445D01*
X118520896Y-83569294D01*
X118521610Y-83568250D01*
X118521734Y-83567952D01*
X118521796Y-83567977D01*
X118560327Y-83511618D01*
X118624683Y-83484415D01*
X118693530Y-83496323D01*
X118745011Y-83543562D01*
X118756760Y-83569287D01*
X118788904Y-83668217D01*
X118885379Y-83857557D01*
X119010272Y-84029459D01*
X119010276Y-84029464D01*
X119160535Y-84179723D01*
X119160540Y-84179727D01*
X119332442Y-84304620D01*
X119521782Y-84401095D01*
X119723871Y-84466757D01*
X119790000Y-84477231D01*
X119790000Y-83456106D01*
X119839288Y-83484563D01*
X119971541Y-83520000D01*
X120108459Y-83520000D01*
X120240712Y-83484563D01*
X120290000Y-83456106D01*
X120290000Y-84477230D01*
X120356126Y-84466757D01*
X120356129Y-84466757D01*
X120558217Y-84401095D01*
X120747557Y-84304620D01*
X120919459Y-84179727D01*
X120919464Y-84179723D01*
X121069723Y-84029464D01*
X121069727Y-84029459D01*
X121194620Y-83857557D01*
X121291096Y-83668215D01*
X121323239Y-83569288D01*
X121362676Y-83511612D01*
X121427034Y-83484413D01*
X121495880Y-83496327D01*
X121547357Y-83543571D01*
X121559100Y-83569284D01*
X121560127Y-83572446D01*
X121608924Y-83668215D01*
X121638768Y-83726788D01*
X121740586Y-83866928D01*
X121863072Y-83989414D01*
X122003212Y-84091232D01*
X122157555Y-84169873D01*
X122322299Y-84223402D01*
X122493389Y-84250500D01*
X122493390Y-84250500D01*
X122666610Y-84250500D01*
X122666611Y-84250500D01*
X122837701Y-84223402D01*
X123002445Y-84169873D01*
X123156788Y-84091232D01*
X123296928Y-83989414D01*
X123419414Y-83866928D01*
X123521232Y-83726788D01*
X123599873Y-83572445D01*
X123653402Y-83407701D01*
X123680500Y-83236611D01*
X123680500Y-82763389D01*
X124019500Y-82763389D01*
X124019500Y-83236610D01*
X124032594Y-83319287D01*
X124046598Y-83407701D01*
X124099101Y-83569288D01*
X124100128Y-83572447D01*
X124148924Y-83668215D01*
X124178768Y-83726788D01*
X124280586Y-83866928D01*
X124403072Y-83989414D01*
X124543212Y-84091232D01*
X124697555Y-84169873D01*
X124862299Y-84223402D01*
X125033389Y-84250500D01*
X125033390Y-84250500D01*
X125206610Y-84250500D01*
X125206611Y-84250500D01*
X125377701Y-84223402D01*
X125542445Y-84169873D01*
X125696788Y-84091232D01*
X125836928Y-83989414D01*
X125959414Y-83866928D01*
X126061232Y-83726788D01*
X126139873Y-83572445D01*
X126193402Y-83407701D01*
X126220500Y-83236611D01*
X126220500Y-82763389D01*
X126559500Y-82763389D01*
X126559500Y-83236610D01*
X126572594Y-83319287D01*
X126586598Y-83407701D01*
X126639101Y-83569288D01*
X126640128Y-83572447D01*
X126688924Y-83668215D01*
X126718768Y-83726788D01*
X126820586Y-83866928D01*
X126943072Y-83989414D01*
X127083212Y-84091232D01*
X127237555Y-84169873D01*
X127402299Y-84223402D01*
X127573389Y-84250500D01*
X127573390Y-84250500D01*
X127746610Y-84250500D01*
X127746611Y-84250500D01*
X127917701Y-84223402D01*
X128082445Y-84169873D01*
X128236788Y-84091232D01*
X128376928Y-83989414D01*
X128499414Y-83866928D01*
X128601232Y-83726788D01*
X128679873Y-83572445D01*
X128733402Y-83407701D01*
X128760500Y-83236611D01*
X128760500Y-82763389D01*
X128733402Y-82592299D01*
X128679873Y-82427555D01*
X128601232Y-82273212D01*
X128499414Y-82133072D01*
X128376928Y-82010586D01*
X128236788Y-81908768D01*
X128082445Y-81830127D01*
X127917701Y-81776598D01*
X127917699Y-81776597D01*
X127917698Y-81776597D01*
X127786271Y-81755781D01*
X127746611Y-81749500D01*
X127573389Y-81749500D01*
X127533728Y-81755781D01*
X127402302Y-81776597D01*
X127237552Y-81830128D01*
X127083211Y-81908768D01*
X127003256Y-81966859D01*
X126943072Y-82010586D01*
X126943070Y-82010588D01*
X126943069Y-82010588D01*
X126820588Y-82133069D01*
X126820588Y-82133070D01*
X126820586Y-82133072D01*
X126809434Y-82148422D01*
X126718768Y-82273211D01*
X126640128Y-82427552D01*
X126586597Y-82592302D01*
X126559500Y-82763389D01*
X126220500Y-82763389D01*
X126193402Y-82592299D01*
X126139873Y-82427555D01*
X126061232Y-82273212D01*
X125959414Y-82133072D01*
X125836928Y-82010586D01*
X125696788Y-81908768D01*
X125542445Y-81830127D01*
X125377701Y-81776598D01*
X125377699Y-81776597D01*
X125377698Y-81776597D01*
X125246271Y-81755781D01*
X125206611Y-81749500D01*
X125033389Y-81749500D01*
X124993728Y-81755781D01*
X124862302Y-81776597D01*
X124697552Y-81830128D01*
X124543211Y-81908768D01*
X124463256Y-81966859D01*
X124403072Y-82010586D01*
X124403070Y-82010588D01*
X124403069Y-82010588D01*
X124280588Y-82133069D01*
X124280588Y-82133070D01*
X124280586Y-82133072D01*
X124269434Y-82148422D01*
X124178768Y-82273211D01*
X124100128Y-82427552D01*
X124046597Y-82592302D01*
X124019500Y-82763389D01*
X123680500Y-82763389D01*
X123653402Y-82592299D01*
X123599873Y-82427555D01*
X123521232Y-82273212D01*
X123419414Y-82133072D01*
X123296928Y-82010586D01*
X123203501Y-81942707D01*
X123156787Y-81908767D01*
X123148199Y-81904391D01*
X123097406Y-81856414D01*
X123080500Y-81793909D01*
X123080500Y-81514110D01*
X123080500Y-81514108D01*
X123046392Y-81386814D01*
X122980500Y-81272686D01*
X122887314Y-81179500D01*
X122887313Y-81179499D01*
X122882983Y-81175169D01*
X122882972Y-81175159D01*
X121907316Y-80199502D01*
X121907315Y-80199501D01*
X121907314Y-80199500D01*
X121843968Y-80162927D01*
X121793187Y-80133608D01*
X121729539Y-80116554D01*
X121665892Y-80099500D01*
X121665891Y-80099500D01*
X117858675Y-80099500D01*
X117791636Y-80079815D01*
X117770994Y-80063181D01*
X116936819Y-79229005D01*
X116903334Y-79167682D01*
X116900500Y-79141324D01*
X116900500Y-77393389D01*
X118599500Y-77393389D01*
X118599500Y-77566611D01*
X118607677Y-77618239D01*
X118623823Y-77720185D01*
X118626598Y-77737701D01*
X118680127Y-77902445D01*
X118758768Y-78056788D01*
X118860586Y-78196928D01*
X118983072Y-78319414D01*
X119123212Y-78421232D01*
X119277555Y-78499873D01*
X119442299Y-78553402D01*
X119613389Y-78580500D01*
X119613390Y-78580500D01*
X119786610Y-78580500D01*
X119786611Y-78580500D01*
X119957701Y-78553402D01*
X120122445Y-78499873D01*
X120276788Y-78421232D01*
X120410365Y-78324181D01*
X120476172Y-78300702D01*
X120483251Y-78300500D01*
X126441324Y-78300500D01*
X126508363Y-78320185D01*
X126529005Y-78336819D01*
X129663181Y-81470995D01*
X129677884Y-81497922D01*
X129694477Y-81523741D01*
X129695368Y-81529941D01*
X129696666Y-81532318D01*
X129699500Y-81558676D01*
X129699500Y-81793909D01*
X129679815Y-81860948D01*
X129631801Y-81904391D01*
X129623212Y-81908767D01*
X129538197Y-81970535D01*
X129483072Y-82010586D01*
X129483070Y-82010588D01*
X129483069Y-82010588D01*
X129360588Y-82133069D01*
X129360588Y-82133070D01*
X129360586Y-82133072D01*
X129349434Y-82148422D01*
X129258768Y-82273211D01*
X129180128Y-82427552D01*
X129126597Y-82592302D01*
X129099500Y-82763389D01*
X129099500Y-83236610D01*
X129112594Y-83319287D01*
X129126598Y-83407701D01*
X129179101Y-83569288D01*
X129180128Y-83572447D01*
X129228924Y-83668215D01*
X129258768Y-83726788D01*
X129360586Y-83866928D01*
X129483072Y-83989414D01*
X129623212Y-84091232D01*
X129777555Y-84169873D01*
X129942299Y-84223402D01*
X130113389Y-84250500D01*
X130113390Y-84250500D01*
X130286610Y-84250500D01*
X130286611Y-84250500D01*
X130457701Y-84223402D01*
X130622445Y-84169873D01*
X130776788Y-84091232D01*
X130916928Y-83989414D01*
X131039414Y-83866928D01*
X131141232Y-83726788D01*
X131219873Y-83572445D01*
X131273402Y-83407701D01*
X131300500Y-83236611D01*
X131300500Y-82763389D01*
X131639500Y-82763389D01*
X131639500Y-83236610D01*
X131652594Y-83319287D01*
X131666598Y-83407701D01*
X131719101Y-83569288D01*
X131720128Y-83572447D01*
X131768924Y-83668215D01*
X131798768Y-83726788D01*
X131900586Y-83866928D01*
X132023072Y-83989414D01*
X132163212Y-84091232D01*
X132317555Y-84169873D01*
X132482299Y-84223402D01*
X132653389Y-84250500D01*
X132653390Y-84250500D01*
X132826610Y-84250500D01*
X132826611Y-84250500D01*
X132997701Y-84223402D01*
X133162445Y-84169873D01*
X133316788Y-84091232D01*
X133456928Y-83989414D01*
X133579414Y-83866928D01*
X133681232Y-83726788D01*
X133759873Y-83572445D01*
X133760896Y-83569294D01*
X133761610Y-83568250D01*
X133761734Y-83567952D01*
X133761796Y-83567977D01*
X133800327Y-83511618D01*
X133864683Y-83484415D01*
X133933530Y-83496323D01*
X133985011Y-83543562D01*
X133996760Y-83569287D01*
X134028904Y-83668217D01*
X134125379Y-83857557D01*
X134250272Y-84029459D01*
X134250276Y-84029464D01*
X134400535Y-84179723D01*
X134400540Y-84179727D01*
X134572442Y-84304620D01*
X134761782Y-84401095D01*
X134963871Y-84466757D01*
X135030000Y-84477231D01*
X135030000Y-83456106D01*
X135079288Y-83484563D01*
X135211541Y-83520000D01*
X135348459Y-83520000D01*
X135480712Y-83484563D01*
X135530000Y-83456106D01*
X135530000Y-84477230D01*
X135596126Y-84466757D01*
X135596129Y-84466757D01*
X135798217Y-84401095D01*
X135987557Y-84304620D01*
X136159459Y-84179727D01*
X136159464Y-84179723D01*
X136309723Y-84029464D01*
X136309727Y-84029459D01*
X136434620Y-83857557D01*
X136531095Y-83668217D01*
X136596757Y-83466130D01*
X136596757Y-83466127D01*
X136630000Y-83256246D01*
X136630000Y-83250000D01*
X135736107Y-83250000D01*
X135764563Y-83200712D01*
X135800000Y-83068459D01*
X135800000Y-82931541D01*
X135764563Y-82799288D01*
X135736107Y-82750000D01*
X136630000Y-82750000D01*
X136630000Y-82743753D01*
X136596757Y-82533872D01*
X136596757Y-82533869D01*
X136531095Y-82331782D01*
X136434620Y-82142442D01*
X136309727Y-81970540D01*
X136309723Y-81970535D01*
X136159464Y-81820276D01*
X136159459Y-81820272D01*
X135987557Y-81695379D01*
X135798215Y-81598903D01*
X135596124Y-81533241D01*
X135530000Y-81522768D01*
X135530000Y-82543893D01*
X135480712Y-82515437D01*
X135348459Y-82480000D01*
X135211541Y-82480000D01*
X135079288Y-82515437D01*
X135030000Y-82543893D01*
X135030000Y-81522768D01*
X135029999Y-81522768D01*
X134963875Y-81533241D01*
X134761784Y-81598903D01*
X134572442Y-81695379D01*
X134400540Y-81820272D01*
X134400535Y-81820276D01*
X134250276Y-81970535D01*
X134250272Y-81970540D01*
X134125379Y-82142442D01*
X134028904Y-82331783D01*
X133996760Y-82430712D01*
X133957322Y-82488388D01*
X133892964Y-82515586D01*
X133824117Y-82503671D01*
X133772642Y-82456427D01*
X133760898Y-82430711D01*
X133759873Y-82427555D01*
X133681232Y-82273212D01*
X133579414Y-82133072D01*
X133456928Y-82010586D01*
X133316788Y-81908768D01*
X133162445Y-81830127D01*
X132997701Y-81776598D01*
X132997699Y-81776597D01*
X132997698Y-81776597D01*
X132866271Y-81755781D01*
X132826611Y-81749500D01*
X132653389Y-81749500D01*
X132613728Y-81755781D01*
X132482302Y-81776597D01*
X132317552Y-81830128D01*
X132163211Y-81908768D01*
X132083256Y-81966859D01*
X132023072Y-82010586D01*
X132023070Y-82010588D01*
X132023069Y-82010588D01*
X131900588Y-82133069D01*
X131900588Y-82133070D01*
X131900586Y-82133072D01*
X131889434Y-82148422D01*
X131798768Y-82273211D01*
X131720128Y-82427552D01*
X131666597Y-82592302D01*
X131639500Y-82763389D01*
X131300500Y-82763389D01*
X131273402Y-82592299D01*
X131219873Y-82427555D01*
X131141232Y-82273212D01*
X131039414Y-82133072D01*
X130916928Y-82010586D01*
X130823501Y-81942707D01*
X130776787Y-81908767D01*
X130768199Y-81904391D01*
X130717406Y-81856414D01*
X130700500Y-81793909D01*
X130700500Y-81234110D01*
X130700500Y-81234108D01*
X130666392Y-81106814D01*
X130600500Y-80992686D01*
X130507314Y-80899500D01*
X127007314Y-77399500D01*
X126924311Y-77351578D01*
X126893187Y-77333608D01*
X126811091Y-77311611D01*
X126765892Y-77299500D01*
X126765891Y-77299500D01*
X120888578Y-77299500D01*
X120821539Y-77279815D01*
X120775784Y-77227011D01*
X120770647Y-77213819D01*
X120746472Y-77139419D01*
X120719873Y-77057555D01*
X120719871Y-77057552D01*
X120719871Y-77057550D01*
X120656974Y-76934108D01*
X120641232Y-76903212D01*
X120539414Y-76763072D01*
X120416928Y-76640586D01*
X120276788Y-76538768D01*
X120122445Y-76460127D01*
X119957701Y-76406598D01*
X119957699Y-76406597D01*
X119957698Y-76406597D01*
X119826271Y-76385781D01*
X119786611Y-76379500D01*
X119613389Y-76379500D01*
X119573728Y-76385781D01*
X119442302Y-76406597D01*
X119277552Y-76460128D01*
X119123211Y-76538768D01*
X119043256Y-76596859D01*
X118983072Y-76640586D01*
X118983070Y-76640588D01*
X118983069Y-76640588D01*
X118860588Y-76763069D01*
X118860588Y-76763070D01*
X118860586Y-76763072D01*
X118827695Y-76808343D01*
X118758768Y-76903211D01*
X118680128Y-77057552D01*
X118626597Y-77222302D01*
X118608968Y-77333608D01*
X118599500Y-77393389D01*
X116900500Y-77393389D01*
X116900500Y-76458676D01*
X116920185Y-76391637D01*
X116936819Y-76370995D01*
X117830995Y-75476819D01*
X117892318Y-75443334D01*
X117918676Y-75440500D01*
X118643910Y-75440500D01*
X118710949Y-75460185D01*
X118754393Y-75508202D01*
X118758765Y-75516783D01*
X118758770Y-75516792D01*
X118801100Y-75575053D01*
X118860586Y-75656928D01*
X118983072Y-75779414D01*
X119123212Y-75881232D01*
X119277555Y-75959873D01*
X119442299Y-76013402D01*
X119613389Y-76040500D01*
X119613390Y-76040500D01*
X119786610Y-76040500D01*
X119786611Y-76040500D01*
X119957701Y-76013402D01*
X120122445Y-75959873D01*
X120276788Y-75881232D01*
X120416928Y-75779414D01*
X120539414Y-75656928D01*
X120641232Y-75516788D01*
X120719873Y-75362445D01*
X120773402Y-75197701D01*
X120800500Y-75026611D01*
X120800500Y-74853389D01*
X120773402Y-74682299D01*
X120719873Y-74517555D01*
X120641232Y-74363212D01*
X120539414Y-74223072D01*
X120416928Y-74100586D01*
X120276788Y-73998768D01*
X120122445Y-73920127D01*
X119957701Y-73866598D01*
X119957699Y-73866597D01*
X119957698Y-73866597D01*
X119826271Y-73845781D01*
X119786611Y-73839500D01*
X119621229Y-73839500D01*
X119599983Y-73833261D01*
X119577895Y-73831682D01*
X119567111Y-73823609D01*
X119554190Y-73819815D01*
X119539690Y-73803081D01*
X119521962Y-73789810D01*
X119517254Y-73777189D01*
X119508435Y-73767011D01*
X119505283Y-73745093D01*
X119497545Y-73724346D01*
X119500407Y-73711185D01*
X119498491Y-73697853D01*
X119507690Y-73677709D01*
X119512397Y-73656073D01*
X119525665Y-73638347D01*
X119527516Y-73634297D01*
X119533548Y-73627819D01*
X119624548Y-73536819D01*
X119685871Y-73503334D01*
X119712229Y-73500500D01*
X119786610Y-73500500D01*
X119786611Y-73500500D01*
X119957701Y-73473402D01*
X120122445Y-73419873D01*
X120276788Y-73341232D01*
X120416928Y-73239414D01*
X120539414Y-73116928D01*
X120641232Y-72976788D01*
X120719873Y-72822445D01*
X120773402Y-72657701D01*
X120800500Y-72486611D01*
X120800500Y-72313389D01*
X120773402Y-72142299D01*
X120719873Y-71977555D01*
X120641232Y-71823212D01*
X120539414Y-71683072D01*
X120416928Y-71560586D01*
X120276788Y-71458768D01*
X120248756Y-71444485D01*
X120197960Y-71396510D01*
X120181165Y-71328689D01*
X120203703Y-71262554D01*
X120258418Y-71219103D01*
X120305051Y-71210000D01*
X120597828Y-71210000D01*
X120597844Y-71209999D01*
X120657372Y-71203598D01*
X120657379Y-71203596D01*
X120792086Y-71153354D01*
X120792093Y-71153350D01*
X120907187Y-71067190D01*
X120907190Y-71067187D01*
X120993350Y-70952093D01*
X120993354Y-70952086D01*
X121043596Y-70817379D01*
X121043598Y-70817372D01*
X121049999Y-70757844D01*
X121050000Y-70757827D01*
X121050000Y-70110000D01*
X120133012Y-70110000D01*
X120165925Y-70052993D01*
X120200000Y-69925826D01*
X120200000Y-69794174D01*
X120165925Y-69667007D01*
X120133012Y-69610000D01*
X121050000Y-69610000D01*
X121050000Y-68962172D01*
X121049999Y-68962155D01*
X121043598Y-68902627D01*
X121043596Y-68902620D01*
X120993354Y-68767913D01*
X120993350Y-68767906D01*
X120907190Y-68652812D01*
X120907187Y-68652809D01*
X120792093Y-68566649D01*
X120792086Y-68566645D01*
X120657379Y-68516403D01*
X120657372Y-68516401D01*
X120597844Y-68510000D01*
X119950000Y-68510000D01*
X119950000Y-69426988D01*
X119892993Y-69394075D01*
X119765826Y-69360000D01*
X119634174Y-69360000D01*
X119507007Y-69394075D01*
X119450000Y-69426988D01*
X119450000Y-68510000D01*
X118802155Y-68510000D01*
X118742627Y-68516401D01*
X118742620Y-68516403D01*
X118607913Y-68566645D01*
X118607906Y-68566649D01*
X118492812Y-68652809D01*
X118492809Y-68652812D01*
X118406649Y-68767906D01*
X118406645Y-68767913D01*
X118356403Y-68902620D01*
X118356401Y-68902627D01*
X118350000Y-68962155D01*
X118350000Y-69610000D01*
X119266988Y-69610000D01*
X119234075Y-69667007D01*
X119200000Y-69794174D01*
X119200000Y-69925826D01*
X119234075Y-70052993D01*
X119266988Y-70110000D01*
X118350000Y-70110000D01*
X118350000Y-70757844D01*
X118356401Y-70817372D01*
X118356403Y-70817379D01*
X118406645Y-70952086D01*
X118406649Y-70952093D01*
X118492809Y-71067187D01*
X118492812Y-71067190D01*
X118607906Y-71153350D01*
X118607913Y-71153354D01*
X118742620Y-71203596D01*
X118742627Y-71203598D01*
X118802155Y-71209999D01*
X118802172Y-71210000D01*
X119094949Y-71210000D01*
X119161988Y-71229685D01*
X119207743Y-71282489D01*
X119217687Y-71351647D01*
X119188662Y-71415203D01*
X119151244Y-71444485D01*
X119123211Y-71458768D01*
X119043256Y-71516859D01*
X118983072Y-71560586D01*
X118983070Y-71560588D01*
X118983069Y-71560588D01*
X118860588Y-71683069D01*
X118860588Y-71683070D01*
X118860586Y-71683072D01*
X118816859Y-71743256D01*
X118758768Y-71823211D01*
X118680128Y-71977552D01*
X118626597Y-72142302D01*
X118599500Y-72313389D01*
X118599500Y-72387770D01*
X118579815Y-72454809D01*
X118563181Y-72475451D01*
X118149451Y-72889181D01*
X118088128Y-72922666D01*
X118061770Y-72925500D01*
X113412634Y-72925500D01*
X113345595Y-72905815D01*
X113299840Y-72853011D01*
X113289896Y-72783853D01*
X113292856Y-72769418D01*
X113300500Y-72740892D01*
X113300500Y-68509108D01*
X113266392Y-68381814D01*
X113200500Y-68267686D01*
X113107314Y-68174500D01*
X113050250Y-68141554D01*
X112993187Y-68108608D01*
X112929539Y-68091554D01*
X112865892Y-68074500D01*
X103005892Y-68074500D01*
X102874108Y-68074500D01*
X102746812Y-68108608D01*
X102632686Y-68174500D01*
X102632683Y-68174502D01*
X102539502Y-68267683D01*
X102539500Y-68267686D01*
X102473608Y-68381812D01*
X102439500Y-68509108D01*
X102439500Y-72740891D01*
X102473608Y-72868187D01*
X102485729Y-72889181D01*
X102539500Y-72982314D01*
X102632686Y-73075500D01*
X102746814Y-73141392D01*
X102874108Y-73175500D01*
X103005892Y-73175500D01*
X108563771Y-73175500D01*
X108630810Y-73195185D01*
X108676565Y-73247989D01*
X108686509Y-73317147D01*
X108657484Y-73380703D01*
X108651452Y-73387181D01*
X107117052Y-74921578D01*
X107117049Y-74921581D01*
X107085092Y-74969408D01*
X107085093Y-74969409D01*
X107034914Y-75044508D01*
X106978343Y-75181082D01*
X106978340Y-75181092D01*
X106949500Y-75326079D01*
X106949500Y-76117796D01*
X106929815Y-76184835D01*
X106913181Y-76205477D01*
X106860588Y-76258069D01*
X106860588Y-76258070D01*
X106860586Y-76258072D01*
X106820032Y-76313890D01*
X106758768Y-76398211D01*
X106680128Y-76552552D01*
X106626597Y-76717302D01*
X106599500Y-76888389D01*
X106599500Y-77311610D01*
X106613420Y-77399502D01*
X106626598Y-77482701D01*
X106680127Y-77647445D01*
X106758768Y-77801788D01*
X106860586Y-77941928D01*
X106983072Y-78064414D01*
X107123212Y-78166232D01*
X107277555Y-78244873D01*
X107442299Y-78298402D01*
X107613389Y-78325500D01*
X107613390Y-78325500D01*
X107786610Y-78325500D01*
X107786611Y-78325500D01*
X107957701Y-78298402D01*
X108122445Y-78244873D01*
X108276788Y-78166232D01*
X108416928Y-78064414D01*
X108539414Y-77941928D01*
X108627006Y-77821367D01*
X108682336Y-77778702D01*
X108751949Y-77772723D01*
X108813744Y-77805329D01*
X108848101Y-77866167D01*
X108850682Y-77881651D01*
X108860494Y-77977697D01*
X108915641Y-78144119D01*
X108915643Y-78144124D01*
X109007684Y-78293345D01*
X109131654Y-78417315D01*
X109280875Y-78509356D01*
X109280880Y-78509358D01*
X109447302Y-78564505D01*
X109447309Y-78564506D01*
X109550019Y-78574999D01*
X109949999Y-78574999D01*
X109950000Y-78574998D01*
X109950000Y-77504145D01*
X110016657Y-77542630D01*
X110137465Y-77575000D01*
X110262535Y-77575000D01*
X110383343Y-77542630D01*
X110450000Y-77504145D01*
X110450000Y-78574999D01*
X110849972Y-78574999D01*
X110849986Y-78574998D01*
X110952697Y-78564505D01*
X111119119Y-78509358D01*
X111119124Y-78509356D01*
X111268345Y-78417315D01*
X111392315Y-78293345D01*
X111484356Y-78144124D01*
X111484358Y-78144119D01*
X111539505Y-77977697D01*
X111539506Y-77977690D01*
X111549999Y-77874986D01*
X111550000Y-77874973D01*
X111550000Y-77350000D01*
X110604146Y-77350000D01*
X110642630Y-77283343D01*
X110675000Y-77162535D01*
X110675000Y-77037465D01*
X110642630Y-76916657D01*
X110604146Y-76850000D01*
X111549999Y-76850000D01*
X111549999Y-76325028D01*
X111549998Y-76325013D01*
X111539505Y-76222302D01*
X111484358Y-76055880D01*
X111484356Y-76055875D01*
X111392315Y-75906654D01*
X111268345Y-75782684D01*
X111119124Y-75690643D01*
X111119119Y-75690641D01*
X110952697Y-75635494D01*
X110952690Y-75635493D01*
X110849986Y-75625000D01*
X110450000Y-75625000D01*
X110450000Y-76695854D01*
X110383343Y-76657370D01*
X110262535Y-76625000D01*
X110137465Y-76625000D01*
X110016657Y-76657370D01*
X109950000Y-76695854D01*
X109950000Y-75625000D01*
X109550028Y-75625000D01*
X109550012Y-75625001D01*
X109447302Y-75635494D01*
X109280880Y-75690641D01*
X109280875Y-75690643D01*
X109131654Y-75782684D01*
X109007684Y-75906654D01*
X108915643Y-76055875D01*
X108915641Y-76055880D01*
X108860494Y-76222302D01*
X108860493Y-76222309D01*
X108850681Y-76318349D01*
X108842294Y-76338902D01*
X108838449Y-76360763D01*
X108829351Y-76370620D01*
X108824284Y-76383040D01*
X108806116Y-76395796D01*
X108791063Y-76412108D01*
X108778081Y-76415482D01*
X108767103Y-76423191D01*
X108744922Y-76424100D01*
X108723441Y-76429684D01*
X108710696Y-76425504D01*
X108697292Y-76426054D01*
X108678140Y-76414826D01*
X108657050Y-76407910D01*
X108643022Y-76394240D01*
X108637016Y-76390719D01*
X108631114Y-76383974D01*
X108628986Y-76381356D01*
X108539414Y-76258072D01*
X108482311Y-76200969D01*
X108478291Y-76196025D01*
X108467145Y-76169448D01*
X108453334Y-76144154D01*
X108452229Y-76133878D01*
X108451270Y-76131591D01*
X108451712Y-76129074D01*
X108450500Y-76117796D01*
X108450500Y-75762229D01*
X108470185Y-75695190D01*
X108486819Y-75674548D01*
X109698548Y-74462819D01*
X109759871Y-74429334D01*
X109786229Y-74426500D01*
X117166324Y-74426500D01*
X117233363Y-74446185D01*
X117279118Y-74498989D01*
X117289062Y-74568147D01*
X117260037Y-74631703D01*
X117254005Y-74638181D01*
X115999502Y-75892683D01*
X115999500Y-75892686D01*
X115933608Y-76006812D01*
X115899500Y-76134108D01*
X115899500Y-79465891D01*
X115933608Y-79593187D01*
X115937253Y-79599500D01*
X115999500Y-79707314D01*
X115999501Y-79707315D01*
X115999502Y-79707316D01*
X117195159Y-80902972D01*
X117195169Y-80902983D01*
X117199499Y-80907313D01*
X117199500Y-80907314D01*
X117292686Y-81000500D01*
X117406814Y-81066392D01*
X117534107Y-81100500D01*
X117534108Y-81100500D01*
X121341324Y-81100500D01*
X121408363Y-81120185D01*
X121429005Y-81136819D01*
X122015081Y-81722894D01*
X122048566Y-81784217D01*
X122043582Y-81853908D01*
X122001711Y-81909842D01*
X122000286Y-81910892D01*
X121863078Y-82010581D01*
X121863069Y-82010588D01*
X121740588Y-82133069D01*
X121740588Y-82133070D01*
X121740586Y-82133072D01*
X121729434Y-82148422D01*
X121638768Y-82273211D01*
X121560128Y-82427550D01*
X121559487Y-82429522D01*
X121559102Y-82430712D01*
X121559099Y-82430720D01*
X121558381Y-82431769D01*
X121558266Y-82432048D01*
X121558207Y-82432023D01*
X121519657Y-82488393D01*
X121455297Y-82515587D01*
X121386451Y-82503668D01*
X121334979Y-82456420D01*
X121323239Y-82430711D01*
X121291096Y-82331784D01*
X121194620Y-82142442D01*
X121069727Y-81970540D01*
X121069723Y-81970535D01*
X120919464Y-81820276D01*
X120919459Y-81820272D01*
X120747557Y-81695379D01*
X120558215Y-81598903D01*
X120356124Y-81533241D01*
X120290000Y-81522768D01*
X120290000Y-82543893D01*
X120240712Y-82515437D01*
X120108459Y-82480000D01*
X119971541Y-82480000D01*
X119839288Y-82515437D01*
X119790000Y-82543893D01*
X119790000Y-81522768D01*
X119789999Y-81522768D01*
X119723875Y-81533241D01*
X119521784Y-81598903D01*
X119332442Y-81695379D01*
X119160540Y-81820272D01*
X119160535Y-81820276D01*
X119010276Y-81970535D01*
X119010272Y-81970540D01*
X118885379Y-82142442D01*
X118788904Y-82331783D01*
X118756760Y-82430712D01*
X118717322Y-82488388D01*
X118652964Y-82515586D01*
X118584117Y-82503671D01*
X118532642Y-82456427D01*
X118520898Y-82430711D01*
X118519873Y-82427555D01*
X118441232Y-82273212D01*
X118339414Y-82133072D01*
X118216928Y-82010586D01*
X118076788Y-81908768D01*
X117922445Y-81830127D01*
X117757701Y-81776598D01*
X117757699Y-81776597D01*
X117757698Y-81776597D01*
X117626271Y-81755781D01*
X117586611Y-81749500D01*
X117413389Y-81749500D01*
X117373728Y-81755781D01*
X117242302Y-81776597D01*
X117077552Y-81830128D01*
X116923211Y-81908768D01*
X116843256Y-81966859D01*
X116783072Y-82010586D01*
X116783070Y-82010588D01*
X116783069Y-82010588D01*
X116660588Y-82133069D01*
X116660588Y-82133070D01*
X116660586Y-82133072D01*
X116649434Y-82148422D01*
X116558768Y-82273211D01*
X116480128Y-82427552D01*
X116426597Y-82592302D01*
X116399500Y-82763389D01*
X116399500Y-83236610D01*
X116412594Y-83319287D01*
X116426598Y-83407701D01*
X116479101Y-83569288D01*
X116480128Y-83572447D01*
X116528924Y-83668215D01*
X116558768Y-83726788D01*
X116660586Y-83866928D01*
X116783072Y-83989414D01*
X116923212Y-84091232D01*
X116931793Y-84095604D01*
X116982589Y-84143575D01*
X116999500Y-84206089D01*
X116999500Y-91641324D01*
X116979815Y-91708363D01*
X116963181Y-91729005D01*
X109129005Y-99563181D01*
X109067682Y-99596666D01*
X109041324Y-99599500D01*
X78581090Y-99599500D01*
X78514051Y-99579815D01*
X78470607Y-99531798D01*
X78466234Y-99523216D01*
X78466229Y-99523207D01*
X78421759Y-99462001D01*
X78364414Y-99383072D01*
X78241928Y-99260586D01*
X78101788Y-99158768D01*
X77947445Y-99080127D01*
X77782701Y-99026598D01*
X77782699Y-99026597D01*
X77782698Y-99026597D01*
X77651271Y-99005781D01*
X77611611Y-98999500D01*
X77188389Y-98999500D01*
X77148728Y-99005781D01*
X77017302Y-99026597D01*
X76852552Y-99080128D01*
X76698211Y-99158768D01*
X76618256Y-99216859D01*
X76558072Y-99260586D01*
X76558070Y-99260588D01*
X76558069Y-99260588D01*
X76435588Y-99383069D01*
X76435588Y-99383070D01*
X76435586Y-99383072D01*
X76391859Y-99443256D01*
X76333768Y-99523211D01*
X76255128Y-99677552D01*
X76201597Y-99842302D01*
X76176541Y-100000500D01*
X76174500Y-100013389D01*
X74000500Y-100013389D01*
X74000500Y-97513389D01*
X76174500Y-97513389D01*
X76174500Y-97686611D01*
X76175624Y-97693706D01*
X76196671Y-97826598D01*
X76201598Y-97857701D01*
X76255127Y-98022445D01*
X76333768Y-98176788D01*
X76435586Y-98316928D01*
X76558072Y-98439414D01*
X76698212Y-98541232D01*
X76852555Y-98619873D01*
X77017299Y-98673402D01*
X77188389Y-98700500D01*
X77188390Y-98700500D01*
X77611610Y-98700500D01*
X77611611Y-98700500D01*
X77782701Y-98673402D01*
X77947445Y-98619873D01*
X78101788Y-98541232D01*
X78241928Y-98439414D01*
X78364414Y-98316928D01*
X78466232Y-98176788D01*
X78470607Y-98168202D01*
X78518582Y-98117408D01*
X78581090Y-98100500D01*
X108165890Y-98100500D01*
X108165892Y-98100500D01*
X108293186Y-98066392D01*
X108407314Y-98000500D01*
X115360500Y-91047314D01*
X115426392Y-90933186D01*
X115460500Y-90805892D01*
X115460500Y-90674108D01*
X115460500Y-84206089D01*
X115480185Y-84139050D01*
X115528206Y-84095604D01*
X115536788Y-84091232D01*
X115676928Y-83989414D01*
X115799414Y-83866928D01*
X115901232Y-83726788D01*
X115979873Y-83572445D01*
X116033402Y-83407701D01*
X116060500Y-83236611D01*
X116060500Y-82763389D01*
X116033402Y-82592299D01*
X115979873Y-82427555D01*
X115901232Y-82273212D01*
X115799414Y-82133072D01*
X115676928Y-82010586D01*
X115536788Y-81908768D01*
X115382445Y-81830127D01*
X115217701Y-81776598D01*
X115217699Y-81776597D01*
X115217698Y-81776597D01*
X115086271Y-81755781D01*
X115046611Y-81749500D01*
X114873389Y-81749500D01*
X114833728Y-81755781D01*
X114702302Y-81776597D01*
X114537552Y-81830128D01*
X114383211Y-81908768D01*
X114303256Y-81966859D01*
X114243072Y-82010586D01*
X114243070Y-82010588D01*
X114243069Y-82010588D01*
X114120588Y-82133069D01*
X114120588Y-82133070D01*
X114120586Y-82133072D01*
X114109434Y-82148422D01*
X114018768Y-82273211D01*
X113940128Y-82427552D01*
X113886597Y-82592302D01*
X113859500Y-82763389D01*
X113859500Y-83236610D01*
X113872594Y-83319287D01*
X113886598Y-83407701D01*
X113939101Y-83569288D01*
X113940128Y-83572447D01*
X113988924Y-83668215D01*
X114018768Y-83726788D01*
X114120586Y-83866928D01*
X114243072Y-83989414D01*
X114383212Y-84091232D01*
X114391793Y-84095604D01*
X114442589Y-84143575D01*
X114459500Y-84206089D01*
X114459500Y-90481324D01*
X114439815Y-90548363D01*
X114423181Y-90569005D01*
X107929005Y-97063181D01*
X107867682Y-97096666D01*
X107841324Y-97099500D01*
X78581090Y-97099500D01*
X78514051Y-97079815D01*
X78470607Y-97031798D01*
X78466234Y-97023216D01*
X78466229Y-97023207D01*
X78436672Y-96982526D01*
X78364414Y-96883072D01*
X78241928Y-96760586D01*
X78101788Y-96658768D01*
X77947445Y-96580127D01*
X77782701Y-96526598D01*
X77782699Y-96526597D01*
X77782698Y-96526597D01*
X77651271Y-96505781D01*
X77611611Y-96499500D01*
X77188389Y-96499500D01*
X77148728Y-96505781D01*
X77017302Y-96526597D01*
X76852552Y-96580128D01*
X76698211Y-96658768D01*
X76652944Y-96691657D01*
X76558072Y-96760586D01*
X76558070Y-96760588D01*
X76558069Y-96760588D01*
X76435588Y-96883069D01*
X76435588Y-96883070D01*
X76435586Y-96883072D01*
X76410052Y-96918217D01*
X76333768Y-97023211D01*
X76255128Y-97177552D01*
X76201597Y-97342302D01*
X76187751Y-97429723D01*
X76174500Y-97513389D01*
X74000500Y-97513389D01*
X74000500Y-95013389D01*
X76174500Y-95013389D01*
X76174500Y-95186611D01*
X76201598Y-95357701D01*
X76255127Y-95522445D01*
X76333768Y-95676788D01*
X76435586Y-95816928D01*
X76558072Y-95939414D01*
X76698212Y-96041232D01*
X76852555Y-96119873D01*
X77017299Y-96173402D01*
X77188389Y-96200500D01*
X77188390Y-96200500D01*
X77611610Y-96200500D01*
X77611611Y-96200500D01*
X77782701Y-96173402D01*
X77947445Y-96119873D01*
X78101788Y-96041232D01*
X78241928Y-95939414D01*
X78364414Y-95816928D01*
X78466232Y-95676788D01*
X78470607Y-95668202D01*
X78518582Y-95617408D01*
X78581090Y-95600500D01*
X98165890Y-95600500D01*
X98165892Y-95600500D01*
X98293186Y-95566392D01*
X98407314Y-95500500D01*
X105200500Y-88707314D01*
X105266392Y-88593186D01*
X105300500Y-88465892D01*
X105300500Y-88334107D01*
X105300500Y-84206089D01*
X105320185Y-84139050D01*
X105368206Y-84095604D01*
X105376788Y-84091232D01*
X105516928Y-83989414D01*
X105639414Y-83866928D01*
X105741232Y-83726788D01*
X105819873Y-83572445D01*
X105873402Y-83407701D01*
X105900500Y-83236611D01*
X105900500Y-82763389D01*
X106239500Y-82763389D01*
X106239500Y-83236610D01*
X106252594Y-83319287D01*
X106266598Y-83407701D01*
X106319101Y-83569288D01*
X106320128Y-83572447D01*
X106368924Y-83668215D01*
X106398768Y-83726788D01*
X106500586Y-83866928D01*
X106623072Y-83989414D01*
X106763212Y-84091232D01*
X106917555Y-84169873D01*
X107082299Y-84223402D01*
X107253389Y-84250500D01*
X107253390Y-84250500D01*
X107426610Y-84250500D01*
X107426611Y-84250500D01*
X107597701Y-84223402D01*
X107762445Y-84169873D01*
X107916788Y-84091232D01*
X108056928Y-83989414D01*
X108179414Y-83866928D01*
X108281232Y-83726788D01*
X108359873Y-83572445D01*
X108413402Y-83407701D01*
X108440500Y-83236611D01*
X108440500Y-82763389D01*
X108779500Y-82763389D01*
X108779500Y-83236610D01*
X108792594Y-83319287D01*
X108806598Y-83407701D01*
X108859101Y-83569288D01*
X108860128Y-83572447D01*
X108908924Y-83668215D01*
X108938768Y-83726788D01*
X109040586Y-83866928D01*
X109163072Y-83989414D01*
X109303212Y-84091232D01*
X109457555Y-84169873D01*
X109622299Y-84223402D01*
X109793389Y-84250500D01*
X109793390Y-84250500D01*
X109966610Y-84250500D01*
X109966611Y-84250500D01*
X110137701Y-84223402D01*
X110302445Y-84169873D01*
X110456788Y-84091232D01*
X110596928Y-83989414D01*
X110719414Y-83866928D01*
X110821232Y-83726788D01*
X110899873Y-83572445D01*
X110953402Y-83407701D01*
X110980500Y-83236611D01*
X110980500Y-82763389D01*
X111319500Y-82763389D01*
X111319500Y-83236610D01*
X111332594Y-83319287D01*
X111346598Y-83407701D01*
X111399101Y-83569288D01*
X111400128Y-83572447D01*
X111448924Y-83668215D01*
X111478768Y-83726788D01*
X111580586Y-83866928D01*
X111703072Y-83989414D01*
X111843212Y-84091232D01*
X111997555Y-84169873D01*
X112162299Y-84223402D01*
X112333389Y-84250500D01*
X112333390Y-84250500D01*
X112506610Y-84250500D01*
X112506611Y-84250500D01*
X112677701Y-84223402D01*
X112842445Y-84169873D01*
X112996788Y-84091232D01*
X113136928Y-83989414D01*
X113259414Y-83866928D01*
X113361232Y-83726788D01*
X113439873Y-83572445D01*
X113493402Y-83407701D01*
X113520500Y-83236611D01*
X113520500Y-82763389D01*
X113493402Y-82592299D01*
X113439873Y-82427555D01*
X113361232Y-82273212D01*
X113259414Y-82133072D01*
X113136928Y-82010586D01*
X112996788Y-81908768D01*
X112842445Y-81830127D01*
X112677701Y-81776598D01*
X112677699Y-81776597D01*
X112677698Y-81776597D01*
X112546271Y-81755781D01*
X112506611Y-81749500D01*
X112333389Y-81749500D01*
X112293728Y-81755781D01*
X112162302Y-81776597D01*
X111997552Y-81830128D01*
X111843211Y-81908768D01*
X111763256Y-81966859D01*
X111703072Y-82010586D01*
X111703070Y-82010588D01*
X111703069Y-82010588D01*
X111580588Y-82133069D01*
X111580588Y-82133070D01*
X111580586Y-82133072D01*
X111569434Y-82148422D01*
X111478768Y-82273211D01*
X111400128Y-82427552D01*
X111346597Y-82592302D01*
X111319500Y-82763389D01*
X110980500Y-82763389D01*
X110953402Y-82592299D01*
X110899873Y-82427555D01*
X110821232Y-82273212D01*
X110719414Y-82133072D01*
X110596928Y-82010586D01*
X110456788Y-81908768D01*
X110302445Y-81830127D01*
X110137701Y-81776598D01*
X110137699Y-81776597D01*
X110137698Y-81776597D01*
X110006271Y-81755781D01*
X109966611Y-81749500D01*
X109793389Y-81749500D01*
X109753728Y-81755781D01*
X109622302Y-81776597D01*
X109457552Y-81830128D01*
X109303211Y-81908768D01*
X109223256Y-81966859D01*
X109163072Y-82010586D01*
X109163070Y-82010588D01*
X109163069Y-82010588D01*
X109040588Y-82133069D01*
X109040588Y-82133070D01*
X109040586Y-82133072D01*
X109029434Y-82148422D01*
X108938768Y-82273211D01*
X108860128Y-82427552D01*
X108806597Y-82592302D01*
X108779500Y-82763389D01*
X108440500Y-82763389D01*
X108413402Y-82592299D01*
X108359873Y-82427555D01*
X108281232Y-82273212D01*
X108179414Y-82133072D01*
X108056928Y-82010586D01*
X107916788Y-81908768D01*
X107762445Y-81830127D01*
X107597701Y-81776598D01*
X107597699Y-81776597D01*
X107597698Y-81776597D01*
X107466271Y-81755781D01*
X107426611Y-81749500D01*
X107253389Y-81749500D01*
X107213728Y-81755781D01*
X107082302Y-81776597D01*
X106917552Y-81830128D01*
X106763211Y-81908768D01*
X106683256Y-81966859D01*
X106623072Y-82010586D01*
X106623070Y-82010588D01*
X106623069Y-82010588D01*
X106500588Y-82133069D01*
X106500588Y-82133070D01*
X106500586Y-82133072D01*
X106489434Y-82148422D01*
X106398768Y-82273211D01*
X106320128Y-82427552D01*
X106266597Y-82592302D01*
X106239500Y-82763389D01*
X105900500Y-82763389D01*
X105873402Y-82592299D01*
X105819873Y-82427555D01*
X105741232Y-82273212D01*
X105639414Y-82133072D01*
X105516928Y-82010586D01*
X105376788Y-81908768D01*
X105222445Y-81830127D01*
X105057701Y-81776598D01*
X105057699Y-81776597D01*
X105057698Y-81776597D01*
X104926271Y-81755781D01*
X104886611Y-81749500D01*
X104713389Y-81749500D01*
X104673728Y-81755781D01*
X104542302Y-81776597D01*
X104377552Y-81830128D01*
X104223211Y-81908768D01*
X104143256Y-81966859D01*
X104083072Y-82010586D01*
X104083070Y-82010588D01*
X104083069Y-82010588D01*
X103960588Y-82133069D01*
X103960588Y-82133070D01*
X103960586Y-82133072D01*
X103949434Y-82148422D01*
X103858768Y-82273211D01*
X103780128Y-82427552D01*
X103726597Y-82592302D01*
X103699500Y-82763389D01*
X103699500Y-83236610D01*
X103712594Y-83319287D01*
X103726598Y-83407701D01*
X103779101Y-83569288D01*
X103780128Y-83572447D01*
X103828924Y-83668215D01*
X103858768Y-83726788D01*
X103960586Y-83866928D01*
X104083072Y-83989414D01*
X104223212Y-84091232D01*
X104231793Y-84095604D01*
X104282589Y-84143575D01*
X104299500Y-84206089D01*
X104299500Y-88141324D01*
X104279815Y-88208363D01*
X104263181Y-88229005D01*
X97929005Y-94563181D01*
X97867682Y-94596666D01*
X97841324Y-94599500D01*
X78581090Y-94599500D01*
X78514051Y-94579815D01*
X78470607Y-94531798D01*
X78466234Y-94523216D01*
X78466229Y-94523207D01*
X78435572Y-94481012D01*
X78364414Y-94383072D01*
X78241928Y-94260586D01*
X78101788Y-94158768D01*
X77947445Y-94080127D01*
X77782701Y-94026598D01*
X77782699Y-94026597D01*
X77782698Y-94026597D01*
X77651271Y-94005781D01*
X77611611Y-93999500D01*
X77188389Y-93999500D01*
X77148728Y-94005781D01*
X77017302Y-94026597D01*
X77017299Y-94026598D01*
X76886419Y-94069124D01*
X76852552Y-94080128D01*
X76698211Y-94158768D01*
X76618256Y-94216859D01*
X76558072Y-94260586D01*
X76558070Y-94260588D01*
X76558069Y-94260588D01*
X76435588Y-94383069D01*
X76435588Y-94383070D01*
X76435586Y-94383072D01*
X76397011Y-94436166D01*
X76333768Y-94523211D01*
X76255128Y-94677552D01*
X76201597Y-94842302D01*
X76177274Y-94995874D01*
X76174500Y-95013389D01*
X74000500Y-95013389D01*
X74000500Y-92513389D01*
X76174500Y-92513389D01*
X76174500Y-92686610D01*
X76201360Y-92856202D01*
X76201598Y-92857701D01*
X76255127Y-93022445D01*
X76333768Y-93176788D01*
X76435586Y-93316928D01*
X76558072Y-93439414D01*
X76698212Y-93541232D01*
X76852555Y-93619873D01*
X77017299Y-93673402D01*
X77188389Y-93700500D01*
X77188390Y-93700500D01*
X77611610Y-93700500D01*
X77611611Y-93700500D01*
X77782701Y-93673402D01*
X77947445Y-93619873D01*
X78101788Y-93541232D01*
X78241928Y-93439414D01*
X78364414Y-93316928D01*
X78466232Y-93176788D01*
X78470607Y-93168202D01*
X78518582Y-93117408D01*
X78581090Y-93100500D01*
X95765890Y-93100500D01*
X95765892Y-93100500D01*
X95893186Y-93066392D01*
X96007314Y-93000500D01*
X100120500Y-88887314D01*
X100140936Y-88851918D01*
X100186392Y-88773186D01*
X100220500Y-88645892D01*
X100220500Y-84206089D01*
X100240185Y-84139050D01*
X100288206Y-84095604D01*
X100296788Y-84091232D01*
X100436928Y-83989414D01*
X100559414Y-83866928D01*
X100661232Y-83726788D01*
X100739873Y-83572445D01*
X100793402Y-83407701D01*
X100820500Y-83236611D01*
X100820500Y-82763389D01*
X101159500Y-82763389D01*
X101159500Y-83236610D01*
X101172594Y-83319287D01*
X101186598Y-83407701D01*
X101239101Y-83569288D01*
X101240128Y-83572447D01*
X101288924Y-83668215D01*
X101318768Y-83726788D01*
X101420586Y-83866928D01*
X101543072Y-83989414D01*
X101683212Y-84091232D01*
X101837555Y-84169873D01*
X102002299Y-84223402D01*
X102173389Y-84250500D01*
X102173390Y-84250500D01*
X102346610Y-84250500D01*
X102346611Y-84250500D01*
X102517701Y-84223402D01*
X102682445Y-84169873D01*
X102836788Y-84091232D01*
X102976928Y-83989414D01*
X103099414Y-83866928D01*
X103201232Y-83726788D01*
X103279873Y-83572445D01*
X103333402Y-83407701D01*
X103360500Y-83236611D01*
X103360500Y-82763389D01*
X103333402Y-82592299D01*
X103279873Y-82427555D01*
X103201232Y-82273212D01*
X103099414Y-82133072D01*
X102976928Y-82010586D01*
X102836788Y-81908768D01*
X102682445Y-81830127D01*
X102517701Y-81776598D01*
X102517699Y-81776597D01*
X102517698Y-81776597D01*
X102386271Y-81755781D01*
X102346611Y-81749500D01*
X102173389Y-81749500D01*
X102133728Y-81755781D01*
X102002302Y-81776597D01*
X101837552Y-81830128D01*
X101683211Y-81908768D01*
X101603256Y-81966859D01*
X101543072Y-82010586D01*
X101543070Y-82010588D01*
X101543069Y-82010588D01*
X101420588Y-82133069D01*
X101420588Y-82133070D01*
X101420586Y-82133072D01*
X101409434Y-82148422D01*
X101318768Y-82273211D01*
X101240128Y-82427552D01*
X101186597Y-82592302D01*
X101159500Y-82763389D01*
X100820500Y-82763389D01*
X100793402Y-82592299D01*
X100739873Y-82427555D01*
X100661232Y-82273212D01*
X100559414Y-82133072D01*
X100436928Y-82010586D01*
X100296788Y-81908768D01*
X100142445Y-81830127D01*
X99977701Y-81776598D01*
X99977699Y-81776597D01*
X99977698Y-81776597D01*
X99846271Y-81755781D01*
X99806611Y-81749500D01*
X99633389Y-81749500D01*
X99593728Y-81755781D01*
X99462302Y-81776597D01*
X99297552Y-81830128D01*
X99143211Y-81908768D01*
X99063256Y-81966859D01*
X99003072Y-82010586D01*
X99003070Y-82010588D01*
X99003069Y-82010588D01*
X98880588Y-82133069D01*
X98880588Y-82133070D01*
X98880586Y-82133072D01*
X98869434Y-82148422D01*
X98778768Y-82273211D01*
X98700128Y-82427552D01*
X98646597Y-82592302D01*
X98619500Y-82763389D01*
X98619500Y-83236610D01*
X98632594Y-83319287D01*
X98646598Y-83407701D01*
X98699101Y-83569288D01*
X98700128Y-83572447D01*
X98748924Y-83668215D01*
X98778768Y-83726788D01*
X98880586Y-83866928D01*
X99003072Y-83989414D01*
X99143212Y-84091232D01*
X99151793Y-84095604D01*
X99202589Y-84143575D01*
X99219500Y-84206089D01*
X99219500Y-88321324D01*
X99199815Y-88388363D01*
X99183181Y-88409005D01*
X95529005Y-92063181D01*
X95467682Y-92096666D01*
X95441324Y-92099500D01*
X78581090Y-92099500D01*
X78514051Y-92079815D01*
X78470607Y-92031798D01*
X78466234Y-92023216D01*
X78466229Y-92023207D01*
X78424586Y-91965892D01*
X78364414Y-91883072D01*
X78241928Y-91760586D01*
X78101788Y-91658768D01*
X77947445Y-91580127D01*
X77782701Y-91526598D01*
X77782699Y-91526597D01*
X77782698Y-91526597D01*
X77651271Y-91505781D01*
X77611611Y-91499500D01*
X77188389Y-91499500D01*
X77148728Y-91505781D01*
X77017302Y-91526597D01*
X76852552Y-91580128D01*
X76698211Y-91658768D01*
X76618256Y-91716859D01*
X76558072Y-91760586D01*
X76558070Y-91760588D01*
X76558069Y-91760588D01*
X76435588Y-91883069D01*
X76435588Y-91883070D01*
X76435586Y-91883072D01*
X76391859Y-91943256D01*
X76333768Y-92023211D01*
X76255128Y-92177552D01*
X76201597Y-92342302D01*
X76174500Y-92513389D01*
X74000500Y-92513389D01*
X74000500Y-91758676D01*
X74020185Y-91691637D01*
X74036819Y-91670995D01*
X75070995Y-90636819D01*
X75132318Y-90603334D01*
X75158676Y-90600500D01*
X76050501Y-90600500D01*
X76117540Y-90620185D01*
X76163295Y-90672989D01*
X76174501Y-90724500D01*
X76174501Y-90747876D01*
X76180908Y-90807483D01*
X76231202Y-90942328D01*
X76231206Y-90942335D01*
X76317452Y-91057544D01*
X76317455Y-91057547D01*
X76432664Y-91143793D01*
X76432671Y-91143797D01*
X76567517Y-91194091D01*
X76567516Y-91194091D01*
X76574444Y-91194835D01*
X76627127Y-91200500D01*
X78172872Y-91200499D01*
X78232483Y-91194091D01*
X78367331Y-91143796D01*
X78482546Y-91057546D01*
X78568796Y-90942331D01*
X78619091Y-90807483D01*
X78625500Y-90747873D01*
X78625499Y-89452128D01*
X78619091Y-89392517D01*
X78568796Y-89257669D01*
X78568795Y-89257668D01*
X78568793Y-89257664D01*
X78482547Y-89142455D01*
X78438401Y-89109407D01*
X78367330Y-89056203D01*
X78367328Y-89056202D01*
X78260152Y-89016228D01*
X84049500Y-89016228D01*
X84049500Y-89183771D01*
X84082182Y-89348074D01*
X84082184Y-89348082D01*
X84146295Y-89502860D01*
X84239373Y-89642162D01*
X84357837Y-89760626D01*
X84450494Y-89822537D01*
X84497137Y-89853703D01*
X84651918Y-89917816D01*
X84816228Y-89950499D01*
X84816232Y-89950500D01*
X84816233Y-89950500D01*
X84983768Y-89950500D01*
X84983769Y-89950499D01*
X85148082Y-89917816D01*
X85302863Y-89853703D01*
X85442162Y-89760626D01*
X85560626Y-89642162D01*
X85653703Y-89502863D01*
X85717816Y-89348082D01*
X85750500Y-89183767D01*
X85750500Y-89016233D01*
X85717816Y-88851918D01*
X85657919Y-88707316D01*
X85653704Y-88697139D01*
X85560626Y-88557837D01*
X85437855Y-88435066D01*
X85439627Y-88433293D01*
X85406484Y-88384589D01*
X85400500Y-88346534D01*
X85400500Y-83658676D01*
X85420185Y-83591637D01*
X85436819Y-83570995D01*
X86244425Y-82763389D01*
X88459500Y-82763389D01*
X88459500Y-83236610D01*
X88472594Y-83319287D01*
X88486598Y-83407701D01*
X88539101Y-83569288D01*
X88540128Y-83572447D01*
X88588924Y-83668215D01*
X88618768Y-83726788D01*
X88720586Y-83866928D01*
X88843072Y-83989414D01*
X88983212Y-84091232D01*
X89137555Y-84169873D01*
X89302299Y-84223402D01*
X89473389Y-84250500D01*
X89473390Y-84250500D01*
X89646610Y-84250500D01*
X89646611Y-84250500D01*
X89817701Y-84223402D01*
X89982445Y-84169873D01*
X90136788Y-84091232D01*
X90276928Y-83989414D01*
X90399414Y-83866928D01*
X90501232Y-83726788D01*
X90579873Y-83572445D01*
X90633402Y-83407701D01*
X90660500Y-83236611D01*
X90660500Y-82763389D01*
X90999500Y-82763389D01*
X90999500Y-83236610D01*
X91012594Y-83319287D01*
X91026598Y-83407701D01*
X91079101Y-83569288D01*
X91080128Y-83572447D01*
X91128924Y-83668215D01*
X91158768Y-83726788D01*
X91260586Y-83866928D01*
X91383072Y-83989414D01*
X91523212Y-84091232D01*
X91677555Y-84169873D01*
X91842299Y-84223402D01*
X92013389Y-84250500D01*
X92013390Y-84250500D01*
X92186610Y-84250500D01*
X92186611Y-84250500D01*
X92357701Y-84223402D01*
X92522445Y-84169873D01*
X92676788Y-84091232D01*
X92816928Y-83989414D01*
X92939414Y-83866928D01*
X93041232Y-83726788D01*
X93119873Y-83572445D01*
X93173402Y-83407701D01*
X93200500Y-83236611D01*
X93200500Y-82763389D01*
X93539500Y-82763389D01*
X93539500Y-83236610D01*
X93552594Y-83319287D01*
X93566598Y-83407701D01*
X93619101Y-83569288D01*
X93620128Y-83572447D01*
X93668924Y-83668215D01*
X93698768Y-83726788D01*
X93800586Y-83866928D01*
X93923072Y-83989414D01*
X94063212Y-84091232D01*
X94217555Y-84169873D01*
X94382299Y-84223402D01*
X94553389Y-84250500D01*
X94553390Y-84250500D01*
X94726610Y-84250500D01*
X94726611Y-84250500D01*
X94897701Y-84223402D01*
X95062445Y-84169873D01*
X95216788Y-84091232D01*
X95356928Y-83989414D01*
X95479414Y-83866928D01*
X95581232Y-83726788D01*
X95659873Y-83572445D01*
X95713402Y-83407701D01*
X95740500Y-83236611D01*
X95740500Y-82763389D01*
X96079500Y-82763389D01*
X96079500Y-83236610D01*
X96092594Y-83319287D01*
X96106598Y-83407701D01*
X96159101Y-83569288D01*
X96160128Y-83572447D01*
X96208924Y-83668215D01*
X96238768Y-83726788D01*
X96340586Y-83866928D01*
X96463072Y-83989414D01*
X96603212Y-84091232D01*
X96757555Y-84169873D01*
X96922299Y-84223402D01*
X97093389Y-84250500D01*
X97093390Y-84250500D01*
X97266610Y-84250500D01*
X97266611Y-84250500D01*
X97437701Y-84223402D01*
X97602445Y-84169873D01*
X97756788Y-84091232D01*
X97896928Y-83989414D01*
X98019414Y-83866928D01*
X98121232Y-83726788D01*
X98199873Y-83572445D01*
X98253402Y-83407701D01*
X98280500Y-83236611D01*
X98280500Y-82763389D01*
X98253402Y-82592299D01*
X98199873Y-82427555D01*
X98121232Y-82273212D01*
X98019414Y-82133072D01*
X97896928Y-82010586D01*
X97756788Y-81908768D01*
X97602445Y-81830127D01*
X97437701Y-81776598D01*
X97437699Y-81776597D01*
X97437698Y-81776597D01*
X97306271Y-81755781D01*
X97266611Y-81749500D01*
X97093389Y-81749500D01*
X97053728Y-81755781D01*
X96922302Y-81776597D01*
X96757552Y-81830128D01*
X96603211Y-81908768D01*
X96523256Y-81966859D01*
X96463072Y-82010586D01*
X96463070Y-82010588D01*
X96463069Y-82010588D01*
X96340588Y-82133069D01*
X96340588Y-82133070D01*
X96340586Y-82133072D01*
X96329434Y-82148422D01*
X96238768Y-82273211D01*
X96160128Y-82427552D01*
X96106597Y-82592302D01*
X96079500Y-82763389D01*
X95740500Y-82763389D01*
X95713402Y-82592299D01*
X95659873Y-82427555D01*
X95581232Y-82273212D01*
X95479414Y-82133072D01*
X95356928Y-82010586D01*
X95216788Y-81908768D01*
X95062445Y-81830127D01*
X94897701Y-81776598D01*
X94897699Y-81776597D01*
X94897698Y-81776597D01*
X94766271Y-81755781D01*
X94726611Y-81749500D01*
X94553389Y-81749500D01*
X94513728Y-81755781D01*
X94382302Y-81776597D01*
X94217552Y-81830128D01*
X94063211Y-81908768D01*
X93983256Y-81966859D01*
X93923072Y-82010586D01*
X93923070Y-82010588D01*
X93923069Y-82010588D01*
X93800588Y-82133069D01*
X93800588Y-82133070D01*
X93800586Y-82133072D01*
X93789434Y-82148422D01*
X93698768Y-82273211D01*
X93620128Y-82427552D01*
X93566597Y-82592302D01*
X93539500Y-82763389D01*
X93200500Y-82763389D01*
X93173402Y-82592299D01*
X93119873Y-82427555D01*
X93041232Y-82273212D01*
X92939414Y-82133072D01*
X92816928Y-82010586D01*
X92676788Y-81908768D01*
X92522445Y-81830127D01*
X92357701Y-81776598D01*
X92357699Y-81776597D01*
X92357698Y-81776597D01*
X92226271Y-81755781D01*
X92186611Y-81749500D01*
X92013389Y-81749500D01*
X91973728Y-81755781D01*
X91842302Y-81776597D01*
X91677552Y-81830128D01*
X91523211Y-81908768D01*
X91443256Y-81966859D01*
X91383072Y-82010586D01*
X91383070Y-82010588D01*
X91383069Y-82010588D01*
X91260588Y-82133069D01*
X91260588Y-82133070D01*
X91260586Y-82133072D01*
X91249434Y-82148422D01*
X91158768Y-82273211D01*
X91080128Y-82427552D01*
X91026597Y-82592302D01*
X90999500Y-82763389D01*
X90660500Y-82763389D01*
X90633402Y-82592299D01*
X90579873Y-82427555D01*
X90501232Y-82273212D01*
X90399414Y-82133072D01*
X90276928Y-82010586D01*
X90136788Y-81908768D01*
X89982445Y-81830127D01*
X89817701Y-81776598D01*
X89817699Y-81776597D01*
X89817698Y-81776597D01*
X89686271Y-81755781D01*
X89646611Y-81749500D01*
X89473389Y-81749500D01*
X89433728Y-81755781D01*
X89302302Y-81776597D01*
X89137552Y-81830128D01*
X88983211Y-81908768D01*
X88903256Y-81966859D01*
X88843072Y-82010586D01*
X88843070Y-82010588D01*
X88843069Y-82010588D01*
X88720588Y-82133069D01*
X88720588Y-82133070D01*
X88720586Y-82133072D01*
X88709434Y-82148422D01*
X88618768Y-82273211D01*
X88540128Y-82427552D01*
X88486597Y-82592302D01*
X88459500Y-82763389D01*
X86244425Y-82763389D01*
X87770995Y-81236819D01*
X87832318Y-81203334D01*
X87858676Y-81200500D01*
X101665890Y-81200500D01*
X101665892Y-81200500D01*
X101793186Y-81166392D01*
X101907314Y-81100500D01*
X104712794Y-78295018D01*
X104774115Y-78261535D01*
X104838791Y-78264770D01*
X104942299Y-78298402D01*
X105113389Y-78325500D01*
X105113390Y-78325500D01*
X105286610Y-78325500D01*
X105286611Y-78325500D01*
X105457701Y-78298402D01*
X105622445Y-78244873D01*
X105776788Y-78166232D01*
X105916928Y-78064414D01*
X106039414Y-77941928D01*
X106141232Y-77801788D01*
X106219873Y-77647445D01*
X106273402Y-77482701D01*
X106300500Y-77311611D01*
X106300500Y-76888389D01*
X106273402Y-76717299D01*
X106219873Y-76552555D01*
X106141232Y-76398212D01*
X106039414Y-76258072D01*
X105916928Y-76135586D01*
X105776788Y-76033768D01*
X105622445Y-75955127D01*
X105457701Y-75901598D01*
X105457699Y-75901597D01*
X105457698Y-75901597D01*
X105326271Y-75880781D01*
X105286611Y-75874500D01*
X105113389Y-75874500D01*
X105073728Y-75880781D01*
X104942302Y-75901597D01*
X104777552Y-75955128D01*
X104623211Y-76033768D01*
X104543256Y-76091859D01*
X104483072Y-76135586D01*
X104483070Y-76135588D01*
X104483069Y-76135588D01*
X104360588Y-76258069D01*
X104360588Y-76258070D01*
X104360586Y-76258072D01*
X104320032Y-76313890D01*
X104258768Y-76398211D01*
X104180128Y-76552552D01*
X104126597Y-76717302D01*
X104099500Y-76888389D01*
X104099500Y-77311616D01*
X104114374Y-77405524D01*
X104105420Y-77474817D01*
X104079582Y-77512603D01*
X101429005Y-80163181D01*
X101367682Y-80196666D01*
X101341324Y-80199500D01*
X92632847Y-80199500D01*
X92565808Y-80179815D01*
X92520053Y-80127011D01*
X92510109Y-80057853D01*
X92539134Y-79994297D01*
X92585395Y-79960939D01*
X92602858Y-79953705D01*
X92602857Y-79953705D01*
X92602863Y-79953703D01*
X92742162Y-79860626D01*
X92860626Y-79742162D01*
X92953703Y-79602863D01*
X93017816Y-79448082D01*
X93050500Y-79283767D01*
X93050500Y-79116233D01*
X93017816Y-78951918D01*
X92953703Y-78797137D01*
X92866007Y-78665891D01*
X92860626Y-78657837D01*
X92742162Y-78539373D01*
X92602860Y-78446295D01*
X92448082Y-78382184D01*
X92448074Y-78382182D01*
X92283771Y-78349500D01*
X92283767Y-78349500D01*
X92224500Y-78349500D01*
X92215814Y-78346949D01*
X92206853Y-78348238D01*
X92182812Y-78337259D01*
X92157461Y-78329815D01*
X92151533Y-78322974D01*
X92143297Y-78319213D01*
X92129007Y-78296978D01*
X92111706Y-78277011D01*
X92109418Y-78266496D01*
X92105523Y-78260435D01*
X92100500Y-78225500D01*
X92100500Y-78159107D01*
X92120185Y-78092068D01*
X92150185Y-78059843D01*
X92220046Y-78007546D01*
X92306296Y-77892331D01*
X92356591Y-77757483D01*
X92363000Y-77697873D01*
X92362999Y-76702128D01*
X92356591Y-76642517D01*
X92347757Y-76618833D01*
X92306297Y-76507671D01*
X92306293Y-76507664D01*
X92220047Y-76392455D01*
X92220044Y-76392452D01*
X92127624Y-76323266D01*
X92085753Y-76267332D01*
X92080769Y-76197641D01*
X92114255Y-76136318D01*
X92175578Y-76102834D01*
X92201935Y-76100000D01*
X92992828Y-76100000D01*
X92992844Y-76099999D01*
X93052372Y-76093598D01*
X93052379Y-76093596D01*
X93187086Y-76043354D01*
X93187093Y-76043350D01*
X93302187Y-75957190D01*
X93302190Y-75957187D01*
X93388350Y-75842093D01*
X93388354Y-75842086D01*
X93438596Y-75707379D01*
X93438598Y-75707372D01*
X93444999Y-75647844D01*
X93445000Y-75647827D01*
X93445000Y-74950000D01*
X92420278Y-74950000D01*
X92464333Y-74873694D01*
X92495000Y-74759244D01*
X92495000Y-74640756D01*
X92464333Y-74526306D01*
X92420278Y-74450000D01*
X93445000Y-74450000D01*
X93445000Y-73752172D01*
X93444999Y-73752155D01*
X93438598Y-73692627D01*
X93438596Y-73692620D01*
X93388354Y-73557913D01*
X93388350Y-73557906D01*
X93302190Y-73442812D01*
X93302187Y-73442809D01*
X93187093Y-73356649D01*
X93187086Y-73356645D01*
X93052379Y-73306403D01*
X93052372Y-73306401D01*
X92992844Y-73300000D01*
X92295000Y-73300000D01*
X92295000Y-74324722D01*
X92218694Y-74280667D01*
X92104244Y-74250000D01*
X91985756Y-74250000D01*
X91871306Y-74280667D01*
X91795000Y-74324722D01*
X91795000Y-73300000D01*
X91097155Y-73300000D01*
X91037627Y-73306401D01*
X91037620Y-73306403D01*
X90902913Y-73356645D01*
X90902906Y-73356649D01*
X90787812Y-73442809D01*
X90787809Y-73442812D01*
X90701649Y-73557906D01*
X90701645Y-73557913D01*
X90651403Y-73692620D01*
X90651401Y-73692627D01*
X90645000Y-73752155D01*
X90645000Y-73930093D01*
X90625315Y-73997132D01*
X90572511Y-74042887D01*
X90503353Y-74052831D01*
X90439797Y-74023806D01*
X90420682Y-74002978D01*
X90382558Y-73950505D01*
X90382554Y-73950500D01*
X90254499Y-73822445D01*
X90254494Y-73822441D01*
X90107997Y-73716006D01*
X90107996Y-73716005D01*
X90107994Y-73716004D01*
X90056300Y-73689664D01*
X89946639Y-73633788D01*
X89946636Y-73633787D01*
X89774410Y-73577829D01*
X89595551Y-73549500D01*
X89595546Y-73549500D01*
X89414454Y-73549500D01*
X89414449Y-73549500D01*
X89235589Y-73577829D01*
X89063363Y-73633787D01*
X89063360Y-73633788D01*
X88902002Y-73716006D01*
X88755505Y-73822441D01*
X88755500Y-73822445D01*
X88627445Y-73950500D01*
X88627441Y-73950505D01*
X88521006Y-74097002D01*
X88438788Y-74258360D01*
X88438787Y-74258363D01*
X88382829Y-74430589D01*
X88354500Y-74609448D01*
X88354500Y-74790551D01*
X88382829Y-74969409D01*
X88438787Y-75141636D01*
X88438788Y-75141639D01*
X88521006Y-75302997D01*
X88627441Y-75449494D01*
X88627445Y-75449499D01*
X88755500Y-75577554D01*
X88755505Y-75577558D01*
X88902001Y-75683993D01*
X88902003Y-75683994D01*
X88902006Y-75683996D01*
X88936794Y-75701721D01*
X88987590Y-75749694D01*
X89004500Y-75812206D01*
X89004500Y-76995893D01*
X89007775Y-77008115D01*
X89012000Y-77040207D01*
X89012000Y-77697870D01*
X89012001Y-77697876D01*
X89018408Y-77757483D01*
X89068702Y-77892328D01*
X89068706Y-77892335D01*
X89154952Y-78007544D01*
X89154955Y-78007547D01*
X89270164Y-78093793D01*
X89270171Y-78093797D01*
X89315118Y-78110561D01*
X89405017Y-78144091D01*
X89464627Y-78150500D01*
X90085372Y-78150499D01*
X90144983Y-78144091D01*
X90279831Y-78093796D01*
X90395046Y-78007546D01*
X90481296Y-77892331D01*
X90531591Y-77757483D01*
X90538000Y-77697873D01*
X90537999Y-76702128D01*
X90531591Y-76642517D01*
X90522757Y-76618833D01*
X90481297Y-76507671D01*
X90481293Y-76507664D01*
X90395047Y-76392455D01*
X90395044Y-76392452D01*
X90279835Y-76306206D01*
X90279828Y-76306202D01*
X90144982Y-76255908D01*
X90144983Y-76255908D01*
X90116245Y-76252819D01*
X90051694Y-76226081D01*
X90011845Y-76168689D01*
X90005500Y-76129530D01*
X90005500Y-75812206D01*
X90025185Y-75745167D01*
X90073205Y-75701721D01*
X90107994Y-75683996D01*
X90254501Y-75577553D01*
X90382553Y-75449501D01*
X90420681Y-75397021D01*
X90476011Y-75354355D01*
X90545624Y-75348375D01*
X90607419Y-75380981D01*
X90641777Y-75441819D01*
X90645000Y-75469906D01*
X90645000Y-75647844D01*
X90651401Y-75707372D01*
X90651403Y-75707379D01*
X90701645Y-75842086D01*
X90701649Y-75842093D01*
X90787809Y-75957187D01*
X90787812Y-75957190D01*
X90902906Y-76043350D01*
X90902913Y-76043354D01*
X91037619Y-76093596D01*
X91039095Y-76093945D01*
X91040123Y-76094530D01*
X91044892Y-76096309D01*
X91044603Y-76097081D01*
X91099814Y-76128514D01*
X91132204Y-76190422D01*
X91125983Y-76260014D01*
X91084901Y-76313890D01*
X90979952Y-76392455D01*
X90893706Y-76507664D01*
X90893702Y-76507671D01*
X90843408Y-76642517D01*
X90837282Y-76699500D01*
X90837001Y-76702123D01*
X90837000Y-76702135D01*
X90837000Y-77697870D01*
X90837001Y-77697876D01*
X90843408Y-77757483D01*
X90893702Y-77892328D01*
X90893706Y-77892335D01*
X90979951Y-78007543D01*
X90979952Y-78007544D01*
X90979954Y-78007546D01*
X91049812Y-78059842D01*
X91091682Y-78115774D01*
X91099500Y-78159107D01*
X91099500Y-78665891D01*
X91133608Y-78793187D01*
X91138577Y-78801793D01*
X91199500Y-78907314D01*
X91199502Y-78907316D01*
X91313312Y-79021126D01*
X91346797Y-79082449D01*
X91348409Y-79110141D01*
X91349500Y-79110141D01*
X91349500Y-79283771D01*
X91382182Y-79448074D01*
X91382184Y-79448082D01*
X91446295Y-79602860D01*
X91539373Y-79742162D01*
X91657837Y-79860626D01*
X91721512Y-79903172D01*
X91797137Y-79953703D01*
X91797138Y-79953703D01*
X91797139Y-79953704D01*
X91797141Y-79953705D01*
X91814605Y-79960939D01*
X91869009Y-80004780D01*
X91891074Y-80071074D01*
X91873795Y-80138773D01*
X91822658Y-80186384D01*
X91767153Y-80199500D01*
X87534108Y-80199500D01*
X87406812Y-80233608D01*
X87292686Y-80299500D01*
X87292683Y-80299502D01*
X84499502Y-83092683D01*
X84499500Y-83092686D01*
X84433608Y-83206812D01*
X84399500Y-83334108D01*
X84399500Y-88346534D01*
X84379815Y-88413573D01*
X84361375Y-88434296D01*
X84362145Y-88435066D01*
X84239376Y-88557834D01*
X84239373Y-88557837D01*
X84146295Y-88697139D01*
X84082184Y-88851917D01*
X84082184Y-88851918D01*
X84049500Y-89016228D01*
X78260152Y-89016228D01*
X78232482Y-89005908D01*
X78232483Y-89005908D01*
X78172883Y-88999501D01*
X78172881Y-88999500D01*
X78172873Y-88999500D01*
X78172864Y-88999500D01*
X76627129Y-88999500D01*
X76627123Y-88999501D01*
X76567516Y-89005908D01*
X76432671Y-89056202D01*
X76432664Y-89056206D01*
X76317455Y-89142452D01*
X76317452Y-89142455D01*
X76231206Y-89257664D01*
X76231202Y-89257671D01*
X76180908Y-89392517D01*
X76174501Y-89452116D01*
X76174501Y-89452123D01*
X76174500Y-89452135D01*
X76174500Y-89475500D01*
X76154815Y-89542539D01*
X76102011Y-89588294D01*
X76050500Y-89599500D01*
X74834108Y-89599500D01*
X74706812Y-89633608D01*
X74592686Y-89699500D01*
X74592683Y-89699502D01*
X73099502Y-91192683D01*
X73099500Y-91192686D01*
X73033608Y-91306812D01*
X72999500Y-91434108D01*
X72500500Y-91434108D01*
X72500500Y-83003750D01*
X72500726Y-82996263D01*
X72518271Y-82706205D01*
X72520076Y-82691340D01*
X72522024Y-82680713D01*
X72571780Y-82409197D01*
X72575364Y-82394663D01*
X72594958Y-82331784D01*
X72660696Y-82120822D01*
X72665998Y-82106841D01*
X72783731Y-81845249D01*
X72790676Y-81832016D01*
X72939080Y-81586526D01*
X72947567Y-81574230D01*
X73124480Y-81348417D01*
X73134395Y-81337226D01*
X73337226Y-81134395D01*
X73348417Y-81124480D01*
X73574230Y-80947567D01*
X73586526Y-80939080D01*
X73832016Y-80790676D01*
X73845249Y-80783731D01*
X74106841Y-80665998D01*
X74120822Y-80660696D01*
X74394668Y-80575362D01*
X74409197Y-80571780D01*
X74691344Y-80520075D01*
X74706201Y-80518271D01*
X74996264Y-80500726D01*
X75003751Y-80500500D01*
X84171966Y-80500500D01*
X84171969Y-80500500D01*
X84514250Y-80466789D01*
X84851578Y-80399690D01*
X85180705Y-80299850D01*
X85498462Y-80168231D01*
X85801787Y-80006100D01*
X86087760Y-79815019D01*
X86353627Y-79596828D01*
X86596828Y-79353627D01*
X86815019Y-79087760D01*
X87006100Y-78801787D01*
X87168231Y-78498462D01*
X87299850Y-78180705D01*
X87399690Y-77851578D01*
X87466789Y-77514250D01*
X87500500Y-77171969D01*
X87500500Y-77000000D01*
X87500500Y-76934108D01*
X87500500Y-60340316D01*
X94849500Y-60340316D01*
X94849500Y-60659683D01*
X94880803Y-60977522D01*
X94943109Y-61290754D01*
X95035820Y-61596382D01*
X95158040Y-61891446D01*
X95158042Y-61891451D01*
X95308584Y-62173094D01*
X95308601Y-62173122D01*
X95486012Y-62438638D01*
X95486029Y-62438661D01*
X95688638Y-62685540D01*
X95914459Y-62911361D01*
X95914464Y-62911365D01*
X95914465Y-62911366D01*
X96161344Y-63113975D01*
X96161351Y-63113980D01*
X96161361Y-63113987D01*
X96426877Y-63291398D01*
X96426882Y-63291401D01*
X96426894Y-63291409D01*
X96426903Y-63291413D01*
X96426905Y-63291415D01*
X96708548Y-63441957D01*
X96708550Y-63441957D01*
X96708556Y-63441961D01*
X97003619Y-63564180D01*
X97309240Y-63656889D01*
X97622477Y-63719196D01*
X97940313Y-63750500D01*
X97940316Y-63750500D01*
X98259684Y-63750500D01*
X98259687Y-63750500D01*
X98577523Y-63719196D01*
X98890760Y-63656889D01*
X99196381Y-63564180D01*
X99228045Y-63551063D01*
X99297514Y-63543594D01*
X99359994Y-63574868D01*
X99395648Y-63634956D01*
X99399500Y-63665624D01*
X99399500Y-66765891D01*
X99433608Y-66893187D01*
X99466554Y-66950250D01*
X99499500Y-67007314D01*
X99592686Y-67100500D01*
X99706814Y-67166392D01*
X99834108Y-67200500D01*
X99834110Y-67200500D01*
X123365890Y-67200500D01*
X123365892Y-67200500D01*
X123493186Y-67166392D01*
X123607314Y-67100500D01*
X123700500Y-67007314D01*
X123766392Y-66893186D01*
X123800500Y-66765892D01*
X123800500Y-63582781D01*
X123820185Y-63515742D01*
X123872989Y-63469987D01*
X123942147Y-63460043D01*
X123971946Y-63468218D01*
X124203619Y-63564180D01*
X124509240Y-63656889D01*
X124822477Y-63719196D01*
X125140313Y-63750500D01*
X125140316Y-63750500D01*
X125459684Y-63750500D01*
X125459687Y-63750500D01*
X125777523Y-63719196D01*
X126090760Y-63656889D01*
X126396381Y-63564180D01*
X126691444Y-63441961D01*
X126973106Y-63291409D01*
X127238656Y-63113975D01*
X127485535Y-62911366D01*
X127711366Y-62685535D01*
X127913975Y-62438656D01*
X128091409Y-62173106D01*
X128241961Y-61891444D01*
X128364180Y-61596381D01*
X128456889Y-61290760D01*
X128519196Y-60977523D01*
X128550500Y-60659687D01*
X128550500Y-60340313D01*
X128519196Y-60022477D01*
X128456889Y-59709240D01*
X128364180Y-59403619D01*
X128241961Y-59108556D01*
X128091409Y-58826894D01*
X128091398Y-58826877D01*
X127913987Y-58561361D01*
X127913980Y-58561351D01*
X127913975Y-58561344D01*
X127711366Y-58314465D01*
X127711365Y-58314464D01*
X127711361Y-58314459D01*
X127485540Y-58088638D01*
X127238661Y-57886029D01*
X127238638Y-57886012D01*
X126973122Y-57708601D01*
X126973094Y-57708584D01*
X126691451Y-57558042D01*
X126691446Y-57558040D01*
X126396382Y-57435820D01*
X126090754Y-57343109D01*
X125777521Y-57280803D01*
X125777522Y-57280803D01*
X125538141Y-57257227D01*
X125459687Y-57249500D01*
X125140313Y-57249500D01*
X125067822Y-57256639D01*
X124822477Y-57280803D01*
X124509245Y-57343109D01*
X124203617Y-57435820D01*
X123971953Y-57531779D01*
X123902483Y-57539248D01*
X123840004Y-57507973D01*
X123804352Y-57447884D01*
X123800500Y-57417218D01*
X123800500Y-54234110D01*
X123800500Y-54234108D01*
X123766392Y-54106814D01*
X123700500Y-53992686D01*
X123607314Y-53899500D01*
X123550250Y-53866554D01*
X123493187Y-53833608D01*
X123429539Y-53816554D01*
X123365892Y-53799500D01*
X99965892Y-53799500D01*
X99834108Y-53799500D01*
X99706812Y-53833608D01*
X99592686Y-53899500D01*
X99592683Y-53899502D01*
X99499502Y-53992683D01*
X99499500Y-53992686D01*
X99433608Y-54106812D01*
X99399500Y-54234108D01*
X99399500Y-57334375D01*
X99379815Y-57401414D01*
X99327011Y-57447169D01*
X99257853Y-57457113D01*
X99228049Y-57448937D01*
X99196381Y-57435820D01*
X98890754Y-57343109D01*
X98577521Y-57280803D01*
X98577522Y-57280803D01*
X98338141Y-57257227D01*
X98259687Y-57249500D01*
X97940313Y-57249500D01*
X97867822Y-57256639D01*
X97622477Y-57280803D01*
X97309245Y-57343109D01*
X97003617Y-57435820D01*
X96708553Y-57558040D01*
X96708548Y-57558042D01*
X96426905Y-57708584D01*
X96426877Y-57708601D01*
X96161361Y-57886012D01*
X96161338Y-57886029D01*
X95914459Y-58088638D01*
X95688638Y-58314459D01*
X95486029Y-58561338D01*
X95486012Y-58561361D01*
X95308601Y-58826877D01*
X95308584Y-58826905D01*
X95158042Y-59108548D01*
X95158040Y-59108553D01*
X95035820Y-59403617D01*
X94943109Y-59709245D01*
X94880803Y-60022477D01*
X94849500Y-60340316D01*
X87500500Y-60340316D01*
X87500500Y-56003750D01*
X87500726Y-55996263D01*
X87518271Y-55706205D01*
X87520076Y-55691340D01*
X87571780Y-55409201D01*
X87575364Y-55394663D01*
X87652096Y-55148422D01*
X87660696Y-55120822D01*
X87665998Y-55106841D01*
X87783731Y-54845249D01*
X87790676Y-54832016D01*
X87939080Y-54586526D01*
X87947567Y-54574230D01*
X88124480Y-54348417D01*
X88134395Y-54337226D01*
X88337226Y-54134395D01*
X88348417Y-54124480D01*
X88574230Y-53947567D01*
X88586526Y-53939080D01*
X88832016Y-53790676D01*
X88845249Y-53783731D01*
X89106841Y-53665998D01*
X89120822Y-53660696D01*
X89394668Y-53575362D01*
X89409197Y-53571780D01*
X89691344Y-53520075D01*
X89706201Y-53518271D01*
X89996264Y-53500726D01*
X90003751Y-53500500D01*
X90065892Y-53500500D01*
X134934108Y-53500500D01*
X134996249Y-53500500D01*
X135003736Y-53500726D01*
G37*
%TD.AperFunction*%
%TD*%
M02*
