%TF.GenerationSoftware,KiCad,Pcbnew,9.0.6*%
%TF.CreationDate,2026-01-26T22:39:46+07:00*%
%TF.ProjectId,BluetoothCar,426c7565-746f-46f7-9468-4361722e6b69,rev?*%
%TF.SameCoordinates,Original*%
%TF.FileFunction,Profile,NP*%
%FSLAX46Y46*%
G04 Gerber Fmt 4.6, Leading zero omitted, Abs format (unit mm)*
G04 Created by KiCad (PCBNEW 9.0.6) date 2026-01-26 22:39:46*
%MOMM*%
%LPD*%
G01*
G04 APERTURE LIST*
%TA.AperFunction,Profile*%
%ADD10C,0.050000*%
%TD*%
G04 APERTURE END LIST*
D10*
X99900000Y-54300000D02*
X123300000Y-54300000D01*
X123300000Y-66700000D01*
X99900000Y-66700000D01*
X99900000Y-54300000D01*
X87000000Y-56000000D02*
G75*
G02*
X90000000Y-53000000I3000000J0D01*
G01*
X75000000Y-80000000D02*
X84000000Y-80000000D01*
X134000000Y-158000000D02*
X88500000Y-158000000D01*
X85500000Y-155000000D02*
X85500000Y-116000000D01*
X137000000Y-116000000D02*
G75*
G02*
X140000000Y-113000000I3000000J0D01*
G01*
X137000000Y-155000000D02*
G75*
G02*
X134000000Y-158000000I-3000000J0D01*
G01*
X137000000Y-116000000D02*
X137000000Y-155000000D01*
X72000000Y-110000000D02*
X72000000Y-83000000D01*
X75000000Y-113000000D02*
G75*
G02*
X72000000Y-110000000I0J3000000D01*
G01*
X145000000Y-79500000D02*
G75*
G02*
X148000000Y-82500000I0J-3000000D01*
G01*
X82500000Y-113000000D02*
G75*
G02*
X85500000Y-116000000I0J-3000000D01*
G01*
X138000000Y-56000000D02*
X138000000Y-76500000D01*
X135000000Y-53000000D02*
G75*
G02*
X138000000Y-56000000I0J-3000000D01*
G01*
X141000000Y-79500000D02*
G75*
G02*
X138000000Y-76500000I0J3000000D01*
G01*
X87000000Y-77000000D02*
G75*
G02*
X84000000Y-80000000I-3000000J0D01*
G01*
X141000000Y-79500000D02*
X145000000Y-79500000D01*
X87000000Y-77000000D02*
X87000000Y-56000000D01*
X148000000Y-82500000D02*
X148000000Y-110000000D01*
X88500000Y-158000000D02*
G75*
G02*
X85500000Y-155000000I0J3000000D01*
G01*
X145000000Y-113000000D02*
X140000000Y-113000000D01*
X90000000Y-53000000D02*
X135000000Y-53000000D01*
X148000000Y-110000000D02*
G75*
G02*
X145000000Y-113000000I-3000000J0D01*
G01*
X72000000Y-83000000D02*
G75*
G02*
X75000000Y-80000000I3000000J0D01*
G01*
X82500000Y-113000000D02*
X75000000Y-113000000D01*
X102940000Y-68575000D02*
X112800000Y-68575000D01*
X112800000Y-72675000D01*
X102940000Y-72675000D01*
X102940000Y-68575000D01*
X72000000Y-80000000D02*
X72000000Y-80000000D01*
M02*
