%TF.GenerationSoftware,KiCad,Pcbnew,9.0.6*%
%TF.CreationDate,2026-01-09T17:56:26+07:00*%
%TF.ProjectId,BluetoothCar,426c7565-746f-46f7-9468-4361722e6b69,rev?*%
%TF.SameCoordinates,Original*%
%TF.FileFunction,Copper,L2,Bot*%
%TF.FilePolarity,Positive*%
%FSLAX46Y46*%
G04 Gerber Fmt 4.6, Leading zero omitted, Abs format (unit mm)*
G04 Created by KiCad (PCBNEW 9.0.6) date 2026-01-09 17:56:26*
%MOMM*%
%LPD*%
G01*
G04 APERTURE LIST*
G04 Aperture macros list*
%AMRoundRect*
0 Rectangle with rounded corners*
0 $1 Rounding radius*
0 $2 $3 $4 $5 $6 $7 $8 $9 X,Y pos of 4 corners*
0 Add a 4 corners polygon primitive as box body*
4,1,4,$2,$3,$4,$5,$6,$7,$8,$9,$2,$3,0*
0 Add four circle primitives for the rounded corners*
1,1,$1+$1,$2,$3*
1,1,$1+$1,$4,$5*
1,1,$1+$1,$6,$7*
1,1,$1+$1,$8,$9*
0 Add four rect primitives between the rounded corners*
20,1,$1+$1,$2,$3,$4,$5,0*
20,1,$1+$1,$4,$5,$6,$7,0*
20,1,$1+$1,$6,$7,$8,$9,0*
20,1,$1+$1,$8,$9,$2,$3,0*%
G04 Aperture macros list end*
%TA.AperFunction,ComponentPad*%
%ADD10C,7.600000*%
%TD*%
%TA.AperFunction,ComponentPad*%
%ADD11RoundRect,0.250000X0.600000X0.725000X-0.600000X0.725000X-0.600000X-0.725000X0.600000X-0.725000X0*%
%TD*%
%TA.AperFunction,ComponentPad*%
%ADD12O,1.700000X1.950000*%
%TD*%
%TA.AperFunction,ComponentPad*%
%ADD13C,6.000000*%
%TD*%
%TA.AperFunction,ComponentPad*%
%ADD14R,1.700000X1.700000*%
%TD*%
%TA.AperFunction,ComponentPad*%
%ADD15C,1.700000*%
%TD*%
%TA.AperFunction,ComponentPad*%
%ADD16R,1.800000X1.800000*%
%TD*%
%TA.AperFunction,ComponentPad*%
%ADD17C,1.800000*%
%TD*%
%TA.AperFunction,ComponentPad*%
%ADD18RoundRect,0.250000X-0.725000X0.600000X-0.725000X-0.600000X0.725000X-0.600000X0.725000X0.600000X0*%
%TD*%
%TA.AperFunction,ComponentPad*%
%ADD19O,1.950000X1.700000*%
%TD*%
%TA.AperFunction,ComponentPad*%
%ADD20R,4.600000X2.000000*%
%TD*%
%TA.AperFunction,ComponentPad*%
%ADD21O,4.200000X2.000000*%
%TD*%
%TA.AperFunction,ComponentPad*%
%ADD22O,2.000000X4.200000*%
%TD*%
%TA.AperFunction,ComponentPad*%
%ADD23O,1.700000X2.000000*%
%TD*%
%TA.AperFunction,ViaPad*%
%ADD24C,1.200000*%
%TD*%
%TA.AperFunction,Conductor*%
%ADD25C,0.500000*%
%TD*%
%TA.AperFunction,Conductor*%
%ADD26C,1.000000*%
%TD*%
G04 APERTURE END LIST*
D10*
%TO.P,H8,1,1*%
%TO.N,unconnected-(H8-Pad1)*%
X136500000Y-69600000D03*
%TD*%
%TO.P,H7,1,1*%
%TO.N,unconnected-(H7-Pad1)*%
X78500000Y-126400000D03*
%TD*%
D11*
%TO.P,J5,1,Pin_1*%
%TO.N,GND*%
X111760000Y-75025000D03*
D12*
%TO.P,J5,2,Pin_2*%
%TO.N,+5V*%
X109260000Y-75025000D03*
%TO.P,J5,3,Pin_3*%
%TO.N,SERVO_PWM*%
X106760000Y-75025000D03*
%TD*%
D13*
%TO.P,H4,1,1*%
%TO.N,unconnected-(H4-Pad1)*%
X128100000Y-153100000D03*
%TD*%
D14*
%TO.P,J3,1,Pin_1*%
%TO.N,GND*%
X130000000Y-47460000D03*
D15*
%TO.P,J3,2,Pin_2*%
%TO.N,+5V*%
X130000000Y-50000000D03*
%TO.P,J3,3,Pin_3*%
%TO.N,SDA*%
X130000000Y-52540000D03*
%TO.P,J3,4,Pin_4*%
%TO.N,SCL*%
X130000000Y-55080000D03*
%TD*%
D16*
%TO.P,D2,1,K*%
%TO.N,GND*%
X143270000Y-52500000D03*
D17*
%TO.P,D2,2,A*%
%TO.N,Net-(D2-A)*%
X140730000Y-52500000D03*
%TD*%
D13*
%TO.P,H3,1,1*%
%TO.N,unconnected-(H3-Pad1)*%
X90000000Y-153100000D03*
%TD*%
%TO.P,H6,1,1*%
%TO.N,unconnected-(H6-Pad1)*%
X121200000Y-60000000D03*
%TD*%
D16*
%TO.P,D3,1,K*%
%TO.N,GND*%
X81230000Y-148165000D03*
D17*
%TO.P,D3,2,A*%
%TO.N,Net-(D3-A)*%
X83770000Y-148165000D03*
%TD*%
D18*
%TO.P,J4,1,Pin_1*%
%TO.N,ENA*%
X76000000Y-88500000D03*
D19*
%TO.P,J4,2,Pin_2*%
%TO.N,INA1*%
X76000000Y-91000000D03*
%TO.P,J4,3,Pin_3*%
%TO.N,INA2*%
X76000000Y-93500000D03*
%TO.P,J4,4,Pin_4*%
%TO.N,INB1*%
X76000000Y-96000000D03*
%TO.P,J4,5,Pin_5*%
%TO.N,INB2*%
X76000000Y-98500000D03*
%TO.P,J4,6,Pin_6*%
%TO.N,ENB*%
X76000000Y-101000000D03*
%TD*%
D20*
%TO.P,J2,1*%
%TO.N,+12V*%
X113000000Y-140845000D03*
D21*
%TO.P,J2,2*%
%TO.N,GND*%
X113000000Y-147145000D03*
D22*
%TO.P,J2,3*%
%TO.N,N/C*%
X117800000Y-143745000D03*
%TD*%
D13*
%TO.P,H2,1,1*%
%TO.N,unconnected-(H2-Pad1)*%
X128100000Y-115000000D03*
%TD*%
%TO.P,H1,1,1*%
%TO.N,unconnected-(H1-Pad1)*%
X90000000Y-115000000D03*
%TD*%
D16*
%TO.P,D4,1,K*%
%TO.N,GND*%
X140730000Y-148165000D03*
D17*
%TO.P,D4,2,A*%
%TO.N,Net-(D4-A)*%
X143270000Y-148165000D03*
%TD*%
D13*
%TO.P,H5,1,1*%
%TO.N,unconnected-(H5-Pad1)*%
X94000000Y-60000000D03*
%TD*%
D18*
%TO.P,J6,1,Pin_1*%
%TO.N,+5V*%
X148260000Y-94000000D03*
D19*
%TO.P,J6,2,Pin_2*%
%TO.N,GND*%
X148260000Y-96500000D03*
%TO.P,J6,3,Pin_3*%
%TO.N,+12V*%
X148260000Y-99000000D03*
%TD*%
D16*
%TO.P,D1,1,K*%
%TO.N,GND*%
X83770000Y-52500000D03*
D17*
%TO.P,D1,2,A*%
%TO.N,Net-(D1-A)*%
X81230000Y-52500000D03*
%TD*%
D14*
%TO.P,U1,1,3V3*%
%TO.N,unconnected-(U1-3V3-Pad1)*%
X89560000Y-108400000D03*
D23*
%TO.P,U1,2,CHIP_PU*%
%TO.N,unconnected-(U1-CHIP_PU-Pad2)*%
X92100000Y-108400000D03*
%TO.P,U1,3,SENSOR_VP/GPIO36/ADC1_CH0*%
%TO.N,unconnected-(U1-SENSOR_VP{slash}GPIO36{slash}ADC1_CH0-Pad3)*%
X94640000Y-108400000D03*
%TO.P,U1,4,SENSOR_VN/GPIO39/ADC1_CH3*%
%TO.N,unconnected-(U1-SENSOR_VN{slash}GPIO39{slash}ADC1_CH3-Pad4)*%
X97180000Y-108400000D03*
%TO.P,U1,5,VDET_1/GPIO34/ADC1_CH6*%
%TO.N,ADC_VOL*%
X99720000Y-108400000D03*
%TO.P,U1,6,VDET_2/GPIO35/ADC1_CH7*%
%TO.N,unconnected-(U1-VDET_2{slash}GPIO35{slash}ADC1_CH7-Pad6)*%
X102260000Y-108400000D03*
%TO.P,U1,7,32K_XP/GPIO32/ADC1_CH4*%
%TO.N,ENA*%
X104800000Y-108400000D03*
%TO.P,U1,8,32K_XN/GPIO33/ADC1_CH5*%
%TO.N,ENB*%
X107340000Y-108400000D03*
%TO.P,U1,9,DAC_1/ADC2_CH8/GPIO25*%
%TO.N,F_LED_RIGHT*%
X109880000Y-108400000D03*
%TO.P,U1,10,DAC_2/ADC2_CH9/GPIO26*%
%TO.N,B_LED_LEFT*%
X112420000Y-108400000D03*
%TO.P,U1,11,ADC2_CH7/GPIO27*%
%TO.N,B_LED_RIGHT*%
X114960000Y-108400000D03*
%TO.P,U1,12,MTMS/GPIO14/ADC2_CH6*%
%TO.N,unconnected-(U1-MTMS{slash}GPIO14{slash}ADC2_CH6-Pad12)*%
X117500000Y-108400000D03*
%TO.P,U1,13,MTDI/GPIO12/ADC2_CH5*%
%TO.N,unconnected-(U1-MTDI{slash}GPIO12{slash}ADC2_CH5-Pad13)*%
X120040000Y-108400000D03*
%TO.P,U1,14,GND*%
%TO.N,GND*%
X122580000Y-108400000D03*
%TO.P,U1,15,MTCK/GPIO13/ADC2_CH4*%
%TO.N,SERVO_PWM*%
X125120000Y-108400000D03*
%TO.P,U1,16,SD_DATA2/GPIO9*%
%TO.N,unconnected-(U1-SD_DATA2{slash}GPIO9-Pad16)*%
X127660000Y-108400000D03*
%TO.P,U1,17,SD_DATA3/GPIO10*%
%TO.N,unconnected-(U1-SD_DATA3{slash}GPIO10-Pad17)*%
X130200000Y-108400000D03*
%TO.P,U1,18,CMD*%
%TO.N,unconnected-(U1-CMD-Pad18)*%
X132740000Y-108400000D03*
%TO.P,U1,19,5V*%
%TO.N,+5V*%
X135280000Y-108400000D03*
%TO.P,U1,20,SD_CLK/GPIO6*%
%TO.N,unconnected-(U1-SD_CLK{slash}GPIO6-Pad20)*%
X89560000Y-83000000D03*
%TO.P,U1,21,SD_DATA0/GPIO7*%
%TO.N,unconnected-(U1-SD_DATA0{slash}GPIO7-Pad21)*%
X92100000Y-83000000D03*
%TO.P,U1,22,SD_DATA1/GPIO8*%
%TO.N,unconnected-(U1-SD_DATA1{slash}GPIO8-Pad22)*%
X94640000Y-83000000D03*
%TO.P,U1,23,MTDO/GPIO15/ADC2_CH3*%
%TO.N,unconnected-(U1-MTDO{slash}GPIO15{slash}ADC2_CH3-Pad23)*%
X97180000Y-83000000D03*
%TO.P,U1,24,ADC2_CH2/GPIO2*%
%TO.N,INA1*%
X99720000Y-83000000D03*
%TO.P,U1,25,GPIO0/BOOT/ADC2_CH1*%
%TO.N,unconnected-(U1-GPIO0{slash}BOOT{slash}ADC2_CH1-Pad25)*%
X102260000Y-83000000D03*
%TO.P,U1,26,ADC2_CH0/GPIO4*%
%TO.N,INA2*%
X104800000Y-83000000D03*
%TO.P,U1,27,GPIO16*%
%TO.N,unconnected-(U1-GPIO16-Pad27)*%
X107340000Y-83000000D03*
%TO.P,U1,28,GPIO17*%
%TO.N,unconnected-(U1-GPIO17-Pad28)*%
X109880000Y-83000000D03*
%TO.P,U1,29,GPIO5*%
%TO.N,unconnected-(U1-GPIO5-Pad29)*%
X112420000Y-83000000D03*
%TO.P,U1,30,GPIO18*%
%TO.N,INB1*%
X114960000Y-83000000D03*
%TO.P,U1,31,GPIO19*%
%TO.N,INB2*%
X117500000Y-83000000D03*
%TO.P,U1,32,GND*%
%TO.N,GND*%
X120040000Y-83000000D03*
%TO.P,U1,33,GPIO21*%
%TO.N,SDA*%
X122580000Y-83000000D03*
%TO.P,U1,34,U0RXD/GPIO3*%
%TO.N,unconnected-(U1-U0RXD{slash}GPIO3-Pad34)*%
X125120000Y-83000000D03*
%TO.P,U1,35,U0TXD/GPIO1*%
%TO.N,unconnected-(U1-U0TXD{slash}GPIO1-Pad35)*%
X127660000Y-83000000D03*
%TO.P,U1,36,GPIO22*%
%TO.N,SCL*%
X130200000Y-83000000D03*
%TO.P,U1,37,GPIO23*%
%TO.N,F_LED_LEFT*%
X132740000Y-83000000D03*
%TO.P,U1,38,GND*%
%TO.N,GND*%
X135280000Y-83000000D03*
%TD*%
D24*
%TO.N,ADC_VOL*%
X122000000Y-98000000D03*
%TO.N,B_LED_RIGHT*%
X139500000Y-146000000D03*
%TD*%
D25*
%TO.N,SERVO_PWM*%
X90500000Y-94000000D02*
X121500000Y-94000000D01*
X85500000Y-89000000D02*
X90500000Y-94000000D01*
X125120000Y-97620000D02*
X125120000Y-108400000D01*
X106760000Y-75025000D02*
X90975000Y-75025000D01*
X121500000Y-94000000D02*
X125120000Y-97620000D01*
X90975000Y-75025000D02*
X85500000Y-80500000D01*
X85500000Y-80500000D02*
X85500000Y-89000000D01*
%TO.N,SDA*%
X127500000Y-54500000D02*
X129460000Y-52540000D01*
X122580000Y-80920000D02*
X127500000Y-76000000D01*
X129460000Y-52540000D02*
X130000000Y-52540000D01*
X122580000Y-83000000D02*
X122580000Y-80920000D01*
X127500000Y-76000000D02*
X127500000Y-54500000D01*
%TO.N,SCL*%
X130000000Y-82800000D02*
X130200000Y-83000000D01*
X130000000Y-55080000D02*
X130000000Y-82800000D01*
D26*
%TO.N,+5V*%
X144000000Y-61500000D02*
X132500000Y-50000000D01*
X147000000Y-94000000D02*
X144000000Y-91000000D01*
X140100000Y-108400000D02*
X145000000Y-103500000D01*
X145000000Y-103500000D02*
X145000000Y-96000000D01*
X132500000Y-50000000D02*
X130000000Y-50000000D01*
X144000000Y-91000000D02*
X144000000Y-61500000D01*
X147000000Y-94000000D02*
X148260000Y-94000000D01*
X135280000Y-108400000D02*
X140100000Y-108400000D01*
X145000000Y-96000000D02*
X147000000Y-94000000D01*
D25*
%TO.N,ADC_VOL*%
X110120000Y-98000000D02*
X99720000Y-108400000D01*
X122000000Y-98000000D02*
X110120000Y-98000000D01*
%TO.N,B_LED_RIGHT*%
X138500000Y-146000000D02*
X139500000Y-146000000D01*
X128500000Y-146000000D02*
X138500000Y-146000000D01*
X114960000Y-132460000D02*
X126000000Y-143500000D01*
X126000000Y-143500000D02*
X128500000Y-146000000D01*
X114960000Y-108400000D02*
X114960000Y-132460000D01*
%TD*%
%TA.AperFunction,Conductor*%
%TO.N,GND*%
G36*
X128824337Y-46020185D02*
G01*
X128870092Y-46072989D01*
X128880036Y-46142147D01*
X128851011Y-46205703D01*
X128831610Y-46223766D01*
X128792809Y-46252812D01*
X128706649Y-46367906D01*
X128706645Y-46367913D01*
X128656403Y-46502620D01*
X128656401Y-46502627D01*
X128650000Y-46562155D01*
X128650000Y-47210000D01*
X129566988Y-47210000D01*
X129534075Y-47267007D01*
X129500000Y-47394174D01*
X129500000Y-47525826D01*
X129534075Y-47652993D01*
X129566988Y-47710000D01*
X128650000Y-47710000D01*
X128650000Y-48357844D01*
X128656401Y-48417372D01*
X128656403Y-48417379D01*
X128706645Y-48552086D01*
X128706649Y-48552093D01*
X128792809Y-48667187D01*
X128792812Y-48667190D01*
X128907906Y-48753350D01*
X128907913Y-48753354D01*
X129042620Y-48803596D01*
X129042627Y-48803598D01*
X129102155Y-48809999D01*
X129102172Y-48810000D01*
X129394949Y-48810000D01*
X129461988Y-48829685D01*
X129507743Y-48882489D01*
X129517687Y-48951647D01*
X129488662Y-49015203D01*
X129451244Y-49044485D01*
X129423211Y-49058768D01*
X129343256Y-49116859D01*
X129283072Y-49160586D01*
X129283070Y-49160588D01*
X129283069Y-49160588D01*
X129160588Y-49283069D01*
X129160588Y-49283070D01*
X129160586Y-49283072D01*
X129122921Y-49334913D01*
X129058768Y-49423211D01*
X128980128Y-49577552D01*
X128926597Y-49742302D01*
X128899500Y-49913389D01*
X128899500Y-50086611D01*
X128926598Y-50257701D01*
X128980127Y-50422445D01*
X129058768Y-50576788D01*
X129160586Y-50716928D01*
X129283072Y-50839414D01*
X129423212Y-50941232D01*
X129577555Y-51019873D01*
X129742299Y-51073402D01*
X129913389Y-51100500D01*
X129913390Y-51100500D01*
X130086610Y-51100500D01*
X130086611Y-51100500D01*
X130257701Y-51073402D01*
X130422445Y-51019873D01*
X130576788Y-50941232D01*
X130716928Y-50839414D01*
X130769523Y-50786819D01*
X130830846Y-50753334D01*
X130857204Y-50750500D01*
X132137770Y-50750500D01*
X132204809Y-50770185D01*
X132225451Y-50786819D01*
X143213181Y-61774549D01*
X143246666Y-61835872D01*
X143249500Y-61862230D01*
X143249500Y-91073918D01*
X143249500Y-91073920D01*
X143249499Y-91073920D01*
X143278340Y-91218907D01*
X143278343Y-91218917D01*
X143334914Y-91355492D01*
X143367812Y-91404727D01*
X143367813Y-91404730D01*
X143417046Y-91478414D01*
X143417052Y-91478421D01*
X145850950Y-93912318D01*
X145884435Y-93973641D01*
X145879451Y-94043333D01*
X145850950Y-94087680D01*
X144417049Y-95521581D01*
X144379649Y-95577554D01*
X144379650Y-95577555D01*
X144334914Y-95644508D01*
X144278343Y-95781082D01*
X144278340Y-95781092D01*
X144249500Y-95926079D01*
X144249500Y-103137770D01*
X144229815Y-103204809D01*
X144213181Y-103225451D01*
X139825451Y-107613181D01*
X139764128Y-107646666D01*
X139737770Y-107649500D01*
X136267185Y-107649500D01*
X136200146Y-107629815D01*
X136166867Y-107598386D01*
X136119414Y-107533072D01*
X135996928Y-107410586D01*
X135856788Y-107308768D01*
X135702445Y-107230127D01*
X135537701Y-107176598D01*
X135537699Y-107176597D01*
X135537698Y-107176597D01*
X135406271Y-107155781D01*
X135366611Y-107149500D01*
X135193389Y-107149500D01*
X135153728Y-107155781D01*
X135022302Y-107176597D01*
X134857552Y-107230128D01*
X134703211Y-107308768D01*
X134623256Y-107366859D01*
X134563072Y-107410586D01*
X134563070Y-107410588D01*
X134563069Y-107410588D01*
X134440588Y-107533069D01*
X134440588Y-107533070D01*
X134440586Y-107533072D01*
X134396859Y-107593256D01*
X134338768Y-107673211D01*
X134260128Y-107827552D01*
X134206597Y-107992302D01*
X134179500Y-108163389D01*
X134179500Y-108636610D01*
X134192594Y-108719287D01*
X134206598Y-108807701D01*
X134260127Y-108972445D01*
X134338768Y-109126788D01*
X134440586Y-109266928D01*
X134563072Y-109389414D01*
X134703212Y-109491232D01*
X134857555Y-109569873D01*
X135022299Y-109623402D01*
X135193389Y-109650500D01*
X135193390Y-109650500D01*
X135366610Y-109650500D01*
X135366611Y-109650500D01*
X135537701Y-109623402D01*
X135702445Y-109569873D01*
X135856788Y-109491232D01*
X135996928Y-109389414D01*
X136119414Y-109266928D01*
X136166868Y-109201613D01*
X136222197Y-109158949D01*
X136267185Y-109150500D01*
X140173920Y-109150500D01*
X140293123Y-109126788D01*
X140318913Y-109121658D01*
X140455495Y-109065084D01*
X140504729Y-109032186D01*
X140578416Y-108982952D01*
X145582951Y-103978416D01*
X145665084Y-103855495D01*
X145721658Y-103718913D01*
X145750500Y-103573918D01*
X145750500Y-96362228D01*
X145770185Y-96295189D01*
X145786814Y-96274552D01*
X147059369Y-95001996D01*
X147120690Y-94968513D01*
X147190382Y-94973497D01*
X147221354Y-94990410D01*
X147292665Y-95043793D01*
X147292668Y-95043795D01*
X147292671Y-95043797D01*
X147427517Y-95094091D01*
X147435062Y-95095874D01*
X147434296Y-95099113D01*
X147484848Y-95120052D01*
X147524696Y-95177444D01*
X147527190Y-95247269D01*
X147491538Y-95307358D01*
X147463339Y-95327088D01*
X147427442Y-95345378D01*
X147255540Y-95470272D01*
X147255535Y-95470276D01*
X147105276Y-95620535D01*
X147105272Y-95620540D01*
X146980379Y-95792442D01*
X146883904Y-95981782D01*
X146818242Y-96183870D01*
X146818242Y-96183873D01*
X146807769Y-96250000D01*
X147855854Y-96250000D01*
X147817370Y-96316657D01*
X147785000Y-96437465D01*
X147785000Y-96562535D01*
X147817370Y-96683343D01*
X147855854Y-96750000D01*
X146807769Y-96750000D01*
X146818242Y-96816126D01*
X146818242Y-96816129D01*
X146883904Y-97018217D01*
X146980379Y-97207557D01*
X147105272Y-97379459D01*
X147105276Y-97379464D01*
X147255535Y-97529723D01*
X147255540Y-97529727D01*
X147427442Y-97654620D01*
X147616778Y-97751093D01*
X147665022Y-97766768D01*
X147722698Y-97806205D01*
X147749897Y-97870563D01*
X147737983Y-97939410D01*
X147690740Y-97990886D01*
X147683000Y-97995185D01*
X147558211Y-98058768D01*
X147523798Y-98083771D01*
X147418072Y-98160586D01*
X147418070Y-98160588D01*
X147418069Y-98160588D01*
X147295588Y-98283069D01*
X147295588Y-98283070D01*
X147295586Y-98283072D01*
X147251859Y-98343256D01*
X147193768Y-98423211D01*
X147115128Y-98577552D01*
X147061597Y-98742302D01*
X147034500Y-98913389D01*
X147034500Y-99086610D01*
X147055140Y-99216930D01*
X147061598Y-99257701D01*
X147115127Y-99422445D01*
X147193768Y-99576788D01*
X147295586Y-99716928D01*
X147418072Y-99839414D01*
X147558212Y-99941232D01*
X147712555Y-100019873D01*
X147877299Y-100073402D01*
X148048389Y-100100500D01*
X148048390Y-100100500D01*
X148471610Y-100100500D01*
X148471611Y-100100500D01*
X148642701Y-100073402D01*
X148807445Y-100019873D01*
X148961788Y-99941232D01*
X149101928Y-99839414D01*
X149224414Y-99716928D01*
X149326232Y-99576788D01*
X149404873Y-99422445D01*
X149458402Y-99257701D01*
X149485500Y-99086611D01*
X149485500Y-98913389D01*
X149458402Y-98742299D01*
X149404873Y-98577555D01*
X149326232Y-98423212D01*
X149224414Y-98283072D01*
X149101928Y-98160586D01*
X148961788Y-98058768D01*
X148836999Y-97995185D01*
X148786203Y-97947210D01*
X148769408Y-97879389D01*
X148791945Y-97813255D01*
X148846660Y-97769803D01*
X148854978Y-97766768D01*
X148903219Y-97751094D01*
X149092557Y-97654620D01*
X149264459Y-97529727D01*
X149264464Y-97529723D01*
X149414723Y-97379464D01*
X149414727Y-97379459D01*
X149539620Y-97207557D01*
X149636095Y-97018217D01*
X149701757Y-96816129D01*
X149701757Y-96816126D01*
X149712231Y-96750000D01*
X148664146Y-96750000D01*
X148702630Y-96683343D01*
X148735000Y-96562535D01*
X148735000Y-96437465D01*
X148702630Y-96316657D01*
X148664146Y-96250000D01*
X149712231Y-96250000D01*
X149701757Y-96183873D01*
X149701757Y-96183870D01*
X149636095Y-95981782D01*
X149539620Y-95792442D01*
X149414727Y-95620540D01*
X149414723Y-95620535D01*
X149264464Y-95470276D01*
X149264459Y-95470272D01*
X149092557Y-95345378D01*
X149056661Y-95327088D01*
X149005866Y-95279113D01*
X148989072Y-95211292D01*
X149011610Y-95145157D01*
X149066326Y-95101706D01*
X149085192Y-95096978D01*
X149084932Y-95095876D01*
X149092479Y-95094092D01*
X149092481Y-95094091D01*
X149092483Y-95094091D01*
X149227331Y-95043796D01*
X149342546Y-94957546D01*
X149428796Y-94842331D01*
X149479091Y-94707483D01*
X149485500Y-94647873D01*
X149485499Y-93352128D01*
X149479091Y-93292517D01*
X149428796Y-93157669D01*
X149428795Y-93157668D01*
X149428793Y-93157664D01*
X149342547Y-93042455D01*
X149342544Y-93042452D01*
X149227335Y-92956206D01*
X149227328Y-92956202D01*
X149092482Y-92905908D01*
X149092483Y-92905908D01*
X149032883Y-92899501D01*
X149032881Y-92899500D01*
X149032873Y-92899500D01*
X149032864Y-92899500D01*
X147487129Y-92899500D01*
X147487123Y-92899501D01*
X147427516Y-92905908D01*
X147292671Y-92956202D01*
X147292665Y-92956206D01*
X147221358Y-93009586D01*
X147155894Y-93034003D01*
X147087621Y-93019151D01*
X147059367Y-92998000D01*
X144786819Y-90725451D01*
X144753334Y-90664128D01*
X144750500Y-90637770D01*
X144750500Y-61426079D01*
X144721659Y-61281092D01*
X144721658Y-61281091D01*
X144721658Y-61281087D01*
X144665084Y-61144505D01*
X144632186Y-61095270D01*
X144632185Y-61095268D01*
X144582956Y-61021589D01*
X144582952Y-61021584D01*
X136053632Y-52492263D01*
X135970817Y-52409448D01*
X139579500Y-52409448D01*
X139579500Y-52590551D01*
X139607829Y-52769410D01*
X139663787Y-52941636D01*
X139663788Y-52941639D01*
X139746006Y-53102997D01*
X139852441Y-53249494D01*
X139852445Y-53249499D01*
X139980500Y-53377554D01*
X139980505Y-53377558D01*
X140108287Y-53470396D01*
X140127006Y-53483996D01*
X140232484Y-53537740D01*
X140288360Y-53566211D01*
X140288363Y-53566212D01*
X140374476Y-53594191D01*
X140460591Y-53622171D01*
X140543429Y-53635291D01*
X140639449Y-53650500D01*
X140639454Y-53650500D01*
X140820551Y-53650500D01*
X140907259Y-53636765D01*
X140999409Y-53622171D01*
X141171639Y-53566211D01*
X141332994Y-53483996D01*
X141479501Y-53377553D01*
X141607553Y-53249501D01*
X141645681Y-53197021D01*
X141701011Y-53154355D01*
X141770624Y-53148375D01*
X141832419Y-53180981D01*
X141866777Y-53241819D01*
X141870000Y-53269906D01*
X141870000Y-53447844D01*
X141876401Y-53507372D01*
X141876403Y-53507379D01*
X141926645Y-53642086D01*
X141926649Y-53642093D01*
X142012809Y-53757187D01*
X142012812Y-53757190D01*
X142127906Y-53843350D01*
X142127913Y-53843354D01*
X142262620Y-53893596D01*
X142262627Y-53893598D01*
X142322155Y-53899999D01*
X142322172Y-53900000D01*
X143020000Y-53900000D01*
X143020000Y-52875277D01*
X143096306Y-52919333D01*
X143210756Y-52950000D01*
X143329244Y-52950000D01*
X143443694Y-52919333D01*
X143520000Y-52875277D01*
X143520000Y-53900000D01*
X144217828Y-53900000D01*
X144217844Y-53899999D01*
X144277372Y-53893598D01*
X144277379Y-53893596D01*
X144412086Y-53843354D01*
X144412093Y-53843350D01*
X144527187Y-53757190D01*
X144527190Y-53757187D01*
X144613350Y-53642093D01*
X144613354Y-53642086D01*
X144663596Y-53507379D01*
X144663598Y-53507372D01*
X144669999Y-53447844D01*
X144670000Y-53447827D01*
X144670000Y-52750000D01*
X143645278Y-52750000D01*
X143689333Y-52673694D01*
X143720000Y-52559244D01*
X143720000Y-52440756D01*
X143689333Y-52326306D01*
X143645278Y-52250000D01*
X144670000Y-52250000D01*
X144670000Y-51552172D01*
X144669999Y-51552155D01*
X144663598Y-51492627D01*
X144663596Y-51492620D01*
X144613354Y-51357913D01*
X144613350Y-51357906D01*
X144527190Y-51242812D01*
X144527187Y-51242809D01*
X144412093Y-51156649D01*
X144412086Y-51156645D01*
X144277379Y-51106403D01*
X144277372Y-51106401D01*
X144217844Y-51100000D01*
X143520000Y-51100000D01*
X143520000Y-52124722D01*
X143443694Y-52080667D01*
X143329244Y-52050000D01*
X143210756Y-52050000D01*
X143096306Y-52080667D01*
X143020000Y-52124722D01*
X143020000Y-51100000D01*
X142322155Y-51100000D01*
X142262627Y-51106401D01*
X142262620Y-51106403D01*
X142127913Y-51156645D01*
X142127906Y-51156649D01*
X142012812Y-51242809D01*
X142012809Y-51242812D01*
X141926649Y-51357906D01*
X141926645Y-51357913D01*
X141876403Y-51492620D01*
X141876401Y-51492627D01*
X141870000Y-51552155D01*
X141870000Y-51730093D01*
X141850315Y-51797132D01*
X141797511Y-51842887D01*
X141728353Y-51852831D01*
X141664797Y-51823806D01*
X141645682Y-51802978D01*
X141607558Y-51750505D01*
X141607554Y-51750500D01*
X141479499Y-51622445D01*
X141479494Y-51622441D01*
X141332997Y-51516006D01*
X141332996Y-51516005D01*
X141332994Y-51516004D01*
X141281300Y-51489664D01*
X141171639Y-51433788D01*
X141171636Y-51433787D01*
X140999410Y-51377829D01*
X140820551Y-51349500D01*
X140820546Y-51349500D01*
X140639454Y-51349500D01*
X140639449Y-51349500D01*
X140460589Y-51377829D01*
X140288363Y-51433787D01*
X140288360Y-51433788D01*
X140127002Y-51516006D01*
X139980505Y-51622441D01*
X139980500Y-51622445D01*
X139852445Y-51750500D01*
X139852441Y-51750505D01*
X139746006Y-51897002D01*
X139663788Y-52058360D01*
X139663787Y-52058363D01*
X139607829Y-52230589D01*
X139579500Y-52409448D01*
X135970817Y-52409448D01*
X132978421Y-49417052D01*
X132978414Y-49417046D01*
X132904729Y-49367812D01*
X132904729Y-49367813D01*
X132855491Y-49334913D01*
X132718917Y-49278343D01*
X132718907Y-49278340D01*
X132573920Y-49249500D01*
X132573918Y-49249500D01*
X130857204Y-49249500D01*
X130790165Y-49229815D01*
X130769523Y-49213181D01*
X130716930Y-49160588D01*
X130716928Y-49160586D01*
X130576788Y-49058768D01*
X130548756Y-49044485D01*
X130497960Y-48996510D01*
X130481165Y-48928689D01*
X130503703Y-48862554D01*
X130558418Y-48819103D01*
X130605051Y-48810000D01*
X130897828Y-48810000D01*
X130897844Y-48809999D01*
X130957372Y-48803598D01*
X130957379Y-48803596D01*
X131092086Y-48753354D01*
X131092093Y-48753350D01*
X131207187Y-48667190D01*
X131207190Y-48667187D01*
X131293350Y-48552093D01*
X131293354Y-48552086D01*
X131343596Y-48417379D01*
X131343598Y-48417372D01*
X131349999Y-48357844D01*
X131350000Y-48357827D01*
X131350000Y-47710000D01*
X130433012Y-47710000D01*
X130465925Y-47652993D01*
X130500000Y-47525826D01*
X130500000Y-47394174D01*
X130465925Y-47267007D01*
X130433012Y-47210000D01*
X131350000Y-47210000D01*
X131350000Y-46562172D01*
X131349999Y-46562155D01*
X131343598Y-46502627D01*
X131343596Y-46502620D01*
X131293354Y-46367913D01*
X131293350Y-46367906D01*
X131207190Y-46252812D01*
X131168390Y-46223766D01*
X131126520Y-46167832D01*
X131121536Y-46098140D01*
X131155022Y-46036818D01*
X131216345Y-46003333D01*
X131242702Y-46000500D01*
X142934108Y-46000500D01*
X142996249Y-46000500D01*
X143003736Y-46000726D01*
X143293796Y-46018271D01*
X143308657Y-46020075D01*
X143400017Y-46036818D01*
X143590798Y-46071780D01*
X143605335Y-46075363D01*
X143879172Y-46160695D01*
X143893163Y-46166000D01*
X144154743Y-46283727D01*
X144167989Y-46290680D01*
X144413465Y-46439075D01*
X144425776Y-46447573D01*
X144651573Y-46624473D01*
X144662781Y-46634403D01*
X144865596Y-46837218D01*
X144875526Y-46848426D01*
X144995481Y-47001538D01*
X145052422Y-47074217D01*
X145060928Y-47086540D01*
X145209316Y-47332004D01*
X145216275Y-47345263D01*
X145333997Y-47606831D01*
X145339306Y-47620832D01*
X145424635Y-47894663D01*
X145428219Y-47909201D01*
X145479923Y-48191340D01*
X145481728Y-48206205D01*
X145499274Y-48496263D01*
X145499500Y-48503750D01*
X145499500Y-79171965D01*
X145533210Y-79514249D01*
X145600308Y-79851572D01*
X145700150Y-80180706D01*
X145831770Y-80498464D01*
X145831772Y-80498469D01*
X145993893Y-80801775D01*
X145993904Y-80801793D01*
X146184975Y-81087751D01*
X146184985Y-81087765D01*
X146403176Y-81353632D01*
X146646367Y-81596823D01*
X146646372Y-81596827D01*
X146646373Y-81596828D01*
X146912240Y-81815019D01*
X147198213Y-82006100D01*
X147198222Y-82006105D01*
X147198224Y-82006106D01*
X147501530Y-82168227D01*
X147501532Y-82168227D01*
X147501538Y-82168231D01*
X147819295Y-82299850D01*
X148148422Y-82399690D01*
X148485750Y-82466789D01*
X148828031Y-82500500D01*
X148934108Y-82500500D01*
X151934108Y-82500500D01*
X151996249Y-82500500D01*
X152003736Y-82500726D01*
X152293796Y-82518271D01*
X152308657Y-82520075D01*
X152383941Y-82533872D01*
X152590798Y-82571780D01*
X152605335Y-82575363D01*
X152879172Y-82660695D01*
X152893163Y-82666000D01*
X153154743Y-82783727D01*
X153167989Y-82790680D01*
X153413465Y-82939075D01*
X153425776Y-82947573D01*
X153516016Y-83018271D01*
X153651573Y-83124473D01*
X153662781Y-83134403D01*
X153865596Y-83337218D01*
X153875526Y-83348426D01*
X154051034Y-83572446D01*
X154052422Y-83574217D01*
X154060926Y-83586537D01*
X154145711Y-83726788D01*
X154209316Y-83832004D01*
X154216275Y-83845263D01*
X154333997Y-84106831D01*
X154339306Y-84120832D01*
X154424635Y-84394663D01*
X154428219Y-84409201D01*
X154479923Y-84691340D01*
X154481728Y-84706205D01*
X154499274Y-84996263D01*
X154499500Y-85003750D01*
X154499500Y-157996249D01*
X154499274Y-158003736D01*
X154481728Y-158293794D01*
X154479923Y-158308659D01*
X154428219Y-158590798D01*
X154424635Y-158605336D01*
X154339306Y-158879167D01*
X154333997Y-158893168D01*
X154216275Y-159154736D01*
X154209316Y-159167995D01*
X154060928Y-159413459D01*
X154052422Y-159425782D01*
X153875526Y-159651573D01*
X153865596Y-159662781D01*
X153662781Y-159865596D01*
X153651573Y-159875526D01*
X153425782Y-160052422D01*
X153413459Y-160060928D01*
X153167995Y-160209316D01*
X153154736Y-160216275D01*
X152893168Y-160333997D01*
X152879167Y-160339306D01*
X152605336Y-160424635D01*
X152590798Y-160428219D01*
X152308659Y-160479923D01*
X152293794Y-160481728D01*
X152003736Y-160499274D01*
X151996249Y-160499500D01*
X73503751Y-160499500D01*
X73496264Y-160499274D01*
X73206205Y-160481728D01*
X73191340Y-160479923D01*
X72909201Y-160428219D01*
X72894663Y-160424635D01*
X72620832Y-160339306D01*
X72606831Y-160333997D01*
X72345263Y-160216275D01*
X72332004Y-160209316D01*
X72086540Y-160060928D01*
X72074217Y-160052422D01*
X71848426Y-159875526D01*
X71837218Y-159865596D01*
X71634403Y-159662781D01*
X71624473Y-159651573D01*
X71447573Y-159425776D01*
X71439075Y-159413465D01*
X71290680Y-159167989D01*
X71283727Y-159154743D01*
X71166000Y-158893163D01*
X71160693Y-158879167D01*
X71075364Y-158605336D01*
X71071780Y-158590798D01*
X71020076Y-158308659D01*
X71018271Y-158293794D01*
X71000726Y-158003736D01*
X71000500Y-157996249D01*
X71000500Y-152940316D01*
X86749500Y-152940316D01*
X86749500Y-153259683D01*
X86780803Y-153577522D01*
X86843109Y-153890754D01*
X86935820Y-154196382D01*
X87058040Y-154491446D01*
X87058042Y-154491451D01*
X87208584Y-154773094D01*
X87208601Y-154773122D01*
X87386012Y-155038638D01*
X87386029Y-155038661D01*
X87588638Y-155285540D01*
X87814459Y-155511361D01*
X87814464Y-155511365D01*
X87814465Y-155511366D01*
X88061344Y-155713975D01*
X88061351Y-155713980D01*
X88061361Y-155713987D01*
X88326877Y-155891398D01*
X88326882Y-155891401D01*
X88326894Y-155891409D01*
X88326903Y-155891413D01*
X88326905Y-155891415D01*
X88608548Y-156041957D01*
X88608550Y-156041957D01*
X88608556Y-156041961D01*
X88903619Y-156164180D01*
X89209240Y-156256889D01*
X89522477Y-156319196D01*
X89840313Y-156350500D01*
X89840316Y-156350500D01*
X90159684Y-156350500D01*
X90159687Y-156350500D01*
X90477523Y-156319196D01*
X90790760Y-156256889D01*
X91096381Y-156164180D01*
X91391444Y-156041961D01*
X91673106Y-155891409D01*
X91938656Y-155713975D01*
X92185535Y-155511366D01*
X92411366Y-155285535D01*
X92613975Y-155038656D01*
X92791409Y-154773106D01*
X92941961Y-154491444D01*
X93064180Y-154196381D01*
X93156889Y-153890760D01*
X93219196Y-153577523D01*
X93250500Y-153259687D01*
X93250500Y-152940316D01*
X124849500Y-152940316D01*
X124849500Y-153259683D01*
X124880803Y-153577522D01*
X124943109Y-153890754D01*
X125035820Y-154196382D01*
X125158040Y-154491446D01*
X125158042Y-154491451D01*
X125308584Y-154773094D01*
X125308601Y-154773122D01*
X125486012Y-155038638D01*
X125486029Y-155038661D01*
X125688638Y-155285540D01*
X125914459Y-155511361D01*
X125914464Y-155511365D01*
X125914465Y-155511366D01*
X126161344Y-155713975D01*
X126161351Y-155713980D01*
X126161361Y-155713987D01*
X126426877Y-155891398D01*
X126426882Y-155891401D01*
X126426894Y-155891409D01*
X126426903Y-155891413D01*
X126426905Y-155891415D01*
X126708548Y-156041957D01*
X126708550Y-156041957D01*
X126708556Y-156041961D01*
X127003619Y-156164180D01*
X127309240Y-156256889D01*
X127622477Y-156319196D01*
X127940313Y-156350500D01*
X127940316Y-156350500D01*
X128259684Y-156350500D01*
X128259687Y-156350500D01*
X128577523Y-156319196D01*
X128890760Y-156256889D01*
X129196381Y-156164180D01*
X129491444Y-156041961D01*
X129773106Y-155891409D01*
X130038656Y-155713975D01*
X130285535Y-155511366D01*
X130511366Y-155285535D01*
X130713975Y-155038656D01*
X130891409Y-154773106D01*
X131041961Y-154491444D01*
X131164180Y-154196381D01*
X131256889Y-153890760D01*
X131319196Y-153577523D01*
X131350500Y-153259687D01*
X131350500Y-152940313D01*
X131319196Y-152622477D01*
X131256889Y-152309240D01*
X131164180Y-152003619D01*
X131041961Y-151708556D01*
X130891409Y-151426894D01*
X130891398Y-151426877D01*
X130713987Y-151161361D01*
X130713980Y-151161351D01*
X130713975Y-151161344D01*
X130511366Y-150914465D01*
X130511365Y-150914464D01*
X130511361Y-150914459D01*
X130285540Y-150688638D01*
X130038661Y-150486029D01*
X130038638Y-150486012D01*
X129773122Y-150308601D01*
X129773094Y-150308584D01*
X129491451Y-150158042D01*
X129491446Y-150158040D01*
X129196382Y-150035820D01*
X128890754Y-149943109D01*
X128577521Y-149880803D01*
X128577522Y-149880803D01*
X128338141Y-149857227D01*
X128259687Y-149849500D01*
X127940313Y-149849500D01*
X127867822Y-149856639D01*
X127622477Y-149880803D01*
X127309245Y-149943109D01*
X127003617Y-150035820D01*
X126708553Y-150158040D01*
X126708548Y-150158042D01*
X126426905Y-150308584D01*
X126426877Y-150308601D01*
X126161361Y-150486012D01*
X126161338Y-150486029D01*
X125914459Y-150688638D01*
X125688638Y-150914459D01*
X125486029Y-151161338D01*
X125486012Y-151161361D01*
X125308601Y-151426877D01*
X125308584Y-151426905D01*
X125158042Y-151708548D01*
X125158040Y-151708553D01*
X125035820Y-152003617D01*
X124943109Y-152309245D01*
X124880803Y-152622477D01*
X124849500Y-152940316D01*
X93250500Y-152940316D01*
X93250500Y-152940313D01*
X93219196Y-152622477D01*
X93156889Y-152309240D01*
X93064180Y-152003619D01*
X92941961Y-151708556D01*
X92791409Y-151426894D01*
X92791398Y-151426877D01*
X92613987Y-151161361D01*
X92613980Y-151161351D01*
X92613975Y-151161344D01*
X92411366Y-150914465D01*
X92411365Y-150914464D01*
X92411361Y-150914459D01*
X92185540Y-150688638D01*
X91938661Y-150486029D01*
X91938638Y-150486012D01*
X91673122Y-150308601D01*
X91673094Y-150308584D01*
X91391451Y-150158042D01*
X91391446Y-150158040D01*
X91096382Y-150035820D01*
X90790754Y-149943109D01*
X90477521Y-149880803D01*
X90477522Y-149880803D01*
X90238141Y-149857227D01*
X90159687Y-149849500D01*
X89840313Y-149849500D01*
X89767822Y-149856639D01*
X89522477Y-149880803D01*
X89209245Y-149943109D01*
X88903617Y-150035820D01*
X88608553Y-150158040D01*
X88608548Y-150158042D01*
X88326905Y-150308584D01*
X88326877Y-150308601D01*
X88061361Y-150486012D01*
X88061338Y-150486029D01*
X87814459Y-150688638D01*
X87588638Y-150914459D01*
X87386029Y-151161338D01*
X87386012Y-151161361D01*
X87208601Y-151426877D01*
X87208584Y-151426905D01*
X87058042Y-151708548D01*
X87058040Y-151708553D01*
X86935820Y-152003617D01*
X86843109Y-152309245D01*
X86780803Y-152622477D01*
X86749500Y-152940316D01*
X71000500Y-152940316D01*
X71000500Y-147217155D01*
X79830000Y-147217155D01*
X79830000Y-147915000D01*
X80854722Y-147915000D01*
X80810667Y-147991306D01*
X80780000Y-148105756D01*
X80780000Y-148224244D01*
X80810667Y-148338694D01*
X80854722Y-148415000D01*
X79830000Y-148415000D01*
X79830000Y-149112844D01*
X79836401Y-149172372D01*
X79836403Y-149172379D01*
X79886645Y-149307086D01*
X79886649Y-149307093D01*
X79972809Y-149422187D01*
X79972812Y-149422190D01*
X80087906Y-149508350D01*
X80087913Y-149508354D01*
X80222620Y-149558596D01*
X80222627Y-149558598D01*
X80282155Y-149564999D01*
X80282172Y-149565000D01*
X80980000Y-149565000D01*
X80980000Y-148540277D01*
X81056306Y-148584333D01*
X81170756Y-148615000D01*
X81289244Y-148615000D01*
X81403694Y-148584333D01*
X81480000Y-148540277D01*
X81480000Y-149565000D01*
X82177828Y-149565000D01*
X82177844Y-149564999D01*
X82237372Y-149558598D01*
X82237379Y-149558596D01*
X82372086Y-149508354D01*
X82372093Y-149508350D01*
X82487187Y-149422190D01*
X82487190Y-149422187D01*
X82573350Y-149307093D01*
X82573354Y-149307086D01*
X82623596Y-149172379D01*
X82623598Y-149172372D01*
X82629999Y-149112844D01*
X82630000Y-149112827D01*
X82630000Y-148934906D01*
X82649685Y-148867867D01*
X82702489Y-148822112D01*
X82771647Y-148812168D01*
X82835203Y-148841193D01*
X82854319Y-148862022D01*
X82892443Y-148914497D01*
X83020500Y-149042554D01*
X83020505Y-149042558D01*
X83117223Y-149112827D01*
X83167006Y-149148996D01*
X83272484Y-149202740D01*
X83328360Y-149231211D01*
X83328363Y-149231212D01*
X83414476Y-149259191D01*
X83500591Y-149287171D01*
X83583429Y-149300291D01*
X83679449Y-149315500D01*
X83679454Y-149315500D01*
X83860551Y-149315500D01*
X83947259Y-149301765D01*
X84039409Y-149287171D01*
X84211639Y-149231211D01*
X84372994Y-149148996D01*
X84519501Y-149042553D01*
X84647553Y-148914501D01*
X84753996Y-148767994D01*
X84836211Y-148606639D01*
X84892171Y-148434409D01*
X84907331Y-148338694D01*
X84920500Y-148255551D01*
X84920500Y-148074448D01*
X84895245Y-147915000D01*
X84892171Y-147895591D01*
X84836211Y-147723361D01*
X84836211Y-147723360D01*
X84796284Y-147645000D01*
X84753996Y-147562006D01*
X84741712Y-147545099D01*
X84658689Y-147430825D01*
X84658687Y-147430823D01*
X84647554Y-147415500D01*
X84519499Y-147287445D01*
X84519494Y-147287441D01*
X84372997Y-147181006D01*
X84372996Y-147181005D01*
X84372994Y-147181004D01*
X84321300Y-147154664D01*
X84211639Y-147098788D01*
X84211636Y-147098787D01*
X84061462Y-147049994D01*
X84039410Y-147042829D01*
X83860551Y-147014500D01*
X83860546Y-147014500D01*
X83679454Y-147014500D01*
X83679449Y-147014500D01*
X83500589Y-147042829D01*
X83328363Y-147098787D01*
X83328360Y-147098788D01*
X83167002Y-147181006D01*
X83020505Y-147287441D01*
X83020500Y-147287445D01*
X82892445Y-147415500D01*
X82892441Y-147415505D01*
X82854318Y-147467978D01*
X82798988Y-147510644D01*
X82729375Y-147516623D01*
X82667580Y-147484018D01*
X82633223Y-147423179D01*
X82630000Y-147395093D01*
X82630000Y-147217172D01*
X82629999Y-147217155D01*
X82623598Y-147157627D01*
X82623596Y-147157620D01*
X82573354Y-147022913D01*
X82573350Y-147022906D01*
X82487190Y-146907812D01*
X82487187Y-146907809D01*
X82470077Y-146895000D01*
X110420898Y-146895000D01*
X111466988Y-146895000D01*
X111434075Y-146952007D01*
X111400000Y-147079174D01*
X111400000Y-147210826D01*
X111434075Y-147337993D01*
X111466988Y-147395000D01*
X110420898Y-147395000D01*
X110436934Y-147496247D01*
X110509897Y-147720802D01*
X110617085Y-147931171D01*
X110755866Y-148122186D01*
X110922813Y-148289133D01*
X111113828Y-148427914D01*
X111324197Y-148535102D01*
X111548752Y-148608065D01*
X111548751Y-148608065D01*
X111781948Y-148645000D01*
X112750000Y-148645000D01*
X112750000Y-147645000D01*
X113250000Y-147645000D01*
X113250000Y-148645000D01*
X114218052Y-148645000D01*
X114451247Y-148608065D01*
X114675802Y-148535102D01*
X114886171Y-148427914D01*
X115077186Y-148289133D01*
X115090363Y-148275957D01*
X115244133Y-148122186D01*
X115382914Y-147931171D01*
X115490102Y-147720802D01*
X115563065Y-147496247D01*
X115579102Y-147395000D01*
X114533012Y-147395000D01*
X114565925Y-147337993D01*
X114600000Y-147210826D01*
X114600000Y-147079174D01*
X114565925Y-146952007D01*
X114533012Y-146895000D01*
X115579102Y-146895000D01*
X115563065Y-146793752D01*
X115490102Y-146569197D01*
X115382914Y-146358828D01*
X115244133Y-146167813D01*
X115077186Y-146000866D01*
X114886171Y-145862085D01*
X114675802Y-145754897D01*
X114451247Y-145681934D01*
X114451248Y-145681934D01*
X114218052Y-145645000D01*
X113250000Y-145645000D01*
X113250000Y-146645000D01*
X112750000Y-146645000D01*
X112750000Y-145645000D01*
X111781948Y-145645000D01*
X111548752Y-145681934D01*
X111324197Y-145754897D01*
X111113828Y-145862085D01*
X110922813Y-146000866D01*
X110755866Y-146167813D01*
X110617085Y-146358828D01*
X110509897Y-146569197D01*
X110436934Y-146793752D01*
X110420898Y-146895000D01*
X82470077Y-146895000D01*
X82372093Y-146821649D01*
X82372086Y-146821645D01*
X82237379Y-146771403D01*
X82237372Y-146771401D01*
X82177844Y-146765000D01*
X81480000Y-146765000D01*
X81480000Y-147789722D01*
X81403694Y-147745667D01*
X81289244Y-147715000D01*
X81170756Y-147715000D01*
X81056306Y-147745667D01*
X80980000Y-147789722D01*
X80980000Y-146765000D01*
X80282155Y-146765000D01*
X80222627Y-146771401D01*
X80222620Y-146771403D01*
X80087913Y-146821645D01*
X80087906Y-146821649D01*
X79972812Y-146907809D01*
X79972809Y-146907812D01*
X79886649Y-147022906D01*
X79886645Y-147022913D01*
X79836403Y-147157620D01*
X79836401Y-147157627D01*
X79830000Y-147217155D01*
X71000500Y-147217155D01*
X71000500Y-142546577D01*
X116549500Y-142546577D01*
X116549500Y-144943422D01*
X116580290Y-145137826D01*
X116641117Y-145325029D01*
X116719985Y-145479815D01*
X116730476Y-145500405D01*
X116846172Y-145659646D01*
X116985354Y-145798828D01*
X117144595Y-145914524D01*
X117227455Y-145956743D01*
X117319970Y-146003882D01*
X117319972Y-146003882D01*
X117319975Y-146003884D01*
X117420317Y-146036487D01*
X117507173Y-146064709D01*
X117701578Y-146095500D01*
X117701583Y-146095500D01*
X117898422Y-146095500D01*
X118092826Y-146064709D01*
X118280025Y-146003884D01*
X118455405Y-145914524D01*
X118614646Y-145798828D01*
X118753828Y-145659646D01*
X118869524Y-145500405D01*
X118958884Y-145325025D01*
X119019709Y-145137826D01*
X119050500Y-144943422D01*
X119050500Y-142546577D01*
X119019709Y-142352173D01*
X118958882Y-142164970D01*
X118869523Y-141989594D01*
X118753828Y-141830354D01*
X118614646Y-141691172D01*
X118455405Y-141575476D01*
X118280029Y-141486117D01*
X118092826Y-141425290D01*
X117898422Y-141394500D01*
X117898417Y-141394500D01*
X117701583Y-141394500D01*
X117701578Y-141394500D01*
X117507173Y-141425290D01*
X117319970Y-141486117D01*
X117144594Y-141575476D01*
X117053741Y-141641485D01*
X116985354Y-141691172D01*
X116985352Y-141691174D01*
X116985351Y-141691174D01*
X116846174Y-141830351D01*
X116846174Y-141830352D01*
X116846172Y-141830354D01*
X116796485Y-141898741D01*
X116730476Y-141989594D01*
X116641117Y-142164970D01*
X116580290Y-142352173D01*
X116549500Y-142546577D01*
X71000500Y-142546577D01*
X71000500Y-139820321D01*
X110449500Y-139820321D01*
X110449500Y-141869678D01*
X110464032Y-141942735D01*
X110464033Y-141942739D01*
X110464034Y-141942740D01*
X110519399Y-142025601D01*
X110602260Y-142080966D01*
X110602264Y-142080967D01*
X110675321Y-142095499D01*
X110675324Y-142095500D01*
X110675326Y-142095500D01*
X115324676Y-142095500D01*
X115324677Y-142095499D01*
X115397740Y-142080966D01*
X115480601Y-142025601D01*
X115535966Y-141942740D01*
X115550500Y-141869674D01*
X115550500Y-139820326D01*
X115550500Y-139820323D01*
X115550499Y-139820321D01*
X115535967Y-139747264D01*
X115535966Y-139747260D01*
X115480601Y-139664399D01*
X115397740Y-139609034D01*
X115397739Y-139609033D01*
X115397735Y-139609032D01*
X115324677Y-139594500D01*
X115324674Y-139594500D01*
X110675326Y-139594500D01*
X110675323Y-139594500D01*
X110602264Y-139609032D01*
X110602260Y-139609033D01*
X110519399Y-139664399D01*
X110464033Y-139747260D01*
X110464032Y-139747264D01*
X110449500Y-139820321D01*
X71000500Y-139820321D01*
X71000500Y-126201015D01*
X74449500Y-126201015D01*
X74449500Y-126598984D01*
X74488507Y-126995046D01*
X74566149Y-127385374D01*
X74681676Y-127766219D01*
X74833976Y-128133903D01*
X74833978Y-128133908D01*
X75021573Y-128484873D01*
X75021584Y-128484891D01*
X75242678Y-128815781D01*
X75242688Y-128815795D01*
X75495162Y-129123435D01*
X75776564Y-129404837D01*
X75776569Y-129404841D01*
X75776570Y-129404842D01*
X76084210Y-129657316D01*
X76415115Y-129878420D01*
X76415124Y-129878425D01*
X76415126Y-129878426D01*
X76766091Y-130066021D01*
X76766093Y-130066021D01*
X76766099Y-130066025D01*
X77133782Y-130218324D01*
X77514622Y-130333850D01*
X77904951Y-130411492D01*
X78301012Y-130450500D01*
X78301015Y-130450500D01*
X78698985Y-130450500D01*
X78698988Y-130450500D01*
X79095049Y-130411492D01*
X79485378Y-130333850D01*
X79866218Y-130218324D01*
X80233901Y-130066025D01*
X80584885Y-129878420D01*
X80915790Y-129657316D01*
X81223430Y-129404842D01*
X81504842Y-129123430D01*
X81757316Y-128815790D01*
X81978420Y-128484885D01*
X82166025Y-128133901D01*
X82318324Y-127766218D01*
X82433850Y-127385378D01*
X82511492Y-126995049D01*
X82550500Y-126598988D01*
X82550500Y-126201012D01*
X82511492Y-125804951D01*
X82433850Y-125414622D01*
X82318324Y-125033782D01*
X82166025Y-124666099D01*
X81978420Y-124315115D01*
X81757316Y-123984210D01*
X81504842Y-123676570D01*
X81504841Y-123676569D01*
X81504837Y-123676564D01*
X81223435Y-123395162D01*
X80915795Y-123142688D01*
X80915794Y-123142687D01*
X80915790Y-123142684D01*
X80584885Y-122921580D01*
X80584880Y-122921577D01*
X80584873Y-122921573D01*
X80233908Y-122733978D01*
X80233903Y-122733976D01*
X79866219Y-122581676D01*
X79642643Y-122513855D01*
X79485378Y-122466150D01*
X79485375Y-122466149D01*
X79485374Y-122466149D01*
X79095046Y-122388507D01*
X78816009Y-122361025D01*
X78698988Y-122349500D01*
X78301012Y-122349500D01*
X78194483Y-122359992D01*
X77904953Y-122388507D01*
X77514625Y-122466149D01*
X77133780Y-122581676D01*
X76766096Y-122733976D01*
X76766091Y-122733978D01*
X76415126Y-122921573D01*
X76415108Y-122921584D01*
X76084218Y-123142678D01*
X76084204Y-123142688D01*
X75776564Y-123395162D01*
X75495162Y-123676564D01*
X75242688Y-123984204D01*
X75242678Y-123984218D01*
X75021584Y-124315108D01*
X75021573Y-124315126D01*
X74833978Y-124666091D01*
X74833976Y-124666096D01*
X74681676Y-125033780D01*
X74566149Y-125414625D01*
X74488507Y-125804953D01*
X74449500Y-126201015D01*
X71000500Y-126201015D01*
X71000500Y-114840316D01*
X86749500Y-114840316D01*
X86749500Y-115159683D01*
X86780803Y-115477522D01*
X86843109Y-115790754D01*
X86935820Y-116096382D01*
X87058040Y-116391446D01*
X87058042Y-116391451D01*
X87208584Y-116673094D01*
X87208601Y-116673122D01*
X87386012Y-116938638D01*
X87386029Y-116938661D01*
X87588638Y-117185540D01*
X87814459Y-117411361D01*
X87814464Y-117411365D01*
X87814465Y-117411366D01*
X88061344Y-117613975D01*
X88061351Y-117613980D01*
X88061361Y-117613987D01*
X88326877Y-117791398D01*
X88326882Y-117791401D01*
X88326894Y-117791409D01*
X88326903Y-117791413D01*
X88326905Y-117791415D01*
X88608548Y-117941957D01*
X88608550Y-117941957D01*
X88608556Y-117941961D01*
X88903619Y-118064180D01*
X89209240Y-118156889D01*
X89522477Y-118219196D01*
X89840313Y-118250500D01*
X89840316Y-118250500D01*
X90159684Y-118250500D01*
X90159687Y-118250500D01*
X90477523Y-118219196D01*
X90790760Y-118156889D01*
X91096381Y-118064180D01*
X91391444Y-117941961D01*
X91673106Y-117791409D01*
X91938656Y-117613975D01*
X92185535Y-117411366D01*
X92411366Y-117185535D01*
X92613975Y-116938656D01*
X92791409Y-116673106D01*
X92941961Y-116391444D01*
X93064180Y-116096381D01*
X93156889Y-115790760D01*
X93219196Y-115477523D01*
X93250500Y-115159687D01*
X93250500Y-114840313D01*
X93219196Y-114522477D01*
X93156889Y-114209240D01*
X93064180Y-113903619D01*
X92941961Y-113608556D01*
X92791409Y-113326894D01*
X92791398Y-113326877D01*
X92613987Y-113061361D01*
X92613980Y-113061351D01*
X92613975Y-113061344D01*
X92411366Y-112814465D01*
X92411365Y-112814464D01*
X92411361Y-112814459D01*
X92185540Y-112588638D01*
X91938661Y-112386029D01*
X91938638Y-112386012D01*
X91673122Y-112208601D01*
X91673094Y-112208584D01*
X91391451Y-112058042D01*
X91391446Y-112058040D01*
X91096382Y-111935820D01*
X90790754Y-111843109D01*
X90477521Y-111780803D01*
X90477522Y-111780803D01*
X90238141Y-111757227D01*
X90159687Y-111749500D01*
X89840313Y-111749500D01*
X89767822Y-111756639D01*
X89522477Y-111780803D01*
X89209245Y-111843109D01*
X88903617Y-111935820D01*
X88608553Y-112058040D01*
X88608548Y-112058042D01*
X88326905Y-112208584D01*
X88326877Y-112208601D01*
X88061361Y-112386012D01*
X88061338Y-112386029D01*
X87814459Y-112588638D01*
X87588638Y-112814459D01*
X87386029Y-113061338D01*
X87386012Y-113061361D01*
X87208601Y-113326877D01*
X87208584Y-113326905D01*
X87058042Y-113608548D01*
X87058040Y-113608553D01*
X86935820Y-113903617D01*
X86843109Y-114209245D01*
X86780803Y-114522477D01*
X86749500Y-114840316D01*
X71000500Y-114840316D01*
X71000500Y-107525321D01*
X88459500Y-107525321D01*
X88459500Y-109274678D01*
X88474032Y-109347735D01*
X88474033Y-109347739D01*
X88474034Y-109347740D01*
X88529399Y-109430601D01*
X88612260Y-109485966D01*
X88612264Y-109485967D01*
X88685321Y-109500499D01*
X88685324Y-109500500D01*
X88685326Y-109500500D01*
X90434676Y-109500500D01*
X90434677Y-109500499D01*
X90507740Y-109485966D01*
X90590601Y-109430601D01*
X90645966Y-109347740D01*
X90660500Y-109274674D01*
X90660500Y-108163389D01*
X90999500Y-108163389D01*
X90999500Y-108636610D01*
X91012594Y-108719287D01*
X91026598Y-108807701D01*
X91080127Y-108972445D01*
X91158768Y-109126788D01*
X91260586Y-109266928D01*
X91383072Y-109389414D01*
X91523212Y-109491232D01*
X91677555Y-109569873D01*
X91842299Y-109623402D01*
X92013389Y-109650500D01*
X92013390Y-109650500D01*
X92186610Y-109650500D01*
X92186611Y-109650500D01*
X92357701Y-109623402D01*
X92522445Y-109569873D01*
X92676788Y-109491232D01*
X92816928Y-109389414D01*
X92939414Y-109266928D01*
X93041232Y-109126788D01*
X93119873Y-108972445D01*
X93173402Y-108807701D01*
X93200500Y-108636611D01*
X93200500Y-108163389D01*
X93539500Y-108163389D01*
X93539500Y-108636610D01*
X93552594Y-108719287D01*
X93566598Y-108807701D01*
X93620127Y-108972445D01*
X93698768Y-109126788D01*
X93800586Y-109266928D01*
X93923072Y-109389414D01*
X94063212Y-109491232D01*
X94217555Y-109569873D01*
X94382299Y-109623402D01*
X94553389Y-109650500D01*
X94553390Y-109650500D01*
X94726610Y-109650500D01*
X94726611Y-109650500D01*
X94897701Y-109623402D01*
X95062445Y-109569873D01*
X95216788Y-109491232D01*
X95356928Y-109389414D01*
X95479414Y-109266928D01*
X95581232Y-109126788D01*
X95659873Y-108972445D01*
X95713402Y-108807701D01*
X95740500Y-108636611D01*
X95740500Y-108163389D01*
X96079500Y-108163389D01*
X96079500Y-108636610D01*
X96092594Y-108719287D01*
X96106598Y-108807701D01*
X96160127Y-108972445D01*
X96238768Y-109126788D01*
X96340586Y-109266928D01*
X96463072Y-109389414D01*
X96603212Y-109491232D01*
X96757555Y-109569873D01*
X96922299Y-109623402D01*
X97093389Y-109650500D01*
X97093390Y-109650500D01*
X97266610Y-109650500D01*
X97266611Y-109650500D01*
X97437701Y-109623402D01*
X97602445Y-109569873D01*
X97756788Y-109491232D01*
X97896928Y-109389414D01*
X98019414Y-109266928D01*
X98121232Y-109126788D01*
X98199873Y-108972445D01*
X98253402Y-108807701D01*
X98280500Y-108636611D01*
X98280500Y-108163389D01*
X98619500Y-108163389D01*
X98619500Y-108636610D01*
X98632594Y-108719287D01*
X98646598Y-108807701D01*
X98700127Y-108972445D01*
X98778768Y-109126788D01*
X98880586Y-109266928D01*
X99003072Y-109389414D01*
X99143212Y-109491232D01*
X99297555Y-109569873D01*
X99462299Y-109623402D01*
X99633389Y-109650500D01*
X99633390Y-109650500D01*
X99806610Y-109650500D01*
X99806611Y-109650500D01*
X99977701Y-109623402D01*
X100142445Y-109569873D01*
X100296788Y-109491232D01*
X100436928Y-109389414D01*
X100559414Y-109266928D01*
X100661232Y-109126788D01*
X100739873Y-108972445D01*
X100793402Y-108807701D01*
X100820500Y-108636611D01*
X100820500Y-108163389D01*
X100820500Y-108163383D01*
X100809044Y-108091055D01*
X100809745Y-108085629D01*
X100807833Y-108080503D01*
X100814174Y-108051352D01*
X100817998Y-108021762D01*
X100821830Y-108016156D01*
X100822685Y-108012230D01*
X100843833Y-107983979D01*
X100990361Y-107837451D01*
X101051682Y-107803968D01*
X101121374Y-107808952D01*
X101177307Y-107850824D01*
X101201724Y-107916288D01*
X101195971Y-107963451D01*
X101186598Y-107992297D01*
X101186597Y-107992301D01*
X101159500Y-108163389D01*
X101159500Y-108636610D01*
X101172594Y-108719287D01*
X101186598Y-108807701D01*
X101240127Y-108972445D01*
X101318768Y-109126788D01*
X101420586Y-109266928D01*
X101543072Y-109389414D01*
X101683212Y-109491232D01*
X101837555Y-109569873D01*
X102002299Y-109623402D01*
X102173389Y-109650500D01*
X102173390Y-109650500D01*
X102346610Y-109650500D01*
X102346611Y-109650500D01*
X102517701Y-109623402D01*
X102682445Y-109569873D01*
X102836788Y-109491232D01*
X102976928Y-109389414D01*
X103099414Y-109266928D01*
X103201232Y-109126788D01*
X103279873Y-108972445D01*
X103333402Y-108807701D01*
X103360500Y-108636611D01*
X103360500Y-108163389D01*
X103699500Y-108163389D01*
X103699500Y-108636610D01*
X103712594Y-108719287D01*
X103726598Y-108807701D01*
X103780127Y-108972445D01*
X103858768Y-109126788D01*
X103960586Y-109266928D01*
X104083072Y-109389414D01*
X104223212Y-109491232D01*
X104377555Y-109569873D01*
X104542299Y-109623402D01*
X104713389Y-109650500D01*
X104713390Y-109650500D01*
X104886610Y-109650500D01*
X104886611Y-109650500D01*
X105057701Y-109623402D01*
X105222445Y-109569873D01*
X105376788Y-109491232D01*
X105516928Y-109389414D01*
X105639414Y-109266928D01*
X105741232Y-109126788D01*
X105819873Y-108972445D01*
X105873402Y-108807701D01*
X105900500Y-108636611D01*
X105900500Y-108163389D01*
X106239500Y-108163389D01*
X106239500Y-108636610D01*
X106252594Y-108719287D01*
X106266598Y-108807701D01*
X106320127Y-108972445D01*
X106398768Y-109126788D01*
X106500586Y-109266928D01*
X106623072Y-109389414D01*
X106763212Y-109491232D01*
X106917555Y-109569873D01*
X107082299Y-109623402D01*
X107253389Y-109650500D01*
X107253390Y-109650500D01*
X107426610Y-109650500D01*
X107426611Y-109650500D01*
X107597701Y-109623402D01*
X107762445Y-109569873D01*
X107916788Y-109491232D01*
X108056928Y-109389414D01*
X108179414Y-109266928D01*
X108281232Y-109126788D01*
X108359873Y-108972445D01*
X108413402Y-108807701D01*
X108440500Y-108636611D01*
X108440500Y-108163389D01*
X108779500Y-108163389D01*
X108779500Y-108636610D01*
X108792594Y-108719287D01*
X108806598Y-108807701D01*
X108860127Y-108972445D01*
X108938768Y-109126788D01*
X109040586Y-109266928D01*
X109163072Y-109389414D01*
X109303212Y-109491232D01*
X109457555Y-109569873D01*
X109622299Y-109623402D01*
X109793389Y-109650500D01*
X109793390Y-109650500D01*
X109966610Y-109650500D01*
X109966611Y-109650500D01*
X110137701Y-109623402D01*
X110302445Y-109569873D01*
X110456788Y-109491232D01*
X110596928Y-109389414D01*
X110719414Y-109266928D01*
X110821232Y-109126788D01*
X110899873Y-108972445D01*
X110953402Y-108807701D01*
X110980500Y-108636611D01*
X110980500Y-108163389D01*
X111319500Y-108163389D01*
X111319500Y-108636610D01*
X111332594Y-108719287D01*
X111346598Y-108807701D01*
X111400127Y-108972445D01*
X111478768Y-109126788D01*
X111580586Y-109266928D01*
X111703072Y-109389414D01*
X111843212Y-109491232D01*
X111997555Y-109569873D01*
X112162299Y-109623402D01*
X112333389Y-109650500D01*
X112333390Y-109650500D01*
X112506610Y-109650500D01*
X112506611Y-109650500D01*
X112677701Y-109623402D01*
X112842445Y-109569873D01*
X112996788Y-109491232D01*
X113136928Y-109389414D01*
X113259414Y-109266928D01*
X113361232Y-109126788D01*
X113439873Y-108972445D01*
X113493402Y-108807701D01*
X113520500Y-108636611D01*
X113520500Y-108163389D01*
X113859500Y-108163389D01*
X113859500Y-108636610D01*
X113872594Y-108719287D01*
X113886598Y-108807701D01*
X113940127Y-108972445D01*
X114018768Y-109126788D01*
X114120586Y-109266928D01*
X114243072Y-109389414D01*
X114383212Y-109491232D01*
X114391793Y-109495604D01*
X114442589Y-109543575D01*
X114459500Y-109606089D01*
X114459500Y-132525891D01*
X114493608Y-132653187D01*
X114526554Y-132710250D01*
X114559500Y-132767314D01*
X125599500Y-143807314D01*
X128192686Y-146400500D01*
X128306814Y-146466392D01*
X128434108Y-146500500D01*
X128565893Y-146500500D01*
X138434108Y-146500500D01*
X138746535Y-146500500D01*
X138813574Y-146520185D01*
X138834290Y-146538630D01*
X138835066Y-146537855D01*
X138957837Y-146660626D01*
X139005557Y-146692511D01*
X139097137Y-146753703D01*
X139251918Y-146817816D01*
X139271168Y-146821645D01*
X139309812Y-146829332D01*
X139371723Y-146861716D01*
X139406297Y-146922432D01*
X139402558Y-146992201D01*
X139390438Y-147014877D01*
X139390897Y-147015128D01*
X139386645Y-147022913D01*
X139336403Y-147157620D01*
X139336401Y-147157627D01*
X139330000Y-147217155D01*
X139330000Y-147915000D01*
X140354722Y-147915000D01*
X140310667Y-147991306D01*
X140280000Y-148105756D01*
X140280000Y-148224244D01*
X140310667Y-148338694D01*
X140354722Y-148415000D01*
X139330000Y-148415000D01*
X139330000Y-149112844D01*
X139336401Y-149172372D01*
X139336403Y-149172379D01*
X139386645Y-149307086D01*
X139386649Y-149307093D01*
X139472809Y-149422187D01*
X139472812Y-149422190D01*
X139587906Y-149508350D01*
X139587913Y-149508354D01*
X139722620Y-149558596D01*
X139722627Y-149558598D01*
X139782155Y-149564999D01*
X139782172Y-149565000D01*
X140480000Y-149565000D01*
X140480000Y-148540277D01*
X140556306Y-148584333D01*
X140670756Y-148615000D01*
X140789244Y-148615000D01*
X140903694Y-148584333D01*
X140980000Y-148540277D01*
X140980000Y-149565000D01*
X141677828Y-149565000D01*
X141677844Y-149564999D01*
X141737372Y-149558598D01*
X141737379Y-149558596D01*
X141872086Y-149508354D01*
X141872093Y-149508350D01*
X141987187Y-149422190D01*
X141987190Y-149422187D01*
X142073350Y-149307093D01*
X142073354Y-149307086D01*
X142123596Y-149172379D01*
X142123598Y-149172372D01*
X142129999Y-149112844D01*
X142130000Y-149112827D01*
X142130000Y-148934906D01*
X142149685Y-148867867D01*
X142202489Y-148822112D01*
X142271647Y-148812168D01*
X142335203Y-148841193D01*
X142354319Y-148862022D01*
X142392443Y-148914497D01*
X142520500Y-149042554D01*
X142520505Y-149042558D01*
X142617223Y-149112827D01*
X142667006Y-149148996D01*
X142772484Y-149202740D01*
X142828360Y-149231211D01*
X142828363Y-149231212D01*
X142914476Y-149259191D01*
X143000591Y-149287171D01*
X143083429Y-149300291D01*
X143179449Y-149315500D01*
X143179454Y-149315500D01*
X143360551Y-149315500D01*
X143447259Y-149301765D01*
X143539409Y-149287171D01*
X143711639Y-149231211D01*
X143872994Y-149148996D01*
X144019501Y-149042553D01*
X144147553Y-148914501D01*
X144253996Y-148767994D01*
X144336211Y-148606639D01*
X144392171Y-148434409D01*
X144407331Y-148338694D01*
X144420500Y-148255551D01*
X144420500Y-148074448D01*
X144395245Y-147915000D01*
X144392171Y-147895591D01*
X144336211Y-147723361D01*
X144336211Y-147723360D01*
X144296284Y-147645000D01*
X144253996Y-147562006D01*
X144240396Y-147543287D01*
X144147558Y-147415505D01*
X144147554Y-147415500D01*
X144019499Y-147287445D01*
X144019494Y-147287441D01*
X143872997Y-147181006D01*
X143872996Y-147181005D01*
X143872994Y-147181004D01*
X143821300Y-147154664D01*
X143711639Y-147098788D01*
X143711636Y-147098787D01*
X143539410Y-147042829D01*
X143360551Y-147014500D01*
X143360546Y-147014500D01*
X143179454Y-147014500D01*
X143179449Y-147014500D01*
X143000589Y-147042829D01*
X142828363Y-147098787D01*
X142828360Y-147098788D01*
X142667002Y-147181006D01*
X142520505Y-147287441D01*
X142520500Y-147287445D01*
X142392445Y-147415500D01*
X142392441Y-147415505D01*
X142354318Y-147467978D01*
X142298988Y-147510644D01*
X142229375Y-147516623D01*
X142167580Y-147484018D01*
X142133223Y-147423179D01*
X142130000Y-147395093D01*
X142130000Y-147217172D01*
X142129999Y-147217155D01*
X142123598Y-147157627D01*
X142123596Y-147157620D01*
X142073354Y-147022913D01*
X142073350Y-147022906D01*
X141987190Y-146907812D01*
X141987187Y-146907809D01*
X141872093Y-146821649D01*
X141872086Y-146821645D01*
X141737379Y-146771403D01*
X141737372Y-146771401D01*
X141677844Y-146765000D01*
X140980000Y-146765000D01*
X140980000Y-147789722D01*
X140903694Y-147745667D01*
X140789244Y-147715000D01*
X140670756Y-147715000D01*
X140556306Y-147745667D01*
X140480000Y-147789722D01*
X140480000Y-146765000D01*
X140237151Y-146765000D01*
X140170112Y-146745315D01*
X140124357Y-146692511D01*
X140114413Y-146623353D01*
X140143438Y-146559797D01*
X140149470Y-146553319D01*
X140160623Y-146542165D01*
X140160626Y-146542162D01*
X140163504Y-146537855D01*
X140253703Y-146402863D01*
X140317816Y-146248082D01*
X140350500Y-146083767D01*
X140350500Y-145916233D01*
X140317816Y-145751918D01*
X140253703Y-145597137D01*
X140222537Y-145550494D01*
X140160626Y-145457837D01*
X140042162Y-145339373D01*
X139902860Y-145246295D01*
X139748082Y-145182184D01*
X139748074Y-145182182D01*
X139583771Y-145149500D01*
X139583767Y-145149500D01*
X139416233Y-145149500D01*
X139416228Y-145149500D01*
X139251925Y-145182182D01*
X139251917Y-145182184D01*
X139097139Y-145246295D01*
X138957837Y-145339373D01*
X138957834Y-145339376D01*
X138835066Y-145462145D01*
X138833283Y-145460362D01*
X138784658Y-145493494D01*
X138746535Y-145499500D01*
X128758676Y-145499500D01*
X128691637Y-145479815D01*
X128670995Y-145463181D01*
X115496819Y-132289005D01*
X115463334Y-132227682D01*
X115460500Y-132201324D01*
X115460500Y-114840316D01*
X124849500Y-114840316D01*
X124849500Y-115159683D01*
X124880803Y-115477522D01*
X124943109Y-115790754D01*
X125035820Y-116096382D01*
X125158040Y-116391446D01*
X125158042Y-116391451D01*
X125308584Y-116673094D01*
X125308601Y-116673122D01*
X125486012Y-116938638D01*
X125486029Y-116938661D01*
X125688638Y-117185540D01*
X125914459Y-117411361D01*
X125914464Y-117411365D01*
X125914465Y-117411366D01*
X126161344Y-117613975D01*
X126161351Y-117613980D01*
X126161361Y-117613987D01*
X126426877Y-117791398D01*
X126426882Y-117791401D01*
X126426894Y-117791409D01*
X126426903Y-117791413D01*
X126426905Y-117791415D01*
X126708548Y-117941957D01*
X126708550Y-117941957D01*
X126708556Y-117941961D01*
X127003619Y-118064180D01*
X127309240Y-118156889D01*
X127622477Y-118219196D01*
X127940313Y-118250500D01*
X127940316Y-118250500D01*
X128259684Y-118250500D01*
X128259687Y-118250500D01*
X128577523Y-118219196D01*
X128890760Y-118156889D01*
X129196381Y-118064180D01*
X129491444Y-117941961D01*
X129773106Y-117791409D01*
X130038656Y-117613975D01*
X130285535Y-117411366D01*
X130511366Y-117185535D01*
X130713975Y-116938656D01*
X130891409Y-116673106D01*
X131041961Y-116391444D01*
X131164180Y-116096381D01*
X131256889Y-115790760D01*
X131319196Y-115477523D01*
X131350500Y-115159687D01*
X131350500Y-114840313D01*
X131319196Y-114522477D01*
X131256889Y-114209240D01*
X131164180Y-113903619D01*
X131041961Y-113608556D01*
X130891409Y-113326894D01*
X130891398Y-113326877D01*
X130713987Y-113061361D01*
X130713980Y-113061351D01*
X130713975Y-113061344D01*
X130511366Y-112814465D01*
X130511365Y-112814464D01*
X130511361Y-112814459D01*
X130285540Y-112588638D01*
X130038661Y-112386029D01*
X130038638Y-112386012D01*
X129773122Y-112208601D01*
X129773094Y-112208584D01*
X129491451Y-112058042D01*
X129491446Y-112058040D01*
X129196382Y-111935820D01*
X128890754Y-111843109D01*
X128577521Y-111780803D01*
X128577522Y-111780803D01*
X128338141Y-111757227D01*
X128259687Y-111749500D01*
X127940313Y-111749500D01*
X127867822Y-111756639D01*
X127622477Y-111780803D01*
X127309245Y-111843109D01*
X127003617Y-111935820D01*
X126708553Y-112058040D01*
X126708548Y-112058042D01*
X126426905Y-112208584D01*
X126426877Y-112208601D01*
X126161361Y-112386012D01*
X126161338Y-112386029D01*
X125914459Y-112588638D01*
X125688638Y-112814459D01*
X125486029Y-113061338D01*
X125486012Y-113061361D01*
X125308601Y-113326877D01*
X125308584Y-113326905D01*
X125158042Y-113608548D01*
X125158040Y-113608553D01*
X125035820Y-113903617D01*
X124943109Y-114209245D01*
X124880803Y-114522477D01*
X124849500Y-114840316D01*
X115460500Y-114840316D01*
X115460500Y-109606089D01*
X115480185Y-109539050D01*
X115528206Y-109495604D01*
X115536788Y-109491232D01*
X115676928Y-109389414D01*
X115799414Y-109266928D01*
X115901232Y-109126788D01*
X115979873Y-108972445D01*
X116033402Y-108807701D01*
X116060500Y-108636611D01*
X116060500Y-108163389D01*
X116399500Y-108163389D01*
X116399500Y-108636610D01*
X116412594Y-108719287D01*
X116426598Y-108807701D01*
X116480127Y-108972445D01*
X116558768Y-109126788D01*
X116660586Y-109266928D01*
X116783072Y-109389414D01*
X116923212Y-109491232D01*
X117077555Y-109569873D01*
X117242299Y-109623402D01*
X117413389Y-109650500D01*
X117413390Y-109650500D01*
X117586610Y-109650500D01*
X117586611Y-109650500D01*
X117757701Y-109623402D01*
X117922445Y-109569873D01*
X118076788Y-109491232D01*
X118216928Y-109389414D01*
X118339414Y-109266928D01*
X118441232Y-109126788D01*
X118519873Y-108972445D01*
X118573402Y-108807701D01*
X118600500Y-108636611D01*
X118600500Y-108163389D01*
X118573402Y-107992299D01*
X118519873Y-107827555D01*
X118441232Y-107673212D01*
X118339414Y-107533072D01*
X118216928Y-107410586D01*
X118076788Y-107308768D01*
X117922445Y-107230127D01*
X117757701Y-107176598D01*
X117757699Y-107176597D01*
X117757698Y-107176597D01*
X117626271Y-107155781D01*
X117586611Y-107149500D01*
X117413389Y-107149500D01*
X117373728Y-107155781D01*
X117242302Y-107176597D01*
X117077552Y-107230128D01*
X116923211Y-107308768D01*
X116843256Y-107366859D01*
X116783072Y-107410586D01*
X116783070Y-107410588D01*
X116783069Y-107410588D01*
X116660588Y-107533069D01*
X116660588Y-107533070D01*
X116660586Y-107533072D01*
X116616859Y-107593256D01*
X116558768Y-107673211D01*
X116480128Y-107827552D01*
X116426597Y-107992302D01*
X116399500Y-108163389D01*
X116060500Y-108163389D01*
X116033402Y-107992299D01*
X115979873Y-107827555D01*
X115901232Y-107673212D01*
X115799414Y-107533072D01*
X115676928Y-107410586D01*
X115536788Y-107308768D01*
X115382445Y-107230127D01*
X115217701Y-107176598D01*
X115217699Y-107176597D01*
X115217698Y-107176597D01*
X115086271Y-107155781D01*
X115046611Y-107149500D01*
X114873389Y-107149500D01*
X114833728Y-107155781D01*
X114702302Y-107176597D01*
X114537552Y-107230128D01*
X114383211Y-107308768D01*
X114303256Y-107366859D01*
X114243072Y-107410586D01*
X114243070Y-107410588D01*
X114243069Y-107410588D01*
X114120588Y-107533069D01*
X114120588Y-107533070D01*
X114120586Y-107533072D01*
X114076859Y-107593256D01*
X114018768Y-107673211D01*
X113940128Y-107827552D01*
X113886597Y-107992302D01*
X113859500Y-108163389D01*
X113520500Y-108163389D01*
X113493402Y-107992299D01*
X113439873Y-107827555D01*
X113361232Y-107673212D01*
X113259414Y-107533072D01*
X113136928Y-107410586D01*
X112996788Y-107308768D01*
X112842445Y-107230127D01*
X112677701Y-107176598D01*
X112677699Y-107176597D01*
X112677698Y-107176597D01*
X112546271Y-107155781D01*
X112506611Y-107149500D01*
X112333389Y-107149500D01*
X112293728Y-107155781D01*
X112162302Y-107176597D01*
X111997552Y-107230128D01*
X111843211Y-107308768D01*
X111763256Y-107366859D01*
X111703072Y-107410586D01*
X111703070Y-107410588D01*
X111703069Y-107410588D01*
X111580588Y-107533069D01*
X111580588Y-107533070D01*
X111580586Y-107533072D01*
X111536859Y-107593256D01*
X111478768Y-107673211D01*
X111400128Y-107827552D01*
X111346597Y-107992302D01*
X111319500Y-108163389D01*
X110980500Y-108163389D01*
X110953402Y-107992299D01*
X110899873Y-107827555D01*
X110821232Y-107673212D01*
X110719414Y-107533072D01*
X110596928Y-107410586D01*
X110456788Y-107308768D01*
X110302445Y-107230127D01*
X110137701Y-107176598D01*
X110137699Y-107176597D01*
X110137698Y-107176597D01*
X110006271Y-107155781D01*
X109966611Y-107149500D01*
X109793389Y-107149500D01*
X109753728Y-107155781D01*
X109622302Y-107176597D01*
X109457552Y-107230128D01*
X109303211Y-107308768D01*
X109223256Y-107366859D01*
X109163072Y-107410586D01*
X109163070Y-107410588D01*
X109163069Y-107410588D01*
X109040588Y-107533069D01*
X109040588Y-107533070D01*
X109040586Y-107533072D01*
X108996859Y-107593256D01*
X108938768Y-107673211D01*
X108860128Y-107827552D01*
X108806597Y-107992302D01*
X108779500Y-108163389D01*
X108440500Y-108163389D01*
X108413402Y-107992299D01*
X108359873Y-107827555D01*
X108281232Y-107673212D01*
X108179414Y-107533072D01*
X108056928Y-107410586D01*
X107916788Y-107308768D01*
X107762445Y-107230127D01*
X107597701Y-107176598D01*
X107597699Y-107176597D01*
X107597698Y-107176597D01*
X107466271Y-107155781D01*
X107426611Y-107149500D01*
X107253389Y-107149500D01*
X107213728Y-107155781D01*
X107082302Y-107176597D01*
X106917552Y-107230128D01*
X106763211Y-107308768D01*
X106683256Y-107366859D01*
X106623072Y-107410586D01*
X106623070Y-107410588D01*
X106623069Y-107410588D01*
X106500588Y-107533069D01*
X106500588Y-107533070D01*
X106500586Y-107533072D01*
X106456859Y-107593256D01*
X106398768Y-107673211D01*
X106320128Y-107827552D01*
X106266597Y-107992302D01*
X106239500Y-108163389D01*
X105900500Y-108163389D01*
X105873402Y-107992299D01*
X105819873Y-107827555D01*
X105741232Y-107673212D01*
X105639414Y-107533072D01*
X105516928Y-107410586D01*
X105376788Y-107308768D01*
X105222445Y-107230127D01*
X105057701Y-107176598D01*
X105057699Y-107176597D01*
X105057698Y-107176597D01*
X104926271Y-107155781D01*
X104886611Y-107149500D01*
X104713389Y-107149500D01*
X104673728Y-107155781D01*
X104542302Y-107176597D01*
X104377552Y-107230128D01*
X104223211Y-107308768D01*
X104143256Y-107366859D01*
X104083072Y-107410586D01*
X104083070Y-107410588D01*
X104083069Y-107410588D01*
X103960588Y-107533069D01*
X103960588Y-107533070D01*
X103960586Y-107533072D01*
X103916859Y-107593256D01*
X103858768Y-107673211D01*
X103780128Y-107827552D01*
X103726597Y-107992302D01*
X103699500Y-108163389D01*
X103360500Y-108163389D01*
X103333402Y-107992299D01*
X103279873Y-107827555D01*
X103201232Y-107673212D01*
X103099414Y-107533072D01*
X102976928Y-107410586D01*
X102836788Y-107308768D01*
X102682445Y-107230127D01*
X102517701Y-107176598D01*
X102517699Y-107176597D01*
X102517698Y-107176597D01*
X102386271Y-107155781D01*
X102346611Y-107149500D01*
X102173389Y-107149500D01*
X102141192Y-107154599D01*
X102002301Y-107176597D01*
X101986551Y-107181714D01*
X101973452Y-107185971D01*
X101903612Y-107187966D01*
X101843779Y-107151886D01*
X101812951Y-107089185D01*
X101820916Y-107019771D01*
X101847454Y-106980359D01*
X105602363Y-103225451D01*
X110290995Y-98536819D01*
X110352318Y-98503334D01*
X110378676Y-98500500D01*
X121246535Y-98500500D01*
X121313574Y-98520185D01*
X121334290Y-98538630D01*
X121335066Y-98537855D01*
X121457837Y-98660626D01*
X121550494Y-98722537D01*
X121597137Y-98753703D01*
X121751918Y-98817816D01*
X121916228Y-98850499D01*
X121916232Y-98850500D01*
X121916233Y-98850500D01*
X122083768Y-98850500D01*
X122083769Y-98850499D01*
X122248082Y-98817816D01*
X122402863Y-98753703D01*
X122542162Y-98660626D01*
X122660626Y-98542162D01*
X122753703Y-98402863D01*
X122817816Y-98248082D01*
X122850500Y-98083767D01*
X122850500Y-97916233D01*
X122817816Y-97751918D01*
X122753703Y-97597137D01*
X122675520Y-97480128D01*
X122660626Y-97457837D01*
X122542162Y-97339373D01*
X122402860Y-97246295D01*
X122248082Y-97182184D01*
X122248074Y-97182182D01*
X122083771Y-97149500D01*
X122083767Y-97149500D01*
X121916233Y-97149500D01*
X121916228Y-97149500D01*
X121751925Y-97182182D01*
X121751917Y-97182184D01*
X121597139Y-97246295D01*
X121457837Y-97339373D01*
X121457834Y-97339376D01*
X121335066Y-97462145D01*
X121333283Y-97460362D01*
X121284658Y-97493494D01*
X121246535Y-97499500D01*
X110054108Y-97499500D01*
X109926812Y-97533608D01*
X109812686Y-97599500D01*
X109812683Y-97599502D01*
X100226074Y-107186110D01*
X100164751Y-107219595D01*
X100100075Y-107216360D01*
X99977698Y-107176597D01*
X99846271Y-107155781D01*
X99806611Y-107149500D01*
X99633389Y-107149500D01*
X99593728Y-107155781D01*
X99462302Y-107176597D01*
X99297552Y-107230128D01*
X99143211Y-107308768D01*
X99063256Y-107366859D01*
X99003072Y-107410586D01*
X99003070Y-107410588D01*
X99003069Y-107410588D01*
X98880588Y-107533069D01*
X98880588Y-107533070D01*
X98880586Y-107533072D01*
X98836859Y-107593256D01*
X98778768Y-107673211D01*
X98700128Y-107827552D01*
X98646597Y-107992302D01*
X98619500Y-108163389D01*
X98280500Y-108163389D01*
X98253402Y-107992299D01*
X98199873Y-107827555D01*
X98121232Y-107673212D01*
X98019414Y-107533072D01*
X97896928Y-107410586D01*
X97756788Y-107308768D01*
X97602445Y-107230127D01*
X97437701Y-107176598D01*
X97437699Y-107176597D01*
X97437698Y-107176597D01*
X97306271Y-107155781D01*
X97266611Y-107149500D01*
X97093389Y-107149500D01*
X97053728Y-107155781D01*
X96922302Y-107176597D01*
X96757552Y-107230128D01*
X96603211Y-107308768D01*
X96523256Y-107366859D01*
X96463072Y-107410586D01*
X96463070Y-107410588D01*
X96463069Y-107410588D01*
X96340588Y-107533069D01*
X96340588Y-107533070D01*
X96340586Y-107533072D01*
X96296859Y-107593256D01*
X96238768Y-107673211D01*
X96160128Y-107827552D01*
X96106597Y-107992302D01*
X96079500Y-108163389D01*
X95740500Y-108163389D01*
X95713402Y-107992299D01*
X95659873Y-107827555D01*
X95581232Y-107673212D01*
X95479414Y-107533072D01*
X95356928Y-107410586D01*
X95216788Y-107308768D01*
X95062445Y-107230127D01*
X94897701Y-107176598D01*
X94897699Y-107176597D01*
X94897698Y-107176597D01*
X94766271Y-107155781D01*
X94726611Y-107149500D01*
X94553389Y-107149500D01*
X94513728Y-107155781D01*
X94382302Y-107176597D01*
X94217552Y-107230128D01*
X94063211Y-107308768D01*
X93983256Y-107366859D01*
X93923072Y-107410586D01*
X93923070Y-107410588D01*
X93923069Y-107410588D01*
X93800588Y-107533069D01*
X93800588Y-107533070D01*
X93800586Y-107533072D01*
X93756859Y-107593256D01*
X93698768Y-107673211D01*
X93620128Y-107827552D01*
X93566597Y-107992302D01*
X93539500Y-108163389D01*
X93200500Y-108163389D01*
X93173402Y-107992299D01*
X93119873Y-107827555D01*
X93041232Y-107673212D01*
X92939414Y-107533072D01*
X92816928Y-107410586D01*
X92676788Y-107308768D01*
X92522445Y-107230127D01*
X92357701Y-107176598D01*
X92357699Y-107176597D01*
X92357698Y-107176597D01*
X92226271Y-107155781D01*
X92186611Y-107149500D01*
X92013389Y-107149500D01*
X91973728Y-107155781D01*
X91842302Y-107176597D01*
X91677552Y-107230128D01*
X91523211Y-107308768D01*
X91443256Y-107366859D01*
X91383072Y-107410586D01*
X91383070Y-107410588D01*
X91383069Y-107410588D01*
X91260588Y-107533069D01*
X91260588Y-107533070D01*
X91260586Y-107533072D01*
X91216859Y-107593256D01*
X91158768Y-107673211D01*
X91080128Y-107827552D01*
X91026597Y-107992302D01*
X90999500Y-108163389D01*
X90660500Y-108163389D01*
X90660500Y-107525326D01*
X90660500Y-107525323D01*
X90660499Y-107525321D01*
X90645967Y-107452264D01*
X90645966Y-107452260D01*
X90618122Y-107410588D01*
X90590601Y-107369399D01*
X90507740Y-107314034D01*
X90507739Y-107314033D01*
X90507735Y-107314032D01*
X90434677Y-107299500D01*
X90434674Y-107299500D01*
X88685326Y-107299500D01*
X88685323Y-107299500D01*
X88612264Y-107314032D01*
X88612260Y-107314033D01*
X88529399Y-107369399D01*
X88474033Y-107452260D01*
X88474032Y-107452264D01*
X88459500Y-107525321D01*
X71000500Y-107525321D01*
X71000500Y-100913389D01*
X74774500Y-100913389D01*
X74774500Y-101086611D01*
X74801598Y-101257701D01*
X74855127Y-101422445D01*
X74933768Y-101576788D01*
X75035586Y-101716928D01*
X75158072Y-101839414D01*
X75298212Y-101941232D01*
X75452555Y-102019873D01*
X75617299Y-102073402D01*
X75788389Y-102100500D01*
X75788390Y-102100500D01*
X76211610Y-102100500D01*
X76211611Y-102100500D01*
X76382701Y-102073402D01*
X76547445Y-102019873D01*
X76701788Y-101941232D01*
X76841928Y-101839414D01*
X76964414Y-101716928D01*
X77066232Y-101576788D01*
X77144873Y-101422445D01*
X77198402Y-101257701D01*
X77225500Y-101086611D01*
X77225500Y-100913389D01*
X77198402Y-100742299D01*
X77144873Y-100577555D01*
X77066232Y-100423212D01*
X76964414Y-100283072D01*
X76841928Y-100160586D01*
X76701788Y-100058768D01*
X76547445Y-99980127D01*
X76382701Y-99926598D01*
X76382699Y-99926597D01*
X76382698Y-99926597D01*
X76251271Y-99905781D01*
X76211611Y-99899500D01*
X75788389Y-99899500D01*
X75748728Y-99905781D01*
X75617302Y-99926597D01*
X75452552Y-99980128D01*
X75298211Y-100058768D01*
X75240773Y-100100500D01*
X75158072Y-100160586D01*
X75158070Y-100160588D01*
X75158069Y-100160588D01*
X75035588Y-100283069D01*
X75035588Y-100283070D01*
X75035586Y-100283072D01*
X74991859Y-100343256D01*
X74933768Y-100423211D01*
X74855128Y-100577552D01*
X74801597Y-100742302D01*
X74774500Y-100913389D01*
X71000500Y-100913389D01*
X71000500Y-98413389D01*
X74774500Y-98413389D01*
X74774500Y-98586610D01*
X74800964Y-98753703D01*
X74801598Y-98757701D01*
X74855127Y-98922445D01*
X74933768Y-99076788D01*
X75035586Y-99216928D01*
X75158072Y-99339414D01*
X75298212Y-99441232D01*
X75452555Y-99519873D01*
X75617299Y-99573402D01*
X75788389Y-99600500D01*
X75788390Y-99600500D01*
X76211610Y-99600500D01*
X76211611Y-99600500D01*
X76382701Y-99573402D01*
X76547445Y-99519873D01*
X76701788Y-99441232D01*
X76841928Y-99339414D01*
X76964414Y-99216928D01*
X77066232Y-99076788D01*
X77144873Y-98922445D01*
X77198402Y-98757701D01*
X77225500Y-98586611D01*
X77225500Y-98413389D01*
X77198402Y-98242299D01*
X77144873Y-98077555D01*
X77066232Y-97923212D01*
X76964414Y-97783072D01*
X76841928Y-97660586D01*
X76701788Y-97558768D01*
X76547445Y-97480127D01*
X76382701Y-97426598D01*
X76382699Y-97426597D01*
X76382698Y-97426597D01*
X76251271Y-97405781D01*
X76211611Y-97399500D01*
X75788389Y-97399500D01*
X75748728Y-97405781D01*
X75617302Y-97426597D01*
X75452552Y-97480128D01*
X75298211Y-97558768D01*
X75218256Y-97616859D01*
X75158072Y-97660586D01*
X75158070Y-97660588D01*
X75158069Y-97660588D01*
X75035588Y-97783069D01*
X75035588Y-97783070D01*
X75035586Y-97783072D01*
X75029830Y-97790995D01*
X74933768Y-97923211D01*
X74855128Y-98077552D01*
X74801597Y-98242302D01*
X74774500Y-98413389D01*
X71000500Y-98413389D01*
X71000500Y-95913389D01*
X74774500Y-95913389D01*
X74774500Y-96086611D01*
X74801598Y-96257701D01*
X74855127Y-96422445D01*
X74933768Y-96576788D01*
X75035586Y-96716928D01*
X75158072Y-96839414D01*
X75298212Y-96941232D01*
X75452555Y-97019873D01*
X75617299Y-97073402D01*
X75788389Y-97100500D01*
X75788390Y-97100500D01*
X76211610Y-97100500D01*
X76211611Y-97100500D01*
X76382701Y-97073402D01*
X76547445Y-97019873D01*
X76701788Y-96941232D01*
X76841928Y-96839414D01*
X76964414Y-96716928D01*
X77066232Y-96576788D01*
X77144873Y-96422445D01*
X77198402Y-96257701D01*
X77225500Y-96086611D01*
X77225500Y-95913389D01*
X77198402Y-95742299D01*
X77144873Y-95577555D01*
X77066232Y-95423212D01*
X76964414Y-95283072D01*
X76841928Y-95160586D01*
X76701788Y-95058768D01*
X76547445Y-94980127D01*
X76382701Y-94926598D01*
X76382699Y-94926597D01*
X76382698Y-94926597D01*
X76251271Y-94905781D01*
X76211611Y-94899500D01*
X75788389Y-94899500D01*
X75748728Y-94905781D01*
X75617302Y-94926597D01*
X75452552Y-94980128D01*
X75298211Y-95058768D01*
X75242682Y-95099113D01*
X75158072Y-95160586D01*
X75158070Y-95160588D01*
X75158069Y-95160588D01*
X75035588Y-95283069D01*
X75035588Y-95283070D01*
X75035586Y-95283072D01*
X74991859Y-95343256D01*
X74933768Y-95423211D01*
X74855128Y-95577552D01*
X74801597Y-95742302D01*
X74793656Y-95792442D01*
X74774500Y-95913389D01*
X71000500Y-95913389D01*
X71000500Y-93413389D01*
X74774500Y-93413389D01*
X74774500Y-93586611D01*
X74801598Y-93757701D01*
X74855127Y-93922445D01*
X74933768Y-94076788D01*
X75035586Y-94216928D01*
X75158072Y-94339414D01*
X75298212Y-94441232D01*
X75452555Y-94519873D01*
X75617299Y-94573402D01*
X75788389Y-94600500D01*
X75788390Y-94600500D01*
X76211610Y-94600500D01*
X76211611Y-94600500D01*
X76382701Y-94573402D01*
X76547445Y-94519873D01*
X76701788Y-94441232D01*
X76841928Y-94339414D01*
X76964414Y-94216928D01*
X77066232Y-94076788D01*
X77144873Y-93922445D01*
X77198402Y-93757701D01*
X77225500Y-93586611D01*
X77225500Y-93413389D01*
X77198402Y-93242299D01*
X77144873Y-93077555D01*
X77066232Y-92923212D01*
X76964414Y-92783072D01*
X76841928Y-92660586D01*
X76701788Y-92558768D01*
X76547445Y-92480127D01*
X76382701Y-92426598D01*
X76382699Y-92426597D01*
X76382698Y-92426597D01*
X76251271Y-92405781D01*
X76211611Y-92399500D01*
X75788389Y-92399500D01*
X75748728Y-92405781D01*
X75617302Y-92426597D01*
X75452552Y-92480128D01*
X75298211Y-92558768D01*
X75218256Y-92616859D01*
X75158072Y-92660586D01*
X75158070Y-92660588D01*
X75158069Y-92660588D01*
X75035588Y-92783069D01*
X75035588Y-92783070D01*
X75035586Y-92783072D01*
X74991859Y-92843256D01*
X74933768Y-92923211D01*
X74855128Y-93077552D01*
X74801597Y-93242302D01*
X74774500Y-93413389D01*
X71000500Y-93413389D01*
X71000500Y-90913389D01*
X74774500Y-90913389D01*
X74774500Y-91086610D01*
X74795454Y-91218913D01*
X74801598Y-91257701D01*
X74855127Y-91422445D01*
X74933768Y-91576788D01*
X75035586Y-91716928D01*
X75158072Y-91839414D01*
X75298212Y-91941232D01*
X75452555Y-92019873D01*
X75617299Y-92073402D01*
X75788389Y-92100500D01*
X75788390Y-92100500D01*
X76211610Y-92100500D01*
X76211611Y-92100500D01*
X76382701Y-92073402D01*
X76547445Y-92019873D01*
X76701788Y-91941232D01*
X76841928Y-91839414D01*
X76964414Y-91716928D01*
X77066232Y-91576788D01*
X77144873Y-91422445D01*
X77198402Y-91257701D01*
X77225500Y-91086611D01*
X77225500Y-90913389D01*
X77198402Y-90742299D01*
X77144873Y-90577555D01*
X77066232Y-90423212D01*
X76964414Y-90283072D01*
X76841928Y-90160586D01*
X76701788Y-90058768D01*
X76547445Y-89980127D01*
X76382701Y-89926598D01*
X76382699Y-89926597D01*
X76382698Y-89926597D01*
X76251271Y-89905781D01*
X76211611Y-89899500D01*
X75788389Y-89899500D01*
X75748728Y-89905781D01*
X75617302Y-89926597D01*
X75452552Y-89980128D01*
X75298211Y-90058768D01*
X75218256Y-90116859D01*
X75158072Y-90160586D01*
X75158070Y-90160588D01*
X75158069Y-90160588D01*
X75035588Y-90283069D01*
X75035588Y-90283070D01*
X75035586Y-90283072D01*
X74991859Y-90343256D01*
X74933768Y-90423211D01*
X74855128Y-90577552D01*
X74801597Y-90742302D01*
X74774500Y-90913389D01*
X71000500Y-90913389D01*
X71000500Y-87852135D01*
X74774500Y-87852135D01*
X74774500Y-89147870D01*
X74774501Y-89147876D01*
X74780908Y-89207483D01*
X74831202Y-89342328D01*
X74831206Y-89342335D01*
X74917452Y-89457544D01*
X74917455Y-89457547D01*
X75032664Y-89543793D01*
X75032671Y-89543797D01*
X75167517Y-89594091D01*
X75167516Y-89594091D01*
X75174444Y-89594835D01*
X75227127Y-89600500D01*
X76772872Y-89600499D01*
X76832483Y-89594091D01*
X76967331Y-89543796D01*
X77082546Y-89457546D01*
X77168796Y-89342331D01*
X77219091Y-89207483D01*
X77225500Y-89147873D01*
X77225499Y-87852128D01*
X77219091Y-87792517D01*
X77168796Y-87657669D01*
X77168795Y-87657668D01*
X77168793Y-87657664D01*
X77082547Y-87542455D01*
X77082544Y-87542452D01*
X76967335Y-87456206D01*
X76967328Y-87456202D01*
X76832482Y-87405908D01*
X76832483Y-87405908D01*
X76772883Y-87399501D01*
X76772881Y-87399500D01*
X76772873Y-87399500D01*
X76772864Y-87399500D01*
X75227129Y-87399500D01*
X75227123Y-87399501D01*
X75167516Y-87405908D01*
X75032671Y-87456202D01*
X75032664Y-87456206D01*
X74917455Y-87542452D01*
X74917452Y-87542455D01*
X74831206Y-87657664D01*
X74831202Y-87657671D01*
X74780908Y-87792517D01*
X74774501Y-87852116D01*
X74774501Y-87852123D01*
X74774500Y-87852135D01*
X71000500Y-87852135D01*
X71000500Y-85503750D01*
X71000726Y-85496263D01*
X71018271Y-85206205D01*
X71020076Y-85191340D01*
X71055141Y-85000000D01*
X71071780Y-84909197D01*
X71075364Y-84894663D01*
X71160696Y-84620822D01*
X71165998Y-84606841D01*
X71283731Y-84345249D01*
X71290676Y-84332016D01*
X71439080Y-84086526D01*
X71447567Y-84074230D01*
X71624480Y-83848417D01*
X71634395Y-83837226D01*
X71837226Y-83634395D01*
X71848417Y-83624480D01*
X72074230Y-83447567D01*
X72086526Y-83439080D01*
X72332016Y-83290676D01*
X72345249Y-83283731D01*
X72606841Y-83165998D01*
X72620822Y-83160696D01*
X72894668Y-83075362D01*
X72909197Y-83071780D01*
X73191344Y-83020075D01*
X73206201Y-83018271D01*
X73496264Y-83000726D01*
X73503751Y-83000500D01*
X75171966Y-83000500D01*
X75171969Y-83000500D01*
X75514250Y-82966789D01*
X75851578Y-82899690D01*
X76180705Y-82799850D01*
X76498462Y-82668231D01*
X76801787Y-82506100D01*
X77087760Y-82315019D01*
X77353627Y-82096828D01*
X77596828Y-81853627D01*
X77815019Y-81587760D01*
X78006100Y-81301787D01*
X78168231Y-80998462D01*
X78299850Y-80680705D01*
X78374655Y-80434108D01*
X84999500Y-80434108D01*
X84999500Y-89065891D01*
X85033608Y-89193187D01*
X85041862Y-89207483D01*
X85099500Y-89307314D01*
X90192686Y-94400500D01*
X90306814Y-94466392D01*
X90434108Y-94500500D01*
X90565893Y-94500500D01*
X121241324Y-94500500D01*
X121308363Y-94520185D01*
X121329005Y-94536819D01*
X124583181Y-97790995D01*
X124616666Y-97852318D01*
X124619500Y-97878676D01*
X124619500Y-107193909D01*
X124599815Y-107260948D01*
X124551801Y-107304391D01*
X124543212Y-107308767D01*
X124459761Y-107369399D01*
X124403072Y-107410586D01*
X124403070Y-107410588D01*
X124403069Y-107410588D01*
X124280588Y-107533069D01*
X124280588Y-107533070D01*
X124280586Y-107533072D01*
X124236859Y-107593256D01*
X124178768Y-107673211D01*
X124100128Y-107827550D01*
X124099487Y-107829522D01*
X124099102Y-107830712D01*
X124099099Y-107830720D01*
X124098381Y-107831769D01*
X124098266Y-107832048D01*
X124098207Y-107832023D01*
X124059657Y-107888393D01*
X123995297Y-107915587D01*
X123926451Y-107903668D01*
X123874979Y-107856420D01*
X123863239Y-107830711D01*
X123831096Y-107731784D01*
X123734620Y-107542442D01*
X123609727Y-107370540D01*
X123609723Y-107370535D01*
X123459464Y-107220276D01*
X123459459Y-107220272D01*
X123287557Y-107095379D01*
X123098215Y-106998903D01*
X122896124Y-106933241D01*
X122830000Y-106922768D01*
X122830000Y-107943893D01*
X122780712Y-107915437D01*
X122648459Y-107880000D01*
X122511541Y-107880000D01*
X122379288Y-107915437D01*
X122330000Y-107943893D01*
X122330000Y-106922768D01*
X122329999Y-106922768D01*
X122263875Y-106933241D01*
X122061784Y-106998903D01*
X121872442Y-107095379D01*
X121700540Y-107220272D01*
X121700535Y-107220276D01*
X121550276Y-107370535D01*
X121550272Y-107370540D01*
X121425379Y-107542442D01*
X121328904Y-107731783D01*
X121296760Y-107830712D01*
X121257322Y-107888388D01*
X121192964Y-107915586D01*
X121124117Y-107903671D01*
X121072642Y-107856427D01*
X121060898Y-107830711D01*
X121059873Y-107827555D01*
X120981232Y-107673212D01*
X120879414Y-107533072D01*
X120756928Y-107410586D01*
X120616788Y-107308768D01*
X120462445Y-107230127D01*
X120297701Y-107176598D01*
X120297699Y-107176597D01*
X120297698Y-107176597D01*
X120166271Y-107155781D01*
X120126611Y-107149500D01*
X119953389Y-107149500D01*
X119913728Y-107155781D01*
X119782302Y-107176597D01*
X119617552Y-107230128D01*
X119463211Y-107308768D01*
X119383256Y-107366859D01*
X119323072Y-107410586D01*
X119323070Y-107410588D01*
X119323069Y-107410588D01*
X119200588Y-107533069D01*
X119200588Y-107533070D01*
X119200586Y-107533072D01*
X119156859Y-107593256D01*
X119098768Y-107673211D01*
X119020128Y-107827552D01*
X118966597Y-107992302D01*
X118939500Y-108163389D01*
X118939500Y-108636610D01*
X118952594Y-108719287D01*
X118966598Y-108807701D01*
X119020127Y-108972445D01*
X119098768Y-109126788D01*
X119200586Y-109266928D01*
X119323072Y-109389414D01*
X119463212Y-109491232D01*
X119617555Y-109569873D01*
X119782299Y-109623402D01*
X119953389Y-109650500D01*
X119953390Y-109650500D01*
X120126610Y-109650500D01*
X120126611Y-109650500D01*
X120297701Y-109623402D01*
X120462445Y-109569873D01*
X120616788Y-109491232D01*
X120756928Y-109389414D01*
X120879414Y-109266928D01*
X120981232Y-109126788D01*
X121059873Y-108972445D01*
X121060896Y-108969294D01*
X121061610Y-108968250D01*
X121061734Y-108967952D01*
X121061796Y-108967977D01*
X121100327Y-108911618D01*
X121164683Y-108884415D01*
X121233530Y-108896323D01*
X121285011Y-108943562D01*
X121296760Y-108969287D01*
X121328904Y-109068217D01*
X121425379Y-109257557D01*
X121550272Y-109429459D01*
X121550276Y-109429464D01*
X121700535Y-109579723D01*
X121700540Y-109579727D01*
X121872442Y-109704620D01*
X122061782Y-109801095D01*
X122263871Y-109866757D01*
X122330000Y-109877231D01*
X122330000Y-108856106D01*
X122379288Y-108884563D01*
X122511541Y-108920000D01*
X122648459Y-108920000D01*
X122780712Y-108884563D01*
X122830000Y-108856106D01*
X122830000Y-109877230D01*
X122896126Y-109866757D01*
X122896129Y-109866757D01*
X123098217Y-109801095D01*
X123287557Y-109704620D01*
X123459459Y-109579727D01*
X123459464Y-109579723D01*
X123609723Y-109429464D01*
X123609727Y-109429459D01*
X123734620Y-109257557D01*
X123831096Y-109068215D01*
X123863239Y-108969288D01*
X123902676Y-108911612D01*
X123967034Y-108884413D01*
X124035880Y-108896327D01*
X124087357Y-108943571D01*
X124099100Y-108969284D01*
X124100127Y-108972446D01*
X124148924Y-109068215D01*
X124178768Y-109126788D01*
X124280586Y-109266928D01*
X124403072Y-109389414D01*
X124543212Y-109491232D01*
X124697555Y-109569873D01*
X124862299Y-109623402D01*
X125033389Y-109650500D01*
X125033390Y-109650500D01*
X125206610Y-109650500D01*
X125206611Y-109650500D01*
X125377701Y-109623402D01*
X125542445Y-109569873D01*
X125696788Y-109491232D01*
X125836928Y-109389414D01*
X125959414Y-109266928D01*
X126061232Y-109126788D01*
X126139873Y-108972445D01*
X126193402Y-108807701D01*
X126220500Y-108636611D01*
X126220500Y-108163389D01*
X126559500Y-108163389D01*
X126559500Y-108636610D01*
X126572594Y-108719287D01*
X126586598Y-108807701D01*
X126640127Y-108972445D01*
X126718768Y-109126788D01*
X126820586Y-109266928D01*
X126943072Y-109389414D01*
X127083212Y-109491232D01*
X127237555Y-109569873D01*
X127402299Y-109623402D01*
X127573389Y-109650500D01*
X127573390Y-109650500D01*
X127746610Y-109650500D01*
X127746611Y-109650500D01*
X127917701Y-109623402D01*
X128082445Y-109569873D01*
X128236788Y-109491232D01*
X128376928Y-109389414D01*
X128499414Y-109266928D01*
X128601232Y-109126788D01*
X128679873Y-108972445D01*
X128733402Y-108807701D01*
X128760500Y-108636611D01*
X128760500Y-108163389D01*
X129099500Y-108163389D01*
X129099500Y-108636610D01*
X129112594Y-108719287D01*
X129126598Y-108807701D01*
X129180127Y-108972445D01*
X129258768Y-109126788D01*
X129360586Y-109266928D01*
X129483072Y-109389414D01*
X129623212Y-109491232D01*
X129777555Y-109569873D01*
X129942299Y-109623402D01*
X130113389Y-109650500D01*
X130113390Y-109650500D01*
X130286610Y-109650500D01*
X130286611Y-109650500D01*
X130457701Y-109623402D01*
X130622445Y-109569873D01*
X130776788Y-109491232D01*
X130916928Y-109389414D01*
X131039414Y-109266928D01*
X131141232Y-109126788D01*
X131219873Y-108972445D01*
X131273402Y-108807701D01*
X131300500Y-108636611D01*
X131300500Y-108163389D01*
X131639500Y-108163389D01*
X131639500Y-108636610D01*
X131652594Y-108719287D01*
X131666598Y-108807701D01*
X131720127Y-108972445D01*
X131798768Y-109126788D01*
X131900586Y-109266928D01*
X132023072Y-109389414D01*
X132163212Y-109491232D01*
X132317555Y-109569873D01*
X132482299Y-109623402D01*
X132653389Y-109650500D01*
X132653390Y-109650500D01*
X132826610Y-109650500D01*
X132826611Y-109650500D01*
X132997701Y-109623402D01*
X133162445Y-109569873D01*
X133316788Y-109491232D01*
X133456928Y-109389414D01*
X133579414Y-109266928D01*
X133681232Y-109126788D01*
X133759873Y-108972445D01*
X133813402Y-108807701D01*
X133840500Y-108636611D01*
X133840500Y-108163389D01*
X133813402Y-107992299D01*
X133759873Y-107827555D01*
X133681232Y-107673212D01*
X133579414Y-107533072D01*
X133456928Y-107410586D01*
X133316788Y-107308768D01*
X133162445Y-107230127D01*
X132997701Y-107176598D01*
X132997699Y-107176597D01*
X132997698Y-107176597D01*
X132866271Y-107155781D01*
X132826611Y-107149500D01*
X132653389Y-107149500D01*
X132613728Y-107155781D01*
X132482302Y-107176597D01*
X132317552Y-107230128D01*
X132163211Y-107308768D01*
X132083256Y-107366859D01*
X132023072Y-107410586D01*
X132023070Y-107410588D01*
X132023069Y-107410588D01*
X131900588Y-107533069D01*
X131900588Y-107533070D01*
X131900586Y-107533072D01*
X131856859Y-107593256D01*
X131798768Y-107673211D01*
X131720128Y-107827552D01*
X131666597Y-107992302D01*
X131639500Y-108163389D01*
X131300500Y-108163389D01*
X131273402Y-107992299D01*
X131219873Y-107827555D01*
X131141232Y-107673212D01*
X131039414Y-107533072D01*
X130916928Y-107410586D01*
X130776788Y-107308768D01*
X130622445Y-107230127D01*
X130457701Y-107176598D01*
X130457699Y-107176597D01*
X130457698Y-107176597D01*
X130326271Y-107155781D01*
X130286611Y-107149500D01*
X130113389Y-107149500D01*
X130073728Y-107155781D01*
X129942302Y-107176597D01*
X129777552Y-107230128D01*
X129623211Y-107308768D01*
X129543256Y-107366859D01*
X129483072Y-107410586D01*
X129483070Y-107410588D01*
X129483069Y-107410588D01*
X129360588Y-107533069D01*
X129360588Y-107533070D01*
X129360586Y-107533072D01*
X129316859Y-107593256D01*
X129258768Y-107673211D01*
X129180128Y-107827552D01*
X129126597Y-107992302D01*
X129099500Y-108163389D01*
X128760500Y-108163389D01*
X128733402Y-107992299D01*
X128679873Y-107827555D01*
X128601232Y-107673212D01*
X128499414Y-107533072D01*
X128376928Y-107410586D01*
X128236788Y-107308768D01*
X128082445Y-107230127D01*
X127917701Y-107176598D01*
X127917699Y-107176597D01*
X127917698Y-107176597D01*
X127786271Y-107155781D01*
X127746611Y-107149500D01*
X127573389Y-107149500D01*
X127533728Y-107155781D01*
X127402302Y-107176597D01*
X127237552Y-107230128D01*
X127083211Y-107308768D01*
X127003256Y-107366859D01*
X126943072Y-107410586D01*
X126943070Y-107410588D01*
X126943069Y-107410588D01*
X126820588Y-107533069D01*
X126820588Y-107533070D01*
X126820586Y-107533072D01*
X126776859Y-107593256D01*
X126718768Y-107673211D01*
X126640128Y-107827552D01*
X126586597Y-107992302D01*
X126559500Y-108163389D01*
X126220500Y-108163389D01*
X126193402Y-107992299D01*
X126139873Y-107827555D01*
X126061232Y-107673212D01*
X125959414Y-107533072D01*
X125836928Y-107410586D01*
X125704035Y-107314033D01*
X125696787Y-107308767D01*
X125688199Y-107304391D01*
X125637406Y-107256414D01*
X125620500Y-107193909D01*
X125620500Y-97554110D01*
X125620500Y-97554108D01*
X125586392Y-97426814D01*
X125520500Y-97312686D01*
X125427314Y-97219500D01*
X121807314Y-93599500D01*
X121750250Y-93566554D01*
X121693187Y-93533608D01*
X121629539Y-93516554D01*
X121565892Y-93499500D01*
X121565891Y-93499500D01*
X90758676Y-93499500D01*
X90691637Y-93479815D01*
X90670995Y-93463181D01*
X86036819Y-88829005D01*
X86003334Y-88767682D01*
X86000500Y-88741324D01*
X86000500Y-82763389D01*
X88459500Y-82763389D01*
X88459500Y-83236610D01*
X88475434Y-83337218D01*
X88486598Y-83407701D01*
X88540127Y-83572445D01*
X88618768Y-83726788D01*
X88720586Y-83866928D01*
X88843072Y-83989414D01*
X88983212Y-84091232D01*
X89137555Y-84169873D01*
X89302299Y-84223402D01*
X89473389Y-84250500D01*
X89473390Y-84250500D01*
X89646610Y-84250500D01*
X89646611Y-84250500D01*
X89817701Y-84223402D01*
X89982445Y-84169873D01*
X90136788Y-84091232D01*
X90276928Y-83989414D01*
X90399414Y-83866928D01*
X90501232Y-83726788D01*
X90579873Y-83572445D01*
X90633402Y-83407701D01*
X90660500Y-83236611D01*
X90660500Y-82763389D01*
X90999500Y-82763389D01*
X90999500Y-83236610D01*
X91015434Y-83337218D01*
X91026598Y-83407701D01*
X91080127Y-83572445D01*
X91158768Y-83726788D01*
X91260586Y-83866928D01*
X91383072Y-83989414D01*
X91523212Y-84091232D01*
X91677555Y-84169873D01*
X91842299Y-84223402D01*
X92013389Y-84250500D01*
X92013390Y-84250500D01*
X92186610Y-84250500D01*
X92186611Y-84250500D01*
X92357701Y-84223402D01*
X92522445Y-84169873D01*
X92676788Y-84091232D01*
X92816928Y-83989414D01*
X92939414Y-83866928D01*
X93041232Y-83726788D01*
X93119873Y-83572445D01*
X93173402Y-83407701D01*
X93200500Y-83236611D01*
X93200500Y-82763389D01*
X93539500Y-82763389D01*
X93539500Y-83236610D01*
X93555434Y-83337218D01*
X93566598Y-83407701D01*
X93620127Y-83572445D01*
X93698768Y-83726788D01*
X93800586Y-83866928D01*
X93923072Y-83989414D01*
X94063212Y-84091232D01*
X94217555Y-84169873D01*
X94382299Y-84223402D01*
X94553389Y-84250500D01*
X94553390Y-84250500D01*
X94726610Y-84250500D01*
X94726611Y-84250500D01*
X94897701Y-84223402D01*
X95062445Y-84169873D01*
X95216788Y-84091232D01*
X95356928Y-83989414D01*
X95479414Y-83866928D01*
X95581232Y-83726788D01*
X95659873Y-83572445D01*
X95713402Y-83407701D01*
X95740500Y-83236611D01*
X95740500Y-82763389D01*
X96079500Y-82763389D01*
X96079500Y-83236610D01*
X96095434Y-83337218D01*
X96106598Y-83407701D01*
X96160127Y-83572445D01*
X96238768Y-83726788D01*
X96340586Y-83866928D01*
X96463072Y-83989414D01*
X96603212Y-84091232D01*
X96757555Y-84169873D01*
X96922299Y-84223402D01*
X97093389Y-84250500D01*
X97093390Y-84250500D01*
X97266610Y-84250500D01*
X97266611Y-84250500D01*
X97437701Y-84223402D01*
X97602445Y-84169873D01*
X97756788Y-84091232D01*
X97896928Y-83989414D01*
X98019414Y-83866928D01*
X98121232Y-83726788D01*
X98199873Y-83572445D01*
X98253402Y-83407701D01*
X98280500Y-83236611D01*
X98280500Y-82763389D01*
X98619500Y-82763389D01*
X98619500Y-83236610D01*
X98635434Y-83337218D01*
X98646598Y-83407701D01*
X98700127Y-83572445D01*
X98778768Y-83726788D01*
X98880586Y-83866928D01*
X99003072Y-83989414D01*
X99143212Y-84091232D01*
X99297555Y-84169873D01*
X99462299Y-84223402D01*
X99633389Y-84250500D01*
X99633390Y-84250500D01*
X99806610Y-84250500D01*
X99806611Y-84250500D01*
X99977701Y-84223402D01*
X100142445Y-84169873D01*
X100296788Y-84091232D01*
X100436928Y-83989414D01*
X100559414Y-83866928D01*
X100661232Y-83726788D01*
X100739873Y-83572445D01*
X100793402Y-83407701D01*
X100820500Y-83236611D01*
X100820500Y-82763389D01*
X101159500Y-82763389D01*
X101159500Y-83236610D01*
X101175434Y-83337218D01*
X101186598Y-83407701D01*
X101240127Y-83572445D01*
X101318768Y-83726788D01*
X101420586Y-83866928D01*
X101543072Y-83989414D01*
X101683212Y-84091232D01*
X101837555Y-84169873D01*
X102002299Y-84223402D01*
X102173389Y-84250500D01*
X102173390Y-84250500D01*
X102346610Y-84250500D01*
X102346611Y-84250500D01*
X102517701Y-84223402D01*
X102682445Y-84169873D01*
X102836788Y-84091232D01*
X102976928Y-83989414D01*
X103099414Y-83866928D01*
X103201232Y-83726788D01*
X103279873Y-83572445D01*
X103333402Y-83407701D01*
X103360500Y-83236611D01*
X103360500Y-82763389D01*
X103699500Y-82763389D01*
X103699500Y-83236610D01*
X103715434Y-83337218D01*
X103726598Y-83407701D01*
X103780127Y-83572445D01*
X103858768Y-83726788D01*
X103960586Y-83866928D01*
X104083072Y-83989414D01*
X104223212Y-84091232D01*
X104377555Y-84169873D01*
X104542299Y-84223402D01*
X104713389Y-84250500D01*
X104713390Y-84250500D01*
X104886610Y-84250500D01*
X104886611Y-84250500D01*
X105057701Y-84223402D01*
X105222445Y-84169873D01*
X105376788Y-84091232D01*
X105516928Y-83989414D01*
X105639414Y-83866928D01*
X105741232Y-83726788D01*
X105819873Y-83572445D01*
X105873402Y-83407701D01*
X105900500Y-83236611D01*
X105900500Y-82763389D01*
X106239500Y-82763389D01*
X106239500Y-83236610D01*
X106255434Y-83337218D01*
X106266598Y-83407701D01*
X106320127Y-83572445D01*
X106398768Y-83726788D01*
X106500586Y-83866928D01*
X106623072Y-83989414D01*
X106763212Y-84091232D01*
X106917555Y-84169873D01*
X107082299Y-84223402D01*
X107253389Y-84250500D01*
X107253390Y-84250500D01*
X107426610Y-84250500D01*
X107426611Y-84250500D01*
X107597701Y-84223402D01*
X107762445Y-84169873D01*
X107916788Y-84091232D01*
X108056928Y-83989414D01*
X108179414Y-83866928D01*
X108281232Y-83726788D01*
X108359873Y-83572445D01*
X108413402Y-83407701D01*
X108440500Y-83236611D01*
X108440500Y-82763389D01*
X108779500Y-82763389D01*
X108779500Y-83236610D01*
X108795434Y-83337218D01*
X108806598Y-83407701D01*
X108860127Y-83572445D01*
X108938768Y-83726788D01*
X109040586Y-83866928D01*
X109163072Y-83989414D01*
X109303212Y-84091232D01*
X109457555Y-84169873D01*
X109622299Y-84223402D01*
X109793389Y-84250500D01*
X109793390Y-84250500D01*
X109966610Y-84250500D01*
X109966611Y-84250500D01*
X110137701Y-84223402D01*
X110302445Y-84169873D01*
X110456788Y-84091232D01*
X110596928Y-83989414D01*
X110719414Y-83866928D01*
X110821232Y-83726788D01*
X110899873Y-83572445D01*
X110953402Y-83407701D01*
X110980500Y-83236611D01*
X110980500Y-82763389D01*
X111319500Y-82763389D01*
X111319500Y-83236610D01*
X111335434Y-83337218D01*
X111346598Y-83407701D01*
X111400127Y-83572445D01*
X111478768Y-83726788D01*
X111580586Y-83866928D01*
X111703072Y-83989414D01*
X111843212Y-84091232D01*
X111997555Y-84169873D01*
X112162299Y-84223402D01*
X112333389Y-84250500D01*
X112333390Y-84250500D01*
X112506610Y-84250500D01*
X112506611Y-84250500D01*
X112677701Y-84223402D01*
X112842445Y-84169873D01*
X112996788Y-84091232D01*
X113136928Y-83989414D01*
X113259414Y-83866928D01*
X113361232Y-83726788D01*
X113439873Y-83572445D01*
X113493402Y-83407701D01*
X113520500Y-83236611D01*
X113520500Y-82763389D01*
X113859500Y-82763389D01*
X113859500Y-83236610D01*
X113875434Y-83337218D01*
X113886598Y-83407701D01*
X113940127Y-83572445D01*
X114018768Y-83726788D01*
X114120586Y-83866928D01*
X114243072Y-83989414D01*
X114383212Y-84091232D01*
X114537555Y-84169873D01*
X114702299Y-84223402D01*
X114873389Y-84250500D01*
X114873390Y-84250500D01*
X115046610Y-84250500D01*
X115046611Y-84250500D01*
X115217701Y-84223402D01*
X115382445Y-84169873D01*
X115536788Y-84091232D01*
X115676928Y-83989414D01*
X115799414Y-83866928D01*
X115901232Y-83726788D01*
X115979873Y-83572445D01*
X116033402Y-83407701D01*
X116060500Y-83236611D01*
X116060500Y-82763389D01*
X116399500Y-82763389D01*
X116399500Y-83236610D01*
X116415434Y-83337218D01*
X116426598Y-83407701D01*
X116480127Y-83572445D01*
X116558768Y-83726788D01*
X116660586Y-83866928D01*
X116783072Y-83989414D01*
X116923212Y-84091232D01*
X117077555Y-84169873D01*
X117242299Y-84223402D01*
X117413389Y-84250500D01*
X117413390Y-84250500D01*
X117586610Y-84250500D01*
X117586611Y-84250500D01*
X117757701Y-84223402D01*
X117922445Y-84169873D01*
X118076788Y-84091232D01*
X118216928Y-83989414D01*
X118339414Y-83866928D01*
X118441232Y-83726788D01*
X118519873Y-83572445D01*
X118520896Y-83569294D01*
X118521610Y-83568250D01*
X118521734Y-83567952D01*
X118521796Y-83567977D01*
X118560327Y-83511618D01*
X118624683Y-83484415D01*
X118693530Y-83496323D01*
X118745011Y-83543562D01*
X118756760Y-83569287D01*
X118788904Y-83668217D01*
X118885379Y-83857557D01*
X119010272Y-84029459D01*
X119010276Y-84029464D01*
X119160535Y-84179723D01*
X119160540Y-84179727D01*
X119332442Y-84304620D01*
X119521782Y-84401095D01*
X119723871Y-84466757D01*
X119790000Y-84477231D01*
X119790000Y-83456106D01*
X119839288Y-83484563D01*
X119971541Y-83520000D01*
X120108459Y-83520000D01*
X120240712Y-83484563D01*
X120290000Y-83456106D01*
X120290000Y-84477230D01*
X120356126Y-84466757D01*
X120356129Y-84466757D01*
X120558217Y-84401095D01*
X120747557Y-84304620D01*
X120919459Y-84179727D01*
X120919464Y-84179723D01*
X121069723Y-84029464D01*
X121069727Y-84029459D01*
X121194620Y-83857557D01*
X121291096Y-83668215D01*
X121323239Y-83569288D01*
X121362676Y-83511612D01*
X121427034Y-83484413D01*
X121495880Y-83496327D01*
X121547357Y-83543571D01*
X121559100Y-83569284D01*
X121560127Y-83572446D01*
X121586636Y-83624473D01*
X121638768Y-83726788D01*
X121740586Y-83866928D01*
X121863072Y-83989414D01*
X122003212Y-84091232D01*
X122157555Y-84169873D01*
X122322299Y-84223402D01*
X122493389Y-84250500D01*
X122493390Y-84250500D01*
X122666610Y-84250500D01*
X122666611Y-84250500D01*
X122837701Y-84223402D01*
X123002445Y-84169873D01*
X123156788Y-84091232D01*
X123296928Y-83989414D01*
X123419414Y-83866928D01*
X123521232Y-83726788D01*
X123599873Y-83572445D01*
X123653402Y-83407701D01*
X123680500Y-83236611D01*
X123680500Y-82763389D01*
X124019500Y-82763389D01*
X124019500Y-83236610D01*
X124035434Y-83337218D01*
X124046598Y-83407701D01*
X124100127Y-83572445D01*
X124178768Y-83726788D01*
X124280586Y-83866928D01*
X124403072Y-83989414D01*
X124543212Y-84091232D01*
X124697555Y-84169873D01*
X124862299Y-84223402D01*
X125033389Y-84250500D01*
X125033390Y-84250500D01*
X125206610Y-84250500D01*
X125206611Y-84250500D01*
X125377701Y-84223402D01*
X125542445Y-84169873D01*
X125696788Y-84091232D01*
X125836928Y-83989414D01*
X125959414Y-83866928D01*
X126061232Y-83726788D01*
X126139873Y-83572445D01*
X126193402Y-83407701D01*
X126220500Y-83236611D01*
X126220500Y-82763389D01*
X126559500Y-82763389D01*
X126559500Y-83236610D01*
X126575434Y-83337218D01*
X126586598Y-83407701D01*
X126640127Y-83572445D01*
X126718768Y-83726788D01*
X126820586Y-83866928D01*
X126943072Y-83989414D01*
X127083212Y-84091232D01*
X127237555Y-84169873D01*
X127402299Y-84223402D01*
X127573389Y-84250500D01*
X127573390Y-84250500D01*
X127746610Y-84250500D01*
X127746611Y-84250500D01*
X127917701Y-84223402D01*
X128082445Y-84169873D01*
X128236788Y-84091232D01*
X128376928Y-83989414D01*
X128499414Y-83866928D01*
X128601232Y-83726788D01*
X128679873Y-83572445D01*
X128733402Y-83407701D01*
X128760500Y-83236611D01*
X128760500Y-82763389D01*
X128733402Y-82592299D01*
X128679873Y-82427555D01*
X128601232Y-82273212D01*
X128499414Y-82133072D01*
X128376928Y-82010586D01*
X128236788Y-81908768D01*
X128082445Y-81830127D01*
X127917701Y-81776598D01*
X127917699Y-81776597D01*
X127917698Y-81776597D01*
X127786271Y-81755781D01*
X127746611Y-81749500D01*
X127573389Y-81749500D01*
X127533728Y-81755781D01*
X127402302Y-81776597D01*
X127237552Y-81830128D01*
X127083211Y-81908768D01*
X127058298Y-81926869D01*
X126943072Y-82010586D01*
X126943070Y-82010588D01*
X126943069Y-82010588D01*
X126820588Y-82133069D01*
X126820588Y-82133070D01*
X126820586Y-82133072D01*
X126782872Y-82184981D01*
X126718768Y-82273211D01*
X126640128Y-82427552D01*
X126586597Y-82592302D01*
X126559500Y-82763389D01*
X126220500Y-82763389D01*
X126193402Y-82592299D01*
X126139873Y-82427555D01*
X126061232Y-82273212D01*
X125959414Y-82133072D01*
X125836928Y-82010586D01*
X125696788Y-81908768D01*
X125542445Y-81830127D01*
X125377701Y-81776598D01*
X125377699Y-81776597D01*
X125377698Y-81776597D01*
X125246271Y-81755781D01*
X125206611Y-81749500D01*
X125033389Y-81749500D01*
X124993728Y-81755781D01*
X124862302Y-81776597D01*
X124697552Y-81830128D01*
X124543211Y-81908768D01*
X124518298Y-81926869D01*
X124403072Y-82010586D01*
X124403070Y-82010588D01*
X124403069Y-82010588D01*
X124280588Y-82133069D01*
X124280588Y-82133070D01*
X124280586Y-82133072D01*
X124242872Y-82184981D01*
X124178768Y-82273211D01*
X124100128Y-82427552D01*
X124046597Y-82592302D01*
X124019500Y-82763389D01*
X123680500Y-82763389D01*
X123653402Y-82592299D01*
X123599873Y-82427555D01*
X123521232Y-82273212D01*
X123419414Y-82133072D01*
X123296928Y-82010586D01*
X123156788Y-81908768D01*
X123156789Y-81908768D01*
X123156787Y-81908767D01*
X123148199Y-81904391D01*
X123097406Y-81856414D01*
X123080500Y-81793909D01*
X123080500Y-81178676D01*
X123100185Y-81111637D01*
X123116819Y-81090995D01*
X125273706Y-78934108D01*
X127900500Y-76307314D01*
X127966392Y-76193186D01*
X128000500Y-76065892D01*
X128000500Y-75934107D01*
X128000500Y-54993389D01*
X128899500Y-54993389D01*
X128899500Y-55166611D01*
X128926598Y-55337701D01*
X128980127Y-55502445D01*
X129058768Y-55656788D01*
X129160586Y-55796928D01*
X129283072Y-55919414D01*
X129423212Y-56021232D01*
X129431793Y-56025604D01*
X129482589Y-56073575D01*
X129499500Y-56136089D01*
X129499500Y-81942795D01*
X129479815Y-82009834D01*
X129463182Y-82030476D01*
X129360585Y-82133073D01*
X129258768Y-82273211D01*
X129180128Y-82427552D01*
X129126597Y-82592302D01*
X129099500Y-82763389D01*
X129099500Y-83236610D01*
X129115434Y-83337218D01*
X129126598Y-83407701D01*
X129180127Y-83572445D01*
X129258768Y-83726788D01*
X129360586Y-83866928D01*
X129483072Y-83989414D01*
X129623212Y-84091232D01*
X129777555Y-84169873D01*
X129942299Y-84223402D01*
X130113389Y-84250500D01*
X130113390Y-84250500D01*
X130286610Y-84250500D01*
X130286611Y-84250500D01*
X130457701Y-84223402D01*
X130622445Y-84169873D01*
X130776788Y-84091232D01*
X130916928Y-83989414D01*
X131039414Y-83866928D01*
X131141232Y-83726788D01*
X131219873Y-83572445D01*
X131273402Y-83407701D01*
X131300500Y-83236611D01*
X131300500Y-82763389D01*
X131639500Y-82763389D01*
X131639500Y-83236610D01*
X131655434Y-83337218D01*
X131666598Y-83407701D01*
X131720127Y-83572445D01*
X131798768Y-83726788D01*
X131900586Y-83866928D01*
X132023072Y-83989414D01*
X132163212Y-84091232D01*
X132317555Y-84169873D01*
X132482299Y-84223402D01*
X132653389Y-84250500D01*
X132653390Y-84250500D01*
X132826610Y-84250500D01*
X132826611Y-84250500D01*
X132997701Y-84223402D01*
X133162445Y-84169873D01*
X133316788Y-84091232D01*
X133456928Y-83989414D01*
X133579414Y-83866928D01*
X133681232Y-83726788D01*
X133759873Y-83572445D01*
X133760896Y-83569294D01*
X133761610Y-83568250D01*
X133761734Y-83567952D01*
X133761796Y-83567977D01*
X133800327Y-83511618D01*
X133864683Y-83484415D01*
X133933530Y-83496323D01*
X133985011Y-83543562D01*
X133996760Y-83569287D01*
X134028904Y-83668217D01*
X134125379Y-83857557D01*
X134250272Y-84029459D01*
X134250276Y-84029464D01*
X134400535Y-84179723D01*
X134400540Y-84179727D01*
X134572442Y-84304620D01*
X134761782Y-84401095D01*
X134963871Y-84466757D01*
X135030000Y-84477231D01*
X135030000Y-83456106D01*
X135079288Y-83484563D01*
X135211541Y-83520000D01*
X135348459Y-83520000D01*
X135480712Y-83484563D01*
X135530000Y-83456106D01*
X135530000Y-84477230D01*
X135596126Y-84466757D01*
X135596129Y-84466757D01*
X135798217Y-84401095D01*
X135987557Y-84304620D01*
X136159459Y-84179727D01*
X136159464Y-84179723D01*
X136309723Y-84029464D01*
X136309727Y-84029459D01*
X136434620Y-83857557D01*
X136531095Y-83668217D01*
X136596757Y-83466130D01*
X136596757Y-83466127D01*
X136630000Y-83256246D01*
X136630000Y-83250000D01*
X135736107Y-83250000D01*
X135764563Y-83200712D01*
X135800000Y-83068459D01*
X135800000Y-82931541D01*
X135764563Y-82799288D01*
X135736107Y-82750000D01*
X136630000Y-82750000D01*
X136630000Y-82743753D01*
X136596757Y-82533872D01*
X136596757Y-82533869D01*
X136531095Y-82331782D01*
X136434620Y-82142442D01*
X136309727Y-81970540D01*
X136309723Y-81970535D01*
X136159464Y-81820276D01*
X136159459Y-81820272D01*
X135987557Y-81695379D01*
X135798215Y-81598903D01*
X135596124Y-81533241D01*
X135530000Y-81522768D01*
X135530000Y-82543893D01*
X135480712Y-82515437D01*
X135348459Y-82480000D01*
X135211541Y-82480000D01*
X135079288Y-82515437D01*
X135030000Y-82543893D01*
X135030000Y-81522768D01*
X135029999Y-81522768D01*
X134963875Y-81533241D01*
X134761784Y-81598903D01*
X134572442Y-81695379D01*
X134400540Y-81820272D01*
X134400535Y-81820276D01*
X134250276Y-81970535D01*
X134250272Y-81970540D01*
X134125379Y-82142442D01*
X134028904Y-82331783D01*
X133996760Y-82430712D01*
X133957322Y-82488388D01*
X133892964Y-82515586D01*
X133824117Y-82503671D01*
X133772642Y-82456427D01*
X133760898Y-82430711D01*
X133759873Y-82427555D01*
X133681232Y-82273212D01*
X133579414Y-82133072D01*
X133456928Y-82010586D01*
X133316788Y-81908768D01*
X133162445Y-81830127D01*
X132997701Y-81776598D01*
X132997699Y-81776597D01*
X132997698Y-81776597D01*
X132866271Y-81755781D01*
X132826611Y-81749500D01*
X132653389Y-81749500D01*
X132613728Y-81755781D01*
X132482302Y-81776597D01*
X132317552Y-81830128D01*
X132163211Y-81908768D01*
X132138298Y-81926869D01*
X132023072Y-82010586D01*
X132023070Y-82010588D01*
X132023069Y-82010588D01*
X131900588Y-82133069D01*
X131900588Y-82133070D01*
X131900586Y-82133072D01*
X131862872Y-82184981D01*
X131798768Y-82273211D01*
X131720128Y-82427552D01*
X131666597Y-82592302D01*
X131639500Y-82763389D01*
X131300500Y-82763389D01*
X131273402Y-82592299D01*
X131219873Y-82427555D01*
X131141232Y-82273212D01*
X131039414Y-82133072D01*
X130916928Y-82010586D01*
X130776788Y-81908768D01*
X130768198Y-81904391D01*
X130622445Y-81830126D01*
X130586180Y-81818343D01*
X130528505Y-81778905D01*
X130501308Y-81714546D01*
X130500500Y-81700413D01*
X130500500Y-69401012D01*
X132449500Y-69401012D01*
X132449500Y-69798988D01*
X132459498Y-69900497D01*
X132488507Y-70195046D01*
X132566149Y-70585374D01*
X132681676Y-70966219D01*
X132833976Y-71333903D01*
X132833978Y-71333908D01*
X133021573Y-71684873D01*
X133021584Y-71684891D01*
X133242678Y-72015781D01*
X133242688Y-72015795D01*
X133495162Y-72323435D01*
X133776564Y-72604837D01*
X133776569Y-72604841D01*
X133776570Y-72604842D01*
X134084210Y-72857316D01*
X134415115Y-73078420D01*
X134415124Y-73078425D01*
X134415126Y-73078426D01*
X134766091Y-73266021D01*
X134766093Y-73266021D01*
X134766099Y-73266025D01*
X135133782Y-73418324D01*
X135514622Y-73533850D01*
X135904951Y-73611492D01*
X136301012Y-73650500D01*
X136301015Y-73650500D01*
X136698985Y-73650500D01*
X136698988Y-73650500D01*
X137095049Y-73611492D01*
X137485378Y-73533850D01*
X137866218Y-73418324D01*
X138233901Y-73266025D01*
X138584885Y-73078420D01*
X138915790Y-72857316D01*
X139223430Y-72604842D01*
X139504842Y-72323430D01*
X139757316Y-72015790D01*
X139978420Y-71684885D01*
X140166025Y-71333901D01*
X140318324Y-70966218D01*
X140433850Y-70585378D01*
X140511492Y-70195049D01*
X140550500Y-69798988D01*
X140550500Y-69401012D01*
X140511492Y-69004951D01*
X140433850Y-68614622D01*
X140318324Y-68233782D01*
X140166025Y-67866099D01*
X140134336Y-67806814D01*
X139978426Y-67515126D01*
X139978425Y-67515124D01*
X139978420Y-67515115D01*
X139757316Y-67184210D01*
X139504842Y-66876570D01*
X139504841Y-66876569D01*
X139504837Y-66876564D01*
X139223435Y-66595162D01*
X138915795Y-66342688D01*
X138915794Y-66342687D01*
X138915790Y-66342684D01*
X138584885Y-66121580D01*
X138584880Y-66121577D01*
X138584873Y-66121573D01*
X138233908Y-65933978D01*
X138233903Y-65933976D01*
X137866219Y-65781676D01*
X137595319Y-65699500D01*
X137485378Y-65666150D01*
X137485375Y-65666149D01*
X137485374Y-65666149D01*
X137095046Y-65588507D01*
X136816009Y-65561025D01*
X136698988Y-65549500D01*
X136301012Y-65549500D01*
X136194483Y-65559992D01*
X135904953Y-65588507D01*
X135514625Y-65666149D01*
X135133780Y-65781676D01*
X134766096Y-65933976D01*
X134766091Y-65933978D01*
X134415126Y-66121573D01*
X134415108Y-66121584D01*
X134084218Y-66342678D01*
X134084204Y-66342688D01*
X133776564Y-66595162D01*
X133495162Y-66876564D01*
X133242688Y-67184204D01*
X133242678Y-67184218D01*
X133021584Y-67515108D01*
X133021573Y-67515126D01*
X132833978Y-67866091D01*
X132833976Y-67866096D01*
X132681676Y-68233780D01*
X132566149Y-68614625D01*
X132488507Y-69004953D01*
X132459992Y-69294483D01*
X132449500Y-69401012D01*
X130500500Y-69401012D01*
X130500500Y-56136089D01*
X130520185Y-56069050D01*
X130568206Y-56025604D01*
X130576788Y-56021232D01*
X130716928Y-55919414D01*
X130839414Y-55796928D01*
X130941232Y-55656788D01*
X131019873Y-55502445D01*
X131073402Y-55337701D01*
X131100500Y-55166611D01*
X131100500Y-54993389D01*
X131073402Y-54822299D01*
X131019873Y-54657555D01*
X130941232Y-54503212D01*
X130839414Y-54363072D01*
X130716928Y-54240586D01*
X130576788Y-54138768D01*
X130422445Y-54060127D01*
X130257701Y-54006598D01*
X130257699Y-54006597D01*
X130257698Y-54006597D01*
X130126271Y-53985781D01*
X130086611Y-53979500D01*
X129913389Y-53979500D01*
X129873728Y-53985781D01*
X129742302Y-54006597D01*
X129577552Y-54060128D01*
X129423211Y-54138768D01*
X129349005Y-54192683D01*
X129283072Y-54240586D01*
X129283070Y-54240588D01*
X129283069Y-54240588D01*
X129160588Y-54363069D01*
X129160588Y-54363070D01*
X129160586Y-54363072D01*
X129116859Y-54423256D01*
X129058768Y-54503211D01*
X128980128Y-54657552D01*
X128926597Y-54822302D01*
X128899500Y-54993389D01*
X128000500Y-54993389D01*
X128000500Y-54758675D01*
X128020185Y-54691636D01*
X128036814Y-54670999D01*
X129234439Y-53473373D01*
X129295760Y-53439890D01*
X129365452Y-53444874D01*
X129395003Y-53460737D01*
X129423212Y-53481232D01*
X129577555Y-53559873D01*
X129742299Y-53613402D01*
X129913389Y-53640500D01*
X129913390Y-53640500D01*
X130086610Y-53640500D01*
X130086611Y-53640500D01*
X130257701Y-53613402D01*
X130422445Y-53559873D01*
X130576788Y-53481232D01*
X130716928Y-53379414D01*
X130839414Y-53256928D01*
X130941232Y-53116788D01*
X131019873Y-52962445D01*
X131073402Y-52797701D01*
X131100500Y-52626611D01*
X131100500Y-52453389D01*
X131073402Y-52282299D01*
X131019873Y-52117555D01*
X130941232Y-51963212D01*
X130839414Y-51823072D01*
X130716928Y-51700586D01*
X130576788Y-51598768D01*
X130422445Y-51520127D01*
X130257701Y-51466598D01*
X130257699Y-51466597D01*
X130257698Y-51466597D01*
X130126271Y-51445781D01*
X130086611Y-51439500D01*
X129913389Y-51439500D01*
X129873728Y-51445781D01*
X129742302Y-51466597D01*
X129577552Y-51520128D01*
X129423211Y-51598768D01*
X129343256Y-51656859D01*
X129283072Y-51700586D01*
X129283070Y-51700588D01*
X129283069Y-51700588D01*
X129160588Y-51823069D01*
X129160588Y-51823070D01*
X129160586Y-51823072D01*
X129160053Y-51823806D01*
X129058768Y-51963211D01*
X128980128Y-52117552D01*
X128926597Y-52282301D01*
X128917225Y-52341470D01*
X128887294Y-52404604D01*
X128882433Y-52409751D01*
X127192686Y-54099500D01*
X127099502Y-54192683D01*
X127099500Y-54192686D01*
X127033608Y-54306812D01*
X126999500Y-54434108D01*
X126999500Y-75741324D01*
X126979815Y-75808363D01*
X126963181Y-75829005D01*
X122179502Y-80612683D01*
X122179500Y-80612686D01*
X122113608Y-80726812D01*
X122079500Y-80854108D01*
X122079500Y-81793909D01*
X122059815Y-81860948D01*
X122011801Y-81904391D01*
X122003212Y-81908767D01*
X121918197Y-81970535D01*
X121863072Y-82010586D01*
X121863070Y-82010588D01*
X121863069Y-82010588D01*
X121740588Y-82133069D01*
X121740588Y-82133070D01*
X121740586Y-82133072D01*
X121702872Y-82184981D01*
X121638768Y-82273211D01*
X121560128Y-82427550D01*
X121559487Y-82429522D01*
X121559102Y-82430712D01*
X121559099Y-82430720D01*
X121558381Y-82431769D01*
X121558266Y-82432048D01*
X121558207Y-82432023D01*
X121519657Y-82488393D01*
X121455297Y-82515587D01*
X121386451Y-82503668D01*
X121334979Y-82456420D01*
X121323239Y-82430711D01*
X121291096Y-82331784D01*
X121194620Y-82142442D01*
X121069727Y-81970540D01*
X121069723Y-81970535D01*
X120919464Y-81820276D01*
X120919459Y-81820272D01*
X120747557Y-81695379D01*
X120558215Y-81598903D01*
X120356124Y-81533241D01*
X120290000Y-81522768D01*
X120290000Y-82543893D01*
X120240712Y-82515437D01*
X120108459Y-82480000D01*
X119971541Y-82480000D01*
X119839288Y-82515437D01*
X119790000Y-82543893D01*
X119790000Y-81522768D01*
X119789999Y-81522768D01*
X119723875Y-81533241D01*
X119521784Y-81598903D01*
X119332442Y-81695379D01*
X119160540Y-81820272D01*
X119160535Y-81820276D01*
X119010276Y-81970535D01*
X119010272Y-81970540D01*
X118885379Y-82142442D01*
X118788904Y-82331783D01*
X118756760Y-82430712D01*
X118717322Y-82488388D01*
X118652964Y-82515586D01*
X118584117Y-82503671D01*
X118532642Y-82456427D01*
X118520898Y-82430711D01*
X118519873Y-82427555D01*
X118441232Y-82273212D01*
X118339414Y-82133072D01*
X118216928Y-82010586D01*
X118076788Y-81908768D01*
X117922445Y-81830127D01*
X117757701Y-81776598D01*
X117757699Y-81776597D01*
X117757698Y-81776597D01*
X117626271Y-81755781D01*
X117586611Y-81749500D01*
X117413389Y-81749500D01*
X117373728Y-81755781D01*
X117242302Y-81776597D01*
X117077552Y-81830128D01*
X116923211Y-81908768D01*
X116898298Y-81926869D01*
X116783072Y-82010586D01*
X116783070Y-82010588D01*
X116783069Y-82010588D01*
X116660588Y-82133069D01*
X116660588Y-82133070D01*
X116660586Y-82133072D01*
X116622872Y-82184981D01*
X116558768Y-82273211D01*
X116480128Y-82427552D01*
X116426597Y-82592302D01*
X116399500Y-82763389D01*
X116060500Y-82763389D01*
X116033402Y-82592299D01*
X115979873Y-82427555D01*
X115901232Y-82273212D01*
X115799414Y-82133072D01*
X115676928Y-82010586D01*
X115536788Y-81908768D01*
X115382445Y-81830127D01*
X115217701Y-81776598D01*
X115217699Y-81776597D01*
X115217698Y-81776597D01*
X115086271Y-81755781D01*
X115046611Y-81749500D01*
X114873389Y-81749500D01*
X114833728Y-81755781D01*
X114702302Y-81776597D01*
X114537552Y-81830128D01*
X114383211Y-81908768D01*
X114358298Y-81926869D01*
X114243072Y-82010586D01*
X114243070Y-82010588D01*
X114243069Y-82010588D01*
X114120588Y-82133069D01*
X114120588Y-82133070D01*
X114120586Y-82133072D01*
X114082872Y-82184981D01*
X114018768Y-82273211D01*
X113940128Y-82427552D01*
X113886597Y-82592302D01*
X113859500Y-82763389D01*
X113520500Y-82763389D01*
X113493402Y-82592299D01*
X113439873Y-82427555D01*
X113361232Y-82273212D01*
X113259414Y-82133072D01*
X113136928Y-82010586D01*
X112996788Y-81908768D01*
X112842445Y-81830127D01*
X112677701Y-81776598D01*
X112677699Y-81776597D01*
X112677698Y-81776597D01*
X112546271Y-81755781D01*
X112506611Y-81749500D01*
X112333389Y-81749500D01*
X112293728Y-81755781D01*
X112162302Y-81776597D01*
X111997552Y-81830128D01*
X111843211Y-81908768D01*
X111818298Y-81926869D01*
X111703072Y-82010586D01*
X111703070Y-82010588D01*
X111703069Y-82010588D01*
X111580588Y-82133069D01*
X111580588Y-82133070D01*
X111580586Y-82133072D01*
X111542872Y-82184981D01*
X111478768Y-82273211D01*
X111400128Y-82427552D01*
X111346597Y-82592302D01*
X111319500Y-82763389D01*
X110980500Y-82763389D01*
X110953402Y-82592299D01*
X110899873Y-82427555D01*
X110821232Y-82273212D01*
X110719414Y-82133072D01*
X110596928Y-82010586D01*
X110456788Y-81908768D01*
X110302445Y-81830127D01*
X110137701Y-81776598D01*
X110137699Y-81776597D01*
X110137698Y-81776597D01*
X110006271Y-81755781D01*
X109966611Y-81749500D01*
X109793389Y-81749500D01*
X109753728Y-81755781D01*
X109622302Y-81776597D01*
X109457552Y-81830128D01*
X109303211Y-81908768D01*
X109278298Y-81926869D01*
X109163072Y-82010586D01*
X109163070Y-82010588D01*
X109163069Y-82010588D01*
X109040588Y-82133069D01*
X109040588Y-82133070D01*
X109040586Y-82133072D01*
X109002872Y-82184981D01*
X108938768Y-82273211D01*
X108860128Y-82427552D01*
X108806597Y-82592302D01*
X108779500Y-82763389D01*
X108440500Y-82763389D01*
X108413402Y-82592299D01*
X108359873Y-82427555D01*
X108281232Y-82273212D01*
X108179414Y-82133072D01*
X108056928Y-82010586D01*
X107916788Y-81908768D01*
X107762445Y-81830127D01*
X107597701Y-81776598D01*
X107597699Y-81776597D01*
X107597698Y-81776597D01*
X107466271Y-81755781D01*
X107426611Y-81749500D01*
X107253389Y-81749500D01*
X107213728Y-81755781D01*
X107082302Y-81776597D01*
X106917552Y-81830128D01*
X106763211Y-81908768D01*
X106738298Y-81926869D01*
X106623072Y-82010586D01*
X106623070Y-82010588D01*
X106623069Y-82010588D01*
X106500588Y-82133069D01*
X106500588Y-82133070D01*
X106500586Y-82133072D01*
X106462872Y-82184981D01*
X106398768Y-82273211D01*
X106320128Y-82427552D01*
X106266597Y-82592302D01*
X106239500Y-82763389D01*
X105900500Y-82763389D01*
X105873402Y-82592299D01*
X105819873Y-82427555D01*
X105741232Y-82273212D01*
X105639414Y-82133072D01*
X105516928Y-82010586D01*
X105376788Y-81908768D01*
X105222445Y-81830127D01*
X105057701Y-81776598D01*
X105057699Y-81776597D01*
X105057698Y-81776597D01*
X104926271Y-81755781D01*
X104886611Y-81749500D01*
X104713389Y-81749500D01*
X104673728Y-81755781D01*
X104542302Y-81776597D01*
X104377552Y-81830128D01*
X104223211Y-81908768D01*
X104198298Y-81926869D01*
X104083072Y-82010586D01*
X104083070Y-82010588D01*
X104083069Y-82010588D01*
X103960588Y-82133069D01*
X103960588Y-82133070D01*
X103960586Y-82133072D01*
X103922872Y-82184981D01*
X103858768Y-82273211D01*
X103780128Y-82427552D01*
X103726597Y-82592302D01*
X103699500Y-82763389D01*
X103360500Y-82763389D01*
X103333402Y-82592299D01*
X103279873Y-82427555D01*
X103201232Y-82273212D01*
X103099414Y-82133072D01*
X102976928Y-82010586D01*
X102836788Y-81908768D01*
X102682445Y-81830127D01*
X102517701Y-81776598D01*
X102517699Y-81776597D01*
X102517698Y-81776597D01*
X102386271Y-81755781D01*
X102346611Y-81749500D01*
X102173389Y-81749500D01*
X102133728Y-81755781D01*
X102002302Y-81776597D01*
X101837552Y-81830128D01*
X101683211Y-81908768D01*
X101658298Y-81926869D01*
X101543072Y-82010586D01*
X101543070Y-82010588D01*
X101543069Y-82010588D01*
X101420588Y-82133069D01*
X101420588Y-82133070D01*
X101420586Y-82133072D01*
X101382872Y-82184981D01*
X101318768Y-82273211D01*
X101240128Y-82427552D01*
X101186597Y-82592302D01*
X101159500Y-82763389D01*
X100820500Y-82763389D01*
X100793402Y-82592299D01*
X100739873Y-82427555D01*
X100661232Y-82273212D01*
X100559414Y-82133072D01*
X100436928Y-82010586D01*
X100296788Y-81908768D01*
X100142445Y-81830127D01*
X99977701Y-81776598D01*
X99977699Y-81776597D01*
X99977698Y-81776597D01*
X99846271Y-81755781D01*
X99806611Y-81749500D01*
X99633389Y-81749500D01*
X99593728Y-81755781D01*
X99462302Y-81776597D01*
X99297552Y-81830128D01*
X99143211Y-81908768D01*
X99118298Y-81926869D01*
X99003072Y-82010586D01*
X99003070Y-82010588D01*
X99003069Y-82010588D01*
X98880588Y-82133069D01*
X98880588Y-82133070D01*
X98880586Y-82133072D01*
X98842872Y-82184981D01*
X98778768Y-82273211D01*
X98700128Y-82427552D01*
X98646597Y-82592302D01*
X98619500Y-82763389D01*
X98280500Y-82763389D01*
X98253402Y-82592299D01*
X98199873Y-82427555D01*
X98121232Y-82273212D01*
X98019414Y-82133072D01*
X97896928Y-82010586D01*
X97756788Y-81908768D01*
X97602445Y-81830127D01*
X97437701Y-81776598D01*
X97437699Y-81776597D01*
X97437698Y-81776597D01*
X97306271Y-81755781D01*
X97266611Y-81749500D01*
X97093389Y-81749500D01*
X97053728Y-81755781D01*
X96922302Y-81776597D01*
X96757552Y-81830128D01*
X96603211Y-81908768D01*
X96578298Y-81926869D01*
X96463072Y-82010586D01*
X96463070Y-82010588D01*
X96463069Y-82010588D01*
X96340588Y-82133069D01*
X96340588Y-82133070D01*
X96340586Y-82133072D01*
X96302872Y-82184981D01*
X96238768Y-82273211D01*
X96160128Y-82427552D01*
X96106597Y-82592302D01*
X96079500Y-82763389D01*
X95740500Y-82763389D01*
X95713402Y-82592299D01*
X95659873Y-82427555D01*
X95581232Y-82273212D01*
X95479414Y-82133072D01*
X95356928Y-82010586D01*
X95216788Y-81908768D01*
X95062445Y-81830127D01*
X94897701Y-81776598D01*
X94897699Y-81776597D01*
X94897698Y-81776597D01*
X94766271Y-81755781D01*
X94726611Y-81749500D01*
X94553389Y-81749500D01*
X94513728Y-81755781D01*
X94382302Y-81776597D01*
X94217552Y-81830128D01*
X94063211Y-81908768D01*
X94038298Y-81926869D01*
X93923072Y-82010586D01*
X93923070Y-82010588D01*
X93923069Y-82010588D01*
X93800588Y-82133069D01*
X93800588Y-82133070D01*
X93800586Y-82133072D01*
X93762872Y-82184981D01*
X93698768Y-82273211D01*
X93620128Y-82427552D01*
X93566597Y-82592302D01*
X93539500Y-82763389D01*
X93200500Y-82763389D01*
X93173402Y-82592299D01*
X93119873Y-82427555D01*
X93041232Y-82273212D01*
X92939414Y-82133072D01*
X92816928Y-82010586D01*
X92676788Y-81908768D01*
X92522445Y-81830127D01*
X92357701Y-81776598D01*
X92357699Y-81776597D01*
X92357698Y-81776597D01*
X92226271Y-81755781D01*
X92186611Y-81749500D01*
X92013389Y-81749500D01*
X91973728Y-81755781D01*
X91842302Y-81776597D01*
X91677552Y-81830128D01*
X91523211Y-81908768D01*
X91498298Y-81926869D01*
X91383072Y-82010586D01*
X91383070Y-82010588D01*
X91383069Y-82010588D01*
X91260588Y-82133069D01*
X91260588Y-82133070D01*
X91260586Y-82133072D01*
X91222872Y-82184981D01*
X91158768Y-82273211D01*
X91080128Y-82427552D01*
X91026597Y-82592302D01*
X90999500Y-82763389D01*
X90660500Y-82763389D01*
X90633402Y-82592299D01*
X90579873Y-82427555D01*
X90501232Y-82273212D01*
X90399414Y-82133072D01*
X90276928Y-82010586D01*
X90136788Y-81908768D01*
X89982445Y-81830127D01*
X89817701Y-81776598D01*
X89817699Y-81776597D01*
X89817698Y-81776597D01*
X89686271Y-81755781D01*
X89646611Y-81749500D01*
X89473389Y-81749500D01*
X89433728Y-81755781D01*
X89302302Y-81776597D01*
X89137552Y-81830128D01*
X88983211Y-81908768D01*
X88958298Y-81926869D01*
X88843072Y-82010586D01*
X88843070Y-82010588D01*
X88843069Y-82010588D01*
X88720588Y-82133069D01*
X88720588Y-82133070D01*
X88720586Y-82133072D01*
X88682872Y-82184981D01*
X88618768Y-82273211D01*
X88540128Y-82427552D01*
X88486597Y-82592302D01*
X88459500Y-82763389D01*
X86000500Y-82763389D01*
X86000500Y-80758675D01*
X86020185Y-80691636D01*
X86036819Y-80670994D01*
X91145994Y-75561819D01*
X91207317Y-75528334D01*
X91233675Y-75525500D01*
X105640220Y-75525500D01*
X105707259Y-75545185D01*
X105750705Y-75593206D01*
X105818766Y-75726786D01*
X105849357Y-75768890D01*
X105920586Y-75866928D01*
X106043072Y-75989414D01*
X106183212Y-76091232D01*
X106337555Y-76169873D01*
X106502299Y-76223402D01*
X106673389Y-76250500D01*
X106673390Y-76250500D01*
X106846610Y-76250500D01*
X106846611Y-76250500D01*
X107017701Y-76223402D01*
X107182445Y-76169873D01*
X107336788Y-76091232D01*
X107476928Y-75989414D01*
X107599414Y-75866928D01*
X107701232Y-75726788D01*
X107779873Y-75572445D01*
X107833402Y-75407701D01*
X107860500Y-75236611D01*
X107860500Y-74813389D01*
X108159500Y-74813389D01*
X108159500Y-75236611D01*
X108186598Y-75407701D01*
X108240127Y-75572445D01*
X108318768Y-75726788D01*
X108420586Y-75866928D01*
X108543072Y-75989414D01*
X108683212Y-76091232D01*
X108837555Y-76169873D01*
X109002299Y-76223402D01*
X109173389Y-76250500D01*
X109173390Y-76250500D01*
X109346610Y-76250500D01*
X109346611Y-76250500D01*
X109517701Y-76223402D01*
X109682445Y-76169873D01*
X109836788Y-76091232D01*
X109976928Y-75989414D01*
X110099414Y-75866928D01*
X110187006Y-75746367D01*
X110242336Y-75703702D01*
X110311949Y-75697723D01*
X110373744Y-75730329D01*
X110408101Y-75791167D01*
X110410682Y-75806651D01*
X110420494Y-75902697D01*
X110475641Y-76069119D01*
X110475643Y-76069124D01*
X110567684Y-76218345D01*
X110691654Y-76342315D01*
X110840875Y-76434356D01*
X110840880Y-76434358D01*
X111007302Y-76489505D01*
X111007309Y-76489506D01*
X111110019Y-76499999D01*
X111509999Y-76499999D01*
X111510000Y-76499998D01*
X111510000Y-75429145D01*
X111576657Y-75467630D01*
X111697465Y-75500000D01*
X111822535Y-75500000D01*
X111943343Y-75467630D01*
X112010000Y-75429145D01*
X112010000Y-76499999D01*
X112409972Y-76499999D01*
X112409986Y-76499998D01*
X112512697Y-76489505D01*
X112679119Y-76434358D01*
X112679124Y-76434356D01*
X112828345Y-76342315D01*
X112952315Y-76218345D01*
X113044356Y-76069124D01*
X113044358Y-76069119D01*
X113099505Y-75902697D01*
X113099506Y-75902690D01*
X113109999Y-75799986D01*
X113110000Y-75799973D01*
X113110000Y-75275000D01*
X112164146Y-75275000D01*
X112202630Y-75208343D01*
X112235000Y-75087535D01*
X112235000Y-74962465D01*
X112202630Y-74841657D01*
X112164146Y-74775000D01*
X113109999Y-74775000D01*
X113109999Y-74250028D01*
X113109998Y-74250013D01*
X113099505Y-74147302D01*
X113044358Y-73980880D01*
X113044356Y-73980875D01*
X112952315Y-73831654D01*
X112828345Y-73707684D01*
X112679124Y-73615643D01*
X112679119Y-73615641D01*
X112512697Y-73560494D01*
X112512690Y-73560493D01*
X112409986Y-73550000D01*
X112010000Y-73550000D01*
X112010000Y-74620854D01*
X111943343Y-74582370D01*
X111822535Y-74550000D01*
X111697465Y-74550000D01*
X111576657Y-74582370D01*
X111510000Y-74620854D01*
X111510000Y-73550000D01*
X111110028Y-73550000D01*
X111110012Y-73550001D01*
X111007302Y-73560494D01*
X110840880Y-73615641D01*
X110840875Y-73615643D01*
X110691654Y-73707684D01*
X110567684Y-73831654D01*
X110475643Y-73980875D01*
X110475641Y-73980880D01*
X110420494Y-74147302D01*
X110420493Y-74147309D01*
X110410681Y-74243349D01*
X110384284Y-74308040D01*
X110327103Y-74348191D01*
X110257292Y-74351054D01*
X110197016Y-74315719D01*
X110187009Y-74303636D01*
X110099414Y-74183072D01*
X109976928Y-74060586D01*
X109836788Y-73958768D01*
X109682445Y-73880127D01*
X109517701Y-73826598D01*
X109517699Y-73826597D01*
X109517698Y-73826597D01*
X109386271Y-73805781D01*
X109346611Y-73799500D01*
X109173389Y-73799500D01*
X109133728Y-73805781D01*
X109002302Y-73826597D01*
X108837552Y-73880128D01*
X108683211Y-73958768D01*
X108603256Y-74016859D01*
X108543072Y-74060586D01*
X108543070Y-74060588D01*
X108543069Y-74060588D01*
X108420588Y-74183069D01*
X108420588Y-74183070D01*
X108420586Y-74183072D01*
X108376859Y-74243256D01*
X108318768Y-74323211D01*
X108240128Y-74477552D01*
X108186597Y-74642302D01*
X108172178Y-74733343D01*
X108159500Y-74813389D01*
X107860500Y-74813389D01*
X107833402Y-74642299D01*
X107779873Y-74477555D01*
X107701232Y-74323212D01*
X107599414Y-74183072D01*
X107476928Y-74060586D01*
X107336788Y-73958768D01*
X107182445Y-73880127D01*
X107017701Y-73826598D01*
X107017699Y-73826597D01*
X107017698Y-73826597D01*
X106886271Y-73805781D01*
X106846611Y-73799500D01*
X106673389Y-73799500D01*
X106633728Y-73805781D01*
X106502302Y-73826597D01*
X106337552Y-73880128D01*
X106183211Y-73958768D01*
X106103256Y-74016859D01*
X106043072Y-74060586D01*
X106043070Y-74060588D01*
X106043069Y-74060588D01*
X105920588Y-74183069D01*
X105920588Y-74183070D01*
X105920586Y-74183072D01*
X105889996Y-74225174D01*
X105818766Y-74323213D01*
X105750705Y-74456794D01*
X105702731Y-74507591D01*
X105640220Y-74524500D01*
X90909107Y-74524500D01*
X90781812Y-74558608D01*
X90667686Y-74624500D01*
X90667683Y-74624502D01*
X90574498Y-74717688D01*
X85175245Y-80116940D01*
X85175244Y-80116940D01*
X85175245Y-80116941D01*
X85099500Y-80192686D01*
X85033608Y-80306812D01*
X84999500Y-80434108D01*
X78374655Y-80434108D01*
X78399690Y-80351578D01*
X78466789Y-80014250D01*
X78500500Y-79671969D01*
X78500500Y-79500000D01*
X78500500Y-79434108D01*
X78500500Y-67934108D01*
X103999500Y-67934108D01*
X103999500Y-69565891D01*
X104033608Y-69693187D01*
X104066554Y-69750250D01*
X104099500Y-69807314D01*
X104192686Y-69900500D01*
X104306814Y-69966392D01*
X104434108Y-70000500D01*
X104434110Y-70000500D01*
X111065890Y-70000500D01*
X111065892Y-70000500D01*
X111193186Y-69966392D01*
X111307314Y-69900500D01*
X111400500Y-69807314D01*
X111466392Y-69693186D01*
X111500500Y-69565892D01*
X111500500Y-67934108D01*
X111466392Y-67806814D01*
X111400500Y-67692686D01*
X111307314Y-67599500D01*
X111250250Y-67566554D01*
X111193187Y-67533608D01*
X111129539Y-67516554D01*
X111065892Y-67499500D01*
X104565892Y-67499500D01*
X104434108Y-67499500D01*
X104306812Y-67533608D01*
X104192686Y-67599500D01*
X104192683Y-67599502D01*
X104099502Y-67692683D01*
X104099500Y-67692686D01*
X104033608Y-67806812D01*
X103999500Y-67934108D01*
X78500500Y-67934108D01*
X78500500Y-59840316D01*
X90749500Y-59840316D01*
X90749500Y-60159683D01*
X90780803Y-60477522D01*
X90843109Y-60790754D01*
X90935820Y-61096382D01*
X91058040Y-61391446D01*
X91058042Y-61391451D01*
X91208584Y-61673094D01*
X91208601Y-61673122D01*
X91386012Y-61938638D01*
X91386029Y-61938661D01*
X91588638Y-62185540D01*
X91814459Y-62411361D01*
X91814464Y-62411365D01*
X91814465Y-62411366D01*
X92061344Y-62613975D01*
X92061351Y-62613980D01*
X92061361Y-62613987D01*
X92326877Y-62791398D01*
X92326882Y-62791401D01*
X92326894Y-62791409D01*
X92326903Y-62791413D01*
X92326905Y-62791415D01*
X92608548Y-62941957D01*
X92608550Y-62941957D01*
X92608556Y-62941961D01*
X92903619Y-63064180D01*
X93209240Y-63156889D01*
X93522477Y-63219196D01*
X93840313Y-63250500D01*
X93840316Y-63250500D01*
X94159684Y-63250500D01*
X94159687Y-63250500D01*
X94477523Y-63219196D01*
X94790760Y-63156889D01*
X95096381Y-63064180D01*
X95128045Y-63051063D01*
X95197514Y-63043594D01*
X95259994Y-63074868D01*
X95295648Y-63134956D01*
X95299500Y-63165624D01*
X95299500Y-66265891D01*
X95333608Y-66393187D01*
X95366554Y-66450250D01*
X95399500Y-66507314D01*
X95492686Y-66600500D01*
X95606814Y-66666392D01*
X95734108Y-66700500D01*
X95734110Y-66700500D01*
X119265890Y-66700500D01*
X119265892Y-66700500D01*
X119393186Y-66666392D01*
X119507314Y-66600500D01*
X119600500Y-66507314D01*
X119666392Y-66393186D01*
X119700500Y-66265892D01*
X119700500Y-63082781D01*
X119720185Y-63015742D01*
X119772989Y-62969987D01*
X119842147Y-62960043D01*
X119871946Y-62968218D01*
X120103619Y-63064180D01*
X120409240Y-63156889D01*
X120722477Y-63219196D01*
X121040313Y-63250500D01*
X121040316Y-63250500D01*
X121359684Y-63250500D01*
X121359687Y-63250500D01*
X121677523Y-63219196D01*
X121990760Y-63156889D01*
X122296381Y-63064180D01*
X122591444Y-62941961D01*
X122873106Y-62791409D01*
X123138656Y-62613975D01*
X123385535Y-62411366D01*
X123611366Y-62185535D01*
X123813975Y-61938656D01*
X123991409Y-61673106D01*
X124141961Y-61391444D01*
X124264180Y-61096381D01*
X124356889Y-60790760D01*
X124419196Y-60477523D01*
X124450500Y-60159687D01*
X124450500Y-59840313D01*
X124419196Y-59522477D01*
X124356889Y-59209240D01*
X124264180Y-58903619D01*
X124141961Y-58608556D01*
X123991409Y-58326894D01*
X123991398Y-58326877D01*
X123813987Y-58061361D01*
X123813980Y-58061351D01*
X123813975Y-58061344D01*
X123611366Y-57814465D01*
X123611365Y-57814464D01*
X123611361Y-57814459D01*
X123385540Y-57588638D01*
X123138661Y-57386029D01*
X123138638Y-57386012D01*
X122873122Y-57208601D01*
X122873094Y-57208584D01*
X122591451Y-57058042D01*
X122591446Y-57058040D01*
X122296382Y-56935820D01*
X121990754Y-56843109D01*
X121677521Y-56780803D01*
X121677522Y-56780803D01*
X121438141Y-56757227D01*
X121359687Y-56749500D01*
X121040313Y-56749500D01*
X120967822Y-56756639D01*
X120722477Y-56780803D01*
X120409245Y-56843109D01*
X120103617Y-56935820D01*
X119871953Y-57031779D01*
X119802483Y-57039248D01*
X119740004Y-57007973D01*
X119704352Y-56947884D01*
X119700500Y-56917218D01*
X119700500Y-53734110D01*
X119700500Y-53734108D01*
X119666392Y-53606814D01*
X119600500Y-53492686D01*
X119507314Y-53399500D01*
X119450250Y-53366554D01*
X119393187Y-53333608D01*
X119329539Y-53316554D01*
X119265892Y-53299500D01*
X95865892Y-53299500D01*
X95734108Y-53299500D01*
X95606812Y-53333608D01*
X95492686Y-53399500D01*
X95492683Y-53399502D01*
X95399502Y-53492683D01*
X95399500Y-53492686D01*
X95333608Y-53606812D01*
X95299500Y-53734108D01*
X95299500Y-56834375D01*
X95279815Y-56901414D01*
X95227011Y-56947169D01*
X95157853Y-56957113D01*
X95128049Y-56948937D01*
X95096381Y-56935820D01*
X94790754Y-56843109D01*
X94477521Y-56780803D01*
X94477522Y-56780803D01*
X94238141Y-56757227D01*
X94159687Y-56749500D01*
X93840313Y-56749500D01*
X93767822Y-56756639D01*
X93522477Y-56780803D01*
X93209245Y-56843109D01*
X92903617Y-56935820D01*
X92608553Y-57058040D01*
X92608548Y-57058042D01*
X92326905Y-57208584D01*
X92326877Y-57208601D01*
X92061361Y-57386012D01*
X92061338Y-57386029D01*
X91814459Y-57588638D01*
X91588638Y-57814459D01*
X91386029Y-58061338D01*
X91386012Y-58061361D01*
X91208601Y-58326877D01*
X91208584Y-58326905D01*
X91058042Y-58608548D01*
X91058040Y-58608553D01*
X90935820Y-58903617D01*
X90843109Y-59209245D01*
X90780803Y-59522477D01*
X90749500Y-59840316D01*
X78500500Y-59840316D01*
X78500500Y-52409448D01*
X80079500Y-52409448D01*
X80079500Y-52590551D01*
X80107829Y-52769410D01*
X80163787Y-52941636D01*
X80163788Y-52941639D01*
X80246006Y-53102997D01*
X80352441Y-53249494D01*
X80352445Y-53249499D01*
X80480500Y-53377554D01*
X80480505Y-53377558D01*
X80608287Y-53470396D01*
X80627006Y-53483996D01*
X80732484Y-53537740D01*
X80788360Y-53566211D01*
X80788363Y-53566212D01*
X80874476Y-53594191D01*
X80960591Y-53622171D01*
X81043429Y-53635291D01*
X81139449Y-53650500D01*
X81139454Y-53650500D01*
X81320551Y-53650500D01*
X81407259Y-53636765D01*
X81499409Y-53622171D01*
X81671639Y-53566211D01*
X81832994Y-53483996D01*
X81979501Y-53377553D01*
X82107553Y-53249501D01*
X82145681Y-53197021D01*
X82201011Y-53154355D01*
X82270624Y-53148375D01*
X82332419Y-53180981D01*
X82366777Y-53241819D01*
X82370000Y-53269906D01*
X82370000Y-53447844D01*
X82376401Y-53507372D01*
X82376403Y-53507379D01*
X82426645Y-53642086D01*
X82426649Y-53642093D01*
X82512809Y-53757187D01*
X82512812Y-53757190D01*
X82627906Y-53843350D01*
X82627913Y-53843354D01*
X82762620Y-53893596D01*
X82762627Y-53893598D01*
X82822155Y-53899999D01*
X82822172Y-53900000D01*
X83520000Y-53900000D01*
X83520000Y-52875277D01*
X83596306Y-52919333D01*
X83710756Y-52950000D01*
X83829244Y-52950000D01*
X83943694Y-52919333D01*
X84020000Y-52875277D01*
X84020000Y-53900000D01*
X84717828Y-53900000D01*
X84717844Y-53899999D01*
X84777372Y-53893598D01*
X84777379Y-53893596D01*
X84912086Y-53843354D01*
X84912093Y-53843350D01*
X85027187Y-53757190D01*
X85027190Y-53757187D01*
X85113350Y-53642093D01*
X85113354Y-53642086D01*
X85163596Y-53507379D01*
X85163598Y-53507372D01*
X85169999Y-53447844D01*
X85170000Y-53447827D01*
X85170000Y-52750000D01*
X84145278Y-52750000D01*
X84189333Y-52673694D01*
X84220000Y-52559244D01*
X84220000Y-52440756D01*
X84189333Y-52326306D01*
X84145278Y-52250000D01*
X85170000Y-52250000D01*
X85170000Y-51552172D01*
X85169999Y-51552155D01*
X85163598Y-51492627D01*
X85163596Y-51492620D01*
X85113354Y-51357913D01*
X85113350Y-51357906D01*
X85027190Y-51242812D01*
X85027187Y-51242809D01*
X84912093Y-51156649D01*
X84912086Y-51156645D01*
X84777379Y-51106403D01*
X84777372Y-51106401D01*
X84717844Y-51100000D01*
X84020000Y-51100000D01*
X84020000Y-52124722D01*
X83943694Y-52080667D01*
X83829244Y-52050000D01*
X83710756Y-52050000D01*
X83596306Y-52080667D01*
X83520000Y-52124722D01*
X83520000Y-51100000D01*
X82822155Y-51100000D01*
X82762627Y-51106401D01*
X82762620Y-51106403D01*
X82627913Y-51156645D01*
X82627906Y-51156649D01*
X82512812Y-51242809D01*
X82512809Y-51242812D01*
X82426649Y-51357906D01*
X82426645Y-51357913D01*
X82376403Y-51492620D01*
X82376401Y-51492627D01*
X82370000Y-51552155D01*
X82370000Y-51730093D01*
X82350315Y-51797132D01*
X82297511Y-51842887D01*
X82228353Y-51852831D01*
X82164797Y-51823806D01*
X82145682Y-51802978D01*
X82107558Y-51750505D01*
X82107554Y-51750500D01*
X81979499Y-51622445D01*
X81979494Y-51622441D01*
X81832997Y-51516006D01*
X81832996Y-51516005D01*
X81832994Y-51516004D01*
X81781300Y-51489664D01*
X81671639Y-51433788D01*
X81671636Y-51433787D01*
X81499410Y-51377829D01*
X81320551Y-51349500D01*
X81320546Y-51349500D01*
X81139454Y-51349500D01*
X81139449Y-51349500D01*
X80960589Y-51377829D01*
X80788363Y-51433787D01*
X80788360Y-51433788D01*
X80627002Y-51516006D01*
X80480505Y-51622441D01*
X80480500Y-51622445D01*
X80352445Y-51750500D01*
X80352441Y-51750505D01*
X80246006Y-51897002D01*
X80163788Y-52058360D01*
X80163787Y-52058363D01*
X80107829Y-52230589D01*
X80079500Y-52409448D01*
X78500500Y-52409448D01*
X78500500Y-48503750D01*
X78500726Y-48496263D01*
X78518271Y-48206205D01*
X78520076Y-48191340D01*
X78571780Y-47909201D01*
X78575364Y-47894663D01*
X78615144Y-47767007D01*
X78660681Y-47620871D01*
X78665998Y-47606841D01*
X78783731Y-47345249D01*
X78790676Y-47332016D01*
X78939080Y-47086526D01*
X78947567Y-47074230D01*
X79124480Y-46848417D01*
X79134395Y-46837226D01*
X79337226Y-46634395D01*
X79348417Y-46624480D01*
X79574230Y-46447567D01*
X79586526Y-46439080D01*
X79832016Y-46290676D01*
X79845249Y-46283731D01*
X80106841Y-46165998D01*
X80120822Y-46160696D01*
X80394668Y-46075362D01*
X80409197Y-46071780D01*
X80691344Y-46020075D01*
X80706201Y-46018271D01*
X80996264Y-46000726D01*
X81003751Y-46000500D01*
X81065892Y-46000500D01*
X128757298Y-46000500D01*
X128824337Y-46020185D01*
G37*
%TD.AperFunction*%
%TD*%
M02*
