%TF.GenerationSoftware,KiCad,Pcbnew,9.0.6*%
%TF.CreationDate,2026-01-09T17:56:28+07:00*%
%TF.ProjectId,BluetoothCar,426c7565-746f-46f7-9468-4361722e6b69,rev?*%
%TF.SameCoordinates,Original*%
%TF.FileFunction,Profile,NP*%
%FSLAX46Y46*%
G04 Gerber Fmt 4.6, Leading zero omitted, Abs format (unit mm)*
G04 Created by KiCad (PCBNEW 9.0.6) date 2026-01-09 17:56:28*
%MOMM*%
%LPD*%
G01*
G04 APERTURE LIST*
%TA.AperFunction,Profile*%
%ADD10C,0.050000*%
%TD*%
G04 APERTURE END LIST*
D10*
X95800000Y-53800000D02*
X119200000Y-53800000D01*
X119200000Y-66200000D01*
X95800000Y-66200000D01*
X95800000Y-53800000D01*
X155000000Y-158000000D02*
X155000000Y-85000000D01*
X78000000Y-48500000D02*
X78000000Y-79500000D01*
X143000000Y-45500000D02*
X81000000Y-45500000D01*
X143000000Y-45500000D02*
G75*
G02*
X146000000Y-48500000I0J-3000000D01*
G01*
X146000000Y-79000000D02*
X146000000Y-48500000D01*
X73500000Y-161000000D02*
G75*
G02*
X70500000Y-158000000I0J3000000D01*
G01*
X73500000Y-161000000D02*
X152000000Y-161000000D01*
X78000000Y-48500000D02*
G75*
G02*
X81000000Y-45500000I3000000J0D01*
G01*
X152000000Y-82000000D02*
X149000000Y-82000000D01*
X155000000Y-158000000D02*
G75*
G02*
X152000000Y-161000000I-3000000J0D01*
G01*
X70500000Y-85500000D02*
G75*
G02*
X73500000Y-82500000I3000000J0D01*
G01*
X75000000Y-82500000D02*
X73500000Y-82500000D01*
X78000000Y-79500000D02*
G75*
G02*
X75000000Y-82500000I-3000000J0D01*
G01*
X149000000Y-82000000D02*
G75*
G02*
X146000000Y-79000000I0J3000000D01*
G01*
X70500000Y-85500000D02*
X70500000Y-158000000D01*
X104500000Y-68000000D02*
X111000000Y-68000000D01*
X111000000Y-69500000D01*
X104500000Y-69500000D01*
X104500000Y-68000000D01*
X152000000Y-82000000D02*
G75*
G02*
X155000000Y-85000000I0J-3000000D01*
G01*
M02*
