%TF.GenerationSoftware,KiCad,Pcbnew,9.0.6*%
%TF.CreationDate,2026-01-09T17:56:28+07:00*%
%TF.ProjectId,BluetoothCar,426c7565-746f-46f7-9468-4361722e6b69,rev?*%
%TF.SameCoordinates,Original*%
%TF.FileFunction,Soldermask,Top*%
%TF.FilePolarity,Negative*%
%FSLAX46Y46*%
G04 Gerber Fmt 4.6, Leading zero omitted, Abs format (unit mm)*
G04 Created by KiCad (PCBNEW 9.0.6) date 2026-01-09 17:56:28*
%MOMM*%
%LPD*%
G01*
G04 APERTURE LIST*
G04 Aperture macros list*
%AMRoundRect*
0 Rectangle with rounded corners*
0 $1 Rounding radius*
0 $2 $3 $4 $5 $6 $7 $8 $9 X,Y pos of 4 corners*
0 Add a 4 corners polygon primitive as box body*
4,1,4,$2,$3,$4,$5,$6,$7,$8,$9,$2,$3,0*
0 Add four circle primitives for the rounded corners*
1,1,$1+$1,$2,$3*
1,1,$1+$1,$4,$5*
1,1,$1+$1,$6,$7*
1,1,$1+$1,$8,$9*
0 Add four rect primitives between the rounded corners*
20,1,$1+$1,$2,$3,$4,$5,0*
20,1,$1+$1,$4,$5,$6,$7,0*
20,1,$1+$1,$6,$7,$8,$9,0*
20,1,$1+$1,$8,$9,$2,$3,0*%
G04 Aperture macros list end*
%ADD10C,7.600000*%
%ADD11RoundRect,0.250000X0.600000X0.725000X-0.600000X0.725000X-0.600000X-0.725000X0.600000X-0.725000X0*%
%ADD12O,1.700000X1.950000*%
%ADD13C,6.000000*%
%ADD14RoundRect,0.250000X-0.262500X-0.450000X0.262500X-0.450000X0.262500X0.450000X-0.262500X0.450000X0*%
%ADD15R,1.700000X1.700000*%
%ADD16C,1.700000*%
%ADD17R,1.800000X1.800000*%
%ADD18C,1.800000*%
%ADD19RoundRect,0.250000X0.450000X-0.262500X0.450000X0.262500X-0.450000X0.262500X-0.450000X-0.262500X0*%
%ADD20RoundRect,0.250000X-0.725000X0.600000X-0.725000X-0.600000X0.725000X-0.600000X0.725000X0.600000X0*%
%ADD21O,1.950000X1.700000*%
%ADD22R,4.600000X2.000000*%
%ADD23O,4.200000X2.000000*%
%ADD24O,2.000000X4.200000*%
%ADD25RoundRect,0.250000X0.262500X0.450000X-0.262500X0.450000X-0.262500X-0.450000X0.262500X-0.450000X0*%
%ADD26O,1.700000X2.000000*%
G04 APERTURE END LIST*
D10*
%TO.C,H8*%
X136500000Y-69600000D03*
%TD*%
%TO.C,H7*%
X78500000Y-126400000D03*
%TD*%
D11*
%TO.C,J5*%
X111760000Y-75025000D03*
D12*
X109260000Y-75025000D03*
X106760000Y-75025000D03*
%TD*%
D13*
%TO.C,H4*%
X128100000Y-153100000D03*
%TD*%
D14*
%TO.C,R4*%
X141175000Y-55000000D03*
X143000000Y-55000000D03*
%TD*%
D15*
%TO.C,J3*%
X130000000Y-47460000D03*
D16*
X130000000Y-50000000D03*
X130000000Y-52540000D03*
X130000000Y-55080000D03*
%TD*%
D17*
%TO.C,D2*%
X143270000Y-52500000D03*
D18*
X140730000Y-52500000D03*
%TD*%
D19*
%TO.C,R2*%
X140760000Y-94912500D03*
X140760000Y-93087500D03*
%TD*%
D13*
%TO.C,H3*%
X90000000Y-153100000D03*
%TD*%
%TO.C,H6*%
X121200000Y-60000000D03*
%TD*%
D14*
%TO.C,R3*%
X81500000Y-55000000D03*
X83325000Y-55000000D03*
%TD*%
D17*
%TO.C,D3*%
X81230000Y-148165000D03*
D18*
X83770000Y-148165000D03*
%TD*%
D20*
%TO.C,J4*%
X76000000Y-88500000D03*
D21*
X76000000Y-91000000D03*
X76000000Y-93500000D03*
X76000000Y-96000000D03*
X76000000Y-98500000D03*
X76000000Y-101000000D03*
%TD*%
D22*
%TO.C,J2*%
X113000000Y-140845000D03*
D23*
X113000000Y-147145000D03*
D24*
X117800000Y-143745000D03*
%TD*%
D13*
%TO.C,H2*%
X128100000Y-115000000D03*
%TD*%
%TO.C,H1*%
X90000000Y-115000000D03*
%TD*%
D19*
%TO.C,R1*%
X140760000Y-99825000D03*
X140760000Y-98000000D03*
%TD*%
D17*
%TO.C,D4*%
X140730000Y-148165000D03*
D18*
X143270000Y-148165000D03*
%TD*%
D13*
%TO.C,H5*%
X94000000Y-60000000D03*
%TD*%
D20*
%TO.C,J6*%
X148260000Y-94000000D03*
D21*
X148260000Y-96500000D03*
X148260000Y-99000000D03*
%TD*%
D25*
%TO.C,R6*%
X142912500Y-145845000D03*
X141087500Y-145845000D03*
%TD*%
D17*
%TO.C,D1*%
X83770000Y-52500000D03*
D18*
X81230000Y-52500000D03*
%TD*%
D25*
%TO.C,R5*%
X83412500Y-145500000D03*
X81587500Y-145500000D03*
%TD*%
D15*
%TO.C,U1*%
X89560000Y-108400000D03*
D26*
X92100000Y-108400000D03*
X94640000Y-108400000D03*
X97180000Y-108400000D03*
X99720000Y-108400000D03*
X102260000Y-108400000D03*
X104800000Y-108400000D03*
X107340000Y-108400000D03*
X109880000Y-108400000D03*
X112420000Y-108400000D03*
X114960000Y-108400000D03*
X117500000Y-108400000D03*
X120040000Y-108400000D03*
X122580000Y-108400000D03*
X125120000Y-108400000D03*
X127660000Y-108400000D03*
X130200000Y-108400000D03*
X132740000Y-108400000D03*
X135280000Y-108400000D03*
X89560000Y-83000000D03*
X92100000Y-83000000D03*
X94640000Y-83000000D03*
X97180000Y-83000000D03*
X99720000Y-83000000D03*
X102260000Y-83000000D03*
X104800000Y-83000000D03*
X107340000Y-83000000D03*
X109880000Y-83000000D03*
X112420000Y-83000000D03*
X114960000Y-83000000D03*
X117500000Y-83000000D03*
X120040000Y-83000000D03*
X122580000Y-83000000D03*
X125120000Y-83000000D03*
X127660000Y-83000000D03*
X130200000Y-83000000D03*
X132740000Y-83000000D03*
X135280000Y-83000000D03*
%TD*%
M02*
