M48
; DRILL file {KiCad 9.0.6} date 2026-01-09T17:56:32+0700
; FORMAT={-:-/ absolute / metric / decimal}
; #@! TF.CreationDate,2026-01-09T17:56:32+07:00
; #@! TF.GenerationSoftware,Kicad,Pcbnew,9.0.6
; #@! TF.FileFunction,Plated,1,2,PTH
FMAT,2
METRIC
; #@! TA.AperFunction,Plated,PTH,ViaDrill
T1C0.600
; #@! TA.AperFunction,Plated,PTH,ComponentDrill
T2C0.900
; #@! TA.AperFunction,Plated,PTH,ComponentDrill
T3C0.950
; #@! TA.AperFunction,Plated,PTH,ComponentDrill
T4C1.000
; #@! TA.AperFunction,Plated,PTH,ComponentDrill
T5C1.040
; #@! TA.AperFunction,Plated,PTH,ComponentDrill
T6C3.000
; #@! TA.AperFunction,Plated,PTH,ComponentDrill
T7C4.300
%
G90
G05
T1
X122.0Y-98.0
X139.5Y-146.0
T2
X81.23Y-52.5
X81.23Y-148.165
X83.77Y-52.5
X83.77Y-148.165
X140.73Y-52.5
X140.73Y-148.165
X143.27Y-52.5
X143.27Y-148.165
T3
X76.0Y-88.5
X76.0Y-91.0
X76.0Y-93.5
X76.0Y-96.0
X76.0Y-98.5
X76.0Y-101.0
X106.76Y-75.025
X109.26Y-75.025
X111.76Y-75.025
X148.26Y-94.0
X148.26Y-96.5
X148.26Y-99.0
T4
X130.0Y-47.46
X130.0Y-50.0
X130.0Y-52.54
X130.0Y-55.08
T5
X89.56Y-83.0
X89.56Y-108.4
X92.1Y-83.0
X92.1Y-108.4
X94.64Y-83.0
X94.64Y-108.4
X97.18Y-83.0
X97.18Y-108.4
X99.72Y-83.0
X99.72Y-108.4
X102.26Y-83.0
X102.26Y-108.4
X104.8Y-83.0
X104.8Y-108.4
X107.34Y-83.0
X107.34Y-108.4
X109.88Y-83.0
X109.88Y-108.4
X112.42Y-83.0
X112.42Y-108.4
X114.96Y-83.0
X114.96Y-108.4
X117.5Y-83.0
X117.5Y-108.4
X120.04Y-83.0
X120.04Y-108.4
X122.58Y-83.0
X122.58Y-108.4
X125.12Y-83.0
X125.12Y-108.4
X127.66Y-83.0
X127.66Y-108.4
X130.2Y-83.0
X130.2Y-108.4
X132.74Y-83.0
X132.74Y-108.4
X135.28Y-83.0
X135.28Y-108.4
T6
X90.0Y-115.0
X90.0Y-153.1
X94.0Y-60.0
X121.2Y-60.0
X128.1Y-115.0
X128.1Y-153.1
T7
X78.5Y-126.4
X136.5Y-69.6
T4
G00X111.7Y-140.845
M15
G01X114.3Y-140.845
M16
G05
G00X111.9Y-147.145
M15
G01X114.1Y-147.145
M16
G05
G00X117.8Y-142.645
M15
G01X117.8Y-144.845
M16
G05
M30
