%TF.GenerationSoftware,KiCad,Pcbnew,9.0.6*%
%TF.CreationDate,2026-01-26T22:39:46+07:00*%
%TF.ProjectId,BluetoothCar,426c7565-746f-46f7-9468-4361722e6b69,rev?*%
%TF.SameCoordinates,Original*%
%TF.FileFunction,Soldermask,Bot*%
%TF.FilePolarity,Negative*%
%FSLAX46Y46*%
G04 Gerber Fmt 4.6, Leading zero omitted, Abs format (unit mm)*
G04 Created by KiCad (PCBNEW 9.0.6) date 2026-01-26 22:39:46*
%MOMM*%
%LPD*%
G01*
G04 APERTURE LIST*
G04 Aperture macros list*
%AMRoundRect*
0 Rectangle with rounded corners*
0 $1 Rounding radius*
0 $2 $3 $4 $5 $6 $7 $8 $9 X,Y pos of 4 corners*
0 Add a 4 corners polygon primitive as box body*
4,1,4,$2,$3,$4,$5,$6,$7,$8,$9,$2,$3,0*
0 Add four circle primitives for the rounded corners*
1,1,$1+$1,$2,$3*
1,1,$1+$1,$4,$5*
1,1,$1+$1,$6,$7*
1,1,$1+$1,$8,$9*
0 Add four rect primitives between the rounded corners*
20,1,$1+$1,$2,$3,$4,$5,0*
20,1,$1+$1,$4,$5,$6,$7,0*
20,1,$1+$1,$6,$7,$8,$9,0*
20,1,$1+$1,$8,$9,$2,$3,0*%
G04 Aperture macros list end*
%ADD10RoundRect,0.250000X0.600000X0.725000X-0.600000X0.725000X-0.600000X-0.725000X0.600000X-0.725000X0*%
%ADD11O,1.700000X1.950000*%
%ADD12C,6.000000*%
%ADD13C,7.600000*%
%ADD14R,1.700000X1.700000*%
%ADD15C,1.700000*%
%ADD16R,1.800000X1.800000*%
%ADD17C,1.800000*%
%ADD18RoundRect,0.250000X-0.725000X0.600000X-0.725000X-0.600000X0.725000X-0.600000X0.725000X0.600000X0*%
%ADD19O,1.950000X1.700000*%
%ADD20R,4.600000X2.000000*%
%ADD21O,4.200000X2.000000*%
%ADD22O,2.000000X4.200000*%
%ADD23O,1.700000X2.000000*%
G04 APERTURE END LIST*
D10*
%TO.C,J5*%
X110200000Y-77100000D03*
D11*
X107700000Y-77100000D03*
X105200000Y-77100000D03*
%TD*%
D12*
%TO.C,H4*%
X129100000Y-152955000D03*
%TD*%
D13*
%TO.C,H7*%
X95200000Y-125400000D03*
%TD*%
D14*
%TO.C,J3*%
X119700000Y-69860000D03*
D15*
X119700000Y-72400000D03*
X119700000Y-74940000D03*
X119700000Y-77480000D03*
%TD*%
D16*
%TO.C,D2*%
X130782500Y-74700000D03*
D17*
X128242500Y-74700000D03*
%TD*%
D12*
%TO.C,H3*%
X91000000Y-152955000D03*
%TD*%
%TO.C,H6*%
X125300000Y-60500000D03*
%TD*%
D16*
%TO.C,D3*%
X90830000Y-136620000D03*
D17*
X93370000Y-136620000D03*
%TD*%
D18*
%TO.C,J4*%
X77400000Y-90100000D03*
D19*
X77400000Y-92600000D03*
X77400000Y-95100000D03*
X77400000Y-97600000D03*
X77400000Y-100100000D03*
X77400000Y-102600000D03*
%TD*%
D20*
%TO.C,J2*%
X114000000Y-140700000D03*
D21*
X114000000Y-147000000D03*
D22*
X118800000Y-143600000D03*
%TD*%
D12*
%TO.C,H2*%
X129100000Y-114855000D03*
%TD*%
%TO.C,H1*%
X91000000Y-114855000D03*
%TD*%
D16*
%TO.C,D4*%
X124530000Y-136720000D03*
D17*
X127070000Y-136720000D03*
%TD*%
D12*
%TO.C,H5*%
X98100000Y-60500000D03*
%TD*%
D18*
%TO.C,J6*%
X143625000Y-93900000D03*
D19*
X143625000Y-96400000D03*
X143625000Y-98900000D03*
%TD*%
D16*
%TO.C,D1*%
X92045000Y-74700000D03*
D17*
X89505000Y-74700000D03*
%TD*%
D13*
%TO.C,H8*%
X133400000Y-66300000D03*
%TD*%
D14*
%TO.C,U1*%
X89560000Y-108400000D03*
D23*
X92100000Y-108400000D03*
X94640000Y-108400000D03*
X97180000Y-108400000D03*
X99720000Y-108400000D03*
X102260000Y-108400000D03*
X104800000Y-108400000D03*
X107340000Y-108400000D03*
X109880000Y-108400000D03*
X112420000Y-108400000D03*
X114960000Y-108400000D03*
X117500000Y-108400000D03*
X120040000Y-108400000D03*
X122580000Y-108400000D03*
X125120000Y-108400000D03*
X127660000Y-108400000D03*
X130200000Y-108400000D03*
X132740000Y-108400000D03*
X135280000Y-108400000D03*
X89560000Y-83000000D03*
X92100000Y-83000000D03*
X94640000Y-83000000D03*
X97180000Y-83000000D03*
X99720000Y-83000000D03*
X102260000Y-83000000D03*
X104800000Y-83000000D03*
X107340000Y-83000000D03*
X109880000Y-83000000D03*
X112420000Y-83000000D03*
X114960000Y-83000000D03*
X117500000Y-83000000D03*
X120040000Y-83000000D03*
X122580000Y-83000000D03*
X125120000Y-83000000D03*
X127660000Y-83000000D03*
X130200000Y-83000000D03*
X132740000Y-83000000D03*
X135280000Y-83000000D03*
%TD*%
M02*
